<?xml version="1.0" standalone="no"?>
<!DOCTYPE svg PUBLIC "-//W3C//DTD SVG 1.1//EN" "http://www.w3.org/Graphics/SVG/1.1/DTD/svg11.dtd" >
<svg xmlns="http://www.w3.org/2000/svg">
<metadata>
Created by FontPrep 20130207 at Mon Sep 28 06:40:52 2015
 By Nico Watine
Copyright (c) 2010 by Jonathan Hill. All rights reserved.
</metadata>
<defs>
<font id="f3f18877729637ca062da71f13f54fb5" horiz-adv-x='1024' >
  <font-face 
    font-family="Lintel-ExtraBold"
    font-weight="800"
    font-stretch="normal"
    units-per-em="2048"
    panose-1="0 0 9 0 0 0 0 0 0 0"
    ascent="1536"
    descent="-512"
    x-height="1026"
    cap-height="1434"
    bbox="-141 -477 2304 2171"
    underline-thickness="102"
    underline-position="-102"
    unicode-range="U+0020-FB02"
  />
<missing-glyph horiz-adv-x="1024" 
d="M102 1239v-1044l349 522zM164 102h696l-348 523zM573 717l349 -522v1044zM512 809l348 522h-696zM0 0v1434h1024v-1434h-1024z" />
    <glyph glyph-name="fi" unicode="fi" horiz-adv-x="1073" 
d="M96 0v1102q0 180 113 268t290 88t353 -63v-187q-117 37 -254 37t-186 -39t-52 -137v-43h619v-1026h-264v827h-355v-827h-264z" />
    <glyph glyph-name="fl" unicode="fl" horiz-adv-x="1069" 
d="M96 0v1102q0 123 56 205q104 151 337 151q232 0 409 -80q42 -18 60 -30l21 -15v-1333h-264v1208q-100 37 -193 37q-162 0 -162 -176v-43h213v-199h-213v-827h-264z" />
    <glyph glyph-name="f_f" unicode="ff" horiz-adv-x="1241" 
d="M713 1026v76q0 199 123 280q111 76 258 76q57 0 112 -10v-209q-40 6 -66 6t-42 -4q-119 -16 -121 -162v-53h213v-199h-213v-827h-264v827h-353v-827h-264v1102q0 266 245 338q65 18 129 18t120 -10v-209q-41 6 -67 6t-42 -4q-119 -16 -121 -164v-51h353z" />
    <glyph glyph-name="f_f_i" unicode="ffi" horiz-adv-x="1687" 
d="M713 1026v76q0 180 112 268q113 88 290 88t353 -63v-187q-116 37 -254 37t-188 -41t-49 -139v-39h618v-1026h-264v827h-354v-827h-264v827h-353v-827h-264v1102q0 266 245 338q65 18 129 18t120 -10v-209q-41 6 -67 6t-42 -4q-119 -16 -121 -170v-45h353z" />
    <glyph glyph-name="f_f_j" unicode="ffj" horiz-adv-x="1687" 
d="M713 1026v76q0 187 120 273q111 83 285 83t350 -63v-187q-118 37 -254 37t-186 -39t-51 -135v-45h618v-1079q0 -228 -202 -302q-78 -30 -134 -30q-57 0 -81 2v211q42 0 82 11q70 20 71 157v831h-354v-827h-264v827h-353v-827h-264v1102q0 266 245 338q65 18 129 18
t120 -10v-209q-41 6 -67 6t-42 -4q-119 -16 -121 -166v-49h353z" />
    <glyph glyph-name="f_f_l" unicode="ffl" horiz-adv-x="1685" 
d="M713 1026v76q0 123 56 205q103 151 336 151t409 -80q42 -18 61 -30l20 -13v-1335h-264v1208q-100 37 -192 37q-162 0 -162 -172v-47h213v-199h-213v-827h-264v827h-353v-827h-264v1102q0 266 245 338q65 18 129 18t120 -10v-209q-41 6 -67 6t-42 -4q-119 -16 -121 -168
v-47h353z" />
    <glyph glyph-name=".notdef" horiz-adv-x="1024" 
d="M102 1239v-1044l349 522zM164 102h696l-348 523zM573 717l349 -522v1044zM512 809l348 522h-696zM0 0v1434h1024v-1434h-1024z" />
    <glyph glyph-name=".null" horiz-adv-x="0" 
 />
    <glyph glyph-name="nonmarkingreturn" horiz-adv-x="681" 
 />
    <glyph glyph-name="space" unicode=" " horiz-adv-x="614" 
 />
    <glyph glyph-name="exclam" unicode="!" horiz-adv-x="503" 
d="M255 279q60 0 103 -43q43 -44 43 -104t-43 -103t-103 -43t-103 43t-43 103t43 104t103 43zM348 393h-186l-64 1043h314z" />
    <glyph glyph-name="quotedbl" unicode="&#x22;" horiz-adv-x="749" 
d="M645 936h-160l-43 537h246zM270 936h-161l-41 537h241z" />
    <glyph glyph-name="numbersign" unicode="#" horiz-adv-x="1581" 
d="M678 821l-55 -235h297l55 235h-297zM1513 1065v-244h-292l-56 -235h275v-242h-332l-80 -344h-246l80 344h-297l-80 -344h-247l81 344h-245v242h301l57 235h-285v244h342l84 369h248l-86 -369h295l88 369h246l-86 -369h235z" />
    <glyph glyph-name="dollar" unicode="$" horiz-adv-x="1165" 
d="M682 1597v-151q174 -28 274 -136t101 -284h-260q-2 190 -230 191q-135 0 -188 -77q-25 -36 -25 -81q0 -72 60 -114t229 -85q246 -59 351 -168q106 -109 106 -282q0 -172 -102 -290t-316 -140v-144h-199v150q-195 26 -307 142t-110 290h260q4 -195 262 -195q121 0 183 48
q63 48 63 136t-98 130q-46 19 -238 79q-307 94 -378 253q-32 71 -32 167q0 178 104 287t291 129v145h199z" />
    <glyph glyph-name="percent" unicode="%" horiz-adv-x="1634" 
d="M1225 457q-47 -1 -75 -13q-92 -40 -91 -139q0 -63 44 -108t106 -45t108 45q45 45 45 107t-45 108q-46 45 -92 45zM1210 641q140 0 238 -99t98 -237q0 -92 -46 -170t-123 -122t-168 -44t-169 45t-121 122q-44 77 -45 169q0 137 98 237t238 99zM575 1127q0 61 -45 107
t-107 46q-63 0 -107 -45t-44 -107t44 -108q44 -45 108 -45t107 45q44 45 44 107zM412 0h-271l1084 1434h270zM423 1464q138 0 237 -100t100 -236q0 -92 -46 -170t-123 -122t-167 -45q-139 0 -238 98q-98 98 -98 237t98 239q99 99 237 99z" />
    <glyph glyph-name="ampersand" unicode="&#x26;" horiz-adv-x="1339" 
d="M328 412q0 -100 60 -152q60 -53 162 -53t177 78l39 39l-274 315l-80 -61q-84 -66 -84 -166zM572 1257q-58 1 -95 -39t-37 -98t54 -119l69 -79l92 69q72 53 72 132t-64 115q-33 19 -91 19zM580 1468q180 0 281 -99t101 -247t-137 -254l-131 -98l238 -274l190 176l158 -183
l-190 -176l184 -207l-182 -155l-174 196l-54 -49q-131 -115 -323 -114q-298 0 -404 189q-51 93 -51 211q0 210 193 347l79 62l-65 75q-103 120 -103 262t104 240q106 98 286 98z" />
    <glyph glyph-name="quotesingle" unicode="'" horiz-adv-x="385" 
d="M270 936h-161l-41 537h241z" />
    <glyph glyph-name="parenleft" unicode="(" horiz-adv-x="530" 
d="M313 219q0 -100 32 -151t110 -97l-119 -215q-131 68 -200 178t-68 302v821q0 190 68 301q69 110 200 178l119 -215q-53 -31 -81 -59q-59 -58 -61 -187v-856z" />
    <glyph glyph-name="parenright" unicode=")" horiz-adv-x="530" 
d="M469 1057v-821q0 -132 -36 -228t-92 -151t-140 -101l-119 215q78 45 110 97t31 151v856q1 97 -31 149t-110 97l119 215q129 -70 199 -180t69 -299z" />
    <glyph glyph-name="asterisk" unicode="*" horiz-adv-x="956" 
d="M559 1171l248 101l59 -180l-254 -70l168 -205l-151 -110l-144 219l-143 -224l-152 111l162 203l-256 71l60 179l241 -99l-14 267h188z" />
    <glyph glyph-name="plus" unicode="+" horiz-adv-x="1060" 
d="M647 717h311v-234h-311v-311h-235v311h-310v234h310v311h235v-311z" />
    <glyph glyph-name="comma" unicode="," horiz-adv-x="425" 
d="M70 126q0 64 43 108t103 44t104 -44t45 -92q0 -48 -19 -81l-117 -249h-174l68 208q-53 42 -53 106z" />
    <glyph glyph-name="hyphen" unicode="-" horiz-adv-x="1052" 
d="M963 489h-867v242h867v-242z" />
    <glyph glyph-name="period" unicode="." horiz-adv-x="421" 
d="M214 279q60 -1 103 -45t43 -104t-43 -103t-93 -43t-84 19q-72 40 -72 128q0 59 43 103t103 45z" />
    <glyph glyph-name="slash" unicode="/" horiz-adv-x="915" 
d="M344 0h-262l498 1434h262z" />
    <glyph glyph-name="zero" unicode="0" horiz-adv-x="1163" 
d="M369 995v-569q0 -109 60 -157t137 -48q77 1 122 19t76 65t31 121v567q0 225 -211 226q-215 0 -215 -224zM106 418v586q0 218 132 338t351 120q220 0 344 -126t124 -335v-583q0 -322 -307 -415q-140 -42 -290 -12t-252 136t-102 291z" />
    <glyph glyph-name="one" unicode="1" horiz-adv-x="776" 
d="M643 0h-250v1044q-80 -93 -278 -108l-62 252q121 10 227 74t146 172h217v-1434z" />
    <glyph glyph-name="two" unicode="2" horiz-adv-x="1040" 
d="M548 1456q185 0 306 -121t121 -311t-139 -344l-365 -442h504v-238h-895v178l512 615q119 143 119 249q0 76 -47 123t-129 47t-127 -45t-76 -145l-258 72q61 184 175 273t299 89z" />
    <glyph glyph-name="three" unicode="3" horiz-adv-x="1064" 
d="M934 1049q0 -103 -50 -179t-120 -116q82 -45 142 -129t61 -209q0 -207 -132 -323t-347 -116t-363 153q-35 36 -59 73l204 131q32 -49 94 -82t126 -33q125 0 184 100q27 47 26 103q0 86 -67 149q-68 63 -162 64h-90v219h90q86 0 144 53q59 53 59 117q1 118 -86 169
q-42 24 -100 24t-99 -39t-57 -78l-234 94q32 81 137 173q106 93 277 92q170 -1 296 -113t126 -297z" />
    <glyph glyph-name="four" unicode="4" horiz-adv-x="1083" 
d="M633 565v471l-311 -471h311zM897 565h107v-231h-107v-334h-264v334h-574v231l557 869h281v-869z" />
    <glyph glyph-name="five" unicode="5" horiz-adv-x="1091" 
d="M891 1190h-432l-31 -254h102q173 -8 321 -123q71 -55 114 -145t43 -199q0 -223 -144 -357t-364 -135q-154 0 -266 72t-164 156l204 131q31 -49 96 -82t130 -33q106 0 174 68t68 167t-67 168t-175 68h-326l90 742h627v-244z" />
    <glyph glyph-name="six" unicode="6" horiz-adv-x="1206" 
d="M610 688q-104 0 -165 -65q-60 -66 -60 -167t61 -169q62 -68 164 -68t164 67t62 151q0 85 -27 137t-79 83t-120 31zM625 932q201 0 338 -138t137 -339t-142 -339t-349 -138q-206 0 -347 138t-141 339v473q1 150 65 268t188 190q124 70 285 70q92 0 203 -38t197 -113
l-158 -183q-115 92 -251 92t-209 -80t-72 -188v-125q98 111 256 111z" />
    <glyph glyph-name="seven" unicode="7" horiz-adv-x="1009" 
d="M61 1190v244h875v-172l-610 -1262h-258l575 1190h-582z" />
    <glyph glyph-name="eight" unicode="8" horiz-adv-x="1138" 
d="M772 436q0 70 -60 128t-144 59q-83 -1 -143 -59t-60 -142t59 -143q58 -59 130 -59t119 26q99 58 99 190zM393 1039q0 -75 53 -125t124 -50t123 49t52 111t-22 104q-51 89 -167 89q-62 1 -112 -51q-51 -52 -51 -127zM570 1458q183 0 310 -111q126 -112 126 -298
q0 -103 -50 -179t-118 -116q80 -45 140 -129t60 -209q0 -207 -132 -323t-336 -116t-338 116t-134 323q0 127 60 211t145 127q-68 42 -119 116t-51 179q0 185 127 297t310 112z" />
    <glyph glyph-name="nine" unicode="9" horiz-adv-x="1206" 
d="M598 1212q-102 0 -164 -65q-61 -66 -61 -160t38 -147q60 -92 176 -93q115 -2 175 64q59 66 60 167t-60 168q-62 66 -164 66zM840 487v125q-98 -111 -256 -110q-203 0 -339 138t-136 339q0 131 64 241q65 110 177 173t248 63q205 0 347 -138t142 -339v-473
q0 -227 -148 -378t-390 -151q-92 0 -182 31q-91 31 -137 61t-83 60l160 182q112 -89 249 -91q138 -2 211 78t73 189z" />
    <glyph glyph-name="colon" unicode=":" horiz-adv-x="421" 
d="M214 279q60 -1 103 -45t43 -104t-43 -103t-103 -43t-104 44t-44 103t44 103t104 45zM360 804q0 -56 -44 -99t-103 -43t-103 43t-44 103t44 103t110 43t112 -59q28 -35 28 -91z" />
    <glyph glyph-name="semicolon" unicode=";" horiz-adv-x="423" 
d="M70 126q0 64 43 108t103 44t103 -44t43 -92t-16 -81l-119 -249h-172l66 208q-51 42 -51 106zM362 804q0 -56 -43 -99t-103 -43t-104 43t-44 103t44 103t99 43t82 -20q25 -20 47 -47t22 -83z" />
    <glyph glyph-name="less" unicode="&#x3c;" horiz-adv-x="917" 
d="M817 1184l-448 -449l448 -448l-133 -133l-582 581l582 582z" />
    <glyph glyph-name="equal" unicode="=" horiz-adv-x="1060" 
d="M958 260h-856v236h856v-236zM958 709h-856v233h856v-233z" />
    <glyph glyph-name="greater" unicode="&#x3e;" horiz-adv-x="917" 
d="M817 735l-581 -581l-134 133l449 448l-449 449l134 133z" />
    <glyph glyph-name="question" unicode="?" horiz-adv-x="1056" 
d="M531 279q59 -1 103 -45t44 -104t-43 -103t-103 -43t-105 43q-44 43 -44 103t44 104t104 45zM354 1032h-258q0 157 99 282q49 62 136 100t199 38t199 -38q86 -38 136 -99q102 -124 102 -268t-97 -265q-30 -36 -96 -102t-90 -109t-25 -106v-72h-258v78q0 97 32 150t50 78
t168 200q57 73 57 145t-48 122t-128 50t-129 -48t-49 -136z" />
    <glyph glyph-name="at" unicode="@" horiz-adv-x="1546" 
d="M637 707v-234q0 -115 121 -115q63 1 114 21v442q-57 21 -120 21t-89 -32t-26 -103zM96 303v580q0 283 186 435t500 150q313 0 491 -160q177 -161 177 -427v-174q0 -355 -329 -495q-89 -38 -195 -52l-11 92q-77 -51 -193 -51q-116 -1 -203 67t-87 205v246q0 143 90 212
t202 69t191 -35l5 32h155v-561q145 88 146 271v174q0 188 -112 288t-331 101q-453 0 -452 -387v-580q0 -195 132 -278q132 -82 318 -82q76 0 139 14v-203q-71 -12 -153 -12q-195 0 -354 78q-90 43 -159 105q-69 61 -111 159t-42 219z" />
    <glyph glyph-name="A" unicode="A" horiz-adv-x="1294" 
d="M498 612h297l-148 496zM1255 0h-286l-109 369h-426l-110 -369h-285l473 1434h270z" />
    <glyph glyph-name="B" unicode="B" horiz-adv-x="1222" 
d="M694 242q174 0 174 182q0 74 -45 122t-127 48h-286v-352h284zM662 840q174 0 174 180q0 74 -45 122t-127 48h-252v-350h250zM135 1434h594q175 0 279 -110t104 -267q0 -236 -151 -334q88 -45 136 -132t48 -192q1 -191 -101 -295t-284 -104h-625v1434z" />
    <glyph glyph-name="C" unicode="C" horiz-adv-x="1155" 
d="M109 483v478q0 240 144 371.5t376 131.5q172 0 290.5 -78.5t167.5 -214.5l-200 -92q-29 68 -93 105t-132 37q-126 0 -201.5 -66.5t-75.5 -193.5v-478q0 -127 75 -194.5t172 -67.5q194 0 255 141l200 -90q-49 -137 -167.5 -214.5t-290.5 -77.5q-231 0 -375.5 130.5
t-144.5 372.5z" />
    <glyph glyph-name="D" unicode="D" horiz-adv-x="1269" 
d="M410 1190v-946h260q111 0 163 45t52 166v477q0 166 -110 227q-56 31 -140 31h-225zM135 1434h500q250 0 388 -141.5t138 -360.5v-477q0 -125 -42 -217q-41 -92 -113 -143q-136 -95 -336 -95h-535v1434z" />
    <glyph glyph-name="E" unicode="E" horiz-adv-x="1142" 
d="M1063 1190h-653v-352h602v-244h-602v-350h663v-244h-938v1434h928v-244z" />
    <glyph glyph-name="F" unicode="F" horiz-adv-x="1112" 
d="M1044 1190h-634v-352h573v-244h-573v-594h-275v1434h909v-244z" />
    <glyph glyph-name="G" unicode="G" horiz-adv-x="1267" 
d="M109 461v500q-1 163 67 277q134 226 457 226q180 0 300 -77.5t169 -215.5l-217 -92q-39 74 -94.5 108t-167 34t-175 -61.5t-63.5 -198.5v-500q0 -127 68.5 -182.5t179.5 -55.5q236 0 235 238v112h-223v230h498v-803h-201l-10 121q-111 -141 -336 -141q-188 0 -330 114
q-70 56 -113.5 151t-43.5 216z" />
    <glyph glyph-name="H" unicode="H" horiz-adv-x="1312" 
d="M1178 0h-275v594h-493v-594h-275v1434h275v-596h493v596h275v-1434z" />
    <glyph glyph-name="I" unicode="I" horiz-adv-x="544" 
d="M410 0h-275v1434h275v-1434z" />
    <glyph glyph-name="J" unicode="J" horiz-adv-x="757" 
d="M657 1432v-983q0 -223 -134 -345t-353 -122q-61 0 -125 10v244q51 -10 98 -11q109 0 173.5 54.5t64.5 169.5v983h276z" />
    <glyph glyph-name="K" unicode="K" horiz-adv-x="1267" 
d="M410 0h-275v1434h275v-549l426 549h344l-490 -609l541 -825h-332l-381 608l-108 -133v-475z" />
    <glyph glyph-name="L" unicode="L" horiz-adv-x="991" 
d="M410 244h536v-244h-811v1434h275v-1190z" />
    <glyph glyph-name="M" unicode="M" horiz-adv-x="1540" 
d="M1409 0h-274v809l-269 -674h-196l-269 674v-809h-274v1434h281l360 -895l360 895h281v-1434z" />
    <glyph glyph-name="N" unicode="N" horiz-adv-x="1314" 
d="M1190 0h-289l-502 883v-883h-274v1434h274l516 -910v910h275v-1434z" />
    <glyph glyph-name="O" unicode="O" horiz-adv-x="1259" 
d="M877 459v497q0 262 -244 263q-165 0 -219 -110q-28 -58 -29 -151v-499q0 -125 68.5 -181.5t178 -56.5t177.5 55.5t68 182.5zM109 459v499q-1 162 67 277q133 227 457 227q246 0 382 -138t136 -368v-497q1 -293 -235 -415q-129 -67 -284 -67q-154 0 -284 67
q-240 124 -239 415z" />
    <glyph glyph-name="P" unicode="P" horiz-adv-x="1218" 
d="M410 1190v-428h252q137 0 188 100q24 48 24 114q-1 132 -95 186q-48 28 -113 28h-256zM135 1434h535q217 0 343 -131t126 -333t-125 -327t-348 -125h-256v-518h-275v1434z" />
    <glyph glyph-name="Q" unicode="Q" horiz-adv-x="1259" 
d="M877 956q0 262 -244 263q-123 1 -185 -61t-63 -200v-499q0 -125 69 -181t179 -57q51 0 92 12l-143 168l141 117l137 -162q16 43 17 103v497zM1151 956v-497q0 -195 -109 -318l109 -127l-141 -116l-115 135q-119 -55 -269 -55t-278 66q-148 76 -207 226q-33 84 -32 189
v499q0 162 67 277q134 227 457 227q246 0 382 -138t136 -368z" />
    <glyph glyph-name="R" unicode="R" horiz-adv-x="1247" 
d="M662 780q212 0 212 230q0 68 -55 124t-153 56h-256v-410h252zM135 1434h535q217 0 343 -129t126 -325q1 -196 -125 -314q-62 -58 -148 -84l-32 -4l352 -578h-318l-311 537h-147v-537h-275v1434z" />
    <glyph glyph-name="S" unicode="S" horiz-adv-x="1165" 
d="M66 418h260q4 -195 262 -195q121 0 183.5 48t62.5 135.5t-98 129.5q-45 20 -174 60q-128 38 -202 70q-76 32 -142 82q-130 99 -130 293t126 304.5t354 110.5t358.5 -112.5t130.5 -317.5h-262q0 190 -228 191q-98 0 -155.5 -44.5t-57.5 -114.5t59.5 -111.5t229.5 -86.5
q246 -59 351.5 -167.5t105.5 -285.5t-118.5 -304.5t-373 -127.5t-398.5 121t-144 322z" />
    <glyph glyph-name="T" unicode="T" horiz-adv-x="1085" 
d="M1028 1190h-356v-1190h-277v1190h-344v244h977v-244z" />
    <glyph glyph-name="U" unicode="U" horiz-adv-x="1282" 
d="M1165 1434v-973q-1 -292 -235 -415q-126 -66 -283 -66q-253 0 -407 155q-118 119 -117 326v973h276v-973q0 -127 69 -182.5t178.5 -55.5t177 55.5t67.5 182.5v973h274z" />
    <glyph glyph-name="V" unicode="V" horiz-adv-x="1273" 
d="M829 0h-401l-401 1434h284l318 -1147l315 1147h287z" />
    <glyph glyph-name="W" unicode="W" horiz-adv-x="1771" 
d="M1417 0h-354l-176 809l-176 -809h-357l-315 1434h285l211 -1106l219 1106h264l221 -1108l209 1108h285z" />
    <glyph glyph-name="X" unicode="X" horiz-adv-x="1339" 
d="M860 741l440 -741h-321l-309 528l-310 -528h-321l442 741l-409 693h317l281 -519l278 519h322z" />
    <glyph glyph-name="Y" unicode="Y" horiz-adv-x="1273" 
d="M774 0h-276v614l-459 820h315l281 -562l280 562h320l-461 -816v-618z" />
    <glyph glyph-name="Z" unicode="Z" horiz-adv-x="1183" 
d="M1114 244v-244h-1044v166l659 1024h-616v244h991v-166l-660 -1024h670z" />
    <glyph glyph-name="bracketleft" unicode="[" horiz-adv-x="724" 
d="M651 1294h-309v-1284h309v-243h-569v1769h569v-242z" />
    <glyph glyph-name="backslash" unicode="\" horiz-adv-x="915" 
d="M842 0h-262l-498 1434h262z" />
    <glyph glyph-name="bracketright" unicode="]" horiz-adv-x="724" 
d="M651 -233h-569v243h307v1284h-307v242h569v-1769z" />
    <glyph glyph-name="asciicircum" unicode="^" horiz-adv-x="946" 
d="M844 1090l-125 -127l-244 243l-248 -243l-125 127l373 368z" />
    <glyph glyph-name="underscore" unicode="_" horiz-adv-x="1103" 
d="M1014 -311h-918v215h918v-215z" />
    <glyph glyph-name="grave" unicode="`" horiz-adv-x="372" 
d="M354 1180h-174l-184 254h237z" />
    <glyph glyph-name="a" unicode="a" 
d="M506 485q-201 0 -201 -149.5t184 -149.5q84 0 152 35v254q-82 10 -135 10zM905 616v-618h-203l-6 53q-102 -67 -256 -67t-267 84q-112 84 -112 272t124 258t278 70q80 0 178 -17q-2 86 -46 133t-150.5 47t-202.5 -63l-131 125q137 152 356 151q438 0 438 -428z" />
    <glyph glyph-name="b" unicode="b" horiz-adv-x="1011" 
d="M682 655q0 97 -37 141t-124 44t-163 -29v-594q70 -29 156 -29q166 0 168 156v311zM358 1434v-437q100 43 194 43q170 0 273 -77q121 -90 121 -289v-328q0 -94 -35 -167q-61 -127 -215 -175q-68 -20 -141 -20q-150 0 -254 69l-6 -53h-201v1434h264z" />
    <glyph glyph-name="c" unicode="c" horiz-adv-x="911" 
d="M68 403v220q0 199 111.5 310t316.5 111q268 0 358 -219l-215 -77q-49 84 -143 83q-164 0 -164 -208v-220q0 -209 164 -208q94 0 143 84l215 -78q-90 -219 -358 -219q-205 0 -316.5 111t-111.5 310z" />
    <glyph glyph-name="d" unicode="d" horiz-adv-x="1011" 
d="M505 840q-71 0 -107 -20q-66 -36 -66 -165v-311q2 -156 168 -156q83 0 155 29v594q-78 29 -150 29zM920 0h-203l-6 53q-104 -69 -258 -69t-262 83q-56 41 -90 113t-33 166v328q0 199 119 289q101 77 234 77q132 0 234 -43v437h265v-1434z" />
    <glyph glyph-name="e" unicode="e" horiz-adv-x="952" 
d="M649 582v69q0 139 -93 177q-28 12 -62 12q-162 0 -162 -191v-67h317zM324 338q0 -158 200 -158q102 0 183 70l145 -113q-127 -156 -371 -155q-207 0 -310 110.5t-103 274.5v274q0 289 244 375q81 28 186 28q201 0 300 -107.5t99 -293.5v-227h-573v-78z" />
    <glyph glyph-name="f" unicode="f" horiz-adv-x="626" 
d="M96 0v1102q0 266 245 338q65 18 129 18t120 -10v-209q-41 6 -67 6t-42 -4q-121 -16 -121 -174v-41h213v-199h-213v-827h-264z" />
    <glyph glyph-name="g" unicode="g" horiz-adv-x="1011" 
d="M500 840q-166 0 -168 -158v-305q0 -130 65 -165q35 -19 107.5 -19.5t150.5 26.5v590q-72 31 -155 31zM68 365v315q0 94 34 167q32 73 90 113q116 82 266.5 82t252.5 -69l6 53h203v-1034q0 -184 -104.5 -282.5t-284 -98.5t-357.5 119l102 145q115 -70 204.5 -70t130 37
t44.5 125v76q-92 -43 -191.5 -43t-162.5 20.5t-117 61.5q-116 87 -116 283z" />
    <glyph glyph-name="h" unicode="h" horiz-adv-x="1038" 
d="M369 1434v-437q95 43 189 43t158 -19.5t119.5 -59t88 -113.5t32.5 -172v-676h-264v657q0 96 -37 139.5t-124 43.5t-162 -31v-809h-265v1434h265z" />
    <glyph glyph-name="i" unicode="i" horiz-adv-x="475" 
d="M375 0h-264v1026h264v-1026zM246 1452q57 0 97 -40t40 -97t-38 -99t-99 -42t-102 40q-40 42 -40 102t42 98q43 38 100 38z" />
    <glyph glyph-name="j" unicode="j" horiz-adv-x="475" 
d="M373 1026v-1079q0 -152 -89 -231q-121 -108 -327 -99v211q45 0 80 10q45 18 59 58t15 100v1030h262zM244 1452q57 0 97 -40t40 -97t-38 -99t-98 -42t-102 40q-41 42 -41 102t42 98q43 38 100 38z" />
    <glyph glyph-name="k" unicode="k" horiz-adv-x="1071" 
d="M369 0h-265v1434h265v-742l299 348h311l-369 -438l439 -602h-293l-295 422l-92 -92v-330z" />
    <glyph glyph-name="l" unicode="l" horiz-adv-x="450" 
d="M369 0h-265v1434h265v-1434z" />
    <glyph glyph-name="m" unicode="m" horiz-adv-x="1548" 
d="M1466 676v-676h-262v657q0 94 -29 139q-30 44 -104 44t-172 -41q14 -39 14 -131v-668h-262v676q0 86 -30 125q-31 39 -112 39t-153 -31v-809h-262v1026h199l8 -53q113 67 267 67t251 -98q84 55 150 77t141 21q150 0 253 -94t103 -270z" />
    <glyph glyph-name="n" unicode="n" horiz-adv-x="1028" 
d="M944 676v-676h-262v657q0 96 -38 139.5t-125 43.5t-161 -31v-809h-264v1026h201l6 -53q115 67 266 67t264 -88t113 -276z" />
    <glyph glyph-name="o" unicode="o" 
d="M657 397v230q0 207 -159 207q-88 0 -127 -50.5t-39 -156.5v-230q0 -143 88 -186q33 -16 78 -16q84 0 121.5 56t37.5 146zM68 397v230q0 197 110.5 307t318.5 110t316.5 -112.5t108.5 -304.5v-230q0 -161 -92 -281q-48 -62 -133 -98t-199 -36q-231 0 -330.5 127t-99.5 288
z" />
    <glyph glyph-name="p" unicode="p" horiz-adv-x="1021" 
d="M692 369v313q-2 156 -168 156q-86 0 -155 -31v-594q77 -27 163 -27t123 44t37 139zM956 350q0 -187 -118 -284q-99 -82 -234 -82t-235 45v-439h-265v1436h201l6 -53q104 67 257 67t263 -82q57 -40 91 -112t34 -166v-330z" />
    <glyph glyph-name="q" unicode="q" horiz-adv-x="1011" 
d="M500 838q-166 0 -168 -156v-311q0 -97 36 -141t122 -44t165 29v594q-72 29 -155 29zM68 350v330q0 191 125 279q113 83 264 83q152 0 254 -69l6 53h203v-1436h-265v439q-100 -45 -187 -45t-138 12q-110 26 -186 111q-76 86 -76 243z" />
    <glyph glyph-name="r" unicode="r" horiz-adv-x="692" 
d="M552 1042q72 0 118 -10l-2 -213q-115 25 -162 12q-147 -18 -148 -206v-625h-264v1042h201l12 -114q88 114 245 114z" />
    <glyph glyph-name="s" unicode="s" horiz-adv-x="905" 
d="M449 190q63 0 100 30t37 67t-10 55q-18 34 -58.5 50t-117.5 32q-145 30 -229 87q-101 69 -101 217t95 233.5t287.5 85.5t287 -85t94.5 -229h-252q0 39 -32 70t-95.5 31t-95 -31t-31.5 -73t40 -67.5t134 -46.5q174 -35 262 -106.5t88 -208.5t-93 -229t-288 -92
q-269 0 -369 149q-48 72 -51 170h256q14 -109 142 -109z" />
    <glyph glyph-name="t" unicode="t" horiz-adv-x="667" 
d="M360 408q0 -252 250 -213v-209q-57 -6 -117.5 -6t-131 19t-132 62t-97.5 120t-36 179v916h264v-250h213v-213h-213v-405z" />
    <glyph glyph-name="u" unicode="u" horiz-adv-x="1017" 
d="M936 0h-203l-6 53q-115 -70 -256 -69q-198 0 -307 124q-80 91 -80 242v676h264v-657q0 -127 67 -163q36 -20 108.5 -20t148.5 31v809h264v-1026z" />
    <glyph glyph-name="v" unicode="v" horiz-adv-x="1013" 
d="M659 0h-305l-331 1026h268l215 -743l217 743h268z" />
    <glyph glyph-name="w" unicode="w" horiz-adv-x="1507" 
d="M1169 0h-282l-133 522l-133 -522h-281l-317 1026h276l180 -690l156 690h235l158 -690l182 690h277z" />
    <glyph glyph-name="x" unicode="x" horiz-adv-x="960" 
d="M653 512l285 -512h-281l-172 328l-178 -328h-284l301 514l-287 512h285l167 -342l158 342h283z" />
    <glyph glyph-name="y" unicode="y" horiz-adv-x="1028" 
d="M548.5 -389q-178.5 0 -358.5 119l103 145q113 -70 219 -70q152 0 160 162v76q-94 -43 -214 -43t-214 52q-160 90 -160 313v661h264v-651q0 -147 84 -175q31 -10 96.5 -10t143.5 29v807h264l-2 -1034q0 -182 -103.5 -281.5t-282 -99.5z" />
    <glyph glyph-name="z" unicode="z" horiz-adv-x="864" 
d="M811 213v-213h-760v154l418 659h-389v213h717v-152l-416 -661h430z" />
    <glyph glyph-name="braceleft" unicode="{" horiz-adv-x="761" 
d="M229 877v284q0 313 306 361q35 6 75 10l4 -211q-35 -4 -59 -14q-80 -35 -80 -177v-253q0 -143 -135 -234q135 -88 135 -229v-252q0 -144 84 -178q18 -8 57 -15l-6 -211q-49 4 -73 11q-307 49 -308 360v283q0 94 -61 123q-29 16 -64 26v166q39 10 66 29q59 29 59 121z" />
    <glyph glyph-name="bar" unicode="|" horiz-adv-x="454" 
d="M352 -102h-250v1536h250v-1536z" />
    <glyph glyph-name="braceright" unicode="}" horiz-adv-x="761" 
d="M487 1159v-282q0 -94 58 -121q29 -18 65 -31v-166q-35 -8 -63 -24q-59 -29 -60 -123v-283q0 -311 -309 -360q-25 -6 -74 -11l-4 211q37 6 56 15q84 35 84 178v252q0 141 135 229q-135 90 -135 234v253q0 141 -80 177q-25 10 -60 14l4 209q41 -2 76 -10q307 -47 307 -361z
" />
    <glyph glyph-name="asciitilde" unicode="~" horiz-adv-x="1067" 
d="M340 754q82 0 213 -48t183 -47q110 0 163 74l125 -151q-47 -53 -126 -84q-80 -31 -158 -31t-228 51q-115 43 -168 43q-117 0 -176 -84l-123 152q49 57 131 91t164 34z" />
    <glyph glyph-name="exclamdown" unicode="&#xa1;" horiz-adv-x="503" 
d="M410 -414h-310l64 1043h182zM255 1036q60 0 103 -43t43 -103t-43 -104t-103 -43q-60 0 -103 43q-43 44 -43 104t43 103t103 43z" />
    <glyph glyph-name="cent" unicode="&#xa2;" horiz-adv-x="911" 
d="M598 1147v-113q180 -39 256 -209l-215 -77q-49 84 -143 83q-164 0 -164 -208v-220q0 -209 164 -208q94 0 143 84l215 -78q-76 -170 -256 -209v-105h-199v105q-159 25 -245 131t-86 280v220q0 173 87 281t244 132v111h199z" />
    <glyph glyph-name="sterling" unicode="&#xa3;" horiz-adv-x="1286" 
d="M117 782h125q-41 143 -41 226q0 184 122 314t326 130q152 0 257 -70t147 -186l-195 -96q-50 108 -204 108q-78 0 -132 -57t-53 -147q0 -51 53 -222h303v-137h-268q18 -79 18 -147q-1 -68 -31 -137t-81 -117h201q98 0 159 29t121 96l270 -121q-180 -248 -507 -248h-588
v201q46 23 99 72q104 98 104 190q0 57 -39 182h-166v137z" />
    <glyph glyph-name="yen" unicode="&#xa5;" horiz-adv-x="1273" 
d="M1016 754v-136h-242v-116h242v-137h-242v-365h-276v365h-240v137h240v116h-240v136h164l-383 680h315l281 -562l280 562h320l-387 -680h168z" />
    <glyph glyph-name="brokenbar" unicode="&#xa6;" horiz-adv-x="454" 
d="M352 -102h-250v634h250v-634zM352 799h-250v635h250v-635z" />
    <glyph glyph-name="section" unicode="&#xa7;" horiz-adv-x="1052" 
d="M350 627q0 -57 45 -91t141 -62t138 -44q78 37 78 123q0 51 -24 72q-24 22 -43 36q-20 14 -157 54l-88 28q-90 -33 -90 -116zM94 78h230q2 -164 221 -164q100 0 153 40q54 40 54 102t-36 94t-175 71q-17 7 -73 23q-140 42 -248 120q-107 79 -106 242q1 162 107 256
q-106 90 -106 248t108 253q109 95 305 95t307 -97q112 -97 113 -274h-231q0 158 -191 158q-174 0 -176 -140q0 -48 50 -83t194 -72q209 -49 301 -144q92 -96 92 -246t-90 -247q90 -92 90 -244t-103 -263t-329 -111q-139 0 -243 47t-162 134q-56 87 -56 202z" />
    <glyph glyph-name="dieresis" unicode="&#xa8;" horiz-adv-x="751" 
d="M587 1417q52 0 86 -34.5t34 -88t-34 -89.5t-77 -36q-44 1 -72 17q-64 37 -63.5 99t37.5 97t89 35zM169 1417q52 0 87 -34.5t35 -88t-35 -89.5t-87 -36t-88 36t-36 89t36 88t88 35z" />
    <glyph glyph-name="copyright" unicode="&#xa9;" horiz-adv-x="1658" 
d="M822 328q-148 0 -250 110q-101 111 -101 276q0 166 102 278t248 112t239 -82t118 -199h-148q-12 45 -62 92t-143 47t-151 -70q-58 -71 -60 -173q0 -102 56 -176t152 -74t148 50t60 95h150q-29 -118 -120 -202q-90 -84 -238 -84zM831 1264q-147 0 -273 -71t-201 -198
t-74 -278q1 -231 163 -390t384 -159t385 160t163 388t-159 388q-161 160 -388 160zM831 1444q197 0 365 -96t265 -264t97 -368t-100 -368t-267 -263t-361 -95t-360 95t-266 263q-99 168 -100 369q0 201 98 369t266 262q166 96 363 96z" />
    <glyph glyph-name="ordfeminine" unicode="&#xaa;" horiz-adv-x="688" 
d="M358 993q-123 0 -122 -73q0 -76 112 -76q56 -1 105 24v111l-37 7q-37 7 -58 7zM616 715h-137l-4 30q-72 -41 -167 -41t-165 51q-69 50 -69 159t81 149q81 39 151 39t145 -12q-6 61 -32 88q-27 26 -99 26t-121 -43l-95 96q78 94 230 95q283 0 282 -289v-348z" />
    <glyph glyph-name="guillemotleft" unicode="&#xab;" horiz-adv-x="1376" 
d="M1286 831l-285 -282l285 -283l-162 -164l-446 447l446 446zM690 831l-282 -282l282 -283l-162 -164l-446 447l446 446z" />
    <glyph glyph-name="logicalnot" unicode="&#xac;" horiz-adv-x="1705" 
 />
    <glyph glyph-name="registered" unicode="&#xae;" horiz-adv-x="1660" 
d="M711 973v-215h157q47 0 83 26t36 80q0 53 -36 81t-87 28h-153zM557 1102h328q100 0 177 -64t77 -184q0 -121 -117 -183q-29 -15 -59 -22l192 -299h-151l-185 289h-108v-289h-154v752zM834 1266q-226 0 -388 -158t-162 -388t162 -389t388 -159t387 159q160 159 159 390
q0 149 -74 275t-199 198q-126 72 -273 72zM808 1446q328 0 539 -209q213 -209 213 -541q0 -176 -98 -344t-265 -264t-363 -96t-364 95q-167 95 -266 263q-100 168 -100 369t98 369t266 262q167 96 340 96z" />
    <glyph glyph-name="macron" unicode="&#xaf;" horiz-adv-x="657" 
d="M590 1260h-527v137h527v-137z" />
    <glyph glyph-name="degree" unicode="&#xb0;" horiz-adv-x="886" 
d="M431 975q60 1 99 25q84 53 82 145q0 68 -48 118t-116 50q-68 -1 -97 -25q-52 -43 -64 -80t-13 -63q0 -68 48 -119t109 -51zM443 774q-153 0 -261 109t-108 263t108 262t261 108t263 -109t110 -263t-110 -262t-263 -108z" />
    <glyph glyph-name="plusminus" unicode="&#xb1;" horiz-adv-x="1060" 
d="M958 0h-856v236h856v-236zM647 956h311v-233h-311v-311h-235v311h-310v233h310v312h235v-312z" />
    <glyph glyph-name="twosuperior" unicode="&#xb2;" horiz-adv-x="679" 
d="M432 1179q0 93 -83 93q-41 0 -63 -23t-38 -78l-182 52q37 111 105 167q69 56 185 56t190 -75q75 -75 75 -193t-86 -209l-193 -228h279v-170h-553v127l301 361q63 76 63 120z" />
    <glyph glyph-name="threesuperior" unicode="&#xb3;" horiz-adv-x="714" 
d="M444 860q0 40 -30 74q-31 33 -78 33h-66v155h58q33 0 53 23t20 53t-20 50q-20 22 -49 22q-54 0 -72 -53l-172 67q31 74 99 120q69 46 161 46t166 -68t74 -170t-76 -163q123 -72 123 -203t-86 -208t-213 -77q-86 0 -155 38t-109 101l149 99q36 -56 107 -57q72 -1 102 53
q14 25 14 65z" />
    <glyph glyph-name="acute" unicode="&#xb4;" horiz-adv-x="372" 
d="M256 1180h-174l121 254h237z" />
    <glyph glyph-name="paragraph" unicode="&#xb6;" horiz-adv-x="1345" 
d="M1272 -336h-250v1632h-193v-1632h-249v1057h-113q-160 0 -277 116q-116 116 -116 302q0 185 130 291t345 106h723v-1872z" />
    <glyph glyph-name="periodcentered" unicode="&#xb7;" horiz-adv-x="204" 
d="M110 803q60 0 103 -43q43 -44 43 -94q0 -96 -73 -137q-33 -19 -83 -19t-94 43q-43 43 -43 103t43 104q44 43 104 43z" />
    <glyph glyph-name="cedilla" unicode="&#xb8;" horiz-adv-x="647" 
d="M503 -427q-79 -50 -172 -50t-132 13t-58.5 20.5t-29 10.5t-26.5 10t-24 9l45 103q86 -35 179 -45q49 -2 83.5 20.5t34.5 61.5q0 78 -88 73q-53 0 -112 -26l-51 47l131 200h127l-82 -116q73 15 132 -6q122 -44 122 -159.5t-79 -165.5z" />
    <glyph glyph-name="onesuperior" unicode="&#xb9;" horiz-adv-x="495" 
d="M438 571h-188v578q-23 -23 -70 -37t-90 -14l-47 186q72 0 139 41q74 41 92 109h164v-863z" />
    <glyph glyph-name="ordmasculine" unicode="&#xba;" horiz-adv-x="673" 
d="M426 956v144q0 42 -22 70t-66 28t-68 -28q-23 -28 -22 -70v-144q0 -42 22 -70t60 -28q96 0 96 98zM74 965v127q0 112 66 186t198 74q131 0 198 -76t66 -184v-127q0 -146 -113 -221q-61 -40 -153 -39q-131 0 -197 76q-65 78 -65 184z" />
    <glyph glyph-name="guillemotright" unicode="&#xbb;" horiz-adv-x="1376" 
d="M1300 549l-444 -447l-164 164l283 283l-283 282l164 164zM705 549l-445 -447l-164 164l285 283l-285 282l164 164z" />
    <glyph glyph-name="onequarter" unicode="&#xbc;" horiz-adv-x="1650" 
d="M1335 365v245l-151 -245h151zM1518 365h61v-175h-61v-190h-193v190h-328v158l328 514h193v-497zM682 0h-233l497 1434h234zM469 571h-186v578q-25 -19 -71 -35t-91 -16l-47 186q63 2 138 40t93 110h164v-863z" />
    <glyph glyph-name="onehalf" unicode="&#xbd;" horiz-adv-x="1755" 
d="M1418 874q116 0 191 -74t75 -193q0 -118 -87 -210l-192 -227h278v-170h-550v127l299 360q63 76 63 120q0 95 -78 93q-43 0 -65 -22t-39 -78l-185 51q37 111 106 167q68 56 184 56zM698 0h-231l498 1434h231zM469 571h-186v578q-27 -23 -74 -37t-88 -14l-47 186
q59 2 123 33q88 41 108 117h164v-863z" />
    <glyph glyph-name="threequarters" unicode="&#xbe;" horiz-adv-x="1724" 
d="M1409 365v245l-152 -245h152zM1591 365h62v-175h-62v-190h-192v190h-328v158l328 514h192v-497zM756 0h-234l498 1434h233zM444 860q0 40 -29 74q-30 33 -77 33h-66v155h58q33 0 53 23t20 53t-20 50q-20 22 -49 22q-54 0 -74 -53l-170 67q31 74 99 120q69 46 160 46
t165 -68t74 -170t-76 -163q123 -72 123 -203t-86 -208t-211 -77q-86 0 -155 38t-109 101l149 99q36 -56 108 -57t100 53q13 25 13 65z" />
    <glyph glyph-name="questiondown" unicode="&#xbf;" horiz-adv-x="1056" 
d="M662 643v-78q0 -49 -9 -97t-50 -102q-42 -55 -191 -229q-58 -73 -58 -145t48 -122t128 -50t129 48t50 136h258q0 -166 -100 -283q-118 -134 -337 -137q-110 0 -196 38q-152 68 -212 232q-26 71 -26 144q0 135 97 256q31 36 97 102t89 109q25 43 24 106v72h259zM532 1053
q60 0 104 -44q44 -43 44 -103t-44 -104t-104 -44t-103 44q-44 44 -44 103t44 103t103 45z" />
    <glyph glyph-name="Agrave" unicode="&#xc0;" horiz-adv-x="1294" 
d="M498 612h297l-148 496zM1255 0h-286l-109 369h-426l-110 -369h-285l473 1434h270zM772 1595h-174l-184 254h237z" />
    <glyph glyph-name="Aacute" unicode="&#xc1;" horiz-adv-x="1294" 
d="M498 612h297l-148 496zM1255 0h-286l-109 369h-426l-110 -369h-285l473 1434h270zM741 1595h-174l121 254h238z" />
    <glyph glyph-name="Acircumflex" unicode="&#xc2;" horiz-adv-x="1294" 
d="M498 612h297l-148 496zM1255 0h-286l-109 369h-426l-110 -369h-285l473 1434h270zM1016 1583h-207l-156 184l-159 -184h-205l246 295h237z" />
    <glyph glyph-name="Atilde" unicode="&#xc3;" horiz-adv-x="1294" 
d="M498 612h297l-148 496zM1255 0h-286l-109 369h-426l-110 -369h-285l473 1434h270zM760 1776q66 0 141 88l94 -123q-127 -117 -223 -117q-51 0 -126 39q-76 39 -102 39q-68 0 -126 -68l-16 -16l-9 -10l-92 121q47 54 115 90q69 37 118 37t119 -40t107 -40z" />
    <glyph glyph-name="Adieresis" unicode="&#xc4;" horiz-adv-x="1294" 
d="M498 612h297l-148 496zM1255 0h-286l-109 369h-426l-110 -369h-285l473 1434h270zM874 1825q43 0 78 -35t35 -88t-35 -89t-87 -36t-88 36t-36 80t17 71q35 61 116 61zM441 1825q43 -1 71 -17q58 -34 57 -96t-35 -99q-34 -36 -85 -36t-89 36q-36 36 -36 89t36 88
q38 35 81 35z" />
    <glyph glyph-name="Aring" unicode="&#xc5;" horiz-adv-x="1294" 
d="M498 612h297l-148 496zM1255 0h-286l-109 369h-426l-110 -369h-285l473 1434h270zM656 1839q-42 0 -70 -15q-56 -31 -57 -93t34 -98t84 -36t85 36t36 86t-35 85t-77 35zM401 1720q0 98 74 172q75 74 173 74t171 -72t75 -173q1 -101 -73 -174t-173 -73t-173 74t-74 172z
" />
    <glyph glyph-name="AE" unicode="&#xc6;" horiz-adv-x="1613" 
d="M498 612h166l-21 484zM1540 1190h-641l12 -352h574v-244h-557l10 -350h608v-244h-854l-14 369h-244l-110 -369h-285l473 1434h1028v-244z" />
    <glyph glyph-name="Ccedilla" unicode="&#xc7;" horiz-adv-x="1155" 
d="M109 483v478q0 239 144 371t375 132t364 -138q62 -65 95 -155l-200 -92q-29 68 -93 105t-132 37q-126 0 -201 -66q-74 -66 -76 -194v-478q0 -127 75 -195t187 -67q112 0 183 65q36 32 57 76l200 -90q-89 -233 -352 -282q-70 -8 -112 -10l-45 -64q23 6 51 6q88 0 144 -44
t56 -144q1 -100 -77 -148q-78 -49 -184 -49t-257 64l43 102q104 -45 171 -45q130 0 128 80q0 76 -88 76q-47 0 -114 -27l-50 45l103 158q-180 34 -288 160t-107 333z" />
    <glyph glyph-name="Egrave" unicode="&#xc8;" horiz-adv-x="1142" 
d="M1063 1190h-653v-352h602v-244h-602v-350h663v-244h-938v1434h928v-244zM766 1595h-174l-184 254h237z" />
    <glyph glyph-name="Eacute" unicode="&#xc9;" horiz-adv-x="1142" 
d="M1063 1190h-653v-352h602v-244h-602v-350h663v-244h-938v1434h928v-244zM674 1595h-174l121 254h237z" />
    <glyph glyph-name="Ecircumflex" unicode="&#xca;" horiz-adv-x="1142" 
d="M1063 1190h-653v-352h602v-244h-602v-350h663v-244h-938v1434h928v-244zM909 1583h-207l-155 184l-158 -184h-207l246 295h240z" />
    <glyph glyph-name="Edieresis" unicode="&#xcb;" horiz-adv-x="1142" 
d="M1063 1190h-653v-352h602v-244h-602v-350h663v-244h-938v1434h928v-244zM770 1825q43 0 77 -35t34 -88t-35 -89t-87 -36t-88 36t-36 80t16 71q35 61 119 61zM343 1825q52 0 86 -35t34 -88t-35 -89t-86 -36t-88 36t-37 89t37 88t89 35z" />
    <glyph glyph-name="Igrave" unicode="&#xcc;" horiz-adv-x="544" 
d="M410 0h-275v1434h275v-1434zM414 1595h-174l-187 254h240z" />
    <glyph glyph-name="Iacute" unicode="&#xcd;" horiz-adv-x="544" 
d="M410 0h-275v1434h275v-1434zM348 1595h-174l121 254h237z" />
    <glyph glyph-name="Icircumflex" unicode="&#xce;" horiz-adv-x="544" 
d="M410 0h-275v1434h275v-1434zM641 1583h-207l-155 184l-158 -184h-207l246 295h237z" />
    <glyph glyph-name="Idieresis" unicode="&#xcf;" horiz-adv-x="544" 
d="M410 0h-275v1434h275v-1434zM491 1825q52 0 87 -35q34 -35 34 -75t-13 -73t-48 -49t-73 -16t-76 36q-36 36 -36 89t36 88q37 35 89 35zM83 1825q44 0 78 -35t34 -75t-14 -73t-47 -49q-34 -16 -74 -16t-75 36q-36 36 -36 80t16 71q35 61 118 61z" />
    <glyph glyph-name="Eth" unicode="&#xd0;" horiz-adv-x="1325" 
d="M942 932q0 258 -252 258h-223v-352h231v-244h-231v-350h258q76 0 121 16q96 34 96 195v477zM193 1434h497q168 0 290 -69q235 -133 237 -433v-477q0 -251 -145 -353t-347 -102h-532v594h-173v244h173v596z" />
    <glyph glyph-name="Ntilde" unicode="&#xd1;" horiz-adv-x="1314" 
d="M1190 0h-289l-502 883v-883h-274v1434h274l516 -910v910h275v-1434zM656 1816q70 -40 106 -40q37 0 60 16q24 16 32 22t17 16q9 9 15 14q5 4 11 12t8 8l92 -123q-127 -117 -223 -117q-51 0 -125 39t-108 39t-68 -22t-55 -47t-23 -25l-92 121q46 53 115 90q68 37 118 37
t120 -40z" />
    <glyph glyph-name="Ograve" unicode="&#xd2;" horiz-adv-x="1259" 
d="M877 459v497q0 262 -244 263q-248 0 -248 -261v-499q0 -125 69 -181q68 -56 178 -56t178 54q68 56 67 183zM109 459v499q0 162 67 277q134 227 457 227q246 0 382 -138t136 -368v-497q0 -294 -236 -415q-126 -65 -282 -66t-285 66q-148 76 -207 226q-32 85 -32 189z
M766 1595h-174l-184 254h239z" />
    <glyph glyph-name="Oacute" unicode="&#xd3;" horiz-adv-x="1259" 
d="M877 459v497q0 262 -244 263q-248 0 -248 -261v-499q0 -125 69 -181q68 -56 178 -56t178 54q68 56 67 183zM109 459v499q0 162 67 277q134 227 457 227q246 0 382 -138t136 -368v-497q0 -294 -236 -415q-126 -65 -282 -66t-285 66q-148 76 -207 226q-32 85 -32 189z
M717 1587h-174l121 254h237z" />
    <glyph glyph-name="Ocircumflex" unicode="&#xd4;" horiz-adv-x="1259" 
d="M877 459v497q0 262 -244 263q-248 0 -248 -261v-499q0 -125 69 -181q68 -56 178 -56t178 54q68 56 67 183zM109 459v499q0 162 67 277q134 227 457 227q246 0 382 -138t136 -368v-497q0 -294 -236 -415q-126 -65 -282 -66t-285 66q-148 76 -207 226q-32 85 -32 189z
M997 1583h-204l-158 184l-158 -184h-207l246 295h240z" />
    <glyph glyph-name="Otilde" unicode="&#xd5;" horiz-adv-x="1259" 
d="M877 459v497q0 262 -244 263q-123 1 -185 -61t-63 -200v-499q0 -125 69 -181q68 -56 178 -56t178 54q68 56 67 183zM109 459v499q0 162 67 277q134 227 457 227q246 0 382 -138t136 -368v-497q0 -294 -236 -415q-126 -65 -282 -66t-285 66q-148 76 -207 226
q-32 85 -32 189zM635 1816q70 -40 108 -40t60 16q48 35 64 53q16 19 18 19l92 -123q-127 -117 -223 -117q-51 0 -125 39q-73 39 -101 39t-42 -4q-42 -13 -86 -64q-5 -6 -23 -26l-92 121q40 51 111 89t120 38t119 -40z" />
    <glyph glyph-name="Odieresis" unicode="&#xd6;" horiz-adv-x="1259" 
d="M877 459v497q0 262 -244 263q-248 0 -248 -261v-499q0 -125 69 -181q68 -56 178 -56t178 54q68 56 67 183zM109 459v499q0 162 67 277q134 227 457 227q246 0 382 -138t136 -368v-497q0 -294 -236 -415q-126 -65 -282 -66t-285 66q-148 76 -207 226q-32 85 -32 189z
M723 1712q0 62 62 96q30 16 60 17q86 0 115 -78t-26 -134q-35 -36 -86 -36t-88 36t-37 99zM422 1825q43 -1 71 -17q58 -34 58 -96q0 -63 -35 -99t-86 -36t-88 36t-37 89t37 88t80 35z" />
    <glyph glyph-name="multiply" unicode="&#xd7;" horiz-adv-x="983" 
d="M911 909l-262 -260l262 -258l-159 -160l-260 261l-259 -261l-159 160l260 258l-260 260l157 158l258 -258l261 258z" />
    <glyph glyph-name="Oslash" unicode="&#xd8;" horiz-adv-x="1259" 
d="M877 459v497q0 41 -7 76l-280 -809q20 -2 43 -2q109 -1 177 55t67 183zM385 958v-499q0 -33 4 -60l285 818q-18 2 -41 2q-123 0 -185 -62t-63 -199zM1151 956v-497q0 -294 -236 -415q-126 -65 -282 -67q-63 0 -125 13l-31 -92h-262l66 188q-172 129 -172 373v499
q0 162 67 277q134 227 457 227q66 0 123 -10l28 84h260l-61 -182q168 -137 168 -398z" />
    <glyph glyph-name="Ugrave" unicode="&#xd9;" horiz-adv-x="1282" 
d="M1165 1434v-973q0 -293 -234 -415q-126 -66 -284 -66q-207 0 -349 106q-178 139 -175 375v973h276v-973q0 -127 69 -182q68 -55 178 -55t178 54q68 56 67 183v973h274zM766 1595h-174l-184 254h237z" />
    <glyph glyph-name="Uacute" unicode="&#xda;" horiz-adv-x="1282" 
d="M1165 1434v-973q0 -293 -234 -415q-126 -66 -284 -66q-207 0 -349 106q-178 139 -175 375v973h276v-973q0 -127 69 -182q68 -55 178 -55t178 54q68 56 67 183v973h274zM711 1587h-174l120 254h240z" />
    <glyph glyph-name="Ucircumflex" unicode="&#xdb;" horiz-adv-x="1282" 
d="M1165 1434v-973q0 -293 -234 -415q-126 -66 -284 -66q-157 0 -294 71q-138 71 -197 221q-33 84 -33 189v973h276v-973q0 -127 69 -182q68 -55 178 -55t178 54q68 56 67 183v973h274zM1008 1583h-205l-156 184l-160 -184h-204l245 295h238z" />
    <glyph glyph-name="Udieresis" unicode="&#xdc;" horiz-adv-x="1282" 
d="M1165 1434v-973q0 -294 -235 -415q-128 -66 -283 -66q-207 0 -349 106q-178 139 -175 375v973h276v-973q0 -127 69 -182q68 -55 178 -55t178 54q68 56 67 183v973h274zM860 1825q35 -1 62 -17q59 -36 59 -97q0 -62 -35 -98t-87 -36t-89 36t-37 80q0 80 64 115
q28 17 63 17zM441 1825q52 0 87 -35t35 -75q0 -93 -74 -128q-23 -10 -61 -10t-75 36q-36 36 -36 89t36 88t88 35z" />
    <glyph glyph-name="Yacute" unicode="&#xdd;" horiz-adv-x="1273" 
d="M774 0h-276v614l-459 820h315l281 -562l280 562h320l-461 -816v-618zM707 1587h-175l121 254h238z" />
    <glyph glyph-name="Thorn" unicode="&#xde;" horiz-adv-x="1218" 
d="M662 508q212 0 212 223q0 89 -55 147t-153 58h-256v-428h252zM410 1180h260q217 0 343 -131t126 -333t-125 -327t-348 -125h-256v-264h-275v1434h275v-254z" />
    <glyph glyph-name="germandbls" unicode="&#xdf;" horiz-adv-x="1157" 
d="M133 0v1038q0 255 201 362q102 54 248 54q214 0 326 -112t112 -283q0 -109 -46 -170t-91 -80q42 -10 81 -48q40 -38 64 -74q56 -83 57 -218q0 -185 -132 -327t-343 -142h-112v244h112q92 0 147 59q54 59 54 147q0 154 -99 213q-44 26 -98 25h-36v242h34q77 4 113 66
q20 34 20 94q0 122 -165 120q-82 0 -127 -45t-45 -112v-1053h-275z" />
    <glyph glyph-name="agrave" unicode="&#xe0;" 
d="M506 485q-201 1 -201 -149t184 -150q84 0 152 35v254q-82 10 -135 10zM905 616v-618h-203l-6 53q-102 -67 -257 -67t-267 84q-111 84 -111 273t132 261q111 64 270 66q80 0 178 -17q-2 86 -46 133q-45 47 -151 47t-202 -63l-131 125q137 152 356 151q438 0 438 -428z
M668 1180h-174l-185 254h238z" />
    <glyph glyph-name="aacute" unicode="&#xe1;" 
d="M506 485q-201 1 -201 -149t184 -150q84 0 152 35v254q-82 10 -135 10zM905 616v-618h-203l-6 53q-102 -67 -257 -67t-267 84q-111 84 -111 273t132 261q111 64 270 66q80 0 178 -17q-2 86 -46 133q-45 47 -151 47t-202 -63l-131 125q137 152 356 151q438 0 438 -428z
M582 1180h-174l120 254h238z" />
    <glyph glyph-name="acircumflex" unicode="&#xe2;" 
d="M506 485q-201 1 -201 -149t184 -150q84 0 152 35v254q-82 10 -135 10zM905 616v-618h-203l-6 53q-102 -67 -257 -67t-267 84q-111 84 -111 273t132 261q111 64 270 66q80 0 178 -17q-2 86 -46 133q-45 47 -151 47t-202 -63l-131 125q137 152 356 151q438 0 438 -428z
M889 1176h-207l-156 184l-159 -184h-205l246 294h237z" />
    <glyph glyph-name="atilde" unicode="&#xe3;" 
d="M506 485q-201 1 -201 -149t184 -150q84 0 152 35v254q-82 10 -135 10zM905 616v-618h-203l-6 53q-102 -67 -257 -67t-267 84q-111 84 -111 273t132 261q111 64 270 66q80 0 178 -17q-2 86 -46 133q-45 47 -151 47t-202 -63l-131 125q137 152 356 151q438 0 438 -428z
M406 1448q50 0 120 -40t108 -40t61 16q38 28 47 38l15 15q5 5 17 19l94 -123q-127 -117 -223 -116q-51 1 -126 39t-108 38q-53 0 -101 -48l-19 -19q-7 -7 -25 -27l-92 121q127 127 232 127z" />
    <glyph glyph-name="adieresis" unicode="&#xe4;" 
d="M506 485q-201 1 -201 -149t184 -150q84 0 152 35v254q-82 10 -135 10zM905 616v-618h-203l-6 53q-102 -67 -257 -67t-267 84q-111 84 -111 273t132 261q111 64 270 66q80 0 178 -17q-2 86 -46 133q-45 47 -151 47t-202 -63l-131 125q137 152 356 151q438 0 438 -428z
M739 1417q74 0 106 -60q15 -28 15 -72t-35 -80t-87 -36t-88 36t-36 80t17 72q34 60 108 60zM323 1417q52 0 86 -35q33 -35 33 -94t-39 -88t-85 -30q-47 -1 -85 35q-37 36 -37 89t37 88q38 35 90 35z" />
    <glyph glyph-name="aring" unicode="&#xe5;" 
d="M506 485q-201 1 -201 -149t184 -150q84 0 152 35v254q-82 10 -135 10zM905 616v-618h-203l-6 53q-102 -67 -257 -67t-267 84q-111 84 -111 273t132 261q111 64 270 66q80 0 178 -17q-2 86 -46 133q-45 47 -151 47t-202 -63l-131 125q137 152 356 151q438 0 438 -428z
M401 1339q-1 -41 15 -69q32 -59 93 -61q60 -1 96 35t36 73t-9 59q-29 74 -124 74q-37 0 -72 -35t-35 -76zM504 1575q82 0 139 -33t91 -90t34 -123q0 -98 -74 -172t-173 -74t-173 75t-74 173t74 171t156 73z" />
    <glyph glyph-name="ae" unicode="&#xe6;" horiz-adv-x="1617" 
d="M506 485q-201 1 -201 -149t184 -150q84 0 152 35v254q-82 10 -135 10zM1313 582v69q0 97 -42 143t-114 46q-162 0 -162 -191v-67h318zM987 338q1 -160 197 -160q96 0 186 72l148 -113q-129 -156 -373 -155q-152 0 -240 67v-51h-203l-6 53q-100 -67 -256 -67t-268 84
q-111 84 -111 273t132 261q111 64 270 66q80 0 178 -17v11q-4 80 -48 124q-43 44 -149 45q-106 0 -202 -63l-131 125q137 151 371 151t335 -145q104 145 344 145q201 0 300 -108t100 -293v-227h-574v-78z" />
    <glyph glyph-name="ccedilla" unicode="&#xe7;" horiz-adv-x="911" 
d="M68 403v220q0 196 111 309q111 114 317 112q268 0 358 -219l-215 -77q-49 84 -143 83q-164 0 -164 -208v-220q0 -209 164 -208q94 0 143 84l215 -78q-72 -143 -211 -191q-57 -23 -139 -26l-43 -62q43 10 101 4t105 -51q46 -45 46 -139t-78 -144q-77 -49 -183 -49t-257 64
l43 102q84 -37 178 -47q51 -2 86 21t35 61q0 74 -88 74q-51 0 -115 -25l-49 45l100 154q-153 29 -235 136t-82 275z" />
    <glyph glyph-name="egrave" unicode="&#xe8;" horiz-adv-x="952" 
d="M649 582v69q0 143 -93 177q-28 11 -62 12q-162 0 -162 -191v-67h317zM324 338q0 -158 200 -158q102 0 183 70l145 -113q-127 -156 -371 -155q-207 0 -310 110t-103 275v274q0 288 244 375q81 29 186 28q201 0 300 -108t99 -293v-227h-573v-78zM655 1180h-174l-184 254
h238z" />
    <glyph glyph-name="eacute" unicode="&#xe9;" horiz-adv-x="952" 
d="M649 582v69q0 143 -93 177q-28 11 -62 12q-162 0 -162 -191v-67h317zM324 338q0 -158 200 -158q102 0 183 70l145 -113q-127 -156 -371 -155q-207 0 -310 110t-103 275v274q0 288 244 375q81 29 186 28q201 0 300 -108t99 -293v-227h-573v-78zM555 1180h-174l121 254h239
z" />
    <glyph glyph-name="ecircumflex" unicode="&#xea;" horiz-adv-x="952" 
d="M649 582v69q0 97 -42 143t-113 46q-162 0 -162 -191v-67h317zM324 338q0 -158 200 -158q102 0 183 70l145 -113q-127 -156 -371 -155q-207 0 -310 110t-103 275v274q0 288 244 375q81 29 186 28q201 0 300 -108t99 -293v-227h-573v-78zM854 1176h-207l-155 184l-158 -184
h-207l246 294h239z" />
    <glyph glyph-name="edieresis" unicode="&#xeb;" horiz-adv-x="952" 
d="M649 582v69q0 97 -42 143t-113 46q-162 0 -162 -191v-67h317zM324 338q0 -158 198 -158q100 0 185 70l145 -113q-127 -156 -371 -155q-207 0 -310 110t-103 275v274q0 188 111 296q112 108 319 107q135 0 226 -51q173 -97 173 -350v-227h-573v-78zM825 1280
q-1 -38 -35 -75q-34 -36 -86 -36t-89 36q-35 36 -35 80t16 72q34 60 113 60t107 -75q9 -24 9 -62zM288 1417q52 0 86 -35t34 -88t-35 -89t-86 -36t-88 36t-37 89t37 88t89 35z" />
    <glyph glyph-name="igrave" unicode="&#xec;" horiz-adv-x="421" 
d="M348 0h-262v1026h262v-1026zM354 1180h-174l-184 254h237z" />
    <glyph glyph-name="iacute" unicode="&#xed;" horiz-adv-x="430" 
d="M348 0h-262v1026h262v-1026zM270 1180h-174l121 254h238z" />
    <glyph glyph-name="icircumflex" unicode="&#xee;" horiz-adv-x="421" 
d="M348 0h-262v1026h262v-1026zM588 1176h-207l-156 184l-159 -184h-205l245 294h238z" />
    <glyph glyph-name="idieresis" unicode="&#xef;" horiz-adv-x="421" 
d="M348 0h-262v1026h262v-1026zM437 1417q52 0 87 -35t35 -92t-49 -97q-28 -22 -76 -23q-49 -1 -85 35t-36 89t36 88t88 35zM20 1417q52 0 86 -35t35 -88q0 -53 -35 -89t-86 -36t-88 36q-36 36 -36 88t35 88q37 36 89 36z" />
    <glyph glyph-name="eth" unicode="&#xf0;" horiz-adv-x="1206" 
d="M597 670q-103 0 -163 -64t-61 -160q0 -98 61 -162q62 -64 164 -65q102 0 164 65q61 64 60 162t-61 161q-61 63 -164 63zM1087 924v-469q0 -201 -142 -339t-347 -138t-347 138t-142 330t136 320q136 127 339 127q158 0 256 -107v156q0 90 -52 152l-100 -99l-94 97l88 86
q-53 30 -127 30q-73 0 -141 -28t-107 -64l-160 182q37 33 83 63q46 31 136 61t183 30q162 0 287 -74l127 125l94 -94l-113 -113q143 -145 143 -372z" />
    <glyph glyph-name="ntilde" unicode="&#xf1;" horiz-adv-x="1028" 
d="M944 676v-676h-262v657q0 95 -38 139t-125 44t-161 -31v-809h-264v1026h201l6 -53q115 67 267 67t264 -89q112 -88 112 -275zM412 1448q50 0 120 -40t96 -40t53 8q28 8 49 28q22 20 28 28q6 7 22 24l92 -123q-125 -117 -221 -116q-51 1 -126 39t-108 38q-53 0 -101 -48
l-44 -46l-92 121q127 127 232 127z" />
    <glyph glyph-name="ograve" unicode="&#xf2;" 
d="M657 397v230q0 207 -159 207q-88 0 -127 -50t-39 -157v-230q0 -89 37 -142q39 -60 129 -60q159 0 159 202zM68 397v230q0 197 110 307t319 110t317 -112t108 -305v-230q0 -159 -93 -280q-47 -61 -132 -99t-199 -36q-317 1 -407 265q-23 70 -23 150zM664 1180h-175
l-184 254h238z" />
    <glyph glyph-name="oacute" unicode="&#xf3;" 
d="M657 397v230q0 207 -159 207q-88 0 -127 -50t-39 -157v-230q0 -89 37 -142q39 -60 129 -60q159 0 159 202zM68 397v230q0 197 110 307t319 110t317 -112t108 -305v-230q0 -159 -93 -280q-47 -61 -132 -99t-199 -36q-317 1 -407 265q-23 70 -23 150zM561 1180h-174
l121 254h237z" />
    <glyph glyph-name="ocircumflex" unicode="&#xf4;" 
d="M657 397v230q0 207 -159 207q-88 0 -127 -50t-39 -157v-230q0 -122 68 -174q38 -29 98 -28q159 0 159 202zM68 397v230q0 197 110 307t319 110t317 -112t108 -305v-230q0 -159 -93 -280q-47 -61 -132 -99t-199 -36q-317 1 -407 265q-23 70 -23 150zM862 1176h-205
l-155 184l-160 -184h-205l246 294h238z" />
    <glyph glyph-name="otilde" unicode="&#xf5;" 
d="M657 397v230q0 207 -159 207q-88 0 -127 -50t-39 -157v-230q0 -89 37 -142q39 -60 129 -60q159 0 159 202zM68 397v230q0 197 110 307t319 110t317 -112t108 -305v-230q0 -159 -93 -280q-47 -61 -132 -99t-199 -36q-317 1 -407 265q-23 70 -23 150zM386 1448
q44 0 115 -40t95 -40t42 4t35 17q17 12 26 18t18 15l14 14t11 13t8 7l92 -123q-125 -117 -224 -116q-50 1 -124 39t-100 38q-65 0 -102 -38q-3 -4 -50 -56l-92 121q64 74 153 111q39 16 83 16z" />
    <glyph glyph-name="odieresis" unicode="&#xf6;" 
d="M657 397v230q0 207 -159 207q-88 0 -127 -50t-39 -157v-230q0 -89 37 -142q39 -60 129 -60q159 0 159 202zM68 397v230q0 197 110 307t319 110t317 -112t108 -305v-230q0 -159 -93 -280q-47 -61 -132 -99t-199 -36q-317 1 -407 265q-23 70 -23 150zM723 1417q43 0 77 -35
t34 -88t-35 -89t-86 -36t-88 36t-37 80t17 72t46 44t72 16zM296 1417q52 0 87 -35t35 -88t-35 -89t-87 -36t-88 36t-36 89t36 88t88 35z" />
    <glyph glyph-name="divide" unicode="&#xf7;" horiz-adv-x="1077" 
d="M540 350q68 0 114 -48t46 -115t-47 -113t-113 -47q-66 0 -115 47q-48 48 -48 114t48 114t115 48zM975 498h-873v233h873v-233zM540 1202q68 0 114 -47t46 -114t-47 -113t-113 -47q-66 0 -115 47q-48 48 -48 114t48 113t115 47z" />
    <glyph glyph-name="oslash" unicode="&#xf8;" 
d="M657 397v230q0 45 -8 82l-178 -512l27 -2q159 0 159 202zM332 627v-230q0 -43 8 -78l178 512l-20 3q-88 0 -127 -50t-39 -157zM922 397q0 -159 -93 -280q-47 -61 -132 -99q-129 -57 -298 -28l-30 -92h-174l51 147q-178 108 -178 352v230q0 265 193 366q97 51 239 51
q47 0 90 -6l31 90h174l-50 -143q176 -106 177 -358v-230z" />
    <glyph glyph-name="ugrave" unicode="&#xf9;" horiz-adv-x="1017" 
d="M936 0h-203l-6 53q-115 -69 -263 -69t-259 85q-55 43 -88 115t-33 166v676h264v-657q0 -128 67 -163q37 -20 109 -20t148 31v809h264v-1026zM684 1180h-174l-184 254h237z" />
    <glyph glyph-name="uacute" unicode="&#xfa;" horiz-adv-x="1017" 
d="M936 0h-203l-6 53q-115 -69 -263 -69t-259 85q-55 43 -88 115t-33 166v676h264v-657q0 -128 67 -163q37 -20 109 -20t148 31v809h264v-1026zM586 1180h-174l120 254h238z" />
    <glyph glyph-name="ucircumflex" unicode="&#xfb;" horiz-adv-x="1017" 
d="M936 0h-203l-6 53q-115 -69 -263 -69t-259 85q-55 43 -88 115t-33 166v676h264v-657q0 -95 37 -139t124 -44t163 31v809h264v-1026zM883 1176h-205l-158 184l-158 -184h-204l243 294h240z" />
    <glyph glyph-name="udieresis" unicode="&#xfc;" horiz-adv-x="1017" 
d="M934 0h-201l-6 53q-115 -69 -263 -69t-259 85q-55 43 -88 115t-33 166v676h264v-657q0 -128 67 -163q37 -20 109 -20t148 31v809h262v-1026zM625 1357q34 60 108 60t106 -60q15 -28 15 -72t-35 -80t-86 -36t-88 36t-37 80t17 72zM316 1417q52 0 86 -35t34 -88t-34 -89
t-86 -36t-89 36t-37 89t37 88t89 35z" />
    <glyph glyph-name="yacute" unicode="&#xfd;" horiz-adv-x="1028" 
d="M936 1026v-1034q0 -123 -50 -211q-97 -170 -321 -170q-195 0 -375 119l103 145q113 -70 219 -70q152 0 160 162v76q-94 -43 -192 -43q-281 0 -365 196q-31 73 -31 169v661h264v-651q0 -97 36 -141t123 -44t165 29v807h264zM594 1180h-174l121 254h237z" />
    <glyph glyph-name="thorn" unicode="&#xfe;" horiz-adv-x="1083" 
d="M694 367v286q0 99 -36 141t-122 42t-165 -27v-594q77 -29 163 -29t123 44t37 137zM371 1432v-437q101 43 195 43q276 0 361 -194q32 -74 31 -172v-322q0 -152 -78 -246q-105 -120 -296 -120q-117 0 -213 45v-416h-265v1819h265z" />
    <glyph glyph-name="ydieresis" unicode="&#xff;" horiz-adv-x="1028" 
d="M934 1026v-1034q0 -123 -49 -211q-95 -170 -320 -170q-195 0 -375 119l103 145q113 -70 219 -70q152 0 160 162v76q-94 -43 -192 -43q-281 0 -365 196q-31 73 -31 169v661h264v-651q0 -97 36 -141t123 -44t165 29v807h262zM751 1417q43 0 77 -35t34 -75q0 -135 -133 -137
q-39 0 -76 35q-37 36 -37 80t18 72q36 60 117 60zM325 1417q52 0 87 -35q34 -35 34 -88t-34 -89t-87 -36q-52 0 -88 36t-36 89t36 88t88 35z" />
    <glyph glyph-name="Amacron" unicode="&#x100;" horiz-adv-x="1294" 
d="M498 612h297l-148 496zM1255 0h-286l-109 369h-426l-110 -369h-285l473 1434h270zM909 1642h-526v136h526v-136z" />
    <glyph glyph-name="amacron" unicode="&#x101;" 
d="M506 485q-201 1 -201 -149t184 -150q84 0 152 35v254q-82 10 -135 10zM905 616v-618h-203l-6 53q-102 -67 -257 -67t-267 84q-111 84 -111 273t132 261q111 64 270 66q80 0 178 -17q-2 86 -46 133q-45 47 -151 47t-202 -63l-131 125q137 152 356 151q438 0 438 -428z
M782 1217h-526v135h526v-135z" />
    <glyph glyph-name="Abreve" unicode="&#x102;" horiz-adv-x="1294" 
d="M498 612h297l-148 496zM1255 0h-286l-109 369h-426l-110 -369h-285l473 1434h270zM969 1843q0 -129 -91 -211t-229 -82t-231 83q-92 83 -90 210h116q6 -76 66 -116q60 -39 124 -39t107 15t75 52t36 88h117z" />
    <glyph glyph-name="abreve" unicode="&#x103;" 
d="M506 485q-201 1 -201 -149t184 -150q84 0 152 35v254q-82 10 -135 10zM905 616v-618h-203l-6 53q-102 -67 -257 -67t-267 84q-111 84 -111 273t132 261q111 64 270 66q80 0 178 -17q-2 86 -46 133q-45 47 -151 47t-202 -63l-131 125q137 152 356 151q438 0 438 -428z
M842 1436q0 -129 -91 -211t-231 -82q-90 0 -163 37q-73 38 -115 104t-41 152h116q5 -76 65 -116t139 -40t139 40t65 116h117z" />
    <glyph glyph-name="Aogonek" unicode="&#x104;" horiz-adv-x="1331" 
d="M500 612h295l-148 496zM1074 -286q62 -3 128 89l103 -39q-104 -178 -285 -178q-68 0 -114 26q-83 48 -84 160t147 228l-109 369h-426l-110 -369h-285l473 1434h270l473 -1434l-139 -4q-119 -111 -119 -195t77 -87z" />
    <glyph glyph-name="aogonek" unicode="&#x105;" 
d="M506 485q-201 1 -201 -149t184 -150q84 0 152 35v254q-82 10 -135 10zM903 616v-618l-53 -4q-117 -111 -117 -203q0 -75 77 -79q63 -3 128 91l102 -41q-104 -178 -284 -178q-68 0 -114 26q-83 48 -84 160q-1 111 144 228l-6 53q-102 -67 -257 -67t-267 84
q-111 84 -111 273t132 261q111 64 270 66q80 0 178 -17q-2 86 -46 133q-45 47 -151 47t-202 -63l-131 125q137 152 356 151q436 0 436 -428z" />
    <glyph glyph-name="Cacute" unicode="&#x106;" horiz-adv-x="1155" 
d="M109 483v478q0 239 144 371t376 132q172 0 291 -79t167 -214l-200 -92q-29 68 -93 105t-132 37q-126 0 -201 -66q-74 -66 -76 -194v-478q0 -127 75 -195t172 -67q196 0 255 141l200 -90q-49 -137 -167 -215t-291 -77q-231 0 -375 130t-145 373zM680 1595h-174l121 254
h237z" />
    <glyph glyph-name="cacute" unicode="&#x107;" horiz-adv-x="911" 
d="M68 403v220q0 199 112 311t316 110q268 0 358 -219l-215 -77q-49 84 -143 83q-164 0 -164 -208v-220q0 -209 164 -208q94 0 143 84l215 -78q-90 -219 -358 -219q-205 0 -317 111q-111 111 -111 310zM524 1180h-172l119 254h240z" />
    <glyph glyph-name="Cdotaccent" unicode="&#x10a;" horiz-adv-x="1155" 
d="M109 483v478q0 239 144 371t376 132q172 0 291 -79t167 -214l-200 -92q-29 68 -93 105t-132 37q-126 0 -201 -66q-74 -66 -76 -194v-478q0 -127 75 -195t172 -67q196 0 255 141l200 -90q-49 -137 -167 -215t-291 -77q-231 0 -375 130t-145 373zM589 1825q52 0 87 -36
t35 -75t-14 -72t-48 -49q-35 -16 -73 -16t-75 36q-36 36 -36 89t36 88t88 35z" />
    <glyph glyph-name="cdotaccent" unicode="&#x10b;" horiz-adv-x="911" 
d="M68 403v220q0 199 112 311t316 110q268 0 358 -219l-215 -77q-49 84 -143 83q-164 0 -164 -208v-220q0 -209 164 -208q94 0 143 84l215 -78q-90 -219 -358 -219q-205 0 -317 111q-111 111 -111 310zM458 1417q52 0 87 -35t35 -75q0 -66 -35 -101t-87 -36t-88 35t-36 89
t36 88t88 35z" />
    <glyph glyph-name="Ccaron" unicode="&#x10c;" horiz-adv-x="1155" 
d="M109 483v478q0 239 144 371t376 132q172 0 291 -79t167 -214l-200 -92q-29 68 -93 105t-132 37q-126 0 -201 -66q-74 -66 -76 -194v-478q0 -127 75 -195t172 -67q196 0 255 141l200 -90q-49 -137 -167 -215q-118 -77 -281 -77q-330 1 -462 226q-68 115 -68 277zM692 1585
h-239l-244 295h205l157 -186l158 186h205z" />
    <glyph glyph-name="ccaron" unicode="&#x10d;" horiz-adv-x="911" 
d="M68 403v220q0 199 112 311t316 110q268 0 358 -219l-215 -77q-49 84 -143 83q-164 0 -164 -208v-220q0 -209 164 -208q94 0 143 84l215 -78q-90 -219 -358 -219q-205 0 -317 111q-111 111 -111 310zM578 1178h-238l-246 295h205l160 -187l155 187h205z" />
    <glyph glyph-name="Dcaron" unicode="&#x10e;" horiz-adv-x="1269" 
d="M410 1190v-946h260q111 0 163 45t52 166v477q0 166 -110 227q-56 31 -140 31h-225zM135 1434h500q250 0 388 -142t138 -360v-477q0 -125 -42 -217q-75 -164 -269 -215q-84 -23 -180 -23h-535v1434zM756 1585h-238l-246 295h207l158 -186l156 186h206z" />
    <glyph glyph-name="dcaron" unicode="&#x10f;" horiz-adv-x="1335" 
d="M490 840q-86 0 -122 -43t-36 -142v-311q2 -156 168 -156q83 0 155 29v594q-79 29 -165 29zM920 0h-203l-6 53q-104 -69 -258 -69t-262 83q-56 41 -90 113t-33 166v328q0 199 119 289q101 77 234 77q132 0 234 -43v437h265v-1434zM1188 1657q60 0 104 -43q43 -42 43 -92
t-16 -82l-119 -250h-172l68 209q-54 43 -54 107t43 108t103 43z" />
    <glyph glyph-name="Dcroat" unicode="&#x110;" horiz-adv-x="1314" 
d="M461 1190v-406h246v-135h-246v-405h258q74 0 119 16q98 35 98 195v477q0 126 -64 192t-188 66h-223zM184 1434h500q250 0 388 -142t138 -360v-477q0 -251 -146 -353t-345 -102h-535v649h-155v135h155v650z" />
    <glyph glyph-name="dcroat" unicode="&#x111;" horiz-adv-x="1101" 
d="M490 840q-86 0 -122 -43t-36 -142v-311q2 -156 168 -156q83 0 155 29v594q-79 29 -165 29zM920 1305h147v-136h-147v-1169h-203l-6 53q-104 -69 -258 -69t-262 83q-56 41 -90 113t-33 166v328q0 199 119 289q101 77 234 77q132 0 234 -43v172h-217v136h217v129h265v-129z
" />
    <glyph glyph-name="Emacron" unicode="&#x112;" horiz-adv-x="1142" 
d="M1063 1190h-653v-352h602v-244h-602v-350h663v-244h-938v1434h928v-244zM868 1642h-526v136h526v-136z" />
    <glyph glyph-name="emacron" unicode="&#x113;" horiz-adv-x="952" 
d="M649 582v69q0 143 -93 177q-28 11 -62 12q-162 0 -162 -191v-67h317zM324 338q0 -158 200 -158q102 0 183 70l145 -113q-127 -156 -371 -155q-207 0 -310 110t-103 275v274q0 288 244 375q81 29 186 28q201 0 300 -108t99 -293v-227h-573v-78zM748 1260h-527v137h527
v-137z" />
    <glyph glyph-name="Edotaccent" unicode="&#x116;" horiz-adv-x="1142" 
d="M1063 1190h-653v-352h602v-244h-602v-350h663v-244h-938v1434h928v-244zM552 1825q52 0 87 -36t35 -75q0 -96 -74 -128q-24 -9 -62 -9t-75 36t-37 88t37 88t89 36z" />
    <glyph glyph-name="edotaccent" unicode="&#x117;" horiz-adv-x="952" 
d="M649 582v69q0 143 -93 177q-28 11 -62 12q-162 0 -162 -191v-67h317zM324 338q0 -158 200 -158q102 0 183 70l145 -113q-127 -156 -371 -155q-207 0 -310 110t-103 275v274q0 288 244 375q81 29 186 28q201 0 300 -108t99 -293v-227h-573v-78zM488 1417q52 0 87 -35
t35 -88t-35 -89t-87 -36t-89 36t-37 89t37 88t89 35z" />
    <glyph glyph-name="Eogonek" unicode="&#x118;" horiz-adv-x="1169" 
d="M1063 1190h-653v-352h602v-244h-602v-350h663v-244h-176q-43 -48 -61 -68t-43 -64t-25 -81t23 -57q23 -19 60 -19t65 25t57 65l100 -41q-102 -178 -282 -178q-90 0 -145 48q-54 48 -54 132q0 106 149 238h-606v1434h928v-244z" />
    <glyph glyph-name="eogonek" unicode="&#x119;" horiz-adv-x="952" 
d="M649 582v69q0 97 -42 143t-113 46q-162 0 -162 -191v-67h317zM324 338q0 -160 200 -160q102 0 183 72l145 -115q-61 -74 -152 -112q-137 -127 -137 -224q0 -75 77 -79q63 -3 128 90l100 -39q-102 -178 -282 -179q-65 0 -112 26q-87 48 -88 152q-1 103 118 214
q-63 -2 -125 10q-156 27 -234 129q-77 103 -77 244v274q0 188 111 296q112 107 316 107t303 -108t99 -293v-227h-573v-78z" />
    <glyph glyph-name="Ecaron" unicode="&#x11a;" horiz-adv-x="1142" 
d="M1063 1190h-653v-352h602v-244h-602v-350h663v-244h-938v1434h928v-244zM664 1585h-238l-246 295h205l160 -186l155 186h205z" />
    <glyph glyph-name="ecaron" unicode="&#x11b;" horiz-adv-x="952" 
d="M649 582v69q0 143 -93 177q-28 11 -62 12q-162 0 -162 -191v-67h317zM324 338q0 -158 200 -158q102 0 183 70l145 -113q-127 -156 -371 -155q-207 0 -310 110t-103 275v274q0 288 244 375q81 29 186 28q201 0 300 -108t99 -293v-227h-573v-78zM608 1178h-237l-246 295
h205l159 -187l156 187h205z" />
    <glyph glyph-name="Gbreve" unicode="&#x11e;" horiz-adv-x="1267" 
d="M109 461v500q-1 163 67 277q134 226 457 226q180 0 300 -78t169 -215l-217 -92q-39 74 -94 108t-145 34t-146 -26q-115 -54 -115 -234v-500q0 -192 170 -231q35 -7 78 -7q236 0 235 238v112h-223v230h498v-803h-201l-10 121q-54 -72 -144 -107q-177 -69 -370 -4
q-192 65 -266 235q-43 95 -43 216zM954 1843q0 -129 -90 -211t-229 -82q-90 0 -164 37t-115 104t-41 152h115q8 -76 66 -116q58 -39 124 -39q64 0 108 15t75 52t37 88h114z" />
    <glyph glyph-name="gbreve" unicode="&#x11f;" horiz-adv-x="1011" 
d="M500 840q-166 0 -168 -158v-305q0 -98 36 -141q36 -44 122 -44t165 27v590q-72 31 -155 31zM68 365v315q0 193 119 277q119 85 270 85q152 0 254 -69l6 53h203v-1034q0 -184 -104 -282t-284 -99q-180 0 -358 119l102 145q114 -70 204 -70t130 37t45 125v76
q-95 -43 -193 -43t-161 20q-233 74 -233 345zM827 1436q0 -129 -91 -211t-229 -82t-229 82t-92 211h115q7 -76 67 -116t124 -40q125 0 183 68q32 37 36 88h116z" />
    <glyph glyph-name="Gdotaccent" unicode="&#x120;" horiz-adv-x="1267" 
d="M109 461v500q-1 163 67 277q134 226 457 226q266 0 402 -172q42 -53 67 -121l-217 -92q-54 98 -135 126q-45 15 -120 15q-245 2 -245 -259v-500q0 -127 69 -182t179 -56q236 0 235 238v112h-223v230h498v-803h-201l-10 121q-54 -72 -144 -107q-177 -69 -370 -4
q-192 65 -266 235q-43 95 -43 216zM622 1833q43 0 77 -35t34 -88t-35 -89t-86 -36t-88 36t-37 80t18 73q35 59 117 59z" />
    <glyph glyph-name="gdotaccent" unicode="&#x121;" horiz-adv-x="1011" 
d="M500 840q-166 0 -168 -158v-305q0 -98 36 -141q36 -44 122 -44t165 27v590q-72 31 -155 31zM68 365v315q0 193 119 277q119 85 270 85q152 0 254 -69l6 53h203v-1034q0 -184 -104 -282t-284 -99q-180 0 -358 119l102 145q114 -70 204 -70t130 37t45 125v76
q-91 -43 -191 -43t-163 20q-233 74 -233 345zM509 1417q52 0 86 -35t34 -75q0 -96 -74 -128t-135 26q-37 36 -37 89t37 88t89 35z" />
    <glyph glyph-name="Gcommaaccent" unicode="&#x122;" horiz-adv-x="1267" 
d="M520 -250q0 42 28 69t66 27t67 -28q28 -28 28 -58q0 -31 -11 -53l-77 -164h-111l45 138q-35 27 -35 69zM109 461v500q-1 163 67 277q134 226 457 226q180 0 300 -78t169 -215l-217 -92q-39 74 -94 108t-167 34q-237 0 -239 -260v-500q0 -127 69 -182t179 -56
q236 0 235 238v112h-223v230h498v-803h-201l-10 121q-111 -141 -336 -141q-188 0 -331 113q-71 55 -113 151t-43 217z" />
    <glyph glyph-name="gcommaaccent" unicode="&#x123;" horiz-adv-x="1011" 
d="M500 840q-166 0 -168 -158v-305q0 -98 36 -141q36 -44 122 -44t165 27v590q-72 31 -155 31zM68 365v315q0 193 119 277q119 85 270 85q152 0 254 -69l6 53h203v-1034q0 -184 -104 -282t-284 -99q-180 0 -358 119l102 145q114 -70 204 -70t130 37t45 125v76
q-95 -43 -193 -43t-161 20q-233 74 -233 345zM623 1277q0 -40 -28 -69q-45 -47 -103 -20t-58 86q0 23 10 45l78 164h111l-45 -135q35 -31 35 -71z" />
    <glyph glyph-name="Hbar" unicode="&#x126;" horiz-adv-x="1431" 
d="M469 1057v-219h494v219h-494zM1237 1192h149v-135h-149v-1057h-274v594h-494v-594h-274v1057h-148v135h148v242h274v-242h494v242h274v-242z" />
    <glyph glyph-name="hbar" unicode="&#x127;" horiz-adv-x="1122" 
d="M451 1300h264v-135h-264v-168q95 45 189 45t158 -19t120 -60q55 -41 88 -115t32 -170v-678h-264v659q0 95 -37 139t-124 44t-162 -31v-811h-265v1165h-161v135h161v134h265v-134z" />
    <glyph glyph-name="Imacron" unicode="&#x12a;" horiz-adv-x="544" 
d="M410 0h-275v1434h275v-1434zM535 1667h-527v137h527v-137z" />
    <glyph glyph-name="imacron" unicode="&#x12b;" horiz-adv-x="421" 
d="M348 0h-262v1026h262v-1026zM473 1217h-524v135h524v-135z" />
    <glyph glyph-name="Iogonek" unicode="&#x12e;" horiz-adv-x="544" 
d="M410 1434v-1434q-125 -115 -125 -207q0 -52 40 -72q17 -8 41 -8q24 1 48 13t39 30q16 18 39 47l100 -41q-102 -178 -283 -178q-66 0 -113 26q-87 49 -87 160q0 110 145 226l-119 4v1434h275z" />
    <glyph glyph-name="iogonek" unicode="&#x12f;" horiz-adv-x="421" 
d="M348 1024v-1024q-125 -115 -125 -209q0 -75 77 -79q36 -2 66 22q30 23 64 69l100 -41q-104 -178 -282 -178q-70 0 -116 26q-83 48 -84 159q-1 110 145 227l-107 4v1024h262zM221 1417q53 0 87 -35t34 -75q0 -95 -74 -127q-24 -10 -62 -10t-74 35q-36 36 -36 89t36 88
t89 35z" />
    <glyph glyph-name="Idotaccent" unicode="&#x130;" horiz-adv-x="544" 
d="M410 0h-275v1434h275v-1434zM278 1833q52 0 86 -35t34 -87t-36 -89q-35 -37 -86 -37t-88 37q-36 37 -36 89t36 87q38 35 90 35z" />
    <glyph glyph-name="dotlessi" unicode="&#x131;" horiz-adv-x="421" 
d="M348 0h-262v1026h262v-1026z" />
    <glyph glyph-name="IJ" unicode="&#x132;" horiz-adv-x="1302" 
d="M1202 1432v-983q0 -223 -134 -345t-353 -122q-61 0 -125 10v244q51 -10 98 -11q110 1 174 55t64 169v983h276zM410 0h-275v1434h275v-1434z" />
    <glyph glyph-name="ij" unicode="&#x133;" horiz-adv-x="950" 
d="M375 0h-264v1026h264v-1026zM850 1026v-1079q0 -181 -135 -265q-113 -72 -283 -65v211q45 0 86 14t54 54t14 100v1030h264zM246 1452q57 0 97 -40t40 -87q0 -92 -65 -131q-32 -20 -82 -20t-92 40q-40 42 -40 102t42 98q43 38 100 38zM720 1452q58 0 97 -40t39 -97
t-38 -99t-98 -42t-100 40t-40 102q0 60 41 98t99 38z" />
    <glyph glyph-name="Kcommaaccent" unicode="&#x136;" horiz-adv-x="1267" 
d="M522 -250q0 42 28 69t66 27t67 -28q28 -28 28 -58q0 -31 -11 -53l-77 -164h-111l45 138q-35 27 -35 69zM410 0h-275v1434h275v-549l426 549h344l-490 -609l541 -825h-332l-381 608l-108 -133v-475z" />
    <glyph glyph-name="kcommaaccent" unicode="&#x137;" horiz-adv-x="1071" 
d="M428 -250q0 42 28 69t66 27t67 -28q49 -48 15 -111l-76 -164h-110l43 138q-33 27 -33 69zM369 0h-265v1434h265v-742l299 348h311l-369 -438l439 -602h-293l-295 422l-92 -92v-330z" />
    <glyph glyph-name="Lacute" unicode="&#x139;" horiz-adv-x="991" 
d="M410 244h536v-244h-811v1434h275v-1190zM362 1595h-174l121 254h240z" />
    <glyph glyph-name="lacute" unicode="&#x13a;" horiz-adv-x="450" 
d="M369 0h-265v1434h265v-1434zM330 1589h-174l120 254h238z" />
    <glyph glyph-name="Lcommaaccent" unicode="&#x13b;" horiz-adv-x="991" 
d="M420 -250q0 42 27 69q28 27 67 27t67 -28q49 -48 15 -111l-76 -164h-110l43 138q-33 27 -33 69zM410 244h536v-244h-811v1434h275v-1190z" />
    <glyph glyph-name="lcommaaccent" unicode="&#x13c;" horiz-adv-x="450" 
d="M147 -250q0 42 28 69t67 27q38 0 66 -28t28 -58q0 -31 -10 -53l-78 -164h-111l45 138q-35 27 -35 69zM369 0h-265v1434h265v-1434z" />
    <glyph glyph-name="Lcaron" unicode="&#x13d;" horiz-adv-x="991" 
d="M410 244h536v-244h-811v1434h275v-1190zM631 1495q0 98 75 141q34 20 84 20t92 -42q44 -42 44 -92t-19 -82l-116 -250h-175l68 209q-53 43 -53 96z" />
    <glyph glyph-name="lcaron" unicode="&#x13e;" horiz-adv-x="786" 
d="M369 0h-265v1434h265v-1434zM492 1506q0 64 43 108t103 43q60 0 104 -43q44 -42 44 -92t-18 -82l-117 -250h-174l68 209q-53 43 -53 107z" />
    <glyph glyph-name="Ldot" unicode="&#x13f;" horiz-adv-x="991" 
d="M757 999q60 0 103 -43t43 -93q0 -97 -73 -137q-34 -19 -74 -19t-73 19q-71 40 -72 113q-1 74 42 117q44 43 104 43zM410 244h536v-244h-811v1434h275v-1190z" />
    <glyph glyph-name="ldot" unicode="&#x140;" horiz-adv-x="800" 
d="M637 864q45 0 89 -43t44 -93q0 -96 -74 -137t-147 -1q-72 40 -74 127q0 31 12 57q40 90 150 90zM369 0h-265v1434h265v-1434z" />
    <glyph glyph-name="Lslash" unicode="&#x141;" horiz-adv-x="1134" 
d="M553 244h537v-244h-811v537l-168 -76l-91 219l259 115v639h274v-514l240 108l102 -215l-342 -154v-415z" />
    <glyph glyph-name="lslash" unicode="&#x142;" horiz-adv-x="903" 
d="M551 0h-277v537l-170 -76l-90 219l260 117v637h277v-512l237 106l101 -215l-338 -151v-662z" />
    <glyph glyph-name="Nacute" unicode="&#x143;" horiz-adv-x="1314" 
d="M1190 0h-289l-502 883v-883h-274v1434h274l516 -910v910h275v-1434zM725 1587h-174l121 254h239z" />
    <glyph glyph-name="nacute" unicode="&#x144;" horiz-adv-x="1028" 
d="M944 676v-676h-262v657q0 95 -38 139t-125 44t-161 -31v-809h-264v1026h201l6 -53q115 67 267 67t264 -89q112 -88 112 -275zM596 1180h-174l121 254h237z" />
    <glyph glyph-name="Ncommaaccent" unicode="&#x145;" horiz-adv-x="1314" 
d="M551 -250q0 42 28 69q29 27 67 27t66 -28q47 -46 17 -111l-78 -164h-110l45 138q-35 27 -35 69zM1190 0h-289l-502 883v-883h-274v1434h274l516 -910v910h275v-1434z" />
    <glyph glyph-name="ncommaaccent" unicode="&#x146;" horiz-adv-x="1028" 
d="M418 -250q0 42 28 69q29 27 68 27t67 -28q49 -48 15 -111l-76 -164h-110l43 138q-35 27 -35 69zM944 676v-676h-262v657q0 95 -38 139t-125 44t-161 -31v-809h-264v1026h201l6 -53q115 67 267 67t264 -89q112 -88 112 -275z" />
    <glyph glyph-name="Ncaron" unicode="&#x147;" horiz-adv-x="1314" 
d="M1190 0h-289l-502 883v-883h-274v1434h274l516 -910v910h275v-1434zM772 1585h-237l-246 295h205l159 -186l156 186h205z" />
    <glyph glyph-name="ncaron" unicode="&#x148;" horiz-adv-x="1028" 
d="M944 676v-676h-262v657q0 95 -38 139t-125 44t-161 -31v-809h-264v1026h201l6 -53q115 67 267 67t264 -89q112 -88 112 -275zM649 1178h-237l-246 295h205l159 -187l156 187h205z" />
    <glyph glyph-name="Eng" unicode="&#x14a;" horiz-adv-x="1314" 
d="M1190 1434v-1526q0 -153 -96 -236q-81 -67 -213 -86q-41 -10 -109 -10v211q47 0 86 14q53 25 66 97v59l-525 926v-883h-274v1434h274l516 -910v910h275z" />
    <glyph glyph-name="eng" unicode="&#x14b;" horiz-adv-x="1036" 
d="M944 676v-768q0 -152 -89 -231q-114 -101 -327 -101v211q116 0 141 69q13 38 13 99v702q0 128 -69 163q-37 20 -109 20t-146 -31v-809h-264v1026h201l6 -53q115 67 267 67t264 -89q112 -88 112 -275z" />
    <glyph glyph-name="Omacron" unicode="&#x14c;" horiz-adv-x="1259" 
d="M877 459v497q0 262 -244 263q-123 1 -185 -61t-63 -200v-499q0 -125 69 -181q68 -56 178 -56t178 54q68 56 67 183zM109 459v499q0 162 67 277q134 227 457 227q246 0 382 -138t136 -368v-497q0 -175 -82 -285q-83 -108 -197 -152q-114 -43 -214 -44q-277 -3 -432 155
q-52 53 -84 137t-33 189zM893 1642h-526v136h526v-136z" />
    <glyph glyph-name="omacron" unicode="&#x14d;" 
d="M657 397v230q0 207 -159 207q-88 0 -127 -50t-39 -157v-230q0 -89 37 -142q39 -60 129 -60q159 0 159 202zM68 397v230q0 197 110 307t319 110t317 -112t108 -305v-230q0 -159 -93 -280q-47 -61 -132 -99t-199 -36q-317 1 -407 265q-23 70 -23 150zM758 1217h-527v135
h527v-135z" />
    <glyph glyph-name="Ohungarumlaut" unicode="&#x150;" horiz-adv-x="1259" 
d="M877 459v497q0 262 -244 263q-123 1 -185 -61t-63 -200v-499q0 -125 69 -181q68 -56 178 -56t178 54q68 56 67 183zM109 459v499q0 162 67 277q134 227 457 227q246 0 382 -138t136 -368v-497q0 -175 -82 -285q-83 -108 -197 -152q-114 -43 -214 -44q-277 -3 -432 155
q-52 53 -84 137t-33 189zM868 1593h-163l108 256h219zM539 1593h-162l106 256h222z" />
    <glyph glyph-name="ohungarumlaut" unicode="&#x151;" 
d="M657 397v230q0 207 -159 207q-88 0 -127 -50t-39 -157v-230q0 -89 37 -142q39 -60 129 -60q159 0 159 202zM68 397v230q0 197 110 307t319 110t317 -112t108 -305v-230q0 -159 -93 -280q-47 -61 -132 -99t-199 -36q-317 1 -407 265q-23 70 -23 150zM723 1178h-162
l107 256h219zM393 1178h-162l107 256h221z" />
    <glyph glyph-name="OE" unicode="&#x152;" horiz-adv-x="1916" 
d="M362 961v-500q0 -127 70 -182t178 -55t178 54q68 56 68 175v505q0 262 -244 263q-250 0 -250 -260zM88 461v500q0 243 143 373t381 130q190 0 301 -106v76h932v-244h-657v-352h602v-244h-602v-350h661v-244h-936v82q-111 -102 -285 -102t-300 66q-148 76 -207 226
q-33 85 -33 189z" />
    <glyph glyph-name="oe" unicode="&#x153;" horiz-adv-x="1542" 
d="M657 389v236q0 205 -159 204q-88 0 -127 -49t-39 -155v-232q0 -88 40 -144t110 -56q70 -1 108 27q67 50 67 169zM1239 578v69q0 97 -42 143t-114 46q-162 0 -161 -189v-69h317zM913 334q-1 -158 197 -158q96 0 186 72l146 -115q-125 -154 -371 -156q-127 0 -202 42
t-83 85q-12 -32 -60 -64q-90 -60 -216 -60q-244 0 -343 127t-99 286v232q0 197 110 307t320 110q128 0 202 -43t88 -86q12 43 88 85t209 42q201 0 301 -106t101 -293v-227h-574v-80z" />
    <glyph glyph-name="Racute" unicode="&#x154;" horiz-adv-x="1247" 
d="M410 1190v-410h252q136 0 188 97q24 47 24 123t-55 134q-55 56 -153 56h-256zM135 1434h535q217 0 343 -129t126 -299t-71 -277q-71 -106 -202 -147l-32 -4l352 -578h-318l-311 537h-147v-537h-275v1434zM694 1587h-174l121 254h238z" />
    <glyph glyph-name="racute" unicode="&#x155;" horiz-adv-x="692" 
d="M358 0h-264v1042h201l12 -114q90 116 262 114q55 0 101 -10l-2 -213q-115 25 -162 12q-147 -18 -148 -206v-625zM416 1180h-174l120 254h238z" />
    <glyph glyph-name="Rcommaaccent" unicode="&#x156;" horiz-adv-x="1247" 
d="M514 -258q0 34 12 58q25 46 73 46t76 -28q47 -46 17 -111l-78 -164h-110l45 138q-35 27 -35 61zM410 1190v-410h252q136 0 188 97q24 47 24 123t-55 134q-55 56 -153 56h-256zM135 1434h535q145 0 254 -62q110 -62 162 -162q52 -98 52 -208q1 -328 -266 -418l-38 -6
l352 -578h-318l-311 537h-147v-537h-275v1434z" />
    <glyph glyph-name="rcommaaccent" unicode="&#x157;" horiz-adv-x="692" 
d="M127 -250q0 42 35 76q35 35 94 13t59 -87q0 -23 -10 -45l-78 -164h-110l45 138q-35 27 -35 69zM358 0h-264v1042h201l12 -114q90 116 262 114q55 0 101 -10l-2 -213q-115 25 -162 12q-147 -18 -148 -206v-625z" />
    <glyph glyph-name="Rcaron" unicode="&#x158;" horiz-adv-x="1247" 
d="M410 1190v-410h252q136 0 188 97q24 47 24 123t-55 134q-55 56 -153 56h-256zM135 1434h535q217 0 343 -129t126 -299t-71 -277q-71 -106 -202 -147l-32 -4l352 -578h-318l-311 537h-147v-537h-275v1434zM745 1585h-237l-246 295h205l160 -186l155 186h207z" />
    <glyph glyph-name="rcaron" unicode="&#x159;" horiz-adv-x="692" 
d="M358 0h-264v1042h201l12 -114q90 116 262 114q55 0 101 -10l-2 -213q-115 25 -162 12q-147 -18 -148 -206v-625zM469 1178h-240l-245 295h206l158 -187l156 187h207z" />
    <glyph glyph-name="Sacute" unicode="&#x15a;" horiz-adv-x="1165" 
d="M66 418h260q4 -195 262 -195q121 0 183 48q63 48 63 136t-103 131q-103 44 -140 52q-37 7 -77 20q-220 69 -305 145t-107 164q-14 54 -14 119q0 197 126 308q126 110 354 110t358 -113t131 -317h-260q-2 190 -230 191q-98 -1 -155 -45q-58 -44 -58 -120t91 -125
q58 -29 198 -67q246 -59 351 -168q106 -109 106 -286t-113 -297q-57 -61 -157 -97t-230 -37q-246 0 -390 121t-144 322zM651 1587h-174l121 254h238z" />
    <glyph glyph-name="sacute" unicode="&#x15b;" horiz-adv-x="905" 
d="M449 190q63 0 100 30t37 77t-32 74t-153 55q-244 44 -306 174q-26 55 -25 133q0 143 95 229t288 85q193 0 287 -85t94 -229h-252q0 39 -32 70t-95 31t-95 -31t-32 -73t40 -68t134 -46q174 -34 262 -106t88 -209t-93 -229t-291 -92t-306 84t-111 235h256q14 -109 142 -109
zM524 1180h-174l121 254h238z" />
    <glyph glyph-name="Scedilla" unicode="&#x15e;" horiz-adv-x="1165" 
d="M66 418h260q4 -195 262 -195q160 0 219 85q27 40 27 96t-35 92q-35 35 -95 55q-63 21 -194 61q-249 76 -335 176q-87 101 -87 250q0 197 126 308q126 110 354 110t358 -113t131 -317h-260q-2 190 -230 191q-98 -1 -155 -45q-58 -44 -58 -114t60 -113q60 -42 229 -85
q246 -59 351 -168t106 -289q0 -242 -199 -359q-107 -63 -274 -69l-41 -55q126 29 204 -41q50 -45 50 -141t-79 -146q-79 -49 -187 -49t-255 62l46 102q103 -45 169 -45q128 0 128 80q0 74 -89 74q-51 0 -112 -25l-51 47l96 144q-205 23 -323 139q-117 117 -117 297z" />
    <glyph glyph-name="scedilla" unicode="&#x15f;" horiz-adv-x="905" 
d="M535 -254q0 74 -89 74q-53 0 -112 -27l-51 47l94 144q-210 25 -287 162q-37 67 -39 153h256q14 -109 142 -109q63 0 100 31t37 75t-31 72q-31 29 -154 58q-244 44 -306 174q-26 55 -25 133q0 143 95 229t288 85q193 0 287 -85t94 -229h-252q0 39 -32 70t-95 31t-95 -30
t-32 -73t40 -69t134 -46q174 -34 262 -106t88 -206t-86 -221q-45 -46 -113 -71q-63 -29 -153 -30l-41 -58q31 6 67 6q80 0 131 -43q52 -43 53 -143q1 -101 -77 -151q-77 -50 -181 -50t-259 66l43 102q84 -37 180 -47q49 -2 84 21t35 61z" />
    <glyph glyph-name="Scaron" unicode="&#x160;" horiz-adv-x="1165" 
d="M66 418h260q4 -195 262 -195q121 0 183 48q63 48 63 136t-103 131q-103 44 -140 52q-61 12 -166 50q-153 55 -245 143t-92 270t126 293q126 110 354 110t358 -113t131 -317h-262q0 190 -228 191q-98 -1 -155 -45q-58 -44 -58 -115t58 -111t231 -86q246 -59 351 -168
q106 -109 106 -286t-113 -297q-57 -61 -157 -97t-230 -37q-246 0 -390 121t-144 322zM705 1585h-240l-246 295h207l158 -186l155 186h207z" />
    <glyph glyph-name="scaron" unicode="&#x161;" horiz-adv-x="905" 
d="M449 190q63 0 100 30t37 77t-32 74t-153 55q-244 44 -306 174q-26 55 -25 133q0 143 95 229t288 85q193 0 287 -85t94 -229h-252q0 39 -32 70t-95 31t-95 -31t-32 -73t40 -68t134 -46q174 -34 262 -106t88 -209t-93 -229t-291 -92t-306 84t-111 235h256q14 -109 142 -109
zM575 1178h-237l-246 295h205l160 -187l155 187h207z" />
    <glyph glyph-name="Tcedilla" unicode="&#x162;" horiz-adv-x="1085" 
d="M1028 1190h-356v-1192h-82l-45 -66q41 6 63 7q82 0 135 -45t53 -144q0 -100 -78 -148t-184 -48t-258 63l46 102q82 -37 178 -47q51 -2 86 21t35 61q0 76 -91 76q-47 0 -112 -29l-51 47l100 152h-72v1190h-344v244h977v-244z" />
    <glyph glyph-name="tcedilla" unicode="&#x163;" horiz-adv-x="667" 
d="M360 408q0 -252 250 -213v-209q-57 -6 -109 -6t-120 16l-41 -55q166 34 230 -77q24 -40 24 -95q0 -109 -79 -158t-185 -49t-256 63l45 103q82 -37 178 -47q49 -1 84 21t35 60q0 76 -88 76q-47 0 -113 -28l-51 47l115 172q-182 96 -183 331v916h264v-250h213v-213h-213
v-405z" />
    <glyph glyph-name="Tcaron" unicode="&#x164;" horiz-adv-x="1085" 
d="M1028 1190h-356v-1190h-277v1190h-344v244h977v-244zM666 1585h-240l-246 295h207l158 -186l157 186h205z" />
    <glyph glyph-name="tcaron" unicode="&#x165;" horiz-adv-x="667" 
d="M360 408q0 -252 250 -213v-209q-58 -6 -118 -6t-131 19t-132 62t-97 120t-36 179v916h264v-250h213v-213h-213v-405zM778 1522q0 -50 -18 -82l-117 -250h-174l68 209q-51 43 -51 96q-1 98 72 141q34 20 84 20t93 -42t43 -92z" />
    <glyph glyph-name="Tbar" unicode="&#x166;" horiz-adv-x="1085" 
d="M1028 1190h-356v-385h192v-135h-192v-670h-277v670h-180v135h180v385h-344v244h977v-244z" />
    <glyph glyph-name="tbar" unicode="&#x167;" horiz-adv-x="667" 
d="M360 408q0 -255 250 -213v-209q-49 -6 -87 -6q-189 0 -308 97t-119 283v914h264v-248h213v-213h-213v-125h213v-174h-213v-106z" />
    <glyph glyph-name="Umacron" unicode="&#x16a;" horiz-adv-x="1302" 
d="M1165 1434v-973q0 -293 -234 -415q-126 -66 -284 -66q-157 0 -294 71q-138 71 -197 221q-33 84 -33 189v973h276v-973q0 -127 69 -182q68 -55 178 -55t178 54q68 56 67 183v973h274zM905 1642h-526v136h526v-136z" />
    <glyph glyph-name="umacron" unicode="&#x16b;" horiz-adv-x="1017" 
d="M936 0h-203l-6 53q-115 -70 -256 -69q-198 0 -307 124q-82 93 -80 242v676h264v-657q0 -128 67 -163q37 -20 109 -20t148 31v809h264v-1026zM772 1217h-526v135h526v-135z" />
    <glyph glyph-name="Uring" unicode="&#x16e;" horiz-adv-x="1282" 
d="M1165 1434v-973q0 -293 -234 -415q-126 -66 -284 -66q-207 0 -349 106q-178 139 -175 375v973h276v-973q0 -127 69 -182q68 -55 178 -55t178 54q68 56 67 183v973h274zM641 1839q-49 0 -85 -35t-36 -85t36 -86t85 -36t84 36t35 86t-35 85t-84 35zM641 1966q98 0 172 -74
t74 -173t-73 -172t-173 -73t-173 74t-73 172t74 172t172 74z" />
    <glyph glyph-name="uring" unicode="&#x16f;" horiz-adv-x="1017" 
d="M936 0h-203l-6 53q-115 -69 -263 -69t-259 85q-55 43 -88 115t-33 166v676h264v-657q0 -128 67 -163q37 -20 109 -20t148 31v809h264v-1026zM524 1432q-40 0 -68 -16q-58 -33 -60 -93q-1 -61 35 -97t85 -36t84 36t35 86t-35 85t-76 35zM506 1559q108 0 181 -73t74 -173
t-73 -173t-173 -73t-173 74t-74 172q0 63 34 121t91 91q57 34 113 34z" />
    <glyph glyph-name="Uhungarumlaut" unicode="&#x170;" horiz-adv-x="1302" 
d="M1165 1434v-973q0 -293 -234 -415q-126 -66 -284 -66q-157 0 -294 71q-138 71 -197 221q-33 84 -33 189v973h276v-973q0 -127 69 -182q68 -55 178 -55t178 54q68 56 67 183v973h274zM881 1593h-162l106 256h222zM551 1593h-162l107 256h221z" />
    <glyph glyph-name="uhungarumlaut" unicode="&#x171;" horiz-adv-x="1017" 
d="M934 0h-201l-6 53q-115 -69 -263 -69t-259 85q-55 43 -88 115t-33 166v676h264v-657q0 -128 67 -163q37 -20 109 -20t148 31v809h262v-1026zM733 1178h-164l109 256h219zM403 1178h-161l106 256h219z" />
    <glyph glyph-name="Uogonek" unicode="&#x172;" horiz-adv-x="1302" 
d="M1178 1434v-973q0 -173 -82 -279t-211 -153q-152 -135 -152 -238q0 -75 77 -79q36 -2 66 22q30 23 64 69l100 -41q-104 -178 -284 -178q-68 0 -114 26q-83 48 -84 152t122 218q-267 0 -423 150q-122 118 -122 331v973h275v-973q0 -127 70 -182t178 -55q110 0 178 54
q68 56 67 183v973h275z" />
    <glyph glyph-name="uogonek" unicode="&#x173;" horiz-adv-x="1017" 
d="M764 -209q0 -37 20 -57t50 -22t63 15q32 16 72 76l102 -41q-104 -178 -285 -178q-66 0 -113 26q-85 48 -85 159q0 110 145 229l-6 55q-115 -70 -256 -69q-198 0 -307 124q-82 93 -80 242v676h264v-657q0 -128 67 -163q37 -20 109 -20t148 31v809h264v-1028l-55 -4
q-117 -111 -117 -203z" />
    <glyph glyph-name="Wcircumflex" unicode="&#x174;" horiz-adv-x="1771" 
d="M1417 0h-354l-176 809l-176 -809h-357l-315 1434h285l211 -1106l219 1106h264l221 -1108l209 1108h285zM1253 1583h-204l-158 184l-158 -184h-207l246 295h240z" />
    <glyph glyph-name="wcircumflex" unicode="&#x175;" horiz-adv-x="1507" 
d="M1169 0h-282l-133 522l-133 -522h-281l-317 1026h276l180 -690l156 690h235l158 -690l182 690h277zM1122 1176h-207l-155 184l-160 -184h-205l246 294h238z" />
    <glyph glyph-name="Ycircumflex" unicode="&#x176;" horiz-adv-x="1273" 
d="M774 0h-276v614l-459 820h315l281 -562l280 562h320l-461 -816v-618zM1004 1583h-205l-158 184l-158 -184h-204l243 295h240z" />
    <glyph glyph-name="ycircumflex" unicode="&#x177;" horiz-adv-x="1028" 
d="M936 1026v-1034q0 -182 -104 -282t-284 -99q-178 0 -358 119l103 145q113 -70 219 -70q152 0 160 162v76q-94 -43 -219 -43q-190 0 -293 121q-76 89 -76 244v661h264v-651q0 -150 84 -174q30 -11 96 -11t144 29v807h264zM891 1176h-205l-158 184l-157 -184h-205l246 294
h237z" />
    <glyph glyph-name="Ydieresis" unicode="&#x178;" horiz-adv-x="1273" 
d="M774 0h-276v614l-459 820h315l281 -562l280 562h320l-461 -816v-618zM846 1825q42 -1 70 -17q56 -34 58 -96q1 -63 -34 -99t-86 -36t-88 36t-37 89t37 88t80 35zM429 1825q44 -1 71 -17q59 -36 59 -97q0 -62 -35 -98t-87 -36t-89 36t-37 89t37 88t81 35z" />
    <glyph glyph-name="Zacute" unicode="&#x179;" horiz-adv-x="1183" 
d="M1114 244v-244h-1044v166l659 1024h-616v244h991v-166l-660 -1024h670zM694 1587h-174l121 254h238z" />
    <glyph glyph-name="zacute" unicode="&#x17a;" horiz-adv-x="864" 
d="M811 213v-213h-760v154l418 659h-389v213h717v-152l-416 -661h430zM489 1180h-174l121 254h238z" />
    <glyph glyph-name="Zdotaccent" unicode="&#x17b;" horiz-adv-x="1183" 
d="M1114 244v-244h-1044v166l659 1024h-616v244h991v-166l-660 -1024h670zM633 1833q43 0 77 -35t34 -88t-36 -89q-34 -36 -85 -36t-88 37t-37 80t17 72t46 44t72 15z" />
    <glyph glyph-name="zdotaccent" unicode="&#x17c;" horiz-adv-x="864" 
d="M811 213v-213h-760v154l418 659h-389v213h717v-152l-416 -661h430zM414 1180q-38 0 -75 36q-36 36 -36 88t36 88t88 35q52 1 87 -35t35 -75q1 -137 -135 -137z" />
    <glyph glyph-name="Zcaron" unicode="&#x17d;" horiz-adv-x="1183" 
d="M1114 244v-244h-1044v166l659 1024h-616v244h991v-166l-660 -1024h670zM723 1585h-240l-245 295h206l158 -186l156 186h207z" />
    <glyph glyph-name="zcaron" unicode="&#x17e;" horiz-adv-x="864" 
d="M811 213v-213h-760v154l418 659h-389v213h717v-152l-416 -661h430zM573 1178h-237l-246 295h205l160 -187l155 187h207z" />
    <glyph glyph-name="florin" unicode="&#x192;" horiz-adv-x="743" 
d="M207 -8v1110q0 267 243 338q65 18 129 18t121 -10v-209q-42 6 -68 6t-42 -4q-119 -16 -119 -168v-90h213v-201h-213v-837q0 -239 -209 -321q-95 -38 -217 -34v211q113 0 143 72q19 43 19 119z" />
    <glyph glyph-name="Acaron" unicode="&#x1cd;" horiz-adv-x="1294" 
d="M498 612h297l-148 496zM1255 0h-286l-109 369h-426l-110 -369h-285l473 1434h270zM770 1585h-238l-245 295h205l159 -186l156 186h205z" />
    <glyph glyph-name="acaron" unicode="&#x1ce;" 
d="M506 485q-201 1 -201 -149t184 -150q84 0 152 35v254q-82 10 -135 10zM905 616v-618h-203l-6 53q-102 -67 -257 -67t-267 84q-111 84 -111 273t132 261q111 64 270 66q80 0 178 -17q-2 86 -46 133q-45 47 -151 47t-202 -63l-131 125q137 152 356 151q438 0 438 -428z
M643 1178h-237l-246 295h205l159 -187l156 187h205z" />
    <glyph glyph-name="Icaron" unicode="&#x1cf;" horiz-adv-x="544" 
d="M410 0h-275v1434h275v-1434zM395 1585h-237l-246 295h205l159 -186l156 186h205z" />
    <glyph glyph-name="icaron" unicode="&#x1d0;" horiz-adv-x="421" 
d="M348 0h-262v1026h262v-1026zM342 1178h-238l-245 295h204l160 -187l156 187h205z" />
    <glyph glyph-name="Ocaron" unicode="&#x1d1;" horiz-adv-x="1259" 
d="M877 459v497q0 262 -244 263q-248 0 -248 -261v-499q0 -125 69 -181q68 -56 178 -56t178 54q68 56 67 183zM109 459v499q0 162 67 277q134 227 457 227q246 0 382 -138t136 -368v-497q0 -294 -236 -415q-126 -65 -282 -66t-285 66q-148 76 -207 226q-32 85 -32 189z
M752 1585h-238l-246 295h205l160 -186l155 186h207z" />
    <glyph glyph-name="ocaron" unicode="&#x1d2;" 
d="M657 397v230q0 207 -159 207q-88 0 -127 -50t-39 -157v-230q0 -89 37 -142q39 -60 129 -60q159 0 159 202zM68 397v230q0 197 110 307t319 110t317 -112t108 -305v-230q0 -159 -93 -280q-47 -61 -132 -99t-199 -36q-317 1 -407 265q-23 70 -23 150zM618 1178h-239
l-246 295h207l158 -187l155 187h207z" />
    <glyph glyph-name="Ucaron" unicode="&#x1d3;" horiz-adv-x="1282" 
d="M1165 1434v-973q0 -293 -234 -415q-126 -66 -284 -66q-207 0 -349 106q-178 139 -175 375v973h276v-973q0 -127 69 -182q68 -55 178 -55t178 54q68 56 67 183v973h274zM764 1585h-240l-243 295h204l158 -186l158 186h205z" />
    <glyph glyph-name="ucaron" unicode="&#x1d4;" horiz-adv-x="1017" 
d="M936 0h-203l-6 53q-115 -70 -256 -69q-198 0 -307 124q-82 93 -80 242v676h264v-657q0 -128 67 -163q37 -20 109 -20t148 31v809h264v-1026zM637 1178h-238l-245 295h204l160 -187l156 187h207z" />
    <glyph glyph-name="Udieresismacron" unicode="&#x1d5;" horiz-adv-x="1302" 
d="M1165 1434v-973q0 -294 -235 -415q-128 -66 -283 -66q-207 0 -349 106q-178 139 -175 375v973h276v-973q0 -127 69 -182q68 -55 178 -55t178 54q68 56 67 183v973h274zM876 1569q-52 0 -90 36q-36 36 -36 79t17 71q35 60 118 60q43 0 77 -35t34 -87t-34 -88t-86 -36z
M458 1815q52 0 87 -35t35 -74q0 -96 -74 -128q-24 -9 -62 -9t-74 36t-36 88t36 87t88 35zM928 1890h-527v135h527v-135z" />
    <glyph glyph-name="udieresismacron" unicode="&#x1d6;" horiz-adv-x="1017" 
d="M934 0h-201l-6 53q-115 -69 -263 -69t-259 85q-55 43 -88 115t-33 166v676h264v-657q0 -128 67 -163q37 -20 109 -20t148 31v809h262v-1026zM704 1176q-38 0 -75 36t-37 87q0 52 37 88t89 36q52 1 86 -35t34 -76t-10 -62t-24 -39q-15 -17 -38 -26q-24 -9 -62 -9z
M286 1176q-38 0 -74 36t-36 87q0 52 36 88t88 36q52 1 87 -35t35 -76q0 -136 -136 -136zM776 1513h-526v138h526v-138z" />
    <glyph glyph-name="Udieresisacute" unicode="&#x1d7;" horiz-adv-x="1302" 
d="M1165 1434v-973q0 -293 -234 -415q-126 -66 -284 -66q-157 0 -294 71q-138 71 -197 221q-33 84 -33 189v973h276v-973q0 -127 69 -182q68 -55 178 -55t178 54q68 56 67 183v973h274zM997 1680q-1 -38 -35 -75q-34 -36 -86 -36t-90 36q-36 36 -36 79t17 71q35 60 111 60
t109 -74q10 -23 10 -61zM458 1815q52 0 87 -35t35 -74q0 -96 -74 -128q-24 -9 -62 -9t-74 36t-36 88t36 87t88 35zM760 1868h-174l121 254h237z" />
    <glyph glyph-name="udieresisacute" unicode="&#x1d8;" horiz-adv-x="1017" 
d="M936 0h-203l-6 53q-115 -70 -256 -69q-198 0 -307 124q-82 93 -80 242v676h264v-657q0 -128 67 -163q37 -20 109 -20t148 31v809h264v-1026zM743 1417q43 0 77 -35t34 -75q0 -96 -74 -128t-135 26q-37 36 -37 80t17 72q34 60 118 60zM316 1417q52 0 86 -35t34 -93
t-37 -88t-86 -31t-86 35t-37 89t37 88t89 35zM594 1513h-174l121 254h237z" />
    <glyph glyph-name="Udieresiscaron" unicode="&#x1d9;" horiz-adv-x="1282" 
d="M1165 1434v-973q0 -293 -234 -415q-126 -66 -284 -66q-207 0 -349 106q-178 139 -175 375v973h276v-973q0 -127 69 -182q68 -55 178 -55t178 54q68 56 67 183v973h274zM981 1693q0 -52 -35 -88t-87 -36t-89 36t-37 79t18 71q35 60 117 60q43 0 78 -35t35 -87zM433 1815
q44 1 71 -15q59 -34 59 -97q0 -62 -35 -98t-87 -36t-88 36t-36 88t36 87t80 35zM764 1874h-240l-243 297h204l158 -186l158 186h205z" />
    <glyph glyph-name="udieresiscaron" unicode="&#x1da;" horiz-adv-x="1017" 
d="M936 0h-203l-6 53q-115 -69 -263 -69t-259 85q-55 43 -88 115t-33 166v676h264v-657q0 -95 37 -139t124 -44t163 31v809h264v-1026zM743 1417q43 0 77 -35t34 -75q0 -96 -74 -128t-135 26q-37 36 -37 80t17 72q34 60 118 60zM316 1417q52 0 86 -35t34 -75
q0 -135 -133 -137q-39 0 -76 35q-37 36 -37 89t37 88t89 35zM637 1487h-238l-245 295h204l160 -185l156 185h207z" />
    <glyph glyph-name="Udieresisgrave" unicode="&#x1db;" horiz-adv-x="1302" 
d="M1165 1434v-973q0 -293 -234 -415q-126 -66 -284 -66q-157 0 -294 71q-138 71 -197 221q-33 84 -33 189v973h276v-973q0 -127 69 -182q68 -55 178 -55t178 54q68 56 67 183v973h274zM876 1569q-52 0 -90 36q-36 36 -36 79t17 71q35 60 118 60q43 0 78 -35t35 -87t-36 -88
q-34 -36 -86 -36zM450 1815q44 1 70 -15q57 -34 59 -97q1 -62 -34 -98t-87 -36t-88 36t-36 88t36 87t80 35zM772 1870h-174l-184 254h237z" />
    <glyph glyph-name="udieresisgrave" unicode="&#x1dc;" horiz-adv-x="1017" 
d="M936 0h-203l-6 53q-115 -69 -263 -69t-259 85q-55 43 -88 115t-33 166v676h264v-657q0 -128 67 -163q37 -20 109 -20t148 31v809h264v-1026zM704 1176q-38 0 -75 36t-37 87q0 52 37 88t89 36q52 1 86 -35t34 -76t-10 -62t-24 -39q-15 -17 -38 -26q-24 -9 -62 -9z
M286 1176q-38 0 -74 36t-36 87q0 52 36 88t88 36q52 1 87 -35t35 -76q0 -136 -136 -136zM651 1516h-174l-184 253h237z" />
    <glyph glyph-name="Scommaaccent" unicode="&#x218;" horiz-adv-x="1175" 
d="M502 -258q0 36 12 58q25 46 73 46t75.5 -27.5t27.5 -58.5t-10 -53l-78 -164h-110l45 138q-35 27 -35 61zM66 418h260q4 -195 262 -195q121 0 183.5 48t62.5 135.5t-98 129.5q-45 20 -174 60q-128 38 -202 70q-76 32 -142 82q-130 99 -130 290q0 128 56 224
q114 194 423 194q229 0 359.5 -112.5t130.5 -317.5h-262q0 190 -228 191q-98 0 -155.5 -44.5t-57.5 -115t61.5 -112.5t227.5 -85q246 -59 351.5 -167.5t105.5 -285.5t-118.5 -304.5t-373 -127.5t-398.5 121t-144 322z" />
    <glyph glyph-name="scommaaccent" unicode="&#x219;" horiz-adv-x="905" 
d="M352 -250q0 42 28 69t66 27t67 -28q28 -28 28 -58q0 -31 -11 -53l-77 -164h-111l45 138q-35 27 -35 69zM449 190q63 0 100 30t37 77t-34 77q-34 29 -131 47q-96 19 -147 37t-102 53q-104 69 -103 217t96 234t288 85q193 0 287 -85t94 -229h-252q0 39 -32 70t-95 31
t-95 -31t-32 -73t40 -68t134 -46q174 -34 262 -106t88 -209t-93 -229t-288 -92q-269 0 -370 149q-48 72 -50 170h256q14 -109 142 -109z" />
    <glyph glyph-name="uni021A" unicode="&#x21a;" horiz-adv-x="1079" 
d="M438 -250q0 42 28 69t66 27t67 -28q28 -28 28 -58q0 -31 -13 -53l-75 -164h-111l43 138q-33 27 -33 69zM1028 1190h-356v-1190h-277v1190h-344v244h977v-244z" />
    <glyph glyph-name="uni021B" unicode="&#x21b;" horiz-adv-x="667" 
d="M260 -250q0 42 37 76q37 35 82 18q46 -18 64 -58q18 -39 -5 -79l-78 -164h-110l45 138q-35 27 -35 69zM360 408q0 -252 250 -213v-209q-58 -6 -118 -6t-131 19t-132 62t-97 120t-36 179v916h264v-250h213v-213h-213v-405z" />
    <glyph glyph-name="circumflex" unicode="&#x2c6;" horiz-adv-x="798" 
d="M766 1176h-205l-155 184l-160 -184h-205l246 294h237z" />
    <glyph glyph-name="caron" unicode="&#x2c7;" horiz-adv-x="798" 
d="M522 1178h-239l-246 295h207l157 -187l158 187h205z" />
    <glyph glyph-name="breve" unicode="&#x2d8;" horiz-adv-x="667" 
d="M653 1436q0 -129 -90 -211t-229 -82t-229.5 82t-90.5 211h115q8 -76 66.5 -116t137.5 -40t138.5 40t67.5 116h114z" />
    <glyph glyph-name="dotaccent" unicode="&#x2d9;" horiz-adv-x="266" 
d="M136 1417q52 0 86 -34.5t34 -88t-35 -89.5t-86 -36t-88 36t-37 89t37 88t89 35z" />
    <glyph glyph-name="ring" unicode="&#x2da;" horiz-adv-x="667" 
d="M334 1432q-49 0 -85 -35t-36 -85t36 -86t85 -36t84 36t35 86t-35 85t-84 35zM334 1559q98 0 172 -74t74 -173t-73 -172t-173 -73q-66 0 -123 34t-90 90t-33 122q0 98 74 172t172 74z" />
    <glyph glyph-name="ogonek" unicode="&#x2db;" horiz-adv-x="591" 
d="M318 -325q65 -2 128 92l103 -41q-104 -178 -285 -179q-64 0 -112 27q-86 48 -86 154q-1 127 192 274h148q-164 -144 -164 -234.5t76 -92.5z" />
    <glyph glyph-name="tilde" unicode="&#x2dc;" horiz-adv-x="862" 
d="M317 1448q49 0 119 -40t95.5 -40t38 3t23.5 8t23 13q26 20 36 30l15 15q5 5 11 12t8 7l92 -123q-127 -117 -223 -116q-51 0 -125 38.5t-100.5 38.5t-38.5 -3q-13 -3 -23 -8q-22 -11 -40 -29l-16 -16q-9 -9 -21 -23.5t-15 -14.5l-92 121q46 53 115 90t118 37z" />
    <glyph glyph-name="hungarumlaut" unicode="&#x2dd;" horiz-adv-x="630" 
d="M481 1178h-164l109 256h219zM152 1178h-162l106 256h221z" />
    <glyph glyph-name="Delta" unicode="&#x394;" horiz-adv-x="1705" 
 />
    <glyph glyph-name="Omega" unicode="&#x3a9;" horiz-adv-x="1705" 
 />
    <glyph glyph-name="mu" unicode="&#x3bc;" horiz-adv-x="1705" 
 />
    <glyph glyph-name="pi" unicode="&#x3c0;" horiz-adv-x="260" 
 />
    <glyph glyph-name="uni0410" unicode="&#x410;" horiz-adv-x="1294" 
d="M498 612h297l-148 496zM1255 0h-286l-109 369h-426l-110 -369h-285l473 1434h270z" />
    <glyph glyph-name="uni0411" unicode="&#x411;" horiz-adv-x="1220" 
d="M868 424q0 182 -174 182h-284v-364h284q174 0 174 182zM1049 1190h-637v-342h348q186 0 286 -106t99 -318q0 -212 -99 -318t-286 -106h-625v1434h914v-244z" />
    <glyph glyph-name="uni0412" unicode="&#x412;" horiz-adv-x="1222" 
d="M694 242q174 0 174 182q0 74 -45 122t-127 48h-286v-352h284zM662 840q174 0 174 180q0 74 -45 122t-127 48h-252v-350h250zM135 1434h594q175 0 279 -110t104 -267q0 -236 -151 -334q88 -45 136 -132t48 -192q1 -191 -101 -295t-284 -104h-625v1434z" />
    <glyph glyph-name="uni0413" unicode="&#x413;" horiz-adv-x="1089" 
d="M1049 1190h-637v-1190h-277v1434h914v-244z" />
    <glyph glyph-name="uni0414" unicode="&#x414;" horiz-adv-x="1478" 
d="M580 1190v-733q0 -127 -52 -219h449v952h-397zM1253 238h162v-539h-256v301h-840v-301h-256v539h154q88 80 88 215v981h948v-1196z" />
    <glyph glyph-name="uni0415" unicode="&#x415;" horiz-adv-x="1142" 
d="M1063 1190h-653v-352h602v-244h-602v-350h663v-244h-938v1434h928v-244z" />
    <glyph glyph-name="uni0416" unicode="&#x416;" horiz-adv-x="2037" 
d="M1157 0h-274v750l-527 -750h-317l559 762l-487 672h309l463 -680v680h274v-680l463 680h309l-487 -672l559 -762h-318l-526 750v-750z" />
    <glyph glyph-name="uni0417" unicode="&#x417;" horiz-adv-x="1064" 
d="M934 1049q0 -103 -50 -179t-120 -116q82 -45 142 -129t61 -209q0 -207 -132 -323t-347 -116t-363 153q-35 36 -59 73l204 131q32 -49 94 -82t126 -33q125 0 184 100q27 47 26 103q0 86 -67 149q-68 63 -162 64h-90v219h90q86 0 144 53q59 53 59 117q1 118 -86 169
q-42 24 -100 24t-99 -39t-57 -78l-234 94q32 81 137 173q106 93 277 92q170 -1 296 -113t126 -297z" />
    <glyph glyph-name="uni0418" unicode="&#x418;" horiz-adv-x="1314" 
d="M1190 0h-275v883l-501 -883h-289v1434h274v-910l516 910h275v-1434z" />
    <glyph glyph-name="uni0419" unicode="&#x419;" horiz-adv-x="1314" 
d="M1190 0h-275v883l-501 -883h-289v1434h274v-910l516 910h275v-1434zM975 1888q0 -129 -91 -212t-228 -83t-230 82q-92 83 -90 213h115q8 -76 66 -116t137 -41q78 1 138 41t68 116h115z" />
    <glyph glyph-name="uni041A" unicode="&#x41a;" horiz-adv-x="1300" 
d="M412 0h-277v1434h277v-680l462 680h310l-490 -672l561 -762h-319l-524 750v-750z" />
    <glyph glyph-name="uni041B" unicode="&#x41b;" horiz-adv-x="1343" 
d="M1237 0h-274v1190h-398v-752q0 -227 -137 -343t-379 -115v239q106 0 174 51t68 164v1000h946v-1434z" />
    <glyph glyph-name="uni041C" unicode="&#x41c;" horiz-adv-x="1540" 
d="M1409 0h-274v809l-269 -674h-196l-269 674v-809h-274v1434h281l360 -895l360 895h281v-1434z" />
    <glyph glyph-name="uni041D" unicode="&#x41d;" horiz-adv-x="1312" 
d="M1178 0h-275v594h-493v-594h-275v1434h275v-596h493v596h275v-1434z" />
    <glyph glyph-name="uni041E" unicode="&#x41e;" horiz-adv-x="1259" 
d="M877 459v497q0 262 -244 263q-248 0 -248 -261v-499q0 -125 69 -181q68 -56 178 -56t178 54q68 56 67 183zM109 459v499q0 162 67 277q134 227 457 227q246 0 382 -138t136 -368v-497q0 -294 -236 -415q-126 -65 -282 -66t-285 66q-148 76 -207 226q-32 85 -32 189z" />
    <glyph glyph-name="uni041F" unicode="&#x41f;" horiz-adv-x="1312" 
d="M1178 0h-275v1190h-491v-1190h-277v1434h1043v-1434z" />
    <glyph glyph-name="uni0420" unicode="&#x420;" horiz-adv-x="1218" 
d="M410 1190v-428h252q137 0 188 100q24 48 24 114q-1 132 -95 186q-48 28 -113 28h-256zM135 1434h535q217 0 343 -131t126 -333t-125 -327t-348 -125h-256v-518h-275v1434z" />
    <glyph glyph-name="uni0421" unicode="&#x421;" horiz-adv-x="1155" 
d="M109 483v478q0 239 144 371t376 132q172 0 291 -79t167 -214l-200 -92q-29 68 -93 105t-132 37q-126 0 -201 -66q-74 -66 -76 -194v-478q0 -127 75 -195t172 -67q196 0 255 141l200 -90q-49 -137 -167 -215t-291 -77q-231 0 -375 130t-145 373z" />
    <glyph glyph-name="uni0422" unicode="&#x422;" horiz-adv-x="1085" 
d="M1028 1190h-356v-1190h-277v1190h-344v244h977v-244z" />
    <glyph glyph-name="uni0423" unicode="&#x423;" horiz-adv-x="1290" 
d="M375 -27h-172v244h121q129 0 184 145l29 68l-465 1004h286l306 -699l278 699h281l-516 -1211q-106 -250 -332 -250z" />
    <glyph glyph-name="uni0424" unicode="&#x424;" horiz-adv-x="1593" 
d="M934 1057v-680l41 2q129 2 185 76t57 262q-1 188 -57 262t-185 78h-41zM659 1057h-38q-131 -4 -187 -78t-57 -262q0 -188 57 -262t187 -78h38v680zM934 1298h43q232 0 374 -134t142 -447q0 -447 -312 -551q-91 -31 -206 -31h-41v-135h-275v135h-41q-231 0 -374 133
q-142 133 -142 450q0 316 144 449t375 131h38v136h275v-136z" />
    <glyph glyph-name="uni0425" unicode="&#x425;" horiz-adv-x="1339" 
d="M860 741l440 -741h-321l-309 528l-310 -528h-321l442 741l-409 693h317l281 -519l278 519h322z" />
    <glyph glyph-name="uni0426" unicode="&#x426;" horiz-adv-x="1409" 
d="M1178 238h168v-541h-254v303h-959v1434h277v-1190h491v1190h277v-1196z" />
    <glyph glyph-name="uni0427" unicode="&#x427;" horiz-adv-x="1249" 
d="M431 500q-141 0 -243 94t-102 248v594h279v-525q0 -162 167 -161q117 0 308 34v650h274v-1434h-274v543q-268 -43 -409 -43z" />
    <glyph glyph-name="uni0428" unicode="&#x428;" horiz-adv-x="1931" 
d="M1798 0h-1663v1434h277v-1190h417v1190h275v-1190h418v1190h276v-1434z" />
    <glyph glyph-name="uni0429" unicode="&#x429;" horiz-adv-x="2029" 
d="M1798 238h168v-541h-254v303h-1577v1434h277v-1190h417v1190h275v-1190h418v1190h276v-1196z" />
    <glyph glyph-name="uni042A" unicode="&#x42a;" horiz-adv-x="1380" 
d="M1036 424q0 182 -174 182h-284v-364h284q174 0 174 182zM578 848h350q184 0 283 -106t99 -318t-98 -318q-100 -106 -284 -106h-625v1196h-289v238h564v-586z" />
    <glyph glyph-name="uni042B" unicode="&#x42b;" horiz-adv-x="1755" 
d="M868 424q0 182 -174 182h-284v-364h284q174 0 174 182zM1620 0h-277v1434h277v-1434zM412 848h348q186 0 286 -106t99 -318q0 -212 -99 -318t-286 -106h-625v1434h277v-586z" />
    <glyph glyph-name="uni042C" unicode="&#x42c;" horiz-adv-x="1212" 
d="M868 424q0 182 -174 182h-284v-364h284q174 0 174 182zM412 848h348q186 0 286 -106t99 -318q0 -212 -99 -318t-286 -106h-625v1434h277v-586z" />
    <glyph glyph-name="uni042D" unicode="&#x42d;" horiz-adv-x="1155" 
d="M270 360q60 -141 254 -141q100 0 174 68t74 192v131h-422v217h422v131q0 125 -75 193t-173 68q-193 0 -254 -142l-200 90q78 212 298 273q75 20 160 20q232 0 376 -131t145 -371v-479q0 -159 -69 -275q-135 -226 -452 -229q-172 0 -290 79t-168 216z" />
    <glyph glyph-name="uni042E" unicode="&#x42e;" horiz-adv-x="1794" 
d="M1411 455v499q0 262 -242 263q-252 0 -249 -261v-501q0 -183 152 -226q42 -12 95 -12q109 1 177 57t67 181zM643 838v118q0 162 68 277q133 225 458 225q244 0 380 -137t137 -367v-499q0 -103 -32 -187t-83 -138q-145 -153 -404 -157q-116 0 -207 34q-92 34 -142 73
q-176 136 -175 375v139h-233v-594h-275v1434h275v-596h233z" />
    <glyph glyph-name="uni042F" unicode="&#x42f;" horiz-adv-x="1236" 
d="M827 1190h-254q-98 0 -153 -56t-55 -150t54 -149q54 -54 156 -55h252v410zM1104 0h-277v537h-145l-311 -537h-320l355 578l-37 6q-269 88 -269 422q0 168 126 298t343 130h535v-1434z" />
    <glyph glyph-name="uni0430" unicode="&#x430;" 
d="M506 485q-201 1 -201 -149t184 -150q84 0 152 35v254q-82 10 -135 10zM905 616v-618h-203l-6 53q-102 -67 -257 -67t-267 84q-111 84 -111 273t132 261q111 64 270 66q80 0 178 -17q-2 86 -46 133q-45 47 -151 47t-202 -63l-131 125q137 152 356 151q438 0 438 -428z" />
    <glyph glyph-name="uni0431" unicode="&#x431;" horiz-adv-x="1046" 
d="M657 391v211q0 205 -159 205q-88 0 -127 -50t-39 -155v-211q0 -199 166 -203q159 0 159 203zM838 1217h-25q-226 -14 -282 -31q-56 -16 -91 -35q-76 -35 -116 -91t-48 -157q90 117 268 117t277 -117q100 -117 101 -301v-211q0 -209 -138 -326q-106 -90 -286 -90
q-317 0 -407 266q-24 71 -23 150v227q0 291 20 403t50 159q58 93 130 139q97 72 265 91q169 19 305 24v-217z" />
    <glyph glyph-name="uni0432" unicode="&#x432;" horiz-adv-x="995" 
d="M360 203h185q47 -1 84 27t37 88t-38 90q-38 29 -83 28h-185v-233zM360 602h166q56 0 86 30t31 69q0 122 -117 122h-166v-221zM96 1026h471q139 0 233 -74t95 -198q0 -151 -107 -217l-26 -15q15 -5 62 -35q46 -30 71 -89q24 -60 25 -111q0 -141 -90 -214t-224 -73h-510
v1026z" />
    <glyph glyph-name="uni0433" unicode="&#x433;" horiz-adv-x="829" 
d="M782 823h-422v-823h-264v1026h686v-203z" />
    <glyph glyph-name="uni0434" unicode="&#x434;" horiz-adv-x="1263" 
d="M518 823v-450q0 -98 -39 -170h320v620h-281zM1061 203h153v-434h-239v231h-684v-231h-242v438q109 0 157 35t48 116v668h807v-823z" />
    <glyph glyph-name="uni0435" unicode="&#x435;" horiz-adv-x="952" 
d="M649 582v69q0 143 -93 177q-28 11 -62 12q-162 0 -162 -191v-67h317zM324 338q0 -160 196 -160q96 0 187 72l145 -113q-127 -156 -371 -155q-209 0 -311 110t-102 275v274q0 288 244 375q81 29 186 28q201 0 300 -108t99 -293v-227h-573v-78z" />
    <glyph glyph-name="uni0436" unicode="&#x436;" horiz-adv-x="1697" 
d="M975 0h-252v535l-385 -535h-295l418 545l-391 481h288l365 -485v487h252v-487l364 485h287l-389 -481l416 -545h-295l-383 535v-535z" />
    <glyph glyph-name="uni0437" unicode="&#x437;" horiz-adv-x="958" 
d="M270 270q46 -75 174 -75q98 0 153 47q34 30 34 84t-45 84t-113 30h-106v168h102q89 0 125 54q18 27 18 61q0 111 -168 111q-106 0 -155 -84l-215 75q43 107 135 163t265 56t288 -70t115 -210q0 -141 -150 -225q66 -31 117 -90t51 -152q0 -147 -128 -231t-316 -84
q-315 0 -394 211z" />
    <glyph glyph-name="uni0438" unicode="&#x438;" horiz-adv-x="1034" 
d="M940 0h-250v555l-328 -555h-266v1026h250v-551l330 551h264v-1026z" />
    <glyph glyph-name="uni0439" unicode="&#x439;" horiz-adv-x="1034" 
d="M940 0h-250v555l-328 -555h-266v1026h250v-551l330 551h264v-1026zM844 1450q0 -129 -91 -211t-229 -82t-230 82q-91 82 -91 211h116q5 -76 65 -116t124 -40t108 16q43 16 75 52q32 37 36 88h117z" />
    <glyph glyph-name="uni043A" unicode="&#x43a;" horiz-adv-x="1071" 
d="M348 0h-252v1026h252v-485l365 485h288l-391 -481l418 -545h-295l-385 535v-535z" />
    <glyph glyph-name="uni043B" unicode="&#x43b;" horiz-adv-x="1155" 
d="M1059 0h-264v823h-279v-456q0 -217 -149 -316q-115 -76 -306 -76v226q90 0 136 28q55 39 55 123v674h807v-1026z" />
    <glyph glyph-name="uni043C" unicode="&#x43c;" horiz-adv-x="1327" 
d="M1233 0h-250v547l-215 -547h-207l-215 547v-547h-250v1028h264l306 -770l303 770h264v-1028z" />
    <glyph glyph-name="uni043D" unicode="&#x43d;" horiz-adv-x="1034" 
d="M940 0h-264v412h-316v-412h-264v1028h264v-414h316v414h264v-1028z" />
    <glyph glyph-name="uni043E" unicode="&#x43e;" 
d="M657 397v230q0 207 -159 207q-88 0 -127 -50t-39 -157v-230q0 -89 37 -142q39 -60 129 -60q159 0 159 202zM68 397v230q0 197 110 307t319 110t317 -112t108 -305v-230q0 -159 -93 -280q-47 -61 -132 -99t-199 -36q-317 1 -407 265q-23 70 -23 150z" />
    <glyph glyph-name="uni043F" unicode="&#x43f;" horiz-adv-x="1034" 
d="M940 0h-264v823h-316v-823h-264v1026h844v-1026z" />
    <glyph glyph-name="uni0440" unicode="&#x440;" horiz-adv-x="1021" 
d="M692 369v313q-2 156 -168 156q-86 0 -155 -31v-594q77 -27 163 -27t123 44t37 139zM956 350q0 -187 -118 -284q-99 -82 -234 -82t-235 45v-439h-265v1436h201l6 -53q104 67 257 67t263 -82q57 -40 91 -112t34 -166v-330z" />
    <glyph glyph-name="uni0441" unicode="&#x441;" horiz-adv-x="911" 
d="M68 403v220q0 199 112 311t316 110q268 0 358 -219l-215 -77q-49 84 -143 83q-164 0 -164 -208v-220q0 -209 164 -208q94 0 143 84l215 -78q-90 -219 -358 -219q-205 0 -317 111q-111 111 -111 310z" />
    <glyph glyph-name="uni0442" unicode="&#x442;" horiz-adv-x="968" 
d="M899 821h-283v-821h-264v821h-282v205h829v-205z" />
    <glyph glyph-name="uni0443" unicode="&#x443;" horiz-adv-x="1028" 
d="M936 1026v-1034q0 -123 -50 -210q-98 -171 -319 -171q-205 4 -377 119l101 145q119 -70 213 -70q160 0 168 164v74q-94 -43 -219 -43q-190 0 -293 121q-76 89 -76 244v661h264v-651q0 -150 84 -174q30 -11 96 -11t144 29v807h264z" />
    <glyph glyph-name="uni0444" unicode="&#x444;" horiz-adv-x="1394" 
d="M829 199h25q80 1 123 25q88 48 88 288q0 188 -57 251q-29 32 -64 43t-88 13h-27v-620zM565 819h-26q-53 -2 -88 -13t-64 -43q-55 -61 -55 -248t45 -252t162 -64h26v620zM829 1030h27q246 0 358 -121t113 -399q0 -278 -101 -400t-364 -124h-33v-396h-264v396h-33
q-269 0 -367 129q-99 129 -98 401t112 393q112 121 358 121h28v406h264v-406z" />
    <glyph glyph-name="uni0445" unicode="&#x445;" horiz-adv-x="960" 
d="M653 512l285 -512h-281l-172 328l-178 -328h-284l301 514l-287 512h285l167 -342l158 342h283z" />
    <glyph glyph-name="uni0446" unicode="&#x446;" horiz-adv-x="1140" 
d="M940 205h154v-436h-242v231h-756v1026h264v-821h316v821h264v-821z" />
    <glyph glyph-name="uni0447" unicode="&#x447;" horiz-adv-x="1038" 
d="M338 1028v-334q0 -129 131 -129q70 0 209 27v436h264v-1028h-264v362q-168 -30 -298 -30t-217 78t-87 213v405h262z" />
    <glyph glyph-name="uni0448" unicode="&#x448;" horiz-adv-x="1544" 
d="M1450 0h-1354v1026h264v-823h281v823h264v-823h281v823h264v-1026z" />
    <glyph glyph-name="uni0449" unicode="&#x449;" horiz-adv-x="1650" 
d="M1450 203h154v-434h-242v231h-1266v1026h264v-823h281v823h264v-823h281v823h264v-823z" />
    <glyph glyph-name="uni044A" unicode="&#x44a;" horiz-adv-x="1132" 
d="M512 469v-266h160q100 0 136 82q9 23 9 51q0 68 -45 100t-100 33h-160zM512 674h205q147 0 251 -90t103 -246q0 -156 -102 -247t-238 -91h-483v801h-225v225h489v-352z" />
    <glyph glyph-name="uni044B" unicode="&#x44b;" horiz-adv-x="1406" 
d="M360 469v-266h160q79 0 121 56q25 33 25 89t-45 88t-101 33h-160zM360 674h205q147 0 251 -90t104 -246t-102 -247t-238 -91h-484v1026h264v-352zM1311 0h-264v1026h264v-1026z" />
    <glyph glyph-name="uni044C" unicode="&#x44c;" horiz-adv-x="980" 
d="M360 469v-266h160q55 0 101 33q45 32 45 100t-45 100t-101 33h-160zM360 674h205q147 0 251 -90t104 -246t-102 -247t-238 -91h-484v1026h264v-352z" />
    <glyph glyph-name="uni044D" unicode="&#x44d;" horiz-adv-x="937" 
d="M428 1051q204 0 316 -112t112 -310v-228q0 -270 -200 -366q-97 -47 -238 -47q-256 0 -346 196l213 78q49 -61 135 -61t128 42t44 146v49h-250v162h250v45q-4 193 -164 193q-88 0 -141 -72l-213 78q94 207 354 207z" />
    <glyph glyph-name="uni044E" unicode="&#x44e;" horiz-adv-x="1441" 
d="M952 195q160 0 160 200v232q0 205 -160 204q-88 0 -127 -49t-39 -155v-232q0 -88 40 -144t126 -56zM524 614v45q8 181 118 283t314 102t312 -114q109 -114 108 -303v-232q0 -159 -92 -278q-47 -61 -132 -99t-197 -36q-222 1 -321 114t-112 266v50h-162v-412h-264v1026
h264v-412h164z" />
    <glyph glyph-name="uni044F" unicode="&#x44f;" horiz-adv-x="1042" 
d="M684 823h-160q-57 1 -101 -33t-44 -101t44 -99t101 -33h160v266zM946 0h-262v350h-143l-205 -350h-268l245 403l-14 9q-174 98 -174 276q0 154 102 246t238 92h481v-1026z" />
    <glyph glyph-name="Wgrave" unicode="&#x1e80;" horiz-adv-x="1771" 
d="M1417 0h-354l-176 809l-176 -809h-357l-315 1434h285l211 -1106l219 1106h264l221 -1108l209 1108h285zM983 1593h-174l-184 254h237z" />
    <glyph glyph-name="wgrave" unicode="&#x1e81;" horiz-adv-x="1507" 
d="M1169 0h-282l-133 522l-133 -522h-281l-317 1026h276l180 -690l156 690h235l158 -690l182 690h275zM872 1180h-174l-184 254h238z" />
    <glyph glyph-name="Wacute" unicode="&#x1e82;" horiz-adv-x="1771" 
d="M1417 0h-354l-176 809l-176 -809h-357l-315 1434h285l211 -1106l219 1106h264l221 -1108l209 1108h285zM979 1585h-174l121 254h237z" />
    <glyph glyph-name="wacute" unicode="&#x1e83;" horiz-adv-x="1507" 
d="M1169 0h-282l-133 522l-133 -522h-281l-317 1026h276l180 -690l156 690h235l158 -690l182 690h277zM838 1180h-174l120 254h238z" />
    <glyph glyph-name="Wdieresis" unicode="&#x1e84;" horiz-adv-x="1771" 
d="M1417 0h-354l-176 809l-176 -809h-357l-315 1434h285l211 -1106l219 1106h264l221 -1108l209 1108h285zM1105 1825q52 0 86 -35t34 -88t-35 -89t-86 -36t-88 36t-37 89t37 88t89 35zM687 1825q52 0 86 -35t34 -88t-35 -89t-86 -36t-88 36t-37 89t37 88t89 35z" />
    <glyph glyph-name="wdieresis" unicode="&#x1e85;" horiz-adv-x="1507" 
d="M1169 0h-282l-133 522l-133 -522h-281l-317 1026h276l180 -690l156 690h235l158 -690l182 690h275zM972 1417q52 0 87 -35t35 -75q0 -66 -35 -101t-87 -36t-88 35t-36 89t36 88t88 35zM555 1417q53 0 87 -35t34 -88t-35 -89t-86 -36t-88 36t-37 89t36 88t89 35z" />
    <glyph glyph-name="Ygrave" unicode="&#x1ef2;" horiz-adv-x="1273" 
d="M774 0h-276v614l-459 820h315l281 -562l280 562h320l-461 -816v-618zM772 1595h-174l-184 254h239z" />
    <glyph glyph-name="ygrave" unicode="&#x1ef3;" horiz-adv-x="1028" 
d="M936 1026v-1034q0 -182 -104 -282t-284 -99q-178 0 -358 119l103 145q113 -70 219 -70q152 0 160 162v76q-94 -43 -219 -43q-190 0 -293 121q-76 89 -76 244v661h264v-651q0 -150 84 -174q30 -11 96 -11t144 29v807h264zM692 1180h-174l-184 254h237z" />
    <glyph glyph-name="endash" unicode="&#x2013;" horiz-adv-x="1355" 
d="M1266 461h-1170v244h1170v-244z" />
    <glyph glyph-name="emdash" unicode="&#x2014;" horiz-adv-x="1701" 
d="M1612 461h-1516v244h1516v-244z" />
    <glyph glyph-name="quoteleft" unicode="&#x2018;" horiz-adv-x="385" 
d="M375 1342q0 -64 -43 -108q-44 -44 -104 -44t-103 44t-43 92t18 81l117 250h174l-67 -209q51 -42 51 -106z" />
    <glyph glyph-name="quoteright" unicode="&#x2019;" horiz-adv-x="450" 
d="M82 1506q0 64 43 108t103 43q60 0 104 -43q44 -42 45 -92q0 -50 -19 -82l-118 -250h-172l67 209q-53 43 -53 107z" />
    <glyph glyph-name="quotesinglbase" unicode="&#x201a;" horiz-adv-x="425" 
d="M70 126q0 64 43 108t103 44t104 -44t45 -92q0 -48 -19 -81l-117 -249h-174l68 208q-53 42 -53 106z" />
    <glyph glyph-name="quotedblleft" unicode="&#x201c;" horiz-adv-x="835" 
d="M760 1342q0 -64 -43 -108t-103 -44t-105 44q-44 44 -44 92t18 81l119 250h172l-67 -209q53 -42 53 -106zM375 1342q0 -64 -43 -108q-44 -44 -104 -44t-103 44t-43 92t18 81l117 250h174l-67 -209q51 -42 51 -106z" />
    <glyph glyph-name="quotedblright" unicode="&#x201d;" horiz-adv-x="835" 
d="M465 1495q0 98 75 141q34 20 84 20t92 -42q44 -42 44 -92t-19 -82l-116 -250h-174l67 209q-53 43 -53 96zM82 1506q0 64 43 108t103 43q60 0 104 -43q44 -42 45 -92q0 -50 -19 -82l-118 -250h-172l67 209q-53 43 -53 107z" />
    <glyph glyph-name="quotedblbase" unicode="&#x201e;" horiz-adv-x="808" 
d="M455 126q0 64 43 108t103 44q59 0 103 -44t44 -92t-19 -81l-117 -249h-174l68 208q-51 42 -51 106zM70 126q0 64 43 108t103 44t104 -44t45 -92q0 -48 -19 -81l-117 -249h-174l68 208q-53 42 -53 106z" />
    <glyph glyph-name="dagger" unicode="&#x2020;" horiz-adv-x="1060" 
d="M664 881h294v-234h-294v-749h-265v749h-297v234h297v553h265v-553z" />
    <glyph glyph-name="daggerdbl" unicode="&#x2021;" horiz-adv-x="1060" 
d="M662 1116h296v-235h-296v-426h296v-234h-296v-323h-265v323h-295v234h295v426h-295v235h295v318h265v-318z" />
    <glyph glyph-name="bullet" unicode="&#x2022;" horiz-adv-x="782" 
d="M387 963q121 0 206 -85t85 -206t-85 -206t-206 -85t-206 85t-85 206t85 206t206 85z" />
    <glyph glyph-name="ellipsis" unicode="&#x2026;" horiz-adv-x="1441" 
d="M1234 279q60 -1 103 -45t43 -103t-43 -103t-93 -44t-84 19t-54 54t-20 84t44 93t104 45zM578 131q0 59 43 103t88 45q111 0 150 -92q11 -27 11 -61t-19 -69q-40 -73 -128 -73q-59 0 -102 44t-43 103zM214 279q60 -1 103 -45t43 -103t-43 -103t-93 -44t-84 19
q-72 40 -72 128q0 59 43 103t103 45z" />
    <glyph glyph-name="perthousand" unicode="&#x2030;" horiz-adv-x="2379" 
d="M1221 457q-96 0 -142 -76q-20 -35 -20 -76q0 -91 76 -133q35 -20 87 -20t97 45t45 107t-45 108q-46 45 -98 45zM1979 457q-52 -1 -87 -21q-75 -44 -75 -119t45 -119t107 -44t108 44q45 44 45 106t-45 108q-46 45 -98 45zM1211 641q141 0 239 -99t98 -237q0 -92 -46 -170
t-124 -122t-166 -44q-141 -1 -239 97q-99 98 -99 237t98 239t239 99zM1968 641q136 0 236 -99q100 -100 100 -238t-98 -236t-238 -98t-237 96q-98 98 -99 239q0 90 45 167t123 123t168 46zM425 1280q-61 0 -107 -45t-46 -107t45 -108q45 -45 107 -45t108 45t46 107
q0 61 -46 107t-107 46zM412 0h-271l1084 1434h270zM425 1464q137 0 237 -100t100 -236t-99 -233q-99 -98 -237 -104q-141 0 -239 98q-97 98 -97 237t98 239q99 99 237 99z" />
    <glyph glyph-name="guilsinglleft" unicode="&#x2039;" horiz-adv-x="780" 
d="M690 831l-282 -282l282 -283l-162 -164l-446 447l446 446z" />
    <glyph glyph-name="guilsinglright" unicode="&#x203a;" horiz-adv-x="780" 
d="M705 549l-445 -447l-164 164l285 283l-285 282l164 164z" />
    <glyph glyph-name="fraction" unicode="&#x2044;" horiz-adv-x="894" 
d="M315 0h-233l498 1434h233z" />
    <glyph glyph-name="Euro" unicode="&#x20ac;" horiz-adv-x="1247" 
d="M975 1071q-58 148 -250 148q-90 1 -165 -59t-77 -177v-70h328v-135h-328v-116h328v-136h-328v-69q4 -117 78 -176t179 -59t178 65q39 35 57 84l201 -90q-47 -143 -168 -223t-291 -78q-217 0 -362 122q-144 123 -146 353v71h-137v136h137v116h-137v135h137v78
q2 115 44 207q77 169 270 235q89 30 194 29q170 0 291 -79t168 -222z" />
    <glyph glyph-name="trademark" unicode="&#x2122;" horiz-adv-x="1579" 
d="M1511 590h-188v397l-125 -321h-135l-125 321v-397h-188v844h186l194 -484l195 484h186v-844zM655 1268h-202v-678h-191v678h-194v166h587v-166z" />
    <glyph glyph-name="oneeighth" unicode="&#x215b;" horiz-adv-x="1738" 
d="M1389 367q-39 1 -63 -15q-48 -31 -48 -81t29 -82q29 -31 75 -31t76 32q29 32 29 72q0 41 -30 73t-68 32zM1392 707q-67 0 -87 -54q-21 -54 12 -85q33 -32 67 -32t58 24q25 24 24 61q0 37 -24 61t-50 25zM1364 877q168 0 246 -116q37 -56 37 -132q0 -104 -99 -176
q117 -78 117 -203t-81 -194q-81 -68 -202 -68q-122 0 -202 70t-80 194q0 125 117 203q-97 73 -97 179t76 174q78 68 168 69zM698 0h-231l498 1434h231zM469 571h-186v578q-25 -19 -70 -35t-92 -16l-47 186q61 2 136 39t95 111h164v-863z" />
    <glyph glyph-name="threeeighths" unicode="&#x215c;" horiz-adv-x="1755" 
d="M1399 367q-45 0 -75 -32t-30 -73t30 -73q30 -31 76 -31t76 32t29 72q0 41 -30 73q-31 32 -76 32zM1401 707q-37 0 -62 -26q-25 -27 -25 -61t26 -59t60 -25t60 24t25 61q1 37 -23 61t-61 25zM1401 877q111 0 187 -68t75 -176q0 -108 -96 -180q117 -78 117 -201t-82 -194
q-80 -71 -203 -70q-167 0 -244 120q-39 60 -39 144q0 125 117 203q-96 73 -96 179q1 106 77 174t187 69zM764 0h-234l498 1434h234zM444 860q0 40 -29 74q-30 33 -77 33h-66v155h58q33 0 53 23t20 53t-20 50q-20 22 -49 22q-54 0 -74 -53l-170 67q31 74 99 120q69 46 160 46
t165 -68t74 -170t-76 -163q123 -72 123 -203t-86 -208t-211 -77q-86 0 -155 38t-109 101l149 99q36 -56 108 -57t100 53q13 25 13 65z" />
    <glyph glyph-name="fiveeighths" unicode="&#x215d;" horiz-adv-x="1755" 
d="M1399 367q-45 0 -75 -32t-30 -73t30 -73q30 -31 76 -31t76 32t29 72q0 41 -30 73q-31 32 -76 32zM1485 621q1 37 -23 61t-66 25q-42 0 -70 -44q-11 -19 -11 -48q-1 -29 25 -54t60 -25t60 24t25 61zM1401 877q111 0 187 -68t75 -176q0 -108 -96 -180q117 -78 117 -202
t-83 -194q-82 -69 -202 -69q-121 0 -202 70t-81 194q0 125 117 203q-96 73 -96 179q1 106 77 174t187 69zM762 0h-234l498 1434h234zM571 1260h-249l-15 -117h51q166 -4 243 -134q38 -65 38 -157t-49 -164q-89 -131 -262 -131q-84 0 -155 40t-110 101l152 97q14 -25 47 -44
q70 -40 129 -2q56 33 57 104t-58 102q-28 15 -62 16h-209l55 463h397v-174z" />
    <glyph glyph-name="seveneighths" unicode="&#x215e;" horiz-adv-x="1589" 
d="M1232 367q-44 0 -75 -32t-31 -73t30 -73q30 -31 77 -31t76 32t28 72q0 41 -30 73q-31 32 -75 32zM1233 707q-49 0 -74 -44q-10 -19 -10 -48t25 -54q24 -25 58 -25t60 24t25 54q0 59 -40 81q-19 12 -44 12zM1233 877q150 0 227 -116q37 -56 37 -132q0 -104 -98 -176
q117 -78 117 -201q0 -82 -39 -143q-79 -123 -245 -122t-245 121q-39 60 -39 144q0 125 119 203q-98 73 -98 179q1 106 77 174t187 69zM580 0h-234l498 1434h233zM72 1260v174h540v-127l-354 -727h-190l329 680h-325z" />
    <glyph glyph-name="partialdiff" unicode="&#x2202;" horiz-adv-x="1705" 
 />
    <glyph glyph-name="product" unicode="&#x220f;" horiz-adv-x="1705" 
 />
    <glyph glyph-name="summation" unicode="&#x2211;" horiz-adv-x="1705" 
 />
    <glyph glyph-name="minus" unicode="&#x2212;" horiz-adv-x="1060" 
d="M958 500h-856v235h856v-235z" />
    <glyph glyph-name="radical" unicode="&#x221a;" horiz-adv-x="1705" 
 />
    <glyph glyph-name="infinity" unicode="&#x221e;" horiz-adv-x="1705" 
 />
    <glyph glyph-name="integral" unicode="&#x222b;" horiz-adv-x="1705" 
 />
    <glyph glyph-name="approxequal" unicode="&#x2248;" horiz-adv-x="1067" 
d="M339 518q81 0 212 -47t185 -47q112 0 163 74l125 -152q-47 -53 -126 -85q-80 -32 -158 -32q-78 1 -210 49t-186 48q-115 0 -176 -86l-123 151q49 59 131 93t163 34zM340 922q82 0 213 -48t183 -47q110 0 163 74l125 -151q-47 -53 -126 -84q-80 -31 -158 -31t-210 47
t-186 47q-117 0 -176 -84l-123 152q49 57 131 91t164 34z" />
    <glyph glyph-name="notequal" unicode="&#x2260;" horiz-adv-x="1060" 
d="M958 942v-233h-258l-73 -213h331v-236h-413l-101 -291h-262l103 291h-183v236h263l73 213h-336v233h418l96 279h263l-97 -279h176z" />
    <glyph glyph-name="lessequal" unicode="&#x2264;" horiz-adv-x="978" 
d="M877 2h-775v205h775v-205zM819 1356l-448 -449l448 -448l-133 -133l-582 581l582 582z" />
    <glyph glyph-name="greaterequal" unicode="&#x2265;" horiz-adv-x="978" 
d="M877 2h-775v205h775v-205zM874 907l-581 -581l-133 133l448 448l-448 449l133 133z" />
    <glyph glyph-name="lozenge" unicode="&#x25ca;" horiz-adv-x="1705" 
 />
    <glyph glyph-name="uniF8FF" unicode="&#xf8ff;" horiz-adv-x="0" 
 />
    <glyph glyph-name="a.ss01" horiz-adv-x="1013" 
d="M490 840q-86 0 -122 -43t-36 -142v-311q2 -156 168 -156q83 0 155 29v594q-79 29 -165 29zM920 0h-203l-6 53q-104 -69 -258 -69t-262 83q-56 41 -90 113t-33 166v328q0 275 231 347q63 19 137 19q143 0 275 -65l6 51h203v-1026z" />
    <glyph glyph-name="e.ss01" horiz-adv-x="954" 
d="M328 680v-84q80 -39 174 -39q162 0 162 135q0 70 -43 108t-122 38t-125 -41t-46 -117zM324 338q0 -158 200 -158q102 0 183 70l145 -113q-127 -156 -371 -155q-207 0 -310 110t-103 275v274q0 175 103 289t308 114t313 -100t108 -262t-120 -236q-100 -61 -224 -61
t-232 31v-78z" />
    <glyph glyph-name="T_h" horiz-adv-x="2062" 
d="M1393 1434v-437q93 43 189 43t159 -18t119 -59t88 -115q33 -74 32 -172v-676h-264v657q0 128 -65 163q-35 20 -108 20t-150 -31v-809h-263v1190h-458v-1190h-277v1190h-344v244h1342z" />
    <glyph glyph-name="c_h" horiz-adv-x="1949" 
d="M68 403v220q0 180 86 280t221 125q55 12 109 12t98 -6q-20 41 -21 90q0 113 103 224q117 129 304 129t312 -150v-330q94 43 190 43q280 0 365 -192q33 -74 33 -172v-676h-264v657q0 127 -66 163q-36 20 -108 20t-150 -31v-809h-264v1253q-27 8 -58 9q-80 0 -131 -50
q-70 -59 -69 -153q0 -51 44 -131t52 -103l-215 -77q-49 84 -143 83q-164 0 -164 -208v-220q0 -209 164 -208q94 0 143 84l215 -78q-90 -219 -358 -219q-205 0 -317 111q-111 111 -111 310z" />
    <glyph glyph-name="c_t" horiz-adv-x="1579" 
d="M1274 408q0 -251 248 -213v-209q-148 -20 -236 6t-147 70q-131 98 -129 298v893q-29 8 -60 9q-80 0 -139 -56t-59 -145q0 -49 42 -123t52 -113l-215 -77q-49 86 -142 86q-166 0 -165 -209v-222q0 -209 165 -208q92 0 142 86l215 -78q-90 -219 -357 -219q-205 0 -317 111
t-111 308v220q-1 186 93 291q112 126 323 126q47 0 96 -6q-20 43 -20 92q0 119 114 235t282 116t254 -79q34 -30 40 -37t31 -34v-301h213v-213h-213v-405z" />
    <glyph glyph-name="f_b" horiz-adv-x="1634" 
d="M1303 655q0 97 -36 141t-123 44t-165 -29v-594q72 -29 156 -29q166 0 168 156v311zM96 0v1102q0 180 113 268t297 88q242 0 431 -99q25 -13 42 -26v-336q99 43 193 43q276 0 362 -192q33 -74 33 -174v-328q0 -264 -249 -342q-67 -20 -142 -20q-147 0 -252 69l-6 -53h-203
v1208q-100 37 -193 37q-160 0 -162 -174v-45h213v-199h-213v-827h-264z" />
    <glyph glyph-name="f_h" horiz-adv-x="1650" 
d="M96 0v1102q0 180 113 268t297 88q242 0 431 -99q25 -13 42 -26v-336q93 43 189 43t159 -18t119 -59t88 -115q33 -74 33 -172v-676h-264v657q0 128 -67 163q-36 20 -108 20t-149 -31v-809h-264v1208q-100 37 -193 37q-160 0 -162 -172v-47h213v-199h-213v-827h-264z" />
    <glyph glyph-name="f_i" horiz-adv-x="1073" 
d="M96 0v1102q0 180 113 268t290 88t353 -63v-187q-117 37 -237 37q-121 0 -163 -16q-89 -33 -92 -160v-43h619v-1026h-264v827h-355v-827h-264z" />
    <glyph glyph-name="f_j" horiz-adv-x="1073" 
d="M96 0v1102q0 264 249 336q73 20 161 20q170 0 346 -63v-187q-117 37 -252 37t-186 -37t-54 -129v-53h619v-1079q0 -171 -123 -256q-84 -56 -192 -68q-47 -8 -103 -6v211q134 0 151 102q3 25 3 66v831h-355v-827h-264z" />
    <glyph glyph-name="f_k" horiz-adv-x="1687" 
d="M104 0v1102q0 123 56 205q102 151 358 151t449 -110l20 -15v-641l299 348h311l-368 -438l438 -602h-295l-293 422l-92 -92v-330h-264v1208q-100 37 -195 37q-160 0 -159 -170v-49h213v-199h-213v-827h-265z" />
    <glyph glyph-name="f_l" horiz-adv-x="1069" 
d="M96 0v1102q0 180 113 268t297 88q242 0 431 -99q25 -13 42 -26v-1333h-264v1208q-100 37 -193 37q-160 0 -162 -172v-47h213v-199h-213v-827h-264z" />
    <glyph glyph-name="s_p" horiz-adv-x="1929" 
d="M1599 369v313q-2 156 -167 156q-86 0 -156 -31v-594q78 -27 165 -27t123 43q35 44 35 140zM444 190q61 0 99 30q37 30 37 75t-26 69t-70 37t-104 26q-129 27 -214 84q-103 69 -103 231t135 246q87 54 224 54q35 0 80 -4q-43 132 33 251q47 75 129 119t182 44t187 -51
t138 -139t52 -191v-96q98 65 253 65t264 -82q56 -40 90 -112t34 -166v-330q0 -184 -118 -284q-60 -52 -163 -73q-43 -9 -90 -9q-115 0 -217 45v-439h-264v1481q0 70 -51 119t-120 49t-118 -49q-49 -50 -49 -110t31 -97q125 -82 124 -250h-254q0 39 -30 70q-31 31 -95 31
t-97 -31q-31 -31 -31 -73t40 -68t134 -46q174 -34 262 -106t88 -209t-93 -229t-291 -92t-306 84t-111 235h258q12 -109 141 -109z" />
    <glyph glyph-name="s_t" horiz-adv-x="1546" 
d="M459 190q61 0 98 31t37 76t-18 63q-18 17 -31 24q-12 7 -39 15q-27 7 -44 13q-16 6 -72 18q-230 50 -287 170q-26 55 -25 133q0 121 69 203q90 106 299 106q33 0 91 -4q-16 41 -17 86q0 119 107 230q117 125 297 125q126 0 225 -71q29 -19 58 -49t32 -30v-303h213v-211
h-213v-405q0 -182 117 -210q63 -15 131 -5v-209q-143 -21 -233 7q-89 29 -149 71t-95 119t-35 177v895q-100 32 -172 -28q-86 -59 -86 -166q0 -66 39 -107q88 -88 88 -221h-254q0 39 -31 70t-95 31t-96 -30t-32 -72t40 -68t134 -48q174 -34 262 -106t88 -209t-93 -229
t-291 -92t-306 84t-111 235h258q12 -109 142 -109z" />
    <glyph glyph-name="zero.lf" horiz-adv-x="1163" 
d="M369 995v-569q0 -109 60 -157t137 -48q77 1 122 19t76 65t31 121v567q0 225 -211 226q-215 0 -215 -224zM106 418v586q0 218 132 338t351 120q220 0 344 -126t124 -335v-583q0 -322 -307 -415q-140 -42 -290 -12t-252 136t-102 291z" />
    <glyph glyph-name="one.lf" horiz-adv-x="776" 
d="M643 0h-250v1044q-75 -92 -278 -108l-62 252q125 10 230 77t143 169h217v-1434z" />
    <glyph glyph-name="two.lf" horiz-adv-x="1040" 
d="M548 1456q185 0 306 -121t121 -311t-139 -344l-365 -442h504v-238h-895v178l512 615q119 143 119 249q0 76 -47 123t-129 47t-127 -45t-76 -145l-258 72q61 184 175 273t299 89z" />
    <glyph glyph-name="three.lf" horiz-adv-x="1064" 
d="M934 1049q0 -103 -50 -179t-120 -116q82 -45 142 -129t61 -209q0 -207 -132 -323t-347 -116t-363 153q-35 36 -59 73l204 131q32 -49 94 -82t126 -33q125 0 184 100q27 47 26 103q0 86 -67 149q-68 63 -162 64h-90v219h90q86 0 144 53q59 53 59 117q1 118 -86 169
q-42 24 -100 24t-99 -39t-57 -78l-234 94q32 81 137 173q106 93 277 92q170 -1 296 -113t126 -297z" />
    <glyph glyph-name="four.lf" horiz-adv-x="1083" 
d="M633 565v471l-311 -471h311zM897 565h107v-231h-107v-334h-264v334h-574v231l557 869h281v-869z" />
    <glyph glyph-name="five.lf" horiz-adv-x="1091" 
d="M891 1190h-432l-31 -254h102q173 -8 321 -123q71 -55 114 -145t43 -199q0 -223 -144 -357t-364 -135q-154 0 -266 72t-164 156l204 131q31 -49 96 -82t130 -33q106 0 174 68t68 167t-67 168t-175 68h-326l90 742h627v-244z" />
    <glyph glyph-name="six.lf" horiz-adv-x="1226" 
d="M610 688q-104 0 -165 -65q-60 -66 -60 -167t61 -169q62 -68 164 -68t164 67t62 151q0 85 -27 137t-79 83t-120 31zM625 932q201 0 338 -138t137 -339t-142 -339t-349 -138q-206 0 -347 138t-141 339v473q1 150 65 268t188 190q124 70 285 70q92 0 203 -38t197 -113
l-158 -183q-115 92 -251 92t-209 -80t-72 -188v-125q98 111 256 111z" />
    <glyph glyph-name="seven.lf" horiz-adv-x="1028" 
d="M61 1190v244h875v-172l-610 -1262h-258l575 1190h-582z" />
    <glyph glyph-name="eight.lf" horiz-adv-x="1138" 
d="M772 436q0 70 -60 128t-144 59q-83 -1 -143 -59t-60 -142t59 -143q58 -59 130 -59t119 26q99 58 99 190zM393 1039q0 -75 53 -125t124 -50t123 49t52 111t-22 104q-51 89 -167 89q-62 1 -112 -51q-51 -52 -51 -127zM570 1458q183 0 310 -111q126 -112 126 -298
q0 -103 -50 -179t-118 -116q80 -45 140 -129t60 -209q0 -207 -132 -323t-336 -116t-338 116t-134 323q0 127 60 211t145 127q-68 42 -119 116t-51 179q0 185 127 297t310 112z" />
    <glyph glyph-name="nine.lf" horiz-adv-x="1206" 
d="M598 1212q-102 0 -164 -65q-61 -66 -61 -160t38 -147q60 -92 176 -93q115 -2 175 64q59 66 60 167t-60 168q-62 66 -164 66zM840 487v125q-98 -111 -256 -110q-203 0 -339 138t-136 339q0 131 64 241q65 110 177 173t248 63q205 0 347 -138t142 -339v-473
q0 -227 -148 -378t-390 -151q-92 0 -182 31q-91 31 -137 61t-83 60l160 182q112 -89 249 -91q138 -2 211 78t73 189z" />
    <glyph glyph-name="zero.osf" horiz-adv-x="1163" 
d="M369 426q0 -109 60 -156t137 -47q77 -1 122 17t76 65t31 121v149q0 225 -211 226q-218 0 -215 -223v-152zM106 418v166q0 221 132 341q132 119 351 119q220 0 344 -126t124 -336v-164q0 -267 -213 -379q-113 -59 -260 -59q-233 0 -371 141q-107 112 -107 297z" />
    <glyph glyph-name="one.osf" horiz-adv-x="931" 
d="M631 229h213v-229h-697v229h244v443q-80 -80 -233 -90l-56 215q102 13 198 71t132 156h199v-795z" />
    <glyph glyph-name="two.osf" horiz-adv-x="1030" 
d="M965 666q1 -104 -63 -182t-183 -144l-168 -109h412v-231h-893v176l374 213q109 61 183 131q73 70 73 127q-1 162 -161 162q-154 0 -209 -158l-256 68q125 324 461 323q178 0 304 -100t126 -276z" />
    <glyph glyph-name="three.osf" horiz-adv-x="1064" 
d="M934 635q0 -74 -29 -137t-63 -99q-35 -35 -78 -61q82 -43 142 -127t61 -209q0 -207 -132 -323q-132 -115 -320 -115t-295 76t-154 149l204 133q40 -70 136 -100q45 -14 92 -15q86 1 144 59t58 143t-67 149q-68 63 -162 63h-90v219h90q86 0 144 54t59 130q0 77 -50 128
t-122 51t-113 -39t-57 -78l-234 92q31 79 135 173q104 93 277 92q172 -1 298 -113t126 -295z" />
    <glyph glyph-name="four.osf" horiz-adv-x="1083" 
d="M633 156v471l-311 -471h311zM897 156h107v-232h-107v-334h-264v334h-574v232l557 868h281v-868z" />
    <glyph glyph-name="five.osf" horiz-adv-x="1091" 
d="M891 782h-432l-31 -256h102q173 -8 321 -123q71 -55 114 -145t43 -199q0 -223 -144 -357t-364 -134q-154 0 -266 72t-164 157l204 131q31 -51 96 -84t130 -32q106 0 174 68t68 168q0 99 -67 168t-175 69h-326l90 741h627v-244z" />
    <glyph glyph-name="six.osf" horiz-adv-x="1228" 
d="M610 688q-104 0 -165 -65q-60 -66 -60 -167t61 -169q62 -68 164 -68t164 67t62 151q0 85 -27 137t-79 83t-120 31zM625 932q201 0 338 -138t137 -339t-142 -339t-349 -138q-206 0 -347 138t-141 339v473q1 150 65 268t188 190q124 70 285 70q92 0 203 -38t197 -113
l-158 -183q-115 92 -251 92t-209 -80t-72 -188v-125q98 111 256 111z" />
    <glyph glyph-name="seven.osf" horiz-adv-x="1028" 
d="M61 782v244h875v-172l-610 -1262h-258l575 1190h-582z" />
    <glyph glyph-name="eight.osf" horiz-adv-x="1138" 
d="M772 436q0 70 -60 128t-144 59q-83 -1 -143 -59t-60 -142t59 -143q58 -59 130 -59t119 26q99 58 99 190zM393 1039q0 -75 53 -125t124 -50t123 49t52 111t-22 104q-51 89 -167 89q-62 1 -112 -51q-51 -52 -51 -127zM570 1458q183 0 310 -111q126 -112 126 -298
q0 -103 -50 -179t-118 -116q80 -45 140 -129t60 -209q0 -207 -132 -323t-336 -116t-338 116t-134 323q0 127 60 211t145 127q-68 42 -119 116t-51 179q0 185 127 297t310 112z" />
    <glyph glyph-name="nine.osf" horiz-adv-x="1208" 
d="M598 799q-68 0 -120 -32q-107 -66 -105 -204q0 -100 60 -167q61 -66 165 -66t164 66q59 67 61 167q0 100 -61 168q-62 68 -164 68zM840 72v127q-98 -113 -256 -113q-203 0 -339 138t-136 339t142 340t347 139t347 -139t142 -340v-473q0 -227 -148 -378t-390 -150
q-92 0 -182 30q-91 30 -137 61q-46 30 -83 62l160 183q39 -35 106 -64t142 -29q139 1 212 81t73 186z" />
    <glyph glyph-name="zero.tf" horiz-adv-x="1163" 
d="M369 995v-569q0 -109 60 -157t137 -48q77 1 122 19t76 65t31 121v567q0 225 -211 226q-215 0 -215 -224zM106 418v586q0 218 132 338t351 120q220 0 344 -126t124 -335v-583q0 -322 -307 -415q-140 -42 -290 -12t-252 136t-102 291z" />
    <glyph glyph-name="one.tf" horiz-adv-x="1089" 
d="M709 238h243v-238h-766v238h273v813q-80 -93 -277 -109l-63 252q119 10 215 68q119 70 158 178h217v-1202z" />
    <glyph glyph-name="two.tf" horiz-adv-x="1118" 
d="M548 1456q185 0 306 -121t121 -311t-139 -344l-365 -442h504v-238h-895v178l512 615q119 143 119 249q0 76 -47 123t-129 47t-127 -45t-76 -145l-258 72q61 184 175 273t299 89z" />
    <glyph glyph-name="three.tf" horiz-adv-x="1105" 
d="M934 1049q0 -103 -50 -179t-120 -116q82 -45 142 -129t61 -209q0 -207 -132 -323t-347 -116t-363 153q-35 36 -59 73l204 131q32 -49 94 -82t126 -33q125 0 184 100q27 47 26 103q0 86 -67 149q-68 63 -162 64h-90v219h90q86 0 144 53q59 53 59 117q1 118 -86 169
q-42 24 -100 24t-99 -39t-57 -78l-234 94q32 81 137 173q106 93 277 92q170 -1 296 -113t126 -297z" />
    <glyph glyph-name="four.tf" horiz-adv-x="1134" 
d="M633 565v471l-311 -471h311zM897 565h107v-231h-107v-334h-264v334h-574v231l557 869h281v-869z" />
    <glyph glyph-name="five.tf" horiz-adv-x="1134" 
d="M891 1190h-432l-31 -254h102q173 -8 321 -123q71 -55 114 -145t43 -199q0 -223 -144 -357t-364 -135q-154 0 -266 72t-164 156l204 131q31 -49 96 -82t130 -33q106 0 174 68t68 167t-67 168t-175 68h-326l90 742h627v-244z" />
    <glyph glyph-name="six.tf" horiz-adv-x="1214" 
d="M610 688q-104 0 -165 -65q-60 -66 -60 -167t61 -169q62 -68 164 -68t164 67t62 151q0 85 -27 137t-79 83t-120 31zM625 932q201 0 338 -138t137 -339t-142 -339t-349 -138q-206 0 -347 138t-141 339v473q1 150 65 268t188 190q124 70 285 70q92 0 203 -38t197 -113
l-158 -183q-115 92 -251 92t-209 -80t-72 -188v-125q98 111 256 111z" />
    <glyph glyph-name="seven.tf" horiz-adv-x="1073" 
d="M61 1190v244h875v-172l-610 -1262h-258l575 1190h-582z" />
    <glyph glyph-name="eight.tf" horiz-adv-x="1140" 
d="M772 436q0 70 -60 128t-144 59q-83 -1 -143 -59t-60 -142t59 -143q58 -59 130 -59t119 26q99 58 99 190zM393 1039q0 -75 53 -125t124 -50t123 49t52 111t-22 104q-51 89 -167 89q-62 1 -112 -51q-51 -52 -51 -127zM570 1458q183 0 310 -111q126 -112 126 -298
q0 -103 -50 -179t-118 -116q80 -45 140 -129t60 -209q0 -207 -132 -323t-336 -116t-338 116t-134 323q0 127 60 211t145 127q-68 42 -119 116t-51 179q0 185 127 297t310 112z" />
    <glyph glyph-name="nine.tf" horiz-adv-x="1214" 
d="M598 1212q-102 0 -164 -65q-61 -66 -61 -160t38 -147q60 -92 176 -93q115 -2 175 64q59 66 60 167t-60 168q-62 66 -164 66zM840 487v125q-98 -111 -256 -110q-203 0 -339 138t-136 339q0 131 64 241q65 110 177 173t248 63q205 0 347 -138t142 -339v-473
q0 -227 -148 -378t-390 -151q-92 0 -182 31q-91 31 -137 61t-83 60l160 182q112 -89 249 -91q138 -2 211 78t73 189z" />
    <glyph glyph-name="zero.tosf" horiz-adv-x="1163" 
d="M369 426q0 -109 60 -156q61 -47 155 -47q212 0 211 203v149q0 225 -209 226q-220 0 -217 -223v-152zM106 418v166q0 221 132 341q132 119 351 119q220 0 344 -126t124 -336v-164q0 -322 -307 -415q-140 -42 -290 -12t-252 136t-102 291z" />
    <glyph glyph-name="one.tosf" horiz-adv-x="1011" 
d="M664 229h213v-229h-697v229h244v443q-80 -80 -234 -90l-53 215q99 15 195 71t133 156h199v-795z" />
    <glyph glyph-name="two.tosf" horiz-adv-x="1216" 
d="M1004 666q0 -104 -64 -182t-184 -144l-166 -109h411v-231h-892v176l374 213q109 61 183 131t74 127q-1 162 -162 162q-154 0 -209 -158l-256 68q125 324 460 323q175 0 303 -100t128 -276z" />
    <glyph glyph-name="three.tosf" horiz-adv-x="1105" 
d="M963 635q1 -106 -51 -181t-119 -116q69 -34 136 -119q66 -86 66 -217q0 -207 -133 -323q-133 -115 -343 -115t-367 153q-35 35 -58 72l203 133q33 -51 94 -83t140 -32q79 1 139 59t59 128q0 136 -115 196q-53 29 -116 29h-90v221h90q86 0 144 54t58 129q0 76 -50 128
t-112 52t-100 -25t-54 -47t-26 -47l-231 94q32 82 128 168q48 43 120 70t151 26q182 0 310 -111q127 -112 127 -296z" />
    <glyph glyph-name="four.tosf" horiz-adv-x="1134" 
d="M662 156v471l-314 -471h314zM924 156h108v-232h-108v-334h-262v334h-574v232l557 868h279v-868z" />
    <glyph glyph-name="five.tosf" horiz-adv-x="1134" 
d="M915 782h-432l-30 -256h102q173 -8 321 -123q72 -55 114 -145t42 -199q0 -223 -144 -357t-366 -134q-152 0 -264 72t-164 157l205 131q31 -51 95 -84t128 -32q108 0 176 68t70 169q-4 137 -115 203q-55 33 -129 33h-325l90 741h626v-244z" />
    <glyph glyph-name="six.tosf" horiz-adv-x="1216" 
d="M615 688q-103 0 -163 -66t-62 -166q-2 -101 60 -168q61 -67 164 -68q102 -1 165 66q62 67 63 169q0 101 -62 167t-165 66zM127 455v473q1 150 65 268t188 190q124 70 286 70q92 0 202 -38t197 -113l-158 -183q-41 35 -107 64t-143 28q-139 0 -211 -80t-71 -188v-125
q96 111 256 111q201 0 338 -138t137 -339t-142 -339t-348 -138t-348 138q-141 138 -141 339z" />
    <glyph glyph-name="seven.tosf" horiz-adv-x="1073" 
d="M102 782v244h875v-172l-610 -1262h-258l577 1190h-584z" />
    <glyph glyph-name="eight.tosf" horiz-adv-x="1140" 
d="M567 623q-84 -1 -143 -59t-59 -142t59 -143q60 -59 130 -59q135 -1 191 99q27 47 27 117t-60 128t-145 59zM556 1217q-62 1 -113 -51q-50 -52 -50 -127t52 -125t124 -50t124 49t52 111t-23 104q-52 89 -166 89zM568 1458q183 0 311 -111q127 -112 127 -298
q0 -103 -52 -179t-118 -116q82 -45 142 -129t60 -209q0 -207 -133 -323t-337 -116t-337 116t-133 323q0 127 60 211t143 127q-68 42 -119 116t-51 179q0 185 127 297t310 112z" />
    <glyph glyph-name="nine.tosf" horiz-adv-x="1216" 
d="M608 799q-68 0 -120 -32q-105 -65 -105 -204q0 -86 37 -140q37 -55 92 -74t96 -19q104 0 164 66q59 67 62 167q0 100 -62 168t-164 68zM850 72v127q-98 -113 -256 -113q-203 0 -339 138t-136 339t141 340t347 139t348 -139t143 -340v-473q0 -227 -148 -378t-391 -150
q-92 0 -182 30t-136 61q-46 30 -83 62l159 183q39 -35 106 -64t142 -29q139 1 212 81t73 186z" />
    <glyph glyph-name="zero.dnom" horiz-adv-x="745" 
d="M475 268v326q0 45 -23 77q-24 31 -77 31t-79 -30t-26 -78v-324q0 -47 25 -79t76 -31q104 0 104 108zM74 279v307q0 121 76 206t226 85t224 -86t74 -207v-305q0 -123 -76 -207t-226 -84t-225 85q-73 85 -73 206z" />
    <glyph glyph-name="one.dnom" horiz-adv-x="509" 
d="M438 0h-188v578q-23 -20 -68 -36t-92 -16l-47 187q63 2 137 40t94 109h164v-862z" />
    <glyph glyph-name="two.dnom" horiz-adv-x="679" 
d="M356 874q116 0 190 -74q75 -74 75 -193q0 -118 -86 -210l-193 -227h279v-170h-553v127l301 360q63 76 63 120t-21 69q-22 24 -62 24q-41 0 -63 -22t-38 -78l-182 51q37 111 105 167q69 56 185 56z" />
    <glyph glyph-name="three.dnom" horiz-adv-x="700" 
d="M223 225q31 -59 118 -59q42 0 73 32t30 81q0 49 -30 81t-76 33h-68v156h60q31 1 51 23t20 52t-20 52t-49 20q-54 0 -72 -53l-170 68q30 73 98 119t160 46t166 -67q74 -68 74 -171t-76 -163q123 -72 123 -203q0 -132 -86 -208q-87 -76 -193 -76q-196 0 -284 139z" />
    <glyph glyph-name="four.dnom" horiz-adv-x="698" 
d="M393 365v245l-151 -245h151zM575 365h62v-175h-62v-190h-190v190h-330v158l330 514h190v-497z" />
    <glyph glyph-name="five.dnom" horiz-adv-x="702" 
d="M571 690h-249l-15 -119h49q121 1 202 -77t81 -192t-49 -184q-91 -132 -262 -130q-84 0 -155 40t-110 99l152 96q14 -25 47 -44t76 -19t77 37t34 78q1 41 -15 67q-33 57 -106 57h-209l55 463h397v-172z" />
    <glyph glyph-name="six.dnom" horiz-adv-x="739" 
d="M264 261q0 -38 30 -71q30 -32 81 -32t81 32t29 83q-1 50 -30 83t-81 33q-76 0 -103 -70q-7 -20 -7 -58zM74 281v270q0 139 92 231t234 92t247 -92l-115 -129q-56 47 -124 47t-110 -36t-46 -91v-59q70 49 131 49q119 0 206 -83q87 -84 87 -204t-88 -205t-214 -85t-213 85
t-87 210z" />
    <glyph glyph-name="seven.dnom" horiz-adv-x="671" 
d="M72 680v174h540v-127l-354 -727h-190l329 680h-325z" />
    <glyph glyph-name="eight.dnom" horiz-adv-x="700" 
d="M358 367q-38 1 -62 -15q-50 -32 -50 -91t49 -88q25 -15 63 -15t69 32q30 32 30 72q0 41 -31 73t-68 32zM345 707q-31 0 -55 -26q-24 -27 -24 -61t26 -59t60 -25t59 24t25 68t-42 68q-20 12 -49 11zM352 877q150 0 227 -116q36 -56 35 -132q0 -104 -96 -176
q117 -78 117 -201t-81 -194q-81 -70 -203 -70t-203 70t-80 194q0 125 116 203q-96 73 -96 179t76 174t188 69z" />
    <glyph glyph-name="nine.dnom" horiz-adv-x="739" 
d="M475 596q1 42 -29 74t-72 32t-68 -15q-52 -29 -52 -99t52 -100q26 -15 60 -15t59 15q50 29 50 108zM358 299q-122 0 -208 82t-86 203t88 207t214 86t213 -86t87 -209v-271q0 -141 -92 -232t-235 -91q-142 0 -245 92l113 129q55 -49 137 -49t122 64q19 30 21 65v59
q-70 -49 -129 -49z" />
    <glyph glyph-name="zero.numr" horiz-adv-x="745" 
d="M371 733q104 0 104 109v325q0 109 -100 109q-53 0 -79 -31t-26 -78v-323q0 -47 25 -79t76 -32zM74 852v307q0 121 76 206t226 85t224 -86t74 -207v-305q0 -123 -76 -207t-226 -84t-225 85q-73 85 -73 206z" />
    <glyph glyph-name="one.numr" horiz-adv-x="509" 
d="M438 571h-188v578q-23 -19 -68 -35t-92 -16l-47 186q69 2 141 42t90 108h164v-863z" />
    <glyph glyph-name="two.numr" horiz-adv-x="679" 
d="M432 1179q0 93 -83 93q-41 0 -63 -23t-38 -78l-182 52q37 111 105 167q69 56 185 56t190 -75q75 -75 75 -193t-86 -209l-193 -228h279v-170h-553v127l301 361q63 76 63 120z" />
    <glyph glyph-name="three.numr" horiz-adv-x="700" 
d="M444 860q0 40 -30 74q-31 33 -78 33h-66v155h58q33 0 53 23t20 53t-20 50q-20 22 -49 22q-54 0 -72 -53l-172 67q31 74 99 120q69 46 161 46t166 -68t74 -170t-76 -163q123 -72 123 -203t-86 -208t-213 -77q-86 0 -155 38t-109 101l149 99q36 -56 107 -57q72 -1 102 53
q14 25 14 65z" />
    <glyph glyph-name="four.numr" horiz-adv-x="698" 
d="M393 936v246l-151 -246h151zM575 936h62v-172h-62v-193h-190v193h-330v156l330 514h190v-498z" />
    <glyph glyph-name="five.numr" horiz-adv-x="702" 
d="M571 1260h-249l-15 -117h49q121 0 202 -78q81 -77 81 -191t-49 -186q-89 -131 -262 -131q-84 0 -155 40t-110 101l152 97q14 -25 47 -44q70 -40 129 -2q56 33 57 104t-58 102q-28 15 -62 16h-209l55 463h397v-174z" />
    <glyph glyph-name="six.numr" horiz-adv-x="739" 
d="M472 908q-28 57 -102 57q-73 0 -99 -71q-7 -22 -7 -50t12 -54q25 -55 97 -56t99 57q13 27 13 59t-13 58zM74 854v272q0 140 92 232t234 92t247 -94l-115 -127q-54 47 -124 47t-111 -38t-45 -91v-60q70 49 131 50q119 0 206 -82t87 -203t-88 -206t-214 -85t-213 85
t-87 208z" />
    <glyph glyph-name="seven.numr" horiz-adv-x="671" 
d="M72 1260v174h540v-127l-354 -727h-190l329 680h-325z" />
    <glyph glyph-name="eight.numr" horiz-adv-x="700" 
d="M341 731q56 0 86 32t30 66t-15 57q-31 54 -99 54q-38 0 -68 -32q-50 -53 -20 -115t86 -62zM352 1280q-38 0 -62 -26t-24 -60t26 -60q26 -24 60 -24t59 24t25 60t-24 62q-24 24 -60 24zM352 1450q150 0 227 -116q36 -56 35 -132q0 -104 -96 -176q117 -78 117 -202
t-81 -194t-203 -69q-122 0 -203 70q-80 71 -80 195t116 200q-96 74 -96 180t76 176q76 68 188 68z" />
    <glyph glyph-name="nine.numr" horiz-adv-x="739" 
d="M366 1276q-50 0 -81 -33t-31 -83t30 -83t82 -33t80 33t29 83t-29 83t-80 33zM366 1450q126 0 213 -86t87 -209v-270q0 -141 -92 -233t-234 -91q-141 0 -246 92l113 129q55 -49 125 -49t111 39q42 39 44 92v58q-70 -49 -129 -50q-122 0 -208 82t-86 203t88 207t214 86z
" />
    </font>
</defs>
</svg>
