<?xml version="1.0" standalone="no"?>
<!DOCTYPE svg PUBLIC "-//W3C//DTD SVG 1.1//EN" "http://www.w3.org/Graphics/SVG/1.1/DTD/svg11.dtd" >
<svg xmlns="http://www.w3.org/2000/svg">
<metadata>
Created by FontPrep 20130207 at Tue Mar 10 22:57:07 2015
 By Nico Watine
Copyright (c) 1989 Bigelow &#38; Holmes, Inc. All rights reserved. Lucida is a trademark of Bigelow &#38; Holmes Inc. registered in the U.S. Patent and Trademark Office and other jurisdictions. Lucida typeface designs created by Kris Holmes and Charles Bigelow.
</metadata>
<defs>
<font id="0815a198de1189517e0d44ff74ed7022" horiz-adv-x='1024' >
  <font-face 
    font-family="LucidaGrande"
    font-weight="500"
    font-stretch="normal"
    units-per-em="2048"
    panose-1="2 11 6 0 4 5 2 2 2 4"
    ascent="1638"
    descent="-410"
    x-height="1086"
    cap-height="1480"
    bbox="-2186 -1014 3296 2317"
    underline-thickness="100"
    underline-position="-150"
    unicode-range="U+0009-FFFD"
  />
<missing-glyph horiz-adv-x="1536" 
d="M320 64h896v1152h-896v-1152zM256 0v1280h1024v-1280h-1024z" />
    <glyph glyph-name=".notdef" horiz-adv-x="1536" 
d="M320 64h896v1152h-896v-1152zM256 0v1280h1024v-1280h-1024z" />
    <glyph glyph-name=".null" 
 />
    <glyph glyph-name=".null" 
 />
    <glyph glyph-name="nonmarkingreturn" unicode="&#x9;" horiz-adv-x="648" 
 />
    <glyph glyph-name="nonmarkingreturn" unicode="&#xd;" horiz-adv-x="648" 
 />
    <glyph glyph-name="nonmarkingreturn" unicode="&#xa;" horiz-adv-x="648" 
 />
    <glyph glyph-name="space" unicode=" " horiz-adv-x="648" 
 />
    <glyph glyph-name="exclam" unicode="!" horiz-adv-x="648" 
d="M225 1480h197v-296l-24 -789h-148l-25 789v296zM225 0v197h197v-197h-197z" />
    <glyph glyph-name="quotedbl" unicode="&#x22;" horiz-adv-x="765" 
d="M481 1086l-25 493h198l-25 -493h-148zM136 1086l-25 493h197l-24 -493h-148z" />
    <glyph glyph-name="numbersign" unicode="#" horiz-adv-x="1295" 
d="M473 568h263l87 345h-264zM203 0l111 444h-299l25 124h305l87 345h-324l25 123h329l112 444h127l-111 -444h263l111 444h128l-111 -444h299l-24 -123h-306l-87 -345h324l-25 -124h-329l-111 -444h-128l111 444h-263l-111 -444h-128z" />
    <glyph glyph-name="dollar" unicode="$" horiz-adv-x="1295" 
d="M432 1129q0 -76 37 -127.5t142 -118.5v456q-179 -56 -179 -210zM882 385q0 71 -33 116.5t-140 119.5v-461q173 62 173 225zM611 -123v123q-176 0 -395 83v170q226 -105 395 -105v531q-203 124 -277.5 219t-74.5 235t96.5 237.5t255.5 109.5v124h98v-124q146 0 321 -67
v-161q-192 83 -321 93v-527q54 -33 81 -49q153 -93 209 -168t56 -186q0 -158 -93 -269.5t-253 -145.5v-123h-98z" />
    <glyph glyph-name="percent" unicode="%" horiz-adv-x="1369" 
d="M1040 99q169 0 169 273q0 123 -45.5 196.5t-121.5 73.5t-121 -73.5t-45 -197.5t44.5 -198t119.5 -74zM1042 0q-146 0 -230 100t-84 270t85 270t229 100t229.5 -99t85.5 -271t-84.5 -271t-230.5 -99zM325 839q168 0 168 273q0 123 -45.5 196.5t-121.5 73.5t-121 -73.5
t-45 -197.5t45 -198t120 -74zM326 740q-145 0 -229.5 101t-84.5 271t85 269t229 99t229.5 -99.5t85.5 -270.5t-85 -270.5t-230 -99.5zM24 -37l1166 1554h154l-1165 -1554h-155z" />
    <glyph glyph-name="ampersand" unicode="&#x26;" horiz-adv-x="1428" 
d="M839 1212q0 158 -153 157q-153 0 -153 -155q0 -102 94 -257q212 97 212 255zM271 488q0 -157 106.5 -267t252.5 -110t272 91q-210 258 -400 585q-231 -92 -231 -299zM598 -37q-226 0 -375 134.5t-149 342.5q0 342 361 464q-100 180 -100 306t104.5 216.5t250.5 90.5
t240 -84.5t94 -214.5q0 -222 -325 -386q149 -264 347 -493q91 132 91 374l-1 74h196q0 -328 -196 -566q90 -114 205 -221h-280l-73 88q-164 -125 -390 -125z" />
    <glyph glyph-name="quotesingle" unicode="'" horiz-adv-x="469" 
d="M160 1036l-49 543h247l-50 -543h-148z" />
    <glyph glyph-name="parenleft" unicode="(" horiz-adv-x="666" 
d="M123 642q0 286 126.5 538t342.5 399v-136q-147 -160 -209.5 -343.5t-62.5 -457.5t62.5 -458t209.5 -344v-136q-216 147 -342.5 399.5t-126.5 538.5z" />
    <glyph glyph-name="parenright" unicode=")" horiz-adv-x="666" 
d="M346 642q0 274 -62.5 457.5t-209.5 343.5v136q216 -147 342.5 -399t126.5 -538t-126.5 -538.5t-342.5 -399.5v136q147 160 209.5 344t62.5 458z" />
    <glyph glyph-name="asterisk" unicode="*" horiz-adv-x="987" 
d="M494 1183q-25 0 -43 -11l-31 308h148l-31 -308q-18 11 -43 11zM411 1097q0 -4 2 -15l-303 66l46 141l284 -125q-29 -25 -29 -67zM331 751l-120 87l206 231q20 -45 70 -51zM777 838l-120 -87l-157 267q51 6 70 51zM577 1097q0 41 -29 67l284 125l45 -141l-303 -66
q3 11 3 15z" />
    <glyph glyph-name="plus" unicode="+" horiz-adv-x="1628" 
d="M740 0v518h-518v148h518v518h148v-518h518v-148h-518v-518h-148z" />
    <glyph glyph-name="comma" unicode="," horiz-adv-x="648" 
d="M296 -20v20h-96v247h247v-214q0 -329 -247 -354v74q96 27 96 227z" />
    <glyph glyph-name="hyphen" unicode="-" horiz-adv-x="1185" 
d="M148 518v148h888v-148h-888z" />
    <glyph glyph-name="hyphen" unicode="&#x2011;" horiz-adv-x="1185" 
d="M148 518v148h888v-148h-888z" />
    <glyph glyph-name="hyphen" unicode="&#x2010;" horiz-adv-x="1185" 
d="M148 518v148h888v-148h-888z" />
    <glyph glyph-name="period" unicode="." horiz-adv-x="648" 
d="M200 0v247h247v-247h-247z" />
    <glyph glyph-name="slash" unicode="/" horiz-adv-x="1074" 
d="M193 -296l533 1776h155l-533 -1776h-155z" />
    <glyph glyph-name="zero" unicode="0" horiz-adv-x="1295" 
d="M644 111q313 0 313 629q-1 629 -309 629t-308 -629t304 -629zM647 -37q-234 0 -375.5 215.5t-141.5 563.5t142.5 561.5t375.5 213.5t375.5 -212.5t142.5 -564.5t-142.5 -564.5t-376.5 -212.5z" />
    <glyph glyph-name="one" unicode="1" horiz-adv-x="1295" 
d="M308 0v148h296v1168l-296 -74v152l494 123v-1369h296v-148h-790z" />
    <glyph glyph-name="two" unicode="2" horiz-adv-x="1295" 
d="M170 0v173q86 201 348 438l113 101q218 197 218 391q0 124 -74.5 195t-216.5 71t-351 -119v174q197 93 398 93t327 -112t126 -297q0 -133 -63.5 -236t-236.5 -250l-76 -65q-237 -201 -274 -384h643v-173h-881z" />
    <glyph glyph-name="three" unicode="3" horiz-adv-x="1295" 
d="M552 111q132 0 220 82.5t88 213.5q0 312 -437 312h-78v133l69 1q410 0 410 289q0 227 -270 227q-148 0 -326 -83v172q175 59 340 59q454 0 454 -343q0 -261 -309 -372q358 -83 358 -392q0 -209 -138 -328t-379 -119q-137 0 -346 48v184q212 -84 344 -84z" />
    <glyph glyph-name="four" unicode="4" horiz-adv-x="1295" 
d="M784 580v658l-486 -658h486zM771 0v419h-666v149l666 912h185v-900h198v-161h-198v-419h-185z" />
    <glyph glyph-name="five" unicode="5" horiz-adv-x="1295" 
d="M536 111q140 0 223 86t83 237q0 333 -459 333q-52 0 -109 -7v720h749v-172h-576v-390q285 0 445 -131t160 -355t-145.5 -346.5t-403.5 -122.5q-112 0 -254 31v176q147 -59 287 -59z" />
    <glyph glyph-name="six" unicode="6" horiz-adv-x="1295" 
d="M950 455q0 161 -75 257t-205 96t-220 -84t-90 -202q0 -186 85.5 -298.5t219.5 -112.5t209.5 91.5t75.5 252.5zM697 950q204 0 327.5 -128.5t123.5 -344.5t-138.5 -365t-351.5 -149q-245 0 -383 196.5t-138 564.5t158.5 581t446.5 213q132 0 330 -56v-172q-209 80 -342 80
q-378 0 -378 -603q141 183 345 183z" />
    <glyph glyph-name="seven" unicode="7" horiz-adv-x="1295" 
d="M222 1295v185h950v-185q-569 -839 -637 -1295h-227q29 173 82.5 299t189.5 346l404 650h-762z" />
    <glyph glyph-name="eight" unicode="8" horiz-adv-x="1295" 
d="M374 382q0 -114 82 -192.5t214 -78.5t213 67.5t81 163.5t-50.5 155.5t-195.5 145.5l-140 83q-119 -92 -161.5 -161t-42.5 -183zM929 1171q0 89 -69 143.5t-180 54.5t-179 -53.5t-68 -137.5t61.5 -149.5t227.5 -160.5q207 136 207 303zM254 1132q0 176 123 281t313 105
t304 -89t114 -231q0 -215 -276 -392q335 -164 335 -423q0 -186 -140.5 -303t-360.5 -117t-354.5 110.5t-134.5 290.5q0 266 294 442q-217 150 -217 326z" />
    <glyph glyph-name="nine" unicode="9" horiz-adv-x="1295" 
d="M353 1022q0 -164 76.5 -263t205.5 -99t217.5 85t88.5 205q0 189 -85.5 304.5t-219.5 115.5t-208.5 -92t-74.5 -256zM553 111q184 0 287.5 156.5t103.5 435.5q-150 -185 -339 -185t-319 138t-130 350t138.5 361.5t348.5 149.5q241 0 380 -193.5t139 -552.5t-169.5 -583.5
t-458.5 -224.5q-116 0 -301 46v167q188 -65 320 -65z" />
    <glyph glyph-name="colon" unicode=":" horiz-adv-x="648" 
d="M225 888v198h197v-198h-197zM225 0v197h197v-197h-197z" />
    <glyph glyph-name="semicolon" unicode=";" horiz-adv-x="648" 
d="M225 888v198h197v-198h-197zM296 -23v23h-71v197h197v-166q0 -303 -197 -352v74q71 37 71 224z" />
    <glyph glyph-name="less" unicode="&#x3c;" horiz-adv-x="1628" 
d="M1406 0l-1184 592l1184 592v-165l-853 -427l853 -426v-166z" />
    <glyph glyph-name="equal" unicode="=" horiz-adv-x="1628" 
d="M222 703v148h1184v-148h-1184zM222 333v148h1184v-148h-1184z" />
    <glyph glyph-name="greater" unicode="&#x3e;" horiz-adv-x="1628" 
d="M222 0v166l853 426l-853 427v165l1184 -592z" />
    <glyph glyph-name="question" unicode="?" horiz-adv-x="864" 
d="M250 395v54q0 191 147 359l63 73q157 180 157 295q0 89 -69 141t-204 52t-307 -74v167q185 56 367 56t302.5 -91.5t120.5 -247.5q0 -88 -34.5 -151.5t-132.5 -156.5l-62 -58q-93 -88 -122 -147.5t-29 -160.5v-110h-197zM250 0v197h197v-197h-197z" />
    <glyph glyph-name="at" unicode="@" horiz-adv-x="1758" 
d="M947 919q-305 0 -305 -468q0 -269 160 -269q149 0 266 237v482q-78 18 -121 18zM949 -419q-389 0 -622.5 250.5t-233.5 668.5t250 699.5t621 281.5q321 0 521 -227.5t200 -593.5q0 -289 -95 -450t-265 -161t-245 203q-155 -203 -315 -203q-127 0 -202 105t-75 283
q0 265 138 432t357 167q78 0 233 -18v-515l1 -93q0 -141 27.5 -192t103.5 -51q220 0 220 442q0 361 -157 557.5t-446 196.5q-325 0 -539.5 -244.5t-214.5 -614.5t198 -588.5t534 -218.5q134 0 304 44v-118q-168 -42 -298 -42z" />
    <glyph glyph-name="A" unicode="A" horiz-adv-x="1413" 
d="M1163 0l-161 410h-627l-163 -410h-195l587 1480h208l578 -1480h-227zM941 566l-252 638l-253 -638h505z" />
    <glyph glyph-name="B" unicode="B" horiz-adv-x="1178" 
d="M399 830h67q168 0 260.5 72t92.5 203q0 218 -338 218h-82v-493zM399 157h43q231 0 299 29q130 56 130 196t-118 227.5t-295 87.5h-59v-540zM191 0v1480h384q222 0 340.5 -84t118.5 -242q0 -269 -304 -383q363 -111 363 -401q0 -180 -120 -275t-346 -95h-436z" />
    <glyph glyph-name="C" unicode="C" horiz-adv-x="1417" 
d="M825 -37q-345 0 -533 202.5t-188 572.5t191.5 574.5t539.5 204.5q199 0 466 -65v-197q-304 105 -469 105q-241 0 -373 -163t-132 -453t141 -453.5t368 -163.5t467 129v-180q-219 -113 -478 -113z" />
    <glyph glyph-name="D" unicode="D" horiz-adv-x="1534" 
d="M401 157h269q288 0 412 160q124 159 125 429q0 270 -127 419q-77 91 -184 124.5t-322 33.5h-173v-1166zM191 0v1480h492q220 0 355.5 -49t234.5 -166q157 -186 157 -490q0 -369 -195 -572t-549 -203h-495z" />
    <glyph glyph-name="E" unicode="E" horiz-adv-x="1110" 
d="M191 0v1480h827v-157h-617v-475h517v-155h-517v-536h660v-157h-870z" />
    <glyph glyph-name="F" unicode="F" horiz-adv-x="1098" 
d="M191 0v1480h827v-157h-617v-496h518v-155h-518v-672h-210z" />
    <glyph glyph-name="G" unicode="G" horiz-adv-x="1480" 
d="M834 -37q-353 0 -541.5 200.5t-188.5 572.5t191 576.5t536 204.5q226 0 470 -67v-194q-306 104 -469 104q-240 0 -372.5 -163t-132.5 -457t142 -457t398 -163q105 0 227 37v482h209v-599q-269 -77 -469 -77z" />
    <glyph glyph-name="H" unicode="H" horiz-adv-x="1505" 
d="M191 0v1480h210v-624h704v624h210v-1480h-210v699h-704v-699h-210z" />
    <glyph glyph-name="I" unicode="I" horiz-adv-x="590" 
d="M190 0v1480h210v-1480h-210z" />
    <glyph glyph-name="J" unicode="J" horiz-adv-x="637" 
d="M42 -128q106 0 153.5 68.5t47.5 239.5v1300h210v-1293q0 -483 -457 -483q-70 0 -180 21v186q120 -39 226 -39z" />
    <glyph glyph-name="K" unicode="K" horiz-adv-x="1337" 
d="M191 0v1480h197v-728l599 728h211l-580 -706l683 -774h-266l-647 750v-750h-197z" />
    <glyph glyph-name="L" unicode="L" horiz-adv-x="1092" 
d="M191 0v1480h210v-1323h666v-157h-876z" />
    <glyph glyph-name="M" unicode="M" horiz-adv-x="1764" 
d="M191 0v1480h291l410 -1145l422 1145h260v-1480h-196v1204l-408 -1105h-203l-396 1108v-1207h-180z" />
    <glyph glyph-name="N" unicode="N" horiz-adv-x="1513" 
d="M191 0v1480h206l745 -1143v1143h180v-1480h-205l-746 1143v-1143h-180z" />
    <glyph glyph-name="O" unicode="O" horiz-adv-x="1591" 
d="M795 120q222 0 346 163t124 457t-124.5 457t-344.5 163t-344.5 -164t-124.5 -454t123 -456t345 -166zM794 -37q-316 0 -503 213.5t-187 565.5t189 563.5t503 211.5t503 -210.5t189 -566.5t-189 -566.5t-505 -210.5z" />
    <glyph glyph-name="P" unicode="P" horiz-adv-x="1132" 
d="M399 747h85q187 0 289 86t102 231t-80 202t-267 57h-129v-576zM191 0v1480h403q268 0 385 -90t117 -312t-160 -356t-444 -134h-93v-588h-208z" />
    <glyph glyph-name="Q" unicode="Q" horiz-adv-x="1591" 
d="M795 120q222 0 346 163t124 457t-124 457t-345 163t-345 -164t-124 -454t123 -456t345 -166zM775 -37q-298 0 -484.5 215.5t-186.5 565.5t188 561.5t504 211.5t504 -212t188 -568q0 -510 -379 -706q255 -112 529 -160l-133 -167q-349 113 -585 269q-94 -10 -145 -10z" />
    <glyph glyph-name="R" unicode="R" horiz-adv-x="1295" 
d="M399 783h68q396 0 396 311q0 229 -332 229h-132v-540zM191 0v1480h448q213 0 326.5 -94t113.5 -273q0 -296 -299 -420l494 -693h-258l-421 626h-196v-626h-208z" />
    <glyph glyph-name="S" unicode="S" horiz-adv-x="1103" 
d="M481 -37q-149 0 -381 65v208q250 -116 392 -116t218 65t76 161t-49.5 157.5t-182.5 136.5l-102 59q-189 108 -266.5 203.5t-77.5 222.5q0 171 124 281.5t306 110.5t371 -57v-192q-234 92 -346 92t-183 -58t-71 -139t52 -138t190 -136l106 -60q192 -109 268 -206t76 -233
q0 -193 -142.5 -310t-377.5 -117z" />
    <glyph glyph-name="T" unicode="T" horiz-adv-x="1295" 
d="M543 0v1323h-525v157h1260v-157h-525v-1323h-210z" />
    <glyph glyph-name="U" unicode="U" horiz-adv-x="1419" 
d="M179 1480h210v-934q0 -223 82.5 -324.5t260.5 -101.5t251.5 95.5t73.5 323.5v941h184v-938q0 -303 -124.5 -441t-398.5 -138t-406.5 143t-132.5 442v932z" />
    <glyph glyph-name="V" unicode="V" horiz-adv-x="1339" 
d="M595 0l-559 1480h210l458 -1212l442 1212h184l-537 -1480h-198z" />
    <glyph glyph-name="W" unicode="W" horiz-adv-x="1752" 
d="M383 0l-381 1480h202l303 -1169l279 1169h202l264 -1153l326 1153h171l-415 -1480h-209l-261 1141l-273 -1141h-208z" />
    <glyph glyph-name="X" unicode="X" horiz-adv-x="1282" 
d="M16 0l491 743l-467 737h248l356 -558l374 558h198l-473 -715l485 -765h-248l-376 587l-389 -587h-199z" />
    <glyph glyph-name="Y" unicode="Y" horiz-adv-x="1276" 
d="M511 0v618l-494 862h240l384 -668l414 668h195l-529 -858v-622h-210z" />
    <glyph glyph-name="Z" unicode="Z" horiz-adv-x="1238" 
d="M95 0v168l795 1155h-746v157h998v-157l-795 -1155h795v-168h-1047z" />
    <glyph glyph-name="bracketleft" unicode="[" horiz-adv-x="666" 
d="M197 -296v1875h395v-148h-222v-1579h222v-148h-395z" />
    <glyph glyph-name="backslash" unicode="\" horiz-adv-x="1074" 
d="M881 -296h-155l-533 1776h155z" />
    <glyph glyph-name="bracketright" unicode="]" horiz-adv-x="666" 
d="M469 -296h-395v148h222v1579h-222v148h395v-1875z" />
    <glyph glyph-name="asciicircum" unicode="^" horiz-adv-x="1295" 
d="M648 1149l-377 -754h-166l543 1085l543 -1085h-166z" />
    <glyph glyph-name="underscore" unicode="_" horiz-adv-x="1024" 
d="M0 -345v148h1024v-148h-1024z" />
    <glyph glyph-name="grave" unicode="`" horiz-adv-x="1258" 
d="M864 1283h-148l-321 321h228z" />
    <glyph glyph-name="a" unicode="a" horiz-adv-x="1131" 
d="M300 305q0 -71 50 -120t122 -49q123 0 256 109v281l-66 2q-162 0 -262 -61.5t-100 -161.5zM416 -25q-135 0 -224 84.5t-89 213.5q0 178 149.5 273.5t428.5 95.5h47v131q0 189 -194 189q-156 0 -337 -96v163q199 81 377 81t264.5 -82t86.5 -255v-492q0 -169 104 -169
q13 0 38 4l14 -109q-67 -32 -148 -32q-138 0 -176 163q-177 -163 -341 -163z" />
    <glyph glyph-name="b" unicode="b" horiz-adv-x="1289" 
d="M684 123q284 0 284 433q0 382 -252 382q-165 0 -322 -179v-500q152 -136 290 -136zM197 -12v1591h197v-697q121 228 363 228q196 0 308.5 -143t112.5 -402t-128 -424.5t-328 -165.5t-328 148l-24 -135h-173z" />
    <glyph glyph-name="c" unicode="c" horiz-adv-x="1049" 
d="M621 -25q-220 0 -365 163.5t-145 419.5t143.5 404t400.5 148q127 0 284 -35v-165q-167 49 -272 49q-151 0 -242.5 -113.5t-91.5 -299.5t93.5 -299t237.5 -113t287 69v-170q-191 -58 -330 -58z" />
    <glyph glyph-name="d" unicode="d" horiz-adv-x="1289" 
d="M604 962q-283 0 -283 -433q0 -381 252 -381q164 0 321 179v500q-153 135 -290 135zM894 0v204q-120 -229 -362 -229q-196 0 -308.5 142.5t-112.5 402.5t127.5 425t327.5 165t328 -148v617h198v-1579h-198z" />
    <glyph glyph-name="e" unicode="e" horiz-adv-x="1141" 
d="M800 660q0 303 -226 303t-253 -303h479zM654 -25q-240 0 -391.5 159.5t-151.5 409.5t133.5 408.5t335.5 158.5t310 -140t108 -398l-1 -61h-685q43 -387 379 -387q123 0 302 66v-156q-198 -60 -339 -60z" />
    <glyph glyph-name="f" unicode="f" horiz-adv-x="753" 
d="M432 938v-938h-198v938h-154v148h154v130q0 388 354 388q99 0 225 -33v-156q-133 41 -221 41t-124 -46.5t-36 -172.5v-151h271v-148h-271z" />
    <glyph glyph-name="g" unicode="g" horiz-adv-x="1277" 
d="M620 962q-144 0 -221.5 -109t-77.5 -299q0 -357 251 -357q171 0 322 179v451q-130 135 -274 135zM561 -271q333 0 333 353v171q-109 -228 -358 -228q-195 0 -310 142.5t-115 386.5t131 400t326 156t326 -148v124h198v-790q0 -255 -50 -485t-477 -230q-190 0 -364 58
l23 171q171 -81 337 -81z" />
    <glyph glyph-name="h" unicode="h" horiz-adv-x="1271" 
d="M197 0v1579h197v-697q156 228 382 228q141 0 225 -89.5t84 -240.5v-780h-197v716q0 121 -35.5 172.5t-117.5 51.5q-181 0 -341 -237v-703h-197z" />
    <glyph glyph-name="i" unicode="i" horiz-adv-x="592" 
d="M197 1283v197h197v-197h-197zM197 0v1086h197v-1086h-197z" />
    <glyph glyph-name="j" unicode="j" horiz-adv-x="623" 
d="M228 1283v197h198v-197h-198zM72 -271q88 0 122 54t34 217v1086h198v-1086q0 -419 -354 -419q-105 0 -226 50v156q138 -58 226 -58z" />
    <glyph glyph-name="k" unicode="k" horiz-adv-x="1197" 
d="M197 0v1579h197v-1020l460 527h212l-439 -507l530 -579h-252l-511 557v-557h-197z" />
    <glyph glyph-name="l" unicode="l" horiz-adv-x="592" 
d="M197 0v1579h197v-1579h-197z" />
    <glyph glyph-name="m" unicode="m" horiz-adv-x="1912" 
d="M197 0v1086h197v-204q144 228 366 228t301 -228q140 229 364 229q144 0 223 -84.5t79 -236.5v-790h-198v759q0 186 -147 186q-153 0 -321 -217v-728h-198v759q1 187 -149 187t-320 -218v-728h-197z" />
    <glyph glyph-name="n" unicode="n" horiz-adv-x="1271" 
d="M197 0v1086h197v-204q156 228 382 228q141 0 225 -89.5t84 -240.5v-780h-197v716q0 121 -35.5 172.5t-117.5 51.5q-181 0 -341 -237v-703h-197z" />
    <glyph glyph-name="o" unicode="o" horiz-adv-x="1258" 
d="M625 123q313 -1 313 419t-308 420t-309 -420q0 -420 304 -419zM628 -25q-239 0 -378 154.5t-139 414.5t139.5 413t378.5 153t378.5 -152.5t139.5 -415.5t-140 -415t-379 -152z" />
    <glyph glyph-name="p" unicode="p" horiz-adv-x="1289" 
d="M684 123q284 0 284 433q0 382 -252 382q-165 0 -322 -179v-500q152 -136 290 -136zM197 -395v1481h197v-204q121 228 363 228q196 0 308.5 -143t112.5 -402t-128 -424.5t-328 -165.5t-328 148v-518h-197z" />
    <glyph glyph-name="q" unicode="q" horiz-adv-x="1289" 
d="M604 962q-283 0 -283 -433q0 -381 252 -381q164 0 321 179v500q-153 135 -290 135zM894 -395v599q-120 -229 -362 -229q-196 0 -308.5 142.5t-112.5 402.5t127.5 425t327.5 165t328 -148v124h198v-1481h-198z" />
    <glyph glyph-name="r" unicode="r" horiz-adv-x="838" 
d="M197 0v1086h197v-204q117 228 340 228q30 0 63 -5v-184q-51 17 -90 17q-187 0 -313 -222v-716h-197z" />
    <glyph glyph-name="s" unicode="s" horiz-adv-x="1044" 
d="M506 -25q-156 0 -349 63v181q193 -96 336 -96q85 0 141 46t56 115q0 101 -157 167l-115 49q-255 106 -255 305q0 142 100.5 223.5t275.5 81.5q91 0 225 -25l41 -8v-164q-165 49 -262 49q-190 0 -190 -138q0 -89 144 -150l95 -40q161 -68 228 -143.5t67 -188.5
q0 -143 -112.5 -235t-268.5 -92z" />
    <glyph glyph-name="t" unicode="t" horiz-adv-x="766" 
d="M523 -25q-150 0 -234 86t-84 239v638h-136v148h136v197l197 19v-216h284v-148h-284v-602q0 -213 184 -213q39 0 95 13v-136q-91 -25 -158 -25z" />
    <glyph glyph-name="u" unicode="u" horiz-adv-x="1271" 
d="M876 0v204q-157 -229 -381 -229q-142 0 -226 89.5t-84 241.5v780h197v-716q0 -122 35.5 -173.5t118.5 -51.5q180 0 340 237v704h197v-1086h-197z" />
    <glyph glyph-name="v" unicode="v" horiz-adv-x="1060" 
d="M422 0l-404 1086h197l316 -845l333 845h184l-429 -1086h-197z" />
    <glyph glyph-name="w" unicode="w" horiz-adv-x="1578" 
d="M323 0l-311 1086h193l238 -841l257 841h197l225 -841l273 841h169l-354 -1086h-198l-230 841l-260 -841h-199z" />
    <glyph glyph-name="x" unicode="x" horiz-adv-x="1256" 
d="M88 0l413 561l-401 525h234l317 -418l287 418h192l-376 -551l409 -535h-234l-327 430l-316 -430h-198z" />
    <glyph glyph-name="y" unicode="y" horiz-adv-x="1070" 
d="M260 -395l176 395l-420 1086h213l311 -818l332 818h186l-593 -1481h-205z" />
    <glyph glyph-name="z" unicode="z" horiz-adv-x="1174" 
d="M123 0v148l672 790h-641v148h884v-148l-672 -790h685v-148h-928z" />
    <glyph glyph-name="braceleft" unicode="{" horiz-adv-x="666" 
d="M25 716h49q152 0 152 161q0 68 -15 140l-19 87q-19 86 -19 168q0 133 95.5 215t262.5 92v-148h-28q-68 0 -113 -35.5t-45 -88.5q0 -24 13 -95l17 -102q11 -66 11 -157q0 -187 -147 -311q147 -125 147 -313q0 -90 -11 -156l-17 -102q-13 -71 -13 -96q0 -52 45.5 -87.5
t112.5 -35.5h28v-148q-168 10 -263 92.5t-95 215.5q0 82 19 167l19 87q15 72 15 142q0 160 -152 160h-49v148z" />
    <glyph glyph-name="bar" unicode="|" horiz-adv-x="765" 
d="M308 -296v1875h148v-1875h-148z" />
    <glyph glyph-name="braceright" unicode="}" horiz-adv-x="666" 
d="M642 716v-148h-49q-152 0 -152 -160q0 -70 15 -142l19 -87q19 -85 19 -167q0 -133 -95 -215.5t-263 -92.5v148h28q67 0 112.5 35.5t45.5 87.5q0 25 -13 96l-17 102q-11 66 -11 156q0 188 147 313q-147 124 -147 311q0 91 11 157l17 102q13 71 13 95q0 53 -45 88.5
t-113 35.5h-28v148q167 -10 262.5 -92t95.5 -215q0 -82 -19 -168l-19 -87q-15 -72 -15 -140q0 -161 152 -161h49z" />
    <glyph glyph-name="asciitilde" unicode="~" horiz-adv-x="1295" 
d="M105 444q0 145 77 237t199 92q80 0 215 -71l235 -125q45 -22 91 -22q121 0 121 185h148q-21 -333 -269 -333q-86 0 -242 80l-231 120q-36 18 -71 18q-125 0 -125 -181h-148z" />
    <glyph glyph-name="nonbreakingspace" unicode="&#xa0;" horiz-adv-x="648" 
 />
    <glyph glyph-name="exclamdown" unicode="&#xa1;" horiz-adv-x="648" 
d="M422 -395h-197v296l25 790h148l24 -790v-296zM422 1086v-198h-197v198h197z" />
    <glyph glyph-name="cent" unicode="&#xa2;" horiz-adv-x="1295" 
d="M421 732q0 -330 242 -408v820q-242 -24 -242 -412zM663 0v173q-203 20 -330.5 176.5t-127.5 390.5t120 380t338 175v185h99v-185q133 -6 284 -46v-166q-177 60 -284 70v-840q136 0 284 68v-150q-149 -58 -284 -58v-173h-99z" />
    <glyph glyph-name="sterling" unicode="&#xa3;" horiz-adv-x="1295" 
d="M838 1369q-184 0 -184 -230v-275h216v-148h-216v-127q0 -158 -36 -245t-137 -171h611v-173h-845v173q210 66 210 316v227h-179v148h179v215q0 213 101.5 325.5t291.5 112.5q104 0 227 -30v-167q-124 49 -239 49z" />
    <glyph glyph-name="currency" unicode="&#xa4;" horiz-adv-x="1296" 
d="M646 444q125 0 211 85t86 211t-85.5 211t-210.5 85t-210.5 -85.5t-85.5 -209.5t85 -210.5t210 -86.5zM203 740q0 148 90 267l-195 196l87 87l195 -195q125 89 267 89t267 -89l195 195l88 -87l-195 -196q89 -119 89 -267t-89 -267l195 -195l-88 -87l-195 195
q-125 -90 -267 -90t-267 90l-195 -195l-87 87l195 195q-90 119 -90 267z" />
    <glyph glyph-name="yen" unicode="&#xa5;" horiz-adv-x="1295" 
d="M543 0v345h-296v124h296v148h-296v123h296l-463 740h233l360 -575l388 575h179l-500 -740h296v-123h-296v-148h296v-124h-296v-345h-197z" />
    <glyph glyph-name="brokenbar" unicode="&#xa6;" horiz-adv-x="765" 
d="M308 839v740h148v-740h-148zM308 -296v740h148v-740h-148z" />
    <glyph glyph-name="section" unicode="&#xa7;" horiz-adv-x="1295" 
d="M914 524q0 84 -47.5 130t-172.5 99l-222 93q-74 -90 -74 -171t57 -138.5t172 -105.5l213 -90q74 99 74 183zM612 -185q149 0 229.5 49.5t80.5 123.5t-43 113t-187 101l-177 75q-289 124 -289 336q0 151 146 299q-141 94 -141 250t129 255.5t341 99.5q150 0 345 -47v-160
q-202 59 -339 59t-217 -51t-80 -134q0 -108 175 -178l136 -55q207 -83 286.5 -162.5t79.5 -212.5t-149 -299q164 -95 164 -260t-133.5 -258t-359.5 -93q-154 0 -388 74v180q242 -105 391 -105z" />
    <glyph glyph-name="dieresis" unicode="&#xa8;" horiz-adv-x="1258" 
d="M740 1283v173h173v-173h-173zM345 1283v173h173v-173h-173z" />
    <glyph glyph-name="copyright" unicode="&#xa9;" horiz-adv-x="1752" 
d="M905 296q-189 0 -309.5 123t-120.5 321t117.5 318t313.5 120q94 0 228 -26l26 -5v-123q-136 56 -256 56t-200.5 -94t-80.5 -248t84 -242.5t212 -88.5t241 62v-124q-141 -49 -255 -49zM867 74q326 0 518 239q157 195 157 428q0 275 -195.5 470t-470.5 195t-470.5 -195
t-195.5 -469t194.5 -471t462.5 -197zM874 -37q-322 0 -548.5 229.5t-226.5 549.5t228 547.5t549 227.5t549 -227.5t228 -550.5t-228.5 -549.5t-550.5 -226.5z" />
    <glyph glyph-name="ordfeminine" unicode="&#xaa;" horiz-adv-x="962" 
d="M333 1050q0 -104 106 -104q75 0 156 70v165l-42 1q-220 0 -220 -132zM746 827q-110 0 -136 101h-5q-109 -101 -211 -101t-161.5 57t-59.5 145q0 117 97.5 181.5t272.5 64.5h52v77q0 118 -130 118q-110 0 -228 -64v121q132 52 257 52q262 0 262 -224v-322q0 -98 62 -98
q9 0 26 2l7 -90q-55 -20 -105 -20z" />
    <glyph glyph-name="guillemotleft" unicode="&#xab;" horiz-adv-x="1073" 
d="M604 913l-296 -370l296 -370l-98 -74l-395 444l395 444zM999 913l-296 -370l296 -370l-98 -74l-395 444l395 444z" />
    <glyph glyph-name="logicalnot" unicode="&#xac;" horiz-adv-x="1628" 
d="M222 740v148h1184v-592h-148v444h-1036z" />
    <glyph glyph-name="sfthyphen" unicode="&#xad;" horiz-adv-x="1185" 
d="M148 518v148h888v-148h-888z" />
    <glyph glyph-name="registered" unicode="&#xae;" horiz-adv-x="1752" 
d="M1007 938q0 132 -186 132h-75v-298h39q222 0 222 166zM1139 951q0 -152 -147 -243l253 -391h-157l-227 350h-106v-350h-135v840h265q254 0 254 -206zM867 74q326 0 518 239q157 195 157 427t-157 427q-192 239 -509 239t-509 -239q-157 -195 -157 -427q0 -272 194 -469
t463 -197zM874 -37q-322 0 -548.5 229.5t-226.5 549.5t228 547.5t549 227.5t549 -227.5t228 -550.5t-228.5 -549.5t-550.5 -226.5z" />
    <glyph glyph-name="macron" unicode="&#xaf;" horiz-adv-x="1024" 
d="M86 1456v148h851v-148h-851z" />
    <glyph glyph-name="degree" unicode="&#xb0;" horiz-adv-x="888" 
d="M444 1135q72 0 122.5 50.5t50.5 122.5t-51 122t-122 50t-122 -50.5t-51 -121.5t50.5 -122t122.5 -51zM444 1012q-122 0 -209 87t-87 209t87 209t209 87t209 -87t87 -210t-87 -209t-209 -86z" />
    <glyph glyph-name="plusminus" unicode="&#xb1;" horiz-adv-x="1628" 
d="M740 296v370h-518v148h518v370h148v-370h518v-148h-518v-370h-148zM222 0v148h1184v-148h-1184z" />
    <glyph glyph-name="twosuperior" unicode="&#xb2;" horiz-adv-x="864" 
d="M149 924v122q66 115 182 218l70 62q156 139 156 257q0 149 -163 149q-96 0 -223 -69v118q127 53 255 53t208 -67.5t80 -178.5q0 -139 -184 -290l-53 -43q-133 -110 -156 -209h389v-122h-561z" />
    <glyph glyph-name="threesuperior" unicode="&#xb3;" horiz-adv-x="864" 
d="M396 1834q282 0 282 -209q0 -157 -191 -223q220 -50 220 -238q0 -122 -86.5 -192.5t-214.5 -70.5t-248 29v122q130 -51 210 -51t131.5 45.5t51.5 118.5q0 181 -260 181h-51v93l44 1q244 0 244 165q0 129 -156 129q-93 0 -202 -50v112q110 38 226 38z" />
    <glyph glyph-name="acute" unicode="&#xb4;" horiz-adv-x="1258" 
d="M395 1283l241 321h228l-321 -321h-148z" />
    <glyph glyph-name="micro" unicode="&#xb5;" horiz-adv-x="1283" 
d="M394 370q0 -210 182 -210q165 0 312 222v704h197v-1086h-197v204q-140 -229 -316 -229q-102 0 -178 50v-420h-197v1481h197v-716z" />
    <glyph glyph-name="paragraph" unicode="&#xb6;" horiz-adv-x="1295" 
d="M635 -296v1036q-197 14 -308 123.5t-111 288.5t96 253.5t323 74.5h395v-1776h-123v1653h-148v-1653h-124z" />
    <glyph glyph-name="middledot" unicode="&#xb7;" horiz-adv-x="648" 
d="M200 491v247h247v-247h-247z" />
    <glyph glyph-name="cedilla" unicode="&#xb8;" horiz-adv-x="1258" 
d="M718 -271q0 96 -187 96l95 175h97l-60 -109q78 0 136 -47.5t58 -113.5t-58.5 -114t-136.5 -48t-152 21v81q46 -15 105 -15q103 0 103 74z" />
    <glyph glyph-name="onesuperior" unicode="&#xb9;" horiz-adv-x="864" 
d="M197 924v111h197v648l-197 -50v115l345 86v-799h198v-111h-543z" />
    <glyph glyph-name="ordmasculine" unicode="&#xba;" horiz-adv-x="962" 
d="M296 1203q0 -266 185 -266t185 266t-185 266t-185 -266zM480 827q-166 0 -261.5 102t-95.5 275t96 274t261 101t261.5 -101.5t96.5 -275.5t-96 -274.5t-262 -100.5z" />
    <glyph glyph-name="guillemotright" unicode="&#xbb;" horiz-adv-x="1073" 
d="M469 913l98 74l395 -444l-395 -444l-98 74l296 370zM74 913l98 74l395 -444l-395 -444l-98 74l296 370z" />
    <glyph glyph-name="onequarter" unicode="&#xbc;" horiz-adv-x="1641" 
d="M149 -37l1088 1554h135l-1087 -1554h-136zM1283 359v364l-278 -364h278zM1283 0v242h-407v113l404 533h139v-529h123v-117h-123v-242h-136zM272 592v759l-198 -49v114l346 87v-911h-148z" />
    <glyph glyph-name="onehalf" unicode="&#xbd;" horiz-adv-x="1641" 
d="M272 592v759l-198 -49v114l346 87v-911h-148zM99 -37l1088 1554h135l-1087 -1554h-136zM1385 660q0 149 -162 149q-96 0 -223 -69v117q126 53 254 53t208 -67.5t80 -177.5q0 -140 -183 -291l-53 -43q-133 -109 -156 -209h389v-122h-561v122q66 115 182 219l70 62
q155 139 155 257z" />
    <glyph glyph-name="threequarters" unicode="&#xbe;" horiz-adv-x="1641" 
d="M248 -37l1088 1554h135l-1088 -1554h-135zM1283 359v364l-278 -364h278zM1283 0v242h-407v113l404 533h139v-529h123v-117h-123v-242h-136zM469 1274q0 129 -156 129q-93 0 -202 -50v112q110 38 226 38q282 0 282 -209q0 -157 -191 -223q220 -50 220 -238
q0 -122 -87 -192.5t-215 -70.5t-247 29v122q131 -51 211 -51t131 45t51 118q0 182 -260 182h-51v93h44q244 0 244 166z" />
    <glyph glyph-name="questiondown" unicode="&#xbf;" horiz-adv-x="864" 
d="M615 690v-54q0 -191 -147 -359l-63 -73q-157 -180 -157 -295q0 -89 69 -141t204 -52t307 74v-167q-186 -56 -368 -56t-302 91.5t-120 247.5q0 88 34.5 151.5t132.5 156.5l62 58q93 88 122 147.5t29 160.5v110h197zM615 1085v-197h-197v197h197z" />
    <glyph glyph-name="Agrave" unicode="&#xc0;" horiz-adv-x="1413" 
d="M1163 0l-161 410h-627l-163 -410h-195l587 1480h208l578 -1480h-227zM941 566l-252 638l-253 -638h505zM860 1604h-148l-321 321h228z" />
    <glyph glyph-name="Aacute" unicode="&#xc1;" horiz-adv-x="1413" 
d="M1163 0l-161 410h-627l-163 -410h-195l587 1480h208l578 -1480h-227zM941 566l-252 638l-253 -638h505zM560 1604l241 321h228l-321 -321h-148z" />
    <glyph glyph-name="Acircumflex" unicode="&#xc2;" horiz-adv-x="1413" 
d="M1163 0l-161 410h-627l-163 -410h-195l587 1480h208l578 -1480h-227zM941 566l-252 638l-253 -638h505zM358 1604l241 321h218l241 -321h-148l-201 202h-2l-201 -202h-148z" />
    <glyph glyph-name="Atilde" unicode="&#xc3;" horiz-adv-x="1413" 
d="M1163 0l-161 410h-627l-163 -410h-195l587 1480h208l578 -1480h-227zM941 566l-252 638l-253 -638h505zM555 1838q73 0 135 -38l60 -37q56 -35 86 -35q69 0 77 110h123q-12 -234 -185 -234q-73 0 -135 39l-60 37q-56 34 -86 34q-69 0 -77 -110h-123q10 234 185 234z" />
    <glyph glyph-name="Adieresis" unicode="&#xc4;" horiz-adv-x="1413" 
d="M1163 0l-161 410h-627l-163 -410h-195l587 1480h208l578 -1480h-227zM941 566l-252 638l-253 -638h505zM815 1604v173h173v-173h-173zM420 1604v173h173v-173h-173z" />
    <glyph glyph-name="Aring" unicode="&#xc5;" horiz-adv-x="1413" 
d="M1163 0l-161 410h-627l-163 -410h-195l587 1480h208l578 -1480h-227zM941 566l-252 638l-253 -638h505zM708 1567q58 0 100 41t41 100q1 59 -41 100t-100 41t-100 -41q-41 -42 -41 -100t41 -100q42 -42 100 -41zM707 1481q-95 1 -161 67t-65 160q0 94 66 160
q67 66 161 67q94 0 160 -66q66 -65 67 -161q-1 -96 -67 -162t-161 -65z" />
    <glyph glyph-name="AE" unicode="&#xc6;" horiz-adv-x="1857" 
d="M934 569v671l-394 -671h394zM1762 1480v-157h-618v-475h518v-155h-518v-536h664v-157h-874v414h-483l-241 -414h-192l861 1480h883z" />
    <glyph glyph-name="Ccedilla" unicode="&#xc7;" horiz-adv-x="1417" 
d="M862 -271q0 96 -187 96l76 140q-292 21 -459 201q-188 202 -188 572t192 575q192 204 539 204q199 0 466 -65v-197q-304 105 -469 105q-241 0 -373 -163t-132 -453t141 -454t368 -163q227 0 467 129v-180q-210 -108 -456 -113l-40 -72q78 1 136 -47t58 -114
q-1 -66 -59 -114t-136 -48t-152 21v81q46 -15 105 -15q103 0 103 74z" />
    <glyph glyph-name="Egrave" unicode="&#xc8;" horiz-adv-x="1110" 
d="M191 0v1480h827v-157h-617v-475h517v-155h-517v-536h660v-157h-870zM769 1604h-148l-321 321h228z" />
    <glyph glyph-name="Eacute" unicode="&#xc9;" horiz-adv-x="1110" 
d="M191 0v1480h827v-157h-617v-475h517v-155h-517v-536h660v-157h-870zM456 1604l241 321h228l-321 -321h-148z" />
    <glyph glyph-name="Ecircumflex" unicode="&#xca;" horiz-adv-x="1110" 
d="M191 0v1480h827v-157h-617v-475h517v-155h-517v-536h660v-157h-870zM269 1604l241 321h218l241 -321h-148l-201 202h-2l-201 -202h-148z" />
    <glyph glyph-name="Edieresis" unicode="&#xcb;" horiz-adv-x="1110" 
d="M191 0v1480h827v-157h-617v-475h517v-155h-517v-536h660v-157h-870zM740 1604v173h173v-173h-173zM345 1604v173h173v-173h-173z" />
    <glyph glyph-name="Igrave" unicode="&#xcc;" horiz-adv-x="590" 
d="M190 0v1480h210v-1480h-210zM447 1604h-148l-321 321h228z" />
    <glyph glyph-name="Iacute" unicode="&#xcd;" horiz-adv-x="590" 
d="M190 0v1480h210v-1480h-210zM151 1604l241 321h228l-321 -321h-148z" />
    <glyph glyph-name="Icircumflex" unicode="&#xce;" horiz-adv-x="590" 
d="M190 0v1480h210v-1480h-210zM-51 1604l241 321h218l241 -321h-148l-201 202h-2l-201 -202h-148z" />
    <glyph glyph-name="Idieresis" unicode="&#xcf;" horiz-adv-x="590" 
d="M190 0v1480h210v-1480h-210zM410 1604v173h173v-173h-173zM15 1604v173h173v-173h-173z" />
    <glyph glyph-name="Eth" unicode="&#xd0;" horiz-adv-x="1534" 
d="M401 157h269q289 0 413 160q124 159 124 429t-127 419q-77 91 -184 124.5t-322 33.5h-173v-487h333v-157h-333v-522zM191 0v679h-222v157h222v644h492q221 0 356 -49t234 -166q157 -186 157 -490q0 -369 -195 -572t-549 -203h-495z" />
    <glyph glyph-name="Ntilde" unicode="&#xd1;" horiz-adv-x="1513" 
d="M191 0v1480h206l745 -1143v1143h180v-1480h-205l-746 1143v-1143h-180zM633 1838q73 0 135 -38l60 -37q56 -35 86 -35q69 0 77 110h123q-12 -234 -185 -234q-73 0 -135 39l-60 37q-56 34 -86 34q-69 0 -77 -110h-123q10 234 185 234z" />
    <glyph glyph-name="Ograve" unicode="&#xd2;" horiz-adv-x="1591" 
d="M795 120q222 0 346 164t124 456q-1 294 -125 457t-344 163t-345 -164q-124 -164 -124 -454t123 -456t345 -166zM794 -37q-316 -1 -502 213q-188 214 -188 566t188 564t504 211q314 0 503 -211q189 -210 189 -566t-189 -566t-505 -211zM944 1604h-148l-321 321h228z" />
    <glyph glyph-name="Oacute" unicode="&#xd3;" horiz-adv-x="1591" 
d="M795 120q222 0 346 164t124 456q-1 294 -125 457t-344 163t-345 -164q-124 -164 -124 -454t123 -456t345 -166zM794 -37q-316 -1 -502 213q-188 214 -188 566t188 564t504 211q314 0 503 -211q189 -210 189 -566t-189 -566t-505 -211zM648 1604l241 321h228l-321 -321
h-148z" />
    <glyph glyph-name="Ocircumflex" unicode="&#xd4;" horiz-adv-x="1591" 
d="M795 120q222 0 346 164t124 456q-1 294 -125 457t-344 163t-345 -164q-124 -164 -124 -454t123 -456t345 -166zM794 -37q-316 -1 -502 213q-188 214 -188 566t188 564t504 211q314 0 503 -211q189 -210 189 -566t-189 -566t-505 -211zM446 1604l241 321h218l241 -321
h-148l-201 202h-2l-201 -202h-148z" />
    <glyph glyph-name="Otilde" unicode="&#xd5;" horiz-adv-x="1591" 
d="M795 120q222 0 346 164t124 456q-1 294 -125 457t-344 163t-345 -164q-124 -164 -124 -454t123 -456t345 -166zM794 -37q-316 -1 -502 213q-188 214 -188 566t188 564t504 211q314 0 503 -211q189 -210 189 -566t-189 -566t-505 -211zM648 1838q73 0 135 -38l60 -37
q56 -35 86 -35q69 0 77 110h123q-12 -234 -185 -234q-73 0 -135 39l-60 37q-56 34 -86 34q-69 0 -77 -110h-123q10 234 185 234z" />
    <glyph glyph-name="Odieresis" unicode="&#xd6;" horiz-adv-x="1591" 
d="M795 120q222 0 346 164t124 456q-1 294 -125 457t-344 163t-345 -164q-124 -164 -124 -454t123 -456t345 -166zM794 -37q-316 -1 -502 213q-188 214 -188 566t188 564t504 211q314 0 503 -211q189 -210 189 -566t-189 -566t-505 -211zM907 1604v173h173v-173h-173z
M512 1604v173h173v-173h-173z" />
    <glyph glyph-name="multiply" unicode="&#xd7;" horiz-adv-x="1628" 
d="M222 105l487 487l-487 488l105 104l487 -487l488 487l104 -104l-487 -488l487 -487l-104 -105l-488 487l-487 -487z" />
    <glyph glyph-name="Oslash" unicode="&#xd8;" horiz-adv-x="1591" 
d="M104 748q0 346 188.5 557.5t502.5 211.5q237 0 413 -126l97 126h172l-169 -220q180 -216 180 -563t-188.5 -559t-500.5 -212q-245 0 -415 126l-96 -126h-173l169 221q-180 218 -180 564zM798 120q219 0 343 164.5t124 454.5q0 235 -83 393l-687 -898q119 -114 303 -114z
M795 1360q-220 0 -344 -163.5t-124 -454.5q0 -233 83 -393l687 898q-119 113 -302 113z" />
    <glyph glyph-name="Ugrave" unicode="&#xd9;" horiz-adv-x="1419" 
d="M179 1480h210v-934q1 -222 83 -324t260 -102t252 96t73 323v941h184v-938q-1 -303 -125 -441t-398 -138t-407 143q-132 143 -132 442v932zM871 1604h-148l-321 321h228z" />
    <glyph glyph-name="Uacute" unicode="&#xda;" horiz-adv-x="1419" 
d="M179 1480h210v-934q1 -222 83 -324t260 -102t252 96t73 323v941h184v-938q-1 -303 -125 -441t-398 -138t-407 143q-132 143 -132 442v932zM575 1604l241 321h228l-321 -321h-148z" />
    <glyph glyph-name="Ucircumflex" unicode="&#xdb;" horiz-adv-x="1419" 
d="M179 1480h210v-934q1 -222 83 -324t260 -102t252 96t73 323v941h184v-938q-1 -303 -125 -441t-398 -138t-407 143q-132 143 -132 442v932zM373 1604l241 321h218l241 -321h-148l-201 202h-2l-201 -202h-148z" />
    <glyph glyph-name="Udieresis" unicode="&#xdc;" horiz-adv-x="1419" 
d="M179 1480h210v-934q1 -222 83 -324t260 -102t252 96t73 323v941h184v-938q-1 -303 -125 -441t-398 -138t-407 143q-132 143 -132 442v932zM821 1604v173h173v-173h-173zM426 1604v173h173v-173h-173z" />
    <glyph glyph-name="Yacute" unicode="&#xdd;" horiz-adv-x="1276" 
d="M511 0v618l-494 862h240l384 -668l414 668h195l-529 -858v-622h-210zM493 1604l241 321h228l-321 -321h-148z" />
    <glyph glyph-name="Thorn" unicode="&#xde;" horiz-adv-x="1132" 
d="M399 449h109q175 0 271 87t96 233t-80 203t-267 57h-129v-580zM191 0v1480h208v-293h195q268 0 385 -90.5t117 -312.5t-160 -355.5t-444 -133.5h-93v-295h-208z" />
    <glyph glyph-name="germandbls" unicode="&#xdf;" horiz-adv-x="1225" 
d="M730 1304q0 152 -168 152t-168 -222v-1234h-197v1151q0 248 84.5 350.5t266.5 102.5t281 -73t99 -193t-131 -293q-77 -101 -77 -142q0 -60 110 -154l161 -136q173 -146 173 -305t-94 -246t-244 -87t-292 58v169q184 -79 270 -79t130 43t44 122t-115 177l-191 164
q-125 108 -125 219q-1 84 91 224t92 232z" />
    <glyph glyph-name="agrave" unicode="&#xe0;" horiz-adv-x="1131" 
d="M300 305q0 -71 50 -120t122 -49q123 0 256 109v281l-66 2q-162 0 -262 -62t-100 -161zM416 -25q-135 1 -224 85t-89 213q-1 177 149 273t429 96h47v131q0 189 -194 189q-156 0 -337 -96v163q199 81 377 81t264 -82t87 -255v-492q0 -169 104 -169q13 0 38 4l14 -109
q-67 -32 -148 -32q-138 0 -176 163q-177 -163 -341 -163zM727 1283h-148l-321 321h228z" />
    <glyph glyph-name="aacute" unicode="&#xe1;" horiz-adv-x="1131" 
d="M300 305q0 -71 50 -120t122 -49q123 0 256 109v281l-66 2q-162 0 -262 -62t-100 -161zM416 -25q-135 1 -224 85t-89 213q-1 177 149 273t429 96h47v131q0 189 -194 189q-156 0 -337 -96v163q199 81 377 81t264 -82t87 -255v-492q0 -169 104 -169q13 0 38 4l14 -109
q-67 -32 -148 -32q-138 0 -176 163q-177 -163 -341 -163zM426 1283l241 321h228l-321 -321h-148z" />
    <glyph glyph-name="acircumflex" unicode="&#xe2;" horiz-adv-x="1131" 
d="M300 305q0 -71 50 -120t122 -49q123 0 256 109v281l-66 2q-162 0 -262 -62t-100 -161zM416 -25q-135 1 -224 85t-89 213q-1 177 149 273t429 96h47v131q0 189 -194 189q-156 0 -337 -96v163q199 81 377 81t264 -82t87 -255v-492q0 -169 104 -169q13 0 38 4l14 -109
q-67 -32 -148 -32q-138 0 -176 163q-177 -163 -341 -163zM224 1283l241 321h218l241 -321h-148l-201 202h-2l-201 -202h-148z" />
    <glyph glyph-name="atilde" unicode="&#xe3;" horiz-adv-x="1131" 
d="M300 305q0 -71 50 -120t122 -49q123 0 256 109v281l-66 2q-162 0 -262 -62t-100 -161zM416 -25q-135 1 -224 85t-89 213q-1 177 149 273t429 96h47v131q0 189 -194 189q-156 0 -337 -96v163q199 81 377 81t264 -82t87 -255v-492q0 -169 104 -169q13 0 38 4l14 -109
q-67 -32 -148 -32q-138 0 -176 163q-177 -163 -341 -163zM423 1517q73 0 135 -38l60 -37q56 -35 86 -35q69 0 77 110h123q-12 -234 -185 -234q-73 0 -135 39l-60 37q-56 34 -86 34q-69 0 -77 -110h-123q10 234 185 234z" />
    <glyph glyph-name="adieresis" unicode="&#xe4;" horiz-adv-x="1131" 
d="M300 305q0 -71 50 -120t122 -49q123 0 256 109v281l-66 2q-162 0 -262 -62t-100 -161zM416 -25q-135 1 -224 85t-89 213q-1 177 149 273t429 96h47v131q0 189 -194 189q-156 0 -337 -96v163q199 81 377 81t264 -82t87 -255v-492q0 -169 104 -169q13 0 38 4l14 -109
q-67 -32 -148 -32q-138 0 -176 163q-177 -163 -341 -163zM683 1283v173h173v-173h-173zM288 1283v173h173v-173h-173z" />
    <glyph glyph-name="aring" unicode="&#xe5;" horiz-adv-x="1131" 
d="M300 305q0 -71 50 -120t122 -49q123 0 256 109v281l-66 2q-162 0 -262 -62t-100 -161zM416 -25q-135 1 -224 85t-89 213q-1 177 149 273t429 96h47v131q0 189 -194 189q-156 0 -337 -96v163q199 81 377 81t264 -82t87 -255v-492q0 -169 104 -169q13 0 38 4l14 -109
q-67 -32 -148 -32q-138 0 -176 163q-177 -163 -341 -163zM572 1369q58 0 100 41t41 100q1 59 -41 100t-100 41t-100 -41q-41 -42 -41 -100t41 -100q42 -42 100 -41zM571 1283q-95 1 -161 67t-65 160q0 94 66 160q67 66 161 67q94 0 160 -66q66 -65 67 -161q-1 -96 -67 -162
t-161 -65z" />
    <glyph glyph-name="ae" unicode="&#xe6;" horiz-adv-x="1743" 
d="M1388 648q0 315 -216 315t-240 -315h456zM300 305q0 -71 50 -120t122 -49q123 0 256 109v281l-66 2q-162 0 -262 -61.5t-100 -161.5zM1239 -25q-286 0 -430 218q-190 -218 -393 -218q-135 0 -224 84.5t-89 213.5q0 178 149.5 273.5t428.5 95.5h47v131q0 189 -194 189
q-156 0 -337 -96v163q199 81 383 81t297 -121q123 121 317 121t299 -149.5t105 -448.5h-672q28 -389 365 -389q140 0 307 71v-157q-193 -62 -359 -62z" />
    <glyph glyph-name="ccedilla" unicode="&#xe7;" horiz-adv-x="1049" 
d="M689 -271q0 96 -187 96l82 151q-195 13 -334 169q-139 157 -139 413q-1 256 143 404t401 148q127 0 284 -35v-165q-167 49 -272 49q-151 1 -243 -113t-91 -300q0 -186 94 -299q93 -113 237 -113t287 69v-170q-151 -46 -269 -55l-48 -87q78 1 136 -47t58 -114t-58 -114
t-137 -48q-78 0 -152 21v81q46 -15 105 -15q103 0 103 74z" />
    <glyph glyph-name="egrave" unicode="&#xe8;" horiz-adv-x="1141" 
d="M800 660q0 303 -226 303t-253 -303h479zM654 -25q-240 -1 -392 159t-151 410q-1 250 133 409q134 158 336 158t310 -140t108 -398l-1 -61h-685q43 -387 379 -387q123 0 302 66v-156q-198 -60 -339 -60zM721 1283h-148l-321 321h228z" />
    <glyph glyph-name="eacute" unicode="&#xe9;" horiz-adv-x="1141" 
d="M800 660q0 303 -226 303t-253 -303h479zM654 -25q-240 -1 -392 159t-151 410q-1 250 133 409q134 158 336 158t310 -140t108 -398l-1 -61h-685q43 -387 379 -387q123 0 302 66v-156q-198 -60 -339 -60zM421 1283l241 321h228l-321 -321h-148z" />
    <glyph glyph-name="ecircumflex" unicode="&#xea;" horiz-adv-x="1141" 
d="M800 660q0 303 -226 303t-253 -303h479zM654 -25q-240 -1 -392 159t-151 410q-1 250 133 409q134 158 336 158t310 -140t108 -398l-1 -61h-685q43 -387 379 -387q123 0 302 66v-156q-198 -60 -339 -60zM239 1283l241 321h218l241 -321h-148l-201 202h-2l-201 -202h-148z
" />
    <glyph glyph-name="edieresis" unicode="&#xeb;" horiz-adv-x="1141" 
d="M800 660q0 303 -226 303t-253 -303h479zM654 -25q-240 -1 -392 159t-151 410q-1 250 133 409q134 158 336 158t310 -140t108 -398l-1 -61h-685q43 -387 379 -387q123 0 302 66v-156q-198 -60 -339 -60zM707 1283v173h173v-173h-173zM312 1283v173h173v-173h-173z" />
    <glyph glyph-name="igrave" unicode="&#xec;" horiz-adv-x="592" 
d="M197 0v1086h197v-1086h-197zM448 1283h-148l-321 321h228z" />
    <glyph glyph-name="iacute" unicode="&#xed;" horiz-adv-x="592" 
d="M197 0v1086h197v-1086h-197zM152 1283l241 321h228l-321 -321h-148z" />
    <glyph glyph-name="icircumflex" unicode="&#xee;" horiz-adv-x="592" 
d="M197 0v1086h197v-1086h-197zM-50 1283l241 321h218l241 -321h-148l-201 202h-2l-201 -202h-148z" />
    <glyph glyph-name="idieresis" unicode="&#xef;" horiz-adv-x="592" 
d="M197 0v1086h197v-1086h-197zM411 1283v173h173v-173h-173zM16 1283v173h173v-173h-173z" />
    <glyph glyph-name="eth" unicode="&#xf0;" horiz-adv-x="1234" 
d="M923 548q0 395 -299 395q-143 0 -224 -107.5t-81 -297.5t80.5 -302.5t220.5 -112.5t221.5 113t81.5 312zM1122 576q0 -271 -139 -436t-367 -165t-367.5 155.5t-139.5 403.5t138 401t358 153q62 0 137 -21q-80 145 -247 250l-168 -168l-87 87l144 144q-117 51 -274 51v148
q221 0 397 -76l169 169l87 -87l-143 -143q502 -332 502 -866z" />
    <glyph glyph-name="ntilde" unicode="&#xf1;" horiz-adv-x="1271" 
d="M197 0v1086h197v-204q156 228 382 228q141 0 225 -90t84 -240v-780h-197v716q0 120 -36 172t-117 52q-181 0 -341 -237v-703h-197zM518 1517q73 0 135 -38l60 -37q56 -35 86 -35q69 0 77 110h123q-12 -234 -185 -234q-73 0 -135 39l-60 37q-56 34 -86 34q-69 0 -77 -110
h-123q10 234 185 234z" />
    <glyph glyph-name="ograve" unicode="&#xf2;" horiz-adv-x="1258" 
d="M625 123q313 -1 313 419t-308 420t-309 -420q0 -420 304 -419zM628 -25q-239 1 -378 155t-139 414q-1 260 139 414q140 152 379 152t379 -152t139 -416q0 -263 -140 -415t-379 -152zM781 1283h-148l-321 321h228z" />
    <glyph glyph-name="oacute" unicode="&#xf3;" horiz-adv-x="1258" 
d="M625 123q313 -1 313 419t-308 420t-309 -420q0 -420 304 -419zM628 -25q-239 1 -378 155t-139 414q-1 260 139 414q140 152 379 152t379 -152t139 -416q0 -263 -140 -415t-379 -152zM481 1283l241 321h228l-321 -321h-148z" />
    <glyph glyph-name="ocircumflex" unicode="&#xf4;" horiz-adv-x="1258" 
d="M625 123q313 -1 313 419t-308 420t-309 -420q0 -420 304 -419zM628 -25q-239 1 -378 155t-139 414q-1 260 139 414q140 152 379 152t379 -152t139 -416q0 -263 -140 -415t-379 -152zM279 1283l241 321h218l241 -321h-148l-201 202h-2l-201 -202h-148z" />
    <glyph glyph-name="otilde" unicode="&#xf5;" horiz-adv-x="1258" 
d="M625 123q313 -1 313 419t-308 420t-309 -420q0 -420 304 -419zM628 -25q-239 1 -378 155t-139 414q-1 260 139 414q140 152 379 152t379 -152t139 -416q0 -263 -140 -415t-379 -152zM481 1517q73 0 135 -38l60 -37q56 -35 86 -35q69 0 77 110h123q-12 -234 -185 -234
q-73 0 -135 39l-60 37q-56 34 -86 34q-69 0 -77 -110h-123q10 234 185 234z" />
    <glyph glyph-name="odieresis" unicode="&#xf6;" horiz-adv-x="1258" 
d="M625 123q313 -1 313 419t-308 420t-309 -420q0 -420 304 -419zM628 -25q-239 1 -378 155t-139 414q-1 260 139 414q140 152 379 152t379 -152t139 -416q0 -263 -140 -415t-379 -152zM740 1283v173h173v-173h-173zM345 1283v173h173v-173h-173z" />
    <glyph glyph-name="divide" unicode="&#xf7;" horiz-adv-x="1628" 
d="M691 0v247h247v-247h-247zM691 938v246h247v-246h-247zM222 518v148h1184v-148h-1184z" />
    <glyph glyph-name="oslash" unicode="&#xf8;" horiz-adv-x="1258" 
d="M631 962q-310 0 -310 -415q0 -145 43 -249l463 590q-81 74 -196 74zM627 123q311 0 311 415q0 136 -43 249l-463 -591q77 -73 195 -73zM111 547q0 257 139 410t379 153q178 0 304 -85l68 85h146l-129 -165l2 -4q127 -159 127 -409t-139 -403.5t-378 -153.5
q-174 0 -304 85l-67 -85h-148l130 166l-3 3q-127 146 -127 403z" />
    <glyph glyph-name="ugrave" unicode="&#xf9;" horiz-adv-x="1271" 
d="M876 0v204q-157 -229 -381 -229q-142 -1 -226 89t-84 242v780h197v-716q0 -122 36 -174t118 -51q180 0 340 237v704h197v-1086h-197zM781 1283h-148l-321 321h228z" />
    <glyph glyph-name="uacute" unicode="&#xfa;" horiz-adv-x="1271" 
d="M876 0v204q-157 -229 -381 -229q-142 -1 -226 89t-84 242v780h197v-716q0 -122 36 -174t118 -51q180 0 340 237v704h197v-1086h-197zM481 1283l241 321h228l-321 -321h-148z" />
    <glyph glyph-name="ucircumflex" unicode="&#xfb;" horiz-adv-x="1271" 
d="M876 0v204q-157 -229 -381 -229q-142 -1 -226 89t-84 242v780h197v-716q0 -122 36 -174t118 -51q180 0 340 237v704h197v-1086h-197zM279 1283l241 321h218l241 -321h-148l-201 202h-2l-201 -202h-148z" />
    <glyph glyph-name="udieresis" unicode="&#xfc;" horiz-adv-x="1271" 
d="M876 0v204q-157 -229 -381 -229q-142 -1 -226 89t-84 242v780h197v-716q0 -122 36 -174t118 -51q180 0 340 237v704h197v-1086h-197zM740 1283v173h173v-173h-173zM345 1283v173h173v-173h-173z" />
    <glyph glyph-name="yacute" unicode="&#xfd;" horiz-adv-x="1070" 
d="M260 -395l176 395l-420 1086h213l311 -818l332 818h186l-593 -1481h-205zM395 1283l241 321h228l-321 -321h-148z" />
    <glyph glyph-name="thorn" unicode="&#xfe;" horiz-adv-x="1289" 
d="M968 556q0 382 -252 382q-165 0 -322 -179v-500q152 -136 290 -136q284 0 284 433zM197 -395v1974h197v-697q121 228 363 228q196 0 308.5 -143t112.5 -402t-128 -424.5t-328 -165.5t-328 148v-518h-197z" />
    <glyph glyph-name="ydieresis" unicode="&#xff;" horiz-adv-x="1070" 
d="M260 -395l176 395l-420 1086h213l311 -818l332 818h186l-593 -1481h-205zM665 1283v173h173v-173h-173zM270 1283v173h173v-173h-173z" />
    <glyph glyph-name="Amacron" unicode="&#x100;" horiz-adv-x="1413" 
d="M1163 0l-161 410h-627l-163 -410h-195l587 1480h208l578 -1480h-227zM941 566l-252 638l-253 -638h505zM387 1604v148h642v-148h-642z" />
    <glyph glyph-name="amacron" unicode="&#x101;" horiz-adv-x="1131" 
d="M300 305q0 -71 50 -120t122 -49q123 0 256 109v281l-66 2q-162 0 -262 -62t-100 -161zM416 -25q-135 1 -224 85t-89 213q-1 177 149 273t429 96h47v131q0 189 -194 189q-156 0 -337 -96v163q199 81 377 81t264 -82t87 -255v-492q0 -169 104 -169q13 0 38 4l14 -109
q-67 -32 -148 -32q-138 0 -176 163q-177 -163 -341 -163zM230 1283v148h642v-148h-642z" />
    <glyph glyph-name="Abreve" unicode="&#x102;" horiz-adv-x="1413" 
d="M1163 0l-161 410h-627l-163 -410h-195l587 1480h208l578 -1480h-227zM941 566l-252 638l-253 -638h505zM703 1604q-137 0 -227 88t-106 233h123q32 -173 210 -173t210 173h123q-15 -145 -106 -233t-227 -88z" />
    <glyph glyph-name="abreve" unicode="&#x103;" horiz-adv-x="1131" 
d="M300 305q0 -71 50 -120t122 -49q123 0 256 109v281l-66 2q-162 0 -262 -62t-100 -161zM416 -25q-135 1 -224 85t-89 213q-1 177 149 273t429 96h47v131q0 189 -194 189q-156 0 -337 -96v163q199 81 377 81t264 -82t87 -255v-492q0 -169 104 -169q13 0 38 4l14 -109
q-67 -32 -148 -32q-138 0 -176 163q-177 -163 -341 -163zM596 1283q-136 -1 -226 87t-107 234h123q32 -173 210 -173t210 173h123q-15 -146 -106 -234t-227 -87z" />
    <glyph glyph-name="Aogonek" unicode="&#x104;" horiz-adv-x="1413" 
d="M941 566l-252 638l-253 -638h505zM1141 -180q0 -95 115 -95q56 0 91 15v-81q-60 -29 -138 -29q-204 0 -204 159q0 125 158 211l-161 410h-627l-163 -410h-195l587 1480h208l578 -1480h-120q-129 -75 -129 -180z" />
    <glyph glyph-name="aogonek" unicode="&#x105;" horiz-adv-x="1131" 
d="M300 305q0 -71 50 -120t122 -49q123 0 256 109v281l-66 2q-162 0 -262 -62t-100 -161zM706 -211q0 120 146 204q-70 36 -95 145q-177 -163 -341 -163q-135 1 -224 85t-89 213q-1 177 149 273t429 96h47v131q0 189 -194 189q-156 0 -337 -96v163q199 81 377 81t264 -82
t87 -255v-492q0 -169 104 -169q13 0 38 4l14 -109q-67 -32 -148 -32q-91 -67 -91 -155q0 -95 115 -95q56 0 91 15v-81q-60 -29 -138 -29q-204 0 -204 159z" />
    <glyph glyph-name="Cacute" unicode="&#x106;" horiz-adv-x="1417" 
d="M825 -37q-345 1 -533 203t-188 572t192 575q192 204 539 204q199 0 466 -65v-197q-304 105 -469 105q-241 0 -373 -163t-132 -453t141 -454t368 -163q227 0 467 129v-180q-219 -113 -478 -113zM654 1604l241 321h228l-321 -321h-148z" />
    <glyph glyph-name="cacute" unicode="&#x107;" horiz-adv-x="1049" 
d="M621 -25q-220 0 -365 163q-145 164 -145 420q-1 256 143 404t401 148q127 0 284 -35v-165q-167 49 -272 49q-151 1 -243 -113t-91 -300q0 -186 94 -299q93 -113 237 -113t287 69v-170q-191 -58 -330 -58zM445 1283l241 321h228l-321 -321h-148z" />
    <glyph glyph-name="Ccircumflex" unicode="&#x108;" horiz-adv-x="1417" 
d="M825 -37q-345 1 -533 203t-188 572t192 575q192 204 539 204q199 0 466 -65v-197q-304 105 -469 105q-241 0 -373 -163t-132 -453t141 -454t368 -163q227 0 467 129v-180q-219 -113 -478 -113zM477 1604l241 321h218l241 -321h-148l-201 202h-2l-201 -202h-148z" />
    <glyph glyph-name="ccircumflex" unicode="&#x109;" horiz-adv-x="1049" 
d="M621 -25q-220 0 -365 163q-145 164 -145 420q-1 256 143 404t401 148q127 0 284 -35v-165q-167 49 -272 49q-151 1 -243 -113t-91 -300q0 -186 94 -299q93 -113 237 -113t287 69v-170q-191 -58 -330 -58zM264 1283l241 321h218l241 -321h-148l-201 202h-2l-201 -202h-148
z" />
    <glyph glyph-name="Cdotabove" unicode="&#x10a;" horiz-adv-x="1417" 
d="M825 -37q-345 1 -533 203t-188 572t192 575q192 204 539 204q199 0 466 -65v-197q-304 105 -469 105q-241 0 -373 -163t-132 -453t141 -454t368 -163q227 0 467 129v-180q-219 -113 -478 -113zM730 1604v197h197v-197h-197z" />
    <glyph glyph-name="cdotabove" unicode="&#x10b;" horiz-adv-x="1049" 
d="M621 -25q-220 0 -365 163q-145 164 -145 420q-1 256 143 404t401 148q127 0 284 -35v-165q-167 49 -272 49q-151 1 -243 -113t-91 -300q0 -186 94 -299q93 -113 237 -113t287 69v-170q-191 -58 -330 -58zM545 1283v197h197v-197h-197z" />
    <glyph glyph-name="Ccaron" unicode="&#x10c;" horiz-adv-x="1417" 
d="M825 -37q-345 1 -533 203t-188 572t192 575q192 204 539 204q199 0 466 -65v-197q-304 105 -469 105q-241 0 -373 -163t-132 -453t141 -454t368 -163q227 0 467 129v-180q-219 -113 -478 -113zM1175 1925l-241 -321h-218l-241 321h148l201 -202h2l201 202h148z" />
    <glyph glyph-name="ccaron" unicode="&#x10d;" horiz-adv-x="1049" 
d="M621 -25q-220 0 -365 163q-145 164 -145 420q-1 256 143 404t401 148q127 0 284 -35v-165q-167 49 -272 49q-151 1 -243 -113t-91 -300q0 -186 94 -299q93 -113 237 -113t287 69v-170q-191 -58 -330 -58zM970 1604l-241 -321h-218l-241 321h148l201 -202h2l201 202h148z
" />
    <glyph glyph-name="Dcaron" unicode="&#x10e;" horiz-adv-x="1534" 
d="M401 157h269q288 0 412 160q124 159 125 429q0 270 -127 419q-77 91 -184 125t-322 33h-173v-1166zM191 0v1480h492q219 0 355 -49t235 -166q157 -186 157 -490q0 -369 -195 -572t-549 -203h-495zM1097 1925l-241 -321h-218l-241 321h148l201 -202h2l201 202h148z" />
    <glyph glyph-name="dapostrophe" unicode="&#x10f;" horiz-adv-x="1462" 
d="M1341 1365v17h-76v197h197v-171q0 -263 -197 -283v59q76 20 76 181zM604 962q-283 0 -283 -433q0 -381 252 -381q164 0 321 179v500q-153 135 -290 135zM894 0v204q-120 -229 -362 -229q-196 0 -308.5 142.5t-112.5 402.5t127.5 425t327.5 165t328 -148v617h198v-1579
h-198z" />
    <glyph glyph-name="Dmacron" unicode="&#x110;" horiz-adv-x="1534" 
d="M401 157h269q289 0 413 160q124 159 124 429t-127 419q-77 91 -184 124.5t-322 33.5h-173v-487h333v-157h-333v-522zM191 0v679h-222v157h222v644h492q221 0 356 -49t234 -166q157 -186 157 -490q0 -369 -195 -572t-549 -203h-495z" />
    <glyph glyph-name="dcroat" unicode="&#x111;" horiz-adv-x="1289" 
d="M606 938q-285 0 -285 -407q0 -383 252 -383q164 0 321 179v487q-135 124 -288 124zM894 0v204q-120 -229 -362 -229q-196 0 -308.5 143.5t-112.5 398.5t126.5 412t328.5 157t328 -148v320h-320v124h320v197h198v-197h173v-124h-173v-1258h-198z" />
    <glyph glyph-name="Emacron" unicode="&#x112;" horiz-adv-x="1110" 
d="M191 0v1480h827v-157h-617v-475h517v-155h-517v-536h660v-157h-870zM314 1604v148h642v-148h-642z" />
    <glyph glyph-name="emacron" unicode="&#x113;" horiz-adv-x="1141" 
d="M800 660q0 303 -226 303t-253 -303h479zM654 -25q-240 -1 -392 159t-151 410q-1 250 133 409q134 158 336 158t310 -140t108 -398l-1 -61h-685q43 -387 379 -387q123 0 302 66v-156q-198 -60 -339 -60zM276 1283v148h642v-148h-642z" />
    <glyph glyph-name="Ebreve" unicode="&#x114;" horiz-adv-x="1110" 
d="M191 0v1480h827v-157h-617v-475h517v-155h-517v-536h660v-157h-870zM629 1604q-137 0 -227 88t-106 233h123q32 -173 210 -173t210 173h123q-15 -145 -106 -233t-227 -88z" />
    <glyph glyph-name="ebreve" unicode="&#x115;" horiz-adv-x="1141" 
d="M800 660q0 303 -226 303t-253 -303h479zM654 -25q-240 -1 -392 159t-151 410q-1 250 133 409q134 158 336 158t310 -140t108 -398l-1 -61h-685q43 -387 379 -387q123 0 302 66v-156q-198 -60 -339 -60zM599 1283q-137 -1 -227 87t-106 234h123q32 -173 210 -173t210 173
h123q-15 -146 -106 -234t-227 -87z" />
    <glyph glyph-name="Edotabove" unicode="&#x116;" horiz-adv-x="1110" 
d="M191 0v1480h827v-157h-617v-475h517v-155h-517v-536h660v-157h-870zM523 1604v197h197v-197h-197z" />
    <glyph glyph-name="edotabove" unicode="&#x117;" horiz-adv-x="1141" 
d="M800 660q0 303 -226 303t-253 -303h479zM654 -25q-240 -1 -392 159t-151 410q-1 250 133 409q134 158 336 158t310 -140t108 -398l-1 -61h-685q43 -387 379 -387q123 0 302 66v-156q-198 -60 -339 -60zM485 1283v197h197v-197h-197z" />
    <glyph glyph-name="Eogonek" unicode="&#x118;" horiz-adv-x="1110" 
d="M682 -211q0 125 158 211h-649v1480h827v-157h-617v-475h517v-155h-517v-536h660v-157h-114q-129 -75 -129 -180q0 -95 115 -95q56 0 91 15v-81q-60 -29 -138 -29q-204 0 -204 159z" />
    <glyph glyph-name="eogonek" unicode="&#x119;" horiz-adv-x="1141" 
d="M800 660q0 303 -226 303t-253 -303h479zM535 -211q0 108 117 186q-238 1 -390 160q-151 159 -151 409q-1 250 133 409q134 158 336 158t310 -140t108 -398l-1 -61h-685q43 -387 379 -387q123 0 302 66v-156q-119 -36 -218 -50q-104 -70 -104 -165t115 -95q56 0 91 15v-81
q-60 -29 -138 -29q-204 0 -204 159z" />
    <glyph glyph-name="Ecaron" unicode="&#x11a;" horiz-adv-x="1110" 
d="M191 0v1480h827v-157h-617v-475h517v-155h-517v-536h660v-157h-870zM979 1925l-241 -321h-218l-241 321h148l201 -202h2l201 202h148z" />
    <glyph glyph-name="ecaron" unicode="&#x11b;" horiz-adv-x="1141" 
d="M800 660q0 303 -226 303t-253 -303h479zM654 -25q-240 -1 -392 159t-151 410q-1 250 133 409q134 158 336 158t310 -140t108 -398l-1 -61h-685q43 -387 379 -387q123 0 302 66v-156q-198 -60 -339 -60zM923 1604l-241 -321h-218l-241 321h148l201 -202h2l201 202h148z
" />
    <glyph glyph-name="Gcircumflex" unicode="&#x11c;" horiz-adv-x="1480" 
d="M834 -37q-354 0 -542 201q-188 200 -188 572t191 576t536 205q226 0 470 -67v-194q-306 104 -469 104q-240 0 -372 -163t-133 -457q0 -294 142 -458q142 -162 398 -162q105 0 227 37v482h209v-599q-269 -77 -469 -77zM479 1604l241 321h218l241 -321h-148l-201 202h-2
l-201 -202h-148z" />
    <glyph glyph-name="gcircumflex" unicode="&#x11d;" horiz-adv-x="1277" 
d="M620 962q-144 0 -222 -109q-77 -109 -77 -299q0 -357 251 -357q171 0 322 179v451q-130 135 -274 135zM561 -271q333 0 333 353v171q-109 -228 -358 -228q-195 0 -310 142q-115 143 -115 387t131 400t326 156t326 -148v124h198v-790q0 -256 -26 -378q-73 -337 -501 -337
q-190 0 -364 58l23 171q171 -81 337 -81zM279 1283l241 321h218l241 -321h-148l-201 202h-2l-201 -202h-148z" />
    <glyph glyph-name="Gbreve" unicode="&#x11e;" horiz-adv-x="1480" 
d="M834 -37q-354 0 -542 201q-188 200 -188 572t191 576t536 205q226 0 470 -67v-194q-306 104 -469 104q-240 0 -372 -163t-133 -457q0 -294 142 -458q142 -162 398 -162q105 0 227 37v482h209v-599q-269 -77 -469 -77zM802 1604q-136 0 -226 88t-107 233h123
q32 -173 210 -173t210 173h123q-15 -145 -106 -233t-227 -88z" />
    <glyph glyph-name="gbreve" unicode="&#x11f;" horiz-adv-x="1277" 
d="M620 962q-144 0 -222 -109q-77 -109 -77 -299q0 -357 251 -357q171 0 322 179v451q-130 135 -274 135zM561 -271q333 0 333 353v171q-109 -228 -358 -228q-195 0 -310 142q-115 143 -115 387t131 400t326 156t326 -148v124h198v-790q0 -256 -26 -378q-73 -337 -501 -337
q-190 0 -364 58l23 171q171 -81 337 -81zM605 1283q-137 -1 -227 87t-106 234h123q32 -173 210 -173t210 173h123q-15 -146 -106 -234t-227 -87z" />
    <glyph glyph-name="Gdotabove" unicode="&#x120;" horiz-adv-x="1480" 
d="M834 -37q-354 0 -542 201q-188 200 -188 572t191 576t536 205q226 0 470 -67v-194q-306 104 -469 104q-240 0 -372 -163t-133 -457q0 -294 142 -458q142 -162 398 -162q105 0 227 37v482h209v-599q-269 -77 -469 -77zM730 1604v197h197v-197h-197z" />
    <glyph glyph-name="gdotabove" unicode="&#x121;" horiz-adv-x="1277" 
d="M620 962q-144 0 -222 -109q-77 -109 -77 -299q0 -357 251 -357q171 0 322 179v451q-130 135 -274 135zM561 -271q333 0 333 353v171q-109 -228 -358 -228q-195 0 -310 142q-115 143 -115 387t131 400t326 156t326 -148v124h198v-790q0 -256 -26 -378q-73 -337 -501 -337
q-190 0 -364 58l23 171q171 -81 337 -81zM518 1283v197h197v-197h-197z" />
    <glyph glyph-name="Gcommabelow" unicode="&#x122;" horiz-adv-x="1480" 
d="M834 -37q-354 0 -542 201q-188 200 -188 572t191 576t536 205q226 0 470 -67v-194q-306 104 -469 104q-240 0 -372 -163t-133 -457q0 -294 142 -458q142 -162 398 -162q105 0 227 37v482h209v-599q-269 -77 -469 -77zM827 -423v16h-76v198h197v-172q0 -262 -197 -282v59
q76 22 76 181z" />
    <glyph glyph-name="gcommaturnedabove" unicode="&#x123;" horiz-adv-x="1277" 
d="M624 1497v-17h76v-197h-197v171q0 263 197 283v-59q-76 -22 -76 -181zM620 962q-144 0 -221.5 -109t-77.5 -299q0 -357 251 -357q171 0 322 179v451q-130 135 -274 135zM561 -271q333 0 333 353v171q-109 -228 -358 -228q-195 0 -310 142.5t-115 386.5t131 400t326 156
t326 -148v124h198v-790q0 -255 -50 -485t-477 -230q-190 0 -364 58l23 171q171 -81 337 -81z" />
    <glyph glyph-name="Hcircumflex" unicode="&#x124;" horiz-adv-x="1505" 
d="M191 0v1480h210v-624h704v624h210v-1480h-210v699h-704v-699h-210zM403 1604l241 321h218l241 -321h-148l-201 202h-2l-201 -202h-148z" />
    <glyph glyph-name="hcircumflex" unicode="&#x125;" horiz-adv-x="1271" 
d="M197 0v1579h197v-697q156 228 382 228q141 0 225 -90t84 -240v-780h-197v716q0 120 -36 172t-117 52q-181 0 -341 -237v-703h-197zM296 1678l241 321h218l241 -321h-148l-201 202h-2l-201 -202h-148z" />
    <glyph glyph-name="Hbar" unicode="&#x126;" horiz-adv-x="1617" 
d="M1370 0h-210v699h-704v-699h-210v1110h-197v124h197v246h210v-246h704v246h210v-246h197v-124h-197v-1110zM1160 856v254h-704v-254h704z" />
    <glyph glyph-name="hbar" unicode="&#x127;" horiz-adv-x="1271" 
d="M777 1086q141 0 225 -89.5t84 -241.5v-755h-197v691q0 122 -35.5 173.5t-117.5 51.5q-181 0 -341 -237v-679h-197v1258h-173v124h173v197h197v-197h321v-124h-321v-400q156 228 382 228z" />
    <glyph glyph-name="Itilde" unicode="&#x128;" horiz-adv-x="590" 
d="M190 0v1480h210v-1480h-210zM151 1838q73 0 135 -38l60 -37q56 -35 86 -35q69 0 77 110h123q-12 -234 -185 -234q-73 0 -135 39l-60 37q-56 34 -86 34q-69 0 -77 -110h-123q10 234 185 234z" />
    <glyph glyph-name="itilde" unicode="&#x129;" horiz-adv-x="592" 
d="M197 0v1086h197v-1086h-197zM433 1407q69 0 77 110h123q-12 -234 -185 -234q-73 0 -135 39l-60 37q-56 34 -86 34q-69 0 -77 -110h-123q10 234 185 234q73 0 135 -38l60 -37q56 -35 86 -35z" />
    <glyph glyph-name="Imacron" unicode="&#x12a;" horiz-adv-x="590" 
d="M190 0v1480h210v-1480h-210zM-22 1604v148h642v-148h-642z" />
    <glyph glyph-name="imacron" unicode="&#x12b;" horiz-adv-x="592" 
d="M197 0v1086h197v-1086h-197zM-21 1283v148h642v-148h-642z" />
    <glyph glyph-name="Ibreve" unicode="&#x12c;" horiz-adv-x="590" 
d="M190 0v1480h210v-1480h-210zM299 1752q178 0 210 173h123q-15 -145 -106 -233t-227 -88q-137 0 -227 88t-106 233h123q32 -173 210 -173z" />
    <glyph glyph-name="ibreve" unicode="&#x12d;" horiz-adv-x="592" 
d="M197 0v1086h197v-1086h-197zM300 1431q178 0 210 173h123q-15 -146 -106 -234t-227 -87q-136 -1 -226 87t-107 234h123q32 -173 210 -173z" />
    <glyph glyph-name="Iogonek" unicode="&#x12e;" horiz-adv-x="590" 
d="M128 -211q0 125 158 211h-96v1480h210v-1480h-7q-129 -75 -129 -180q0 -95 115 -95q56 0 91 15v-81q-60 -29 -138 -29q-204 0 -204 159z" />
    <glyph glyph-name="iogonek" unicode="&#x12f;" horiz-adv-x="592" 
d="M197 1283v197h197v-197h-197zM129 -211q0 125 158 211h-90v1086h197v-1086q-129 -75 -129 -180q0 -95 115 -95q56 0 91 15v-81q-60 -29 -138 -29q-204 0 -204 159z" />
    <glyph glyph-name="Idotabove" unicode="&#x130;" horiz-adv-x="590" 
d="M190 0v1480h210v-1480h-210zM200 1604v197h197v-197h-197z" />
    <glyph glyph-name="dotlessi" unicode="&#x131;" horiz-adv-x="592" 
d="M197 0v1086h197v-1086h-197z" />
    <glyph glyph-name="IJ" unicode="&#x132;" horiz-adv-x="1220" 
d="M190 0v1480h210v-1480h-210zM626 -128q106 0 154 68t47 240v1300h210v-1293q0 -483 -457 -483q-70 0 -180 21v186q120 -39 226 -39z" />
    <glyph glyph-name="ij" unicode="&#x133;" horiz-adv-x="1185" 
d="M197 1283v197h197v-197h-197zM197 0v1086h197v-1086h-197zM789 1283v197h198v-197h-198zM633 -271q88 0 122 54t34 217v1086h198v-1086q0 -419 -354 -419q-105 0 -226 50v156q138 -58 226 -58z" />
    <glyph glyph-name="Jcircumflex" unicode="&#x134;" horiz-adv-x="637" 
d="M42 -128q106 0 154 68t47 240v1300h210v-1293q0 -483 -457 -483q-70 0 -180 21v186q120 -39 226 -39zM2 1604l241 321h218l241 -321h-148l-201 202h-2l-201 -202h-148z" />
    <glyph glyph-name="jcircumflex" unicode="&#x135;" horiz-adv-x="623" 
d="M-23 1283l241 321h218l241 -321h-148l-201 202h-2l-201 -202h-148zM426 0q0 -419 -354 -419q-105 0 -226 50v156q138 -58 226 -58t122 54t34 217v1086h198v-1086z" />
    <glyph glyph-name="Kcommabelow" unicode="&#x136;" horiz-adv-x="1337" 
d="M191 0v1480h197v-728l599 728h211l-580 -706l683 -774h-266l-647 750v-750h-197zM700 -421v16h-76v198h197v-172q0 -262 -197 -282v59q76 22 76 181z" />
    <glyph glyph-name="kcommabelow" unicode="&#x137;" horiz-adv-x="1197" 
d="M197 0v1579h197v-1020l460 527h212l-439 -507l530 -579h-252l-511 557v-557h-197zM615 -412v16h-76v198h197v-172q0 -262 -197 -282v59q76 22 76 181z" />
    <glyph glyph-name="kra" unicode="&#x138;" horiz-adv-x="1197" 
d="M197 0v1086h197v-527l460 527h212l-439 -507l530 -579h-252l-511 557v-557h-197z" />
    <glyph glyph-name="Lacute" unicode="&#x139;" horiz-adv-x="1092" 
d="M191 0v1480h210v-1323h666v-157h-876zM176 1604l241 321h228l-321 -321h-148z" />
    <glyph glyph-name="lacute" unicode="&#x13a;" horiz-adv-x="592" 
d="M197 0v1579h197v-1579h-197zM152 1678l241 321h228l-321 -321h-148z" />
    <glyph glyph-name="Lcommabelow" unicode="&#x13b;" horiz-adv-x="1092" 
d="M191 0v1480h210v-1323h666v-157h-876zM603 -413v16h-76v198h197v-172q0 -262 -197 -282v59q76 22 76 181z" />
    <glyph glyph-name="lcommabelow" unicode="&#x13c;" horiz-adv-x="592" 
d="M197 0v1579h197v-1579h-197zM274 -439v16h-76v198h197v-172q0 -262 -197 -282v59q76 22 76 181z" />
    <glyph glyph-name="Lapostrophe" unicode="&#x13d;" horiz-adv-x="1092" 
d="M191 0v1480h210v-1323h666v-157h-876zM773 1270v16h-76v198h197v-171q0 -265 -197 -283v59q76 20 76 181z" />
    <glyph glyph-name="lapostrophe" unicode="&#x13e;" horiz-adv-x="765" 
d="M197 0v1579h197v-1579h-197zM644 1369v16h-76v198h197v-171q0 -265 -197 -283v59q76 20 76 181z" />
    <glyph glyph-name="Ldotright" unicode="&#x13f;" horiz-adv-x="1092" 
d="M191 0v1480h210v-1323h666v-157h-876zM743 646v197h197v-197h-197z" />
    <glyph glyph-name="ldotright" unicode="&#x140;" horiz-adv-x="790" 
d="M592 691v197h197v-197h-197zM197 0v1579h197v-1579h-197z" />
    <glyph glyph-name="Lslash" unicode="&#x141;" horiz-adv-x="1123" 
d="M222 0v692l-197 -107v169l197 108v618h210v-504l247 134v-169l-247 -134v-650h666v-157h-876z" />
    <glyph glyph-name="lslash" unicode="&#x142;" horiz-adv-x="672" 
d="M247 0v721l-222 -118v166l222 120v690h197v-581l223 112v-163l-223 -117v-830h-197z" />
    <glyph glyph-name="Nacute" unicode="&#x143;" horiz-adv-x="1513" 
d="M191 0v1480h206l745 -1143v1143h180v-1480h-205l-746 1143v-1143h-180zM609 1604l241 321h228l-321 -321h-148z" />
    <glyph glyph-name="nacute" unicode="&#x144;" horiz-adv-x="1271" 
d="M197 0v1086h197v-204q156 228 382 228q141 0 225 -90t84 -240v-780h-197v716q0 120 -36 172t-117 52q-181 0 -341 -237v-703h-197zM468 1283l241 321h228l-321 -321h-148z" />
    <glyph glyph-name="Ncommabelow" unicode="&#x145;" horiz-adv-x="1513" 
d="M191 0v1480h206l745 -1143v1143h180v-1480h-205l-746 1143v-1143h-180zM721 -405v16h-76v198h197v-172q0 -262 -197 -282v59q76 22 76 181z" />
    <glyph glyph-name="ncommabelow" unicode="&#x146;" horiz-adv-x="1271" 
d="M197 0v1086h197v-204q156 228 382 228q141 0 225 -90t84 -240v-780h-197v716q0 120 -36 172t-117 52q-181 0 -341 -237v-703h-197zM619 -412v16h-76v198h197v-172q0 -262 -197 -282v59q76 22 76 181z" />
    <glyph glyph-name="Ncaron" unicode="&#x147;" horiz-adv-x="1513" 
d="M191 0v1480h206l745 -1143v1143h180v-1480h-205l-746 1143v-1143h-180zM1105 1925l-241 -321h-218l-241 321h148l201 -202h2l201 202h148z" />
    <glyph glyph-name="ncaron" unicode="&#x148;" horiz-adv-x="1271" 
d="M197 0v1086h197v-204q156 228 382 228q141 0 225 -90t84 -240v-780h-197v716q0 120 -36 172t-117 52q-181 0 -341 -237v-703h-197zM990 1604l-241 -321h-218l-241 321h148l201 -202h2l201 202h148z" />
    <glyph glyph-name="napostrophe" unicode="&#x149;" horiz-adv-x="1419" 
d="M345 0v1086h197v-204q156 228 382 228q141 0 225 -90t84 -240v-780h-197v716q0 120 -36 172t-117 52q-181 0 -341 -237v-703h-197zM129 1369v16h-76v198h197v-171q0 -265 -197 -283v59q76 20 76 181z" />
    <glyph glyph-name="Eng" unicode="&#x14a;" horiz-adv-x="1513" 
d="M999 -272q144 0 144 217v15l-772 1183v-1143h-180v1480h206l745 -1143v1143h180v-1572q0 -154 -85 -241t-236 -87q-73 0 -148 21v154q61 -27 146 -27z" />
    <glyph glyph-name="eng" unicode="&#x14b;" horiz-adv-x="1271" 
d="M741 -272q147 0 147 217v771q0 121 -35.5 172.5t-117.5 51.5q-181 0 -341 -237v-703h-197v1086h197v-204q156 228 382 228q141 0 225 -89.5t84 -240.5v-872q0 -154 -84.5 -241t-236.5 -87q-73 0 -148 21v154q63 -27 125 -27z" />
    <glyph glyph-name="Omacron" unicode="&#x14c;" horiz-adv-x="1591" 
d="M795 120q222 0 346 164t124 456q-1 294 -125 457t-344 163t-345 -164q-124 -164 -124 -454t123 -456t345 -166zM794 -37q-316 -1 -502 213q-188 214 -188 566t188 564t504 211q314 0 503 -211q189 -210 189 -566t-189 -566t-505 -211zM466 1684v148h642v-148h-642z" />
    <glyph glyph-name="omacron" unicode="&#x14d;" horiz-adv-x="1258" 
d="M625 123q313 -1 313 419t-308 420t-309 -420q0 -420 304 -419zM628 -25q-239 1 -378 155t-139 414q-1 260 139 414q140 152 379 152t379 -152t139 -416q0 -263 -140 -415t-379 -152zM308 1283v148h642v-148h-642z" />
    <glyph glyph-name="Obreve" unicode="&#x14e;" horiz-adv-x="1591" 
d="M795 120q222 0 346 164t124 456q-1 294 -125 457t-344 163t-345 -164q-124 -164 -124 -454t123 -456t345 -166zM794 -37q-316 -1 -502 213q-188 214 -188 566t188 564t504 211q314 0 503 -211q189 -210 189 -566t-189 -566t-505 -211zM796 1604q-136 0 -226 88t-107 233
h123q32 -173 210 -173t210 173h123q-15 -145 -106 -233t-227 -88z" />
    <glyph glyph-name="obreve" unicode="&#x14f;" horiz-adv-x="1258" 
d="M625 123q313 -1 313 419t-308 420t-309 -420q0 -420 304 -419zM628 -25q-239 1 -378 155t-139 414q-1 260 139 414q140 152 379 152t379 -152t139 -416q0 -263 -140 -415t-379 -152zM629 1283q-137 -1 -227 87t-106 234h123q32 -173 210 -173t210 173h123
q-15 -146 -106 -234t-227 -87z" />
    <glyph glyph-name="Odblacute" unicode="&#x150;" horiz-adv-x="1591" 
d="M795 120q222 0 346 164t124 456q-1 294 -125 457t-344 163t-345 -164q-124 -164 -124 -454t123 -456t345 -166zM794 -37q-316 -1 -502 213q-188 214 -188 566t188 564t504 211q314 0 503 -211q189 -210 189 -566t-189 -566t-505 -211zM917 1604l240 321h191l-320 -321
h-111zM565 1604l241 321h191l-321 -321h-111z" />
    <glyph glyph-name="odblacute" unicode="&#x151;" horiz-adv-x="1258" 
d="M625 123q313 -1 313 419t-308 420t-309 -420q0 -420 304 -419zM628 -25q-239 1 -378 155t-139 414q-1 260 139 414q140 152 379 152t379 -152t139 -416q0 -263 -140 -415t-379 -152zM750 1283l240 321h191l-320 -321h-111zM398 1283l241 321h191l-321 -321h-111z" />
    <glyph glyph-name="OE" unicode="&#x152;" horiz-adv-x="2048" 
d="M796 120q333 0 333 449v342q0 234 -80.5 341.5t-255.5 107.5q-219 0 -342.5 -164t-123.5 -456t124 -456t345 -164zM782 -37q-304 0 -491 214.5t-187 564.5t188 562.5t501 212.5q181 0 336 -94v57h827v-157h-617v-475h517v-155l-517 6v-542h660v-157h-870v58
q-156 -95 -347 -95z" />
    <glyph glyph-name="oe" unicode="&#x153;" horiz-adv-x="1901" 
d="M1546 648q0 315 -216 315t-240 -315h456zM619 123q263 -1 263 419t-258 420q-143 0 -223 -110.5t-80 -307.5t79.5 -309t218.5 -112zM1406 -25q-281 0 -427 199q-131 -199 -361 -199t-368.5 155.5t-138.5 413.5t138.5 412t364.5 154t360 -200q122 200 365 200
q417 0 417 -598h-673q28 -389 365 -389q140 0 308 71v-157q-193 -62 -350 -62z" />
    <glyph glyph-name="Racute" unicode="&#x154;" horiz-adv-x="1295" 
d="M399 783h68q396 0 396 311q0 229 -332 229h-132v-540zM191 0v1480h448q213 0 327 -94t113 -273q0 -296 -299 -420l494 -693h-258l-421 626h-196v-626h-208zM473 1604l241 321h228l-321 -321h-148z" />
    <glyph glyph-name="racute" unicode="&#x155;" horiz-adv-x="838" 
d="M197 0v1086h197v-204q117 228 340 228q30 0 63 -5v-184q-51 17 -90 17q-187 0 -313 -222v-716h-197zM328 1283l241 321h228l-321 -321h-148z" />
    <glyph glyph-name="Rcommabelow" unicode="&#x156;" horiz-adv-x="1295" 
d="M399 783h68q396 0 396 311q0 229 -332 229h-132v-540zM191 0v1480h448q213 0 327 -94t113 -273q0 -296 -299 -420l494 -693h-258l-421 626h-196v-626h-208zM647 -404v16h-76v198h197v-172q0 -262 -197 -282v59q76 22 76 181z" />
    <glyph glyph-name="rcommabelow" unicode="&#x157;" horiz-adv-x="838" 
d="M197 0v1086h197v-204q117 228 340 228q30 0 63 -5v-184q-51 17 -90 17q-187 0 -313 -222v-716h-197zM444 -403v16h-76v198h197v-172q0 -262 -197 -282v59q76 22 76 181z" />
    <glyph glyph-name="Rcaron" unicode="&#x158;" horiz-adv-x="1295" 
d="M399 783h68q396 0 396 311q0 229 -332 229h-132v-540zM191 0v1480h448q213 0 327 -94t113 -273q0 -296 -299 -420l494 -693h-258l-421 626h-196v-626h-208zM949 1925l-241 -321h-218l-241 321h148l201 -202h2l201 202h148z" />
    <glyph glyph-name="rcaron" unicode="&#x159;" horiz-adv-x="838" 
d="M197 0v1086h197v-204q117 228 340 228q30 0 63 -5v-184q-51 17 -90 17q-187 0 -313 -222v-716h-197zM858 1604l-241 -321h-218l-241 321h148l201 -202h2l201 202h148z" />
    <glyph glyph-name="Sacute" unicode="&#x15a;" horiz-adv-x="1103" 
d="M481 -37q-149 0 -381 65v208q250 -116 392 -116t218 65t76 161t-50 158q-50 61 -182 136l-102 59q-188 107 -266 203t-78 223q0 171 124 281t306 111q182 0 371 -57v-192q-234 92 -346 92t-183 -58t-71 -139t52 -138t190 -136l106 -60q192 -109 268 -206t76 -233
q-1 -193 -143 -310t-377 -117zM427 1604l241 321h228l-321 -321h-148z" />
    <glyph glyph-name="sacute" unicode="&#x15b;" horiz-adv-x="1044" 
d="M506 -25q-156 0 -349 63v181q193 -96 336 -96q85 0 141 46t56 115q0 101 -157 167l-115 49q-255 106 -255 305q1 141 101 223t275 82q91 0 225 -25l41 -8v-164q-165 49 -262 49q-190 0 -190 -138q0 -89 144 -150l95 -40q161 -68 228 -144t67 -188q0 -143 -113 -235
q-112 -92 -268 -92zM353 1283l241 321h228l-321 -321h-148z" />
    <glyph glyph-name="Scircumflex" unicode="&#x15c;" horiz-adv-x="1103" 
d="M481 -37q-149 0 -381 65v208q250 -116 392 -116t218 65t76 161t-50 158q-50 61 -182 136l-102 59q-188 107 -266 203t-78 223q0 171 124 281t306 111q182 0 371 -57v-192q-234 92 -346 92t-183 -58t-71 -139t52 -138t190 -136l106 -60q192 -109 268 -206t76 -233
q-1 -193 -143 -310t-377 -117zM210 1604l241 321h218l241 -321h-148l-201 202h-2l-201 -202h-148z" />
    <glyph glyph-name="scircumflex" unicode="&#x15d;" horiz-adv-x="1044" 
d="M506 -25q-156 0 -349 63v181q193 -96 336 -96q85 0 141 46t56 115q0 101 -157 167l-115 49q-255 106 -255 305q1 141 101 223t275 82q91 0 225 -25l41 -8v-164q-165 49 -262 49q-190 0 -190 -138q0 -89 144 -150l95 -40q161 -68 228 -144t67 -188q0 -143 -113 -235
q-112 -92 -268 -92zM179 1283l241 321h218l241 -321h-148l-201 202h-2l-201 -202h-148z" />
    <glyph glyph-name="Scedilla" unicode="&#x15e;" horiz-adv-x="1103" 
d="M595 -271q0 96 -187 96l75 138h-2q-149 0 -381 65v208q250 -116 392 -116t218 65t76 161t-50 158q-50 61 -182 136l-102 59q-188 107 -266 203t-78 223q0 171 124 281t306 111q182 0 371 -57v-192q-234 92 -346 92t-183 -58t-71 -139t52 -138t190 -136l106 -60
q192 -109 268 -206t76 -233q-1 -193 -143 -310q-110 -90 -275 -111l-43 -78q78 1 136 -47t58 -114t-58 -114t-137 -48q-78 0 -152 21v81q46 -15 105 -15q103 0 103 74z" />
    <glyph glyph-name="scedilla" unicode="&#x15f;" horiz-adv-x="1044" 
d="M584 -271q0 96 -187 96l81 150q-133 1 -321 63v181q193 -96 336 -96q85 0 141 46t56 115q0 101 -157 167l-115 49q-255 106 -255 305q1 141 101 223t275 82q91 0 225 -25l41 -8v-164q-165 49 -262 49q-190 0 -190 -138q0 -89 144 -150l95 -40q161 -68 228 -144t67 -188
q0 -143 -113 -235q-81 -66 -195 -85l-50 -91q78 1 136 -47t58 -114q-1 -66 -59 -114t-136 -48t-152 21v81q46 -15 105 -15q103 0 103 74z" />
    <glyph glyph-name="Scaron" unicode="&#x160;" horiz-adv-x="1103" 
d="M481 -37q-149 0 -381 65v208q250 -116 392 -116t218 65t76 161t-50 158q-50 61 -182 136l-102 59q-188 107 -266 203t-78 223q0 171 124 281t306 111q182 0 371 -57v-192q-234 92 -346 92t-183 -58t-71 -139t52 -138t190 -136l106 -60q192 -109 268 -206t76 -233
q-1 -193 -143 -310t-377 -117zM928 1925l-241 -321h-218l-241 321h148l201 -202h2l201 202h148z" />
    <glyph glyph-name="scaron" unicode="&#x161;" horiz-adv-x="1044" 
d="M506 -25q-156 0 -349 63v181q193 -96 336 -96q85 0 141 46t56 115q0 101 -157 167l-115 49q-255 106 -255 305q1 141 101 223t275 82q91 0 225 -25l41 -8v-164q-165 49 -262 49q-190 0 -190 -138q0 -89 144 -150l95 -40q161 -68 228 -144t67 -188q0 -143 -113 -235
q-112 -92 -268 -92zM874 1604l-241 -321h-218l-241 321h148l201 -202h2l201 202h148z" />
    <glyph glyph-name="Tcedilla" unicode="&#x162;" horiz-adv-x="1295" 
d="M713 -271q0 96 -187 96l95 175h-78v1323h-525v157h1260v-157h-525v-1323h-35l-60 -109q78 1 136 -47t58 -114t-58 -114t-137 -48q-78 0 -152 21v81q46 -15 105 -15q103 0 103 74z" />
    <glyph glyph-name="tcedilla" unicode="&#x163;" horiz-adv-x="766" 
d="M564 -271q0 96 -187 96l84 154q-106 15 -181 91q-75 77 -75 230v638h-136v148h136v197l197 19v-216h284v-148h-284v-602q0 -213 184 -213q39 0 95 13v-136q-69 -19 -125 -24l-47 -85q78 1 136 -47t58 -114q-1 -66 -59 -114t-136 -48t-152 21v81q46 -15 105 -15
q103 0 103 74z" />
    <glyph glyph-name="Tcaron" unicode="&#x164;" horiz-adv-x="1295" 
d="M543 0v1323h-525v157h1260v-157h-525v-1323h-210zM998 1925l-241 -321h-218l-241 321h148l201 -202h2l201 202h148z" />
    <glyph glyph-name="tapostrophe" unicode="&#x165;" horiz-adv-x="773" 
d="M523 -25q-150 0 -234 86t-84 239v638h-136v148h136v197l197 19v-216h284v-148h-284v-602q0 -213 184 -213q39 0 95 13v-136q-91 -25 -158 -25zM651 1498v16h-76v198h197v-171q0 -265 -197 -283v59q76 20 76 181z" />
    <glyph glyph-name="Tbar" unicode="&#x166;" horiz-adv-x="1295" 
d="M753 0h-210v715h-303v148h303v460h-525v157h1260v-157h-525v-460h303v-148h-303v-715z" />
    <glyph glyph-name="tbar" unicode="&#x167;" horiz-adv-x="766" 
d="M402 336q0 -213 184 -213q39 0 95 13v-136q-91 -25 -158 -25q-150 0 -234 86t-84 239v268h-136v123h136v247h-136v148h136v197l197 19v-216h284v-148h-284v-247h284v-123h-284v-232z" />
    <glyph glyph-name="Utilde" unicode="&#x168;" horiz-adv-x="1419" 
d="M179 1480h210v-934q1 -222 83 -324t260 -102t252 96t73 323v941h184v-938q-1 -303 -125 -441t-398 -138t-407 143q-132 143 -132 442v932zM562 1838q73 0 135 -38l60 -37q56 -35 86 -35q69 0 77 110h123q-12 -234 -185 -234q-73 0 -135 39l-60 37q-56 34 -86 34
q-69 0 -77 -110h-123q10 234 185 234z" />
    <glyph glyph-name="utilde" unicode="&#x169;" horiz-adv-x="1271" 
d="M876 0v204q-157 -229 -381 -229q-142 -1 -226 89t-84 242v780h197v-716q0 -122 36 -174t118 -51q180 0 340 237v704h197v-1086h-197zM481 1517q73 0 135 -38l60 -37q56 -35 86 -35q69 0 77 110h123q-12 -234 -185 -234q-73 0 -135 39l-60 37q-56 34 -86 34
q-69 0 -77 -110h-123q10 234 185 234z" />
    <glyph glyph-name="Umacron" unicode="&#x16a;" horiz-adv-x="1419" 
d="M179 1480h210v-934q1 -222 83 -324t260 -102t252 96t73 323v941h184v-938q-1 -303 -125 -441t-398 -138t-407 143q-132 143 -132 442v932zM402 1604v148h642v-148h-642z" />
    <glyph glyph-name="umacron" unicode="&#x16b;" horiz-adv-x="1271" 
d="M876 0v204q-157 -229 -381 -229q-142 -1 -226 89t-84 242v780h197v-716q0 -122 36 -174t118 -51q180 0 340 237v704h197v-1086h-197zM308 1283v148h642v-148h-642z" />
    <glyph glyph-name="Ubreve" unicode="&#x16c;" horiz-adv-x="1419" 
d="M179 1480h210v-934q1 -222 83 -324t260 -102t252 96t73 323v941h184v-938q-1 -303 -125 -441t-398 -138t-407 143q-132 143 -132 442v932zM723 1604q-137 0 -227 88t-106 233h123q32 -173 210 -173t210 173h123q-15 -145 -106 -233t-227 -88z" />
    <glyph glyph-name="ubreve" unicode="&#x16d;" horiz-adv-x="1271" 
d="M876 0v204q-157 -229 -381 -229q-142 -1 -226 89t-84 242v780h197v-716q0 -122 36 -174t118 -51q180 0 340 237v704h197v-1086h-197zM629 1283q-137 -1 -227 87t-106 234h123q32 -173 210 -173t210 173h123q-15 -146 -106 -234t-227 -87z" />
    <glyph glyph-name="Uring" unicode="&#x16e;" horiz-adv-x="1419" 
d="M179 1480h210v-934q1 -222 83 -324t260 -102t252 96t73 323v941h184v-938q-1 -303 -125 -441t-398 -138t-407 143q-132 143 -132 442v932zM710 1665q58 0 100 41t41 100q1 59 -41 100t-100 41t-100 -41q-41 -42 -41 -100t41 -100q42 -42 100 -41zM709 1579q-95 1 -161 67
t-65 160q0 94 66 160q67 66 161 67q94 0 160 -66q66 -65 67 -161q-1 -96 -67 -162t-161 -65z" />
    <glyph glyph-name="uring" unicode="&#x16f;" horiz-adv-x="1271" 
d="M876 0v204q-157 -229 -381 -229q-142 -1 -226 89t-84 242v780h197v-716q0 -122 36 -174t118 -51q180 0 340 237v704h197v-1086h-197zM628 1369q58 0 100 41t42 100t-42 100t-100 41t-99 -41q-41 -42 -41 -100t41 -100t99 -41zM628 1283q-94 1 -160 67t-66 160t66 160
t160 67q94 0 162 -66q66 -65 66 -161t-66 -162t-162 -65z" />
    <glyph glyph-name="Udblacute" unicode="&#x170;" horiz-adv-x="1419" 
d="M179 1480h210v-934q1 -222 83 -324t260 -102t252 96t73 323v941h184v-938q-1 -303 -125 -441t-398 -138t-407 143q-132 143 -132 442v932zM844 1604l240 321h191l-320 -321h-111zM492 1604l241 321h191l-321 -321h-111z" />
    <glyph glyph-name="udblacute" unicode="&#x171;" horiz-adv-x="1271" 
d="M876 0v204q-157 -229 -381 -229q-142 -1 -226 89t-84 242v780h197v-716q0 -122 36 -174t118 -51q180 0 340 237v704h197v-1086h-197zM734 1283l240 321h191l-320 -321h-111zM382 1283l241 321h191l-321 -321h-111z" />
    <glyph glyph-name="Uogonek" unicode="&#x172;" horiz-adv-x="1419" 
d="M671 -211q0 100 101 175q-26 -1 -52 -1q-277 0 -409 143t-132 442v932h210v-934q1 -222 83 -324t260 -102t252 96t73 323v941h184v-938q-1 -303 -125 -441q-76 -84 -205 -117q-104 -70 -104 -164q0 -95 115 -95q56 0 91 15v-81q-60 -29 -138 -29q-204 0 -204 159z" />
    <glyph glyph-name="uogonek" unicode="&#x173;" horiz-adv-x="1271" 
d="M853 -180q0 -95 115 -95q56 0 91 15v-81q-60 -29 -138 -29q-204 0 -204 159q0 125 158 211h1v204q-157 -229 -381 -229q-142 -1 -226 89t-84 242v780h197v-716q0 -122 36 -174t118 -51q180 0 340 237v704h197v-1086h-91q-129 -75 -129 -180z" />
    <glyph glyph-name="Wcircumflex" unicode="&#x174;" horiz-adv-x="1752" 
d="M383 0l-381 1480h202l303 -1169l279 1169h202l264 -1153l326 1153h171l-415 -1480h-209l-261 1141l-273 -1141h-208zM537 1604l241 321h218l241 -321h-148l-201 202h-2l-201 -202h-148z" />
    <glyph glyph-name="wcircumflex" unicode="&#x175;" horiz-adv-x="1578" 
d="M323 0l-311 1086h193l238 -841l257 841h197l225 -841l273 841h169l-354 -1086h-198l-230 841l-260 -841h-199zM448 1283l241 321h218l241 -321h-148l-201 202h-2l-201 -202h-148z" />
    <glyph glyph-name="Ycircumflex" unicode="&#x176;" horiz-adv-x="1276" 
d="M511 0v618l-494 862h240l384 -668l414 668h195l-529 -858v-622h-210zM306 1604l241 321h218l241 -321h-148l-201 202h-2l-201 -202h-148z" />
    <glyph glyph-name="ycircumflex" unicode="&#x177;" horiz-adv-x="1070" 
d="M260 -395l176 395l-420 1086h213l311 -818l332 818h186l-593 -1481h-205zM204 1283l241 321h218l241 -321h-148l-201 202h-2l-201 -202h-148z" />
    <glyph glyph-name="Ydieresis" unicode="&#x178;" horiz-adv-x="1276" 
d="M511 0v618l-494 862h240l384 -668l414 668h195l-529 -858v-622h-210zM745 1604v173h173v-173h-173zM350 1604v173h173v-173h-173z" />
    <glyph glyph-name="Zacute" unicode="&#x179;" horiz-adv-x="1238" 
d="M95 0v168l795 1155h-746v157h998v-157l-795 -1155h795v-168h-1047zM483 1604l241 321h228l-321 -321h-148z" />
    <glyph glyph-name="zacute" unicode="&#x17a;" horiz-adv-x="1174" 
d="M123 0v148l672 790h-641v148h884v-148l-672 -790h685v-148h-928zM414 1283l241 321h228l-321 -321h-148z" />
    <glyph glyph-name="Zdotabove" unicode="&#x17b;" horiz-adv-x="1238" 
d="M95 0v168l795 1155h-746v157h998v-157l-795 -1155h795v-168h-1047zM545 1604v197h197v-197h-197z" />
    <glyph glyph-name="zdotabove" unicode="&#x17c;" horiz-adv-x="1174" 
d="M123 0v148l672 790h-641v148h884v-148l-672 -790h685v-148h-928zM492 1283v197h197v-197h-197z" />
    <glyph glyph-name="Zcaron" unicode="&#x17d;" horiz-adv-x="1238" 
d="M95 0v168l795 1155h-746v157h998v-157l-795 -1155h795v-168h-1047zM1004 1925l-241 -321h-218l-241 321h148l201 -202h2l201 202h148z" />
    <glyph glyph-name="zcaron" unicode="&#x17e;" horiz-adv-x="1174" 
d="M123 0v148l672 790h-641v148h884v-148l-672 -790h685v-148h-928zM939 1604l-241 -321h-218l-241 321h148l201 -202h2l201 202h148z" />
    <glyph glyph-name="longs" unicode="&#x17f;" horiz-adv-x="665" 
d="M234 1216q0 388 354 388q99 0 225 -33v-156q-133 41 -221 41t-124 -46.5t-36 -172.5v-1237h-198v938h-154v148h154v130z" />
    <glyph glyph-name="bstroke" unicode="&#x180;" horiz-adv-x="1289" 
d="M684 123q137 0 211 113.5t74 319.5q0 382 -252 382q-165 0 -322 -179v-500q152 -136 289 -136zM758 1110q196 0 308.5 -143t112.5 -402t-127.5 -424.5t-327.5 -165.5t-329 148l-24 -135h-173v1270h-173v124h173v197h197v-197h321v-124h-321v-376q121 228 363 228z" />
    <glyph glyph-name="Bhook" unicode="&#x181;" horiz-adv-x="1431" 
d="M653 830h67q168 0 260.5 72t92.5 203q0 218 -338 218h-82v-493zM653 157h43q231 0 299 29q130 56 130 196t-118 227.5t-295 87.5h-59v-540zM445 0v1326h-17q-140 0 -194 -35.5t-54 -120.5t30 -152h-163q-22 79 -22 146q0 170 97.5 243t322.5 73h384q222 0 340.5 -84
t118.5 -242q0 -269 -304 -383q363 -111 363 -401q-1 -130 -71 -219t-156 -120t-239 -31h-436z" />
    <glyph glyph-name="Btopbar" unicode="&#x182;" horiz-adv-x="1191" 
d="M401 154h74q213 0 310 67.5t97 208.5t-89.5 201t-288.5 60h-103v-537zM191 0v1480h827v-157h-617v-478h113q289 0 408 -75q170 -108 170 -319q0 -247 -193 -368q-132 -83 -439 -83h-269z" />
    <glyph glyph-name="btopbar" unicode="&#x183;" horiz-adv-x="1289" 
d="M683 123q137 0 211 113.5t74 319.5q0 382 -252 382q-165 0 -322 -179v-500q152 -136 289 -136zM197 -12v1591h783v-148h-586v-549q121 228 363 228q196 0 308.5 -143t112.5 -402t-128 -424.5t-328 -165.5t-328 148l-24 -135h-173z" />
    <glyph glyph-name="Tonesix" unicode="&#x184;" horiz-adv-x="1394" 
d="M630 154h74q212 0 309.5 67.5t97.5 208.5t-89.5 201t-289.5 60h-102v-537zM420 0v1323h-395v157h605v-635h113q288 0 408 -75q169 -107 169 -320q0 -246 -193 -367q-131 -83 -438 -83h-269z" />
    <glyph glyph-name="tonesix" unicode="&#x185;" horiz-adv-x="1148" 
d="M518 148h79q255 0 255 181q0 93 -57 132t-195 39h-82v-352zM321 0v928h-296v158h493v-438h95q449 0 449 -316q0 -332 -478 -332h-263z" />
    <glyph glyph-name="Oopen" unicode="&#x186;" horiz-adv-x="1417" 
d="M592 1517q345 0 533 -202t188 -573t-191.5 -575t-539.5 -204q-200 0 -466 66v196q304 -105 469 -105q241 0 373 163t132 453t-141 453.5t-368 163.5t-467 -128v179q219 113 478 113z" />
    <glyph glyph-name="Chook" unicode="&#x187;" horiz-adv-x="1418" 
d="M825 -37q-345 0 -533 202.5t-188 572.5t191 574.5t533 204.5q160 0 319 -30v12q0 401 308 401q52 0 118 -21v-163q-69 30 -125 30q-147 0 -147 -174v-317q-304 105 -469 105q-241 0 -373 -163t-132 -453t141 -453.5t368 -163.5t467 129v-180q-219 -113 -478 -113z" />
    <glyph glyph-name="chook" unicode="&#x188;" horiz-adv-x="1100" 
d="M791 1221q0 383 301 383q49 0 119 -20v-149q-59 27 -134 27t-106.5 -50t-31.5 -196v-306q-167 49 -272 49q-151 0 -242.5 -113.5t-91.5 -299.5t93.5 -299t237.5 -113t287 69v-170q-191 -58 -330 -58q-220 0 -365 163t-145 420t143.5 404.5t402.5 147.5q62 0 134 -8v119z
" />
    <glyph glyph-name="Dafrican" unicode="&#x189;" horiz-adv-x="1553" 
d="M420 157h269q289 0 413 160q124 159 124 429t-127 419q-77 91 -184 124.5t-322 33.5h-173v-487h333v-148h-333v-531zM210 0v688h-173v148h173v644h492q221 0 356 -49t234 -166q157 -185 157 -509t-186 -540t-558 -216h-495z" />
    <glyph glyph-name="Dhook" unicode="&#x18a;" horiz-adv-x="1787" 
d="M655 157h269q288 0 412 160q124 159 125 429q0 270 -127 419q-77 91 -184 124.5t-322 33.5h-173v-1166zM445 0v1326h-17q-140 0 -194 -35.5t-54 -120.5t30 -152h-163q-22 79 -22 146q0 170 97.5 243t322.5 73h492q220 0 355.5 -49t234.5 -166q157 -186 157 -490
q0 -369 -195 -572t-549 -203h-495z" />
    <glyph glyph-name="Dtopbar" unicode="&#x18b;" horiz-adv-x="1191" 
d="M790 154v562h-103q-201 0 -289.5 -63t-88.5 -211t96 -218t310 -70h75zM1000 0h-269q-308 0 -439 85q-193 125 -193 379q0 217 169 328q119 78 408 78h114v456h-617v154h827v-1480z" />
    <glyph glyph-name="dtopbar" unicode="&#x18c;" horiz-adv-x="1289" 
d="M605 962q-136 0 -210 -113t-74 -320q0 -381 252 -381q164 0 321 179v500q-153 135 -289 135zM894 0v204q-120 -229 -362 -229q-196 0 -308.5 142.5t-112.5 402.5t127.5 425t327.5 165t328 -148v469h-586v148h784v-1579h-198z" />
    <glyph glyph-name="deltaturned" unicode="&#x18d;" horiz-adv-x="1209" 
d="M889 611q0 151 -82.5 251t-204.5 100t-201 -104t-79 -247t57 -234.5t192 -174.5l22 9q296 125 296 400zM567 -420q-69 0 -264 30v163q161 -44 296 -44q268 0 268 82q0 43 -95 89t-193 103l-97 55q-201 115 -286 236t-85 292q0 231 138.5 377.5t354.5 146.5t355.5 -142
t139.5 -359q0 -351 -370 -497l54 -30q51 -28 125 -67t114 -83t40 -109q0 -117 -127.5 -180t-367.5 -63z" />
    <glyph glyph-name="Ereversed" unicode="&#x18e;" horiz-adv-x="1110" 
d="M919 0h-870v157h661v536h-518v155h518v475h-617v157h826v-1480z" />
    <glyph glyph-name="Schwa" unicode="&#x18f;" horiz-adv-x="1388" 
d="M339 586v-18q0 -451 321 -451q152 0 259.5 127.5t137.5 341.5h-718zM571 1517q334 0 523.5 -207t189.5 -563t-174.5 -570t-458.5 -214q-537 0 -537 708l1 82h958q0 255 -141.5 423.5t-359.5 168.5t-447 -110v188q212 94 446 94z" />
    <glyph glyph-name="Eopen" unicode="&#x190;" horiz-adv-x="1079" 
d="M670 -37q-242 0 -382 120t-140 327q0 135 74 245t203 165q-234 141 -234 360q0 161 114.5 249.5t316.5 88.5t365 -59v-163q-161 67 -299 67t-210 -61.5t-72 -174.5t95.5 -182t270.5 -69h24v-154h-25q-182 0 -291.5 -86t-109.5 -222t88 -216.5t218 -80.5t336 77v-184
q-188 -47 -342 -47z" />
    <glyph glyph-name="Fhook" unicode="&#x191;" horiz-adv-x="1098" 
d="M54 -265q81 0 109 46t28 191v1508h827v-157h-617v-496h518v-155h-518v-692q0 -209 -73.5 -304.5t-233.5 -95.5q-104 0 -193 27v160q72 -32 153 -32z" />
    <glyph glyph-name="florin" unicode="&#x192;" horiz-adv-x="1295" 
d="M241 716v148h227l21 106q108 547 496 547q109 0 228 -29l-30 -156q-105 38 -206 38t-170 -77.5t-99 -232.5l-39 -196h296v-148h-325l-202 -1012h-201l201 1012h-197z" />
    <glyph glyph-name="Ghook" unicode="&#x193;" horiz-adv-x="1474" 
d="M1303 639v-599q-269 -77 -469 -77q-353 0 -541.5 201t-188.5 572t191 576t533 205q160 0 319 -30v12q0 401 308 401q52 0 118 -21v-163q-69 30 -125 30q-147 0 -147 -174v-317q-304 105 -469 105q-240 0 -372.5 -163t-132.5 -457t142 -457t398 -163q105 0 227 37v482h209
z" />
    <glyph glyph-name="Gammaafrican" unicode="&#x194;" horiz-adv-x="1346" 
d="M580 -173q0 -98 91 -98q99 0 99 105q0 78 -99 260q-91 -192 -91 -267zM955 -158q0 -112 -81.5 -186.5t-200.5 -74.5t-192 66.5t-73 171.5q0 146 171 439l-567 1222h218l457 -982l460 982h187l-553 -1191q174 -281 174 -447z" />
    <glyph glyph-name="hwair" unicode="&#x195;" horiz-adv-x="1863" 
d="M1751 791q0 -370 -154 -593t-410 -223q-131 0 -212 75q-51 47 -69 111t-18 197v358q0 121 -35.5 172.5t-117.5 51.5q-181 0 -341 -237v-703h-197v1579h197v-697q156 228 382 228q141 0 225 -89.5t84 -240.5v-407q0 -125 37 -178t123 -53q148 0 234.5 153t86.5 399
t-61 392h214q32 -128 32 -295z" />
    <glyph glyph-name="Iotaafrican" unicode="&#x196;" horiz-adv-x="802" 
d="M522 -37q-188 0 -268.5 115t-80.5 386v1016h210v-1000q0 -206 40 -275t159 -69q66 0 171 36v-165q-124 -44 -231 -44z" />
    <glyph glyph-name="Istroke" unicode="&#x197;" horiz-adv-x="802" 
d="M296 0v716h-247v148h247v616h209v-616h247v-148h-247v-716h-209z" />
    <glyph glyph-name="Khook" unicode="&#x198;" horiz-adv-x="1360" 
d="M191 0v1480h197v-728q131 236 318 479q122 157 208 212.5t198 55.5t181 -44v-168q-88 64 -165 64t-139.5 -45t-171.5 -192t-214 -327l698 -787h-266l-647 750v-750h-197z" />
    <glyph glyph-name="khook" unicode="&#x199;" horiz-adv-x="1197" 
d="M197 0v984q0 620 500 620q132 0 265 -42v-173q-134 67 -284 67t-217 -117t-67 -392v-388l460 527h212l-439 -507l530 -579h-252l-511 557v-557h-197z" />
    <glyph glyph-name="lbar" unicode="&#x19a;" horiz-adv-x="789" 
d="M296 740h-247v136h247v703h197v-703h247v-136h-247v-740h-197v740z" />
    <glyph glyph-name="lambdastroke" unicode="&#x19b;" horiz-adv-x="1217" 
d="M140 1406h-29v173h37q181 0 266 -53.5t157 -211.5l271 119l50 -114l-271 -118l327 -748q101 -229 235 -453h-222q-101 166 -185 358l-185 418l-356 -776h-190l454 985l-58 137l-272 -119l-50 113l273 119q-16 29 -24 43q-40 74 -88.5 101t-139.5 27z" />
    <glyph glyph-name="Mturned" unicode="&#x19c;" horiz-adv-x="2184" 
d="M1783 0v216q-180 -253 -446 -253t-342 272q-195 -272 -466 -272q-181 0 -275 129q-75 102 -75 364v1024h210v-1030q0 -166 42.5 -234t145.5 -68q214 0 404 284v1048h210v-1030q0 -165 45.5 -233.5t151.5 -68.5t211 77t184 207v1048h210v-1480h-210z" />
    <glyph glyph-name="Nhookleft" unicode="&#x19d;" horiz-adv-x="1513" 
d="M46 -271q74 0 109.5 49t35.5 168v1534h205l746 -1143v1143h180v-1480h-206l-745 1143v-1235q0 -155 -82.5 -241t-231.5 -86q-72 0 -146 20v155q61 -27 135 -27z" />
    <glyph glyph-name="nlegrightlong" unicode="&#x19e;" horiz-adv-x="1271" 
d="M197 0v1086h197v-204q156 228 382 228q141 0 225 -89.5t84 -240.5v-1175h-197v1111q0 121 -35.5 172.5t-117.5 51.5q-181 0 -341 -237v-703h-197z" />
    <glyph glyph-name="Ocenteredtilde" unicode="&#x19f;" horiz-adv-x="1592" 
d="M796 1360q-202 0 -324 -137t-141 -384h930q-19 247 -141 384t-324 137zM796 120q209 0 338.5 158t129.5 413h-936q33 -571 468 -571zM794 -37q-316 0 -503 213.5t-187 565.5t188.5 563.5t503.5 211.5t503.5 -210.5t188.5 -566.5t-189 -566.5t-505 -210.5z" />
    <glyph glyph-name="Ohorn" unicode="&#x1a0;" horiz-adv-x="1647" 
d="M795 120q222 0 346 163t124 457t-124.5 457t-344.5 163t-344.5 -164t-124.5 -454t123 -456t345 -166zM1488 737q0 -351 -189 -562.5t-503 -211.5t-503 211.5t-189 565.5t188.5 565.5t503.5 211.5q348 0 543 -259q81 17 114.5 67t33.5 155v99h148v-49q0 -294 -242 -361
q95 -194 95 -432z" />
    <glyph glyph-name="ohorn" unicode="&#x1a1;" horiz-adv-x="1382" 
d="M625 123q313 -1 313 419t-308 420t-309 -419q0 -199 80 -309.5t224 -110.5zM1147 545q0 -263 -138.5 -416.5t-378.5 -153.5t-379.5 153t-139.5 415t139.5 414.5t378.5 152.5q307 0 443 -246q82 15 115.5 65.5t33.5 156.5v98h148v-49q0 -304 -257 -364q35 -111 35 -226z
" />
    <glyph glyph-name="Oi" unicode="&#x1a2;" horiz-adv-x="2171" 
d="M796 117q224 0 349.5 163.5t125.5 457.5t-125.5 459.5t-347.5 165.5t-346.5 -164.5t-124.5 -457.5t122.5 -458.5t346.5 -165.5zM1631 1517q368 0 368 -435v-1477h-210v1434q0 171 -41.5 241.5t-151.5 70.5t-248 -100q145 -213 145 -514q0 -351 -190.5 -562.5
t-504.5 -211.5t-503.5 214.5t-189.5 566.5t189.5 562.5t506.5 210.5q266 0 446 -154q178 154 384 154z" />
    <glyph glyph-name="oi" unicode="&#x1a3;" horiz-adv-x="1827" 
d="M1444 -395v1004q0 215 -46 275t-135 60q-90 0 -190 -84q75 -146 75 -318q0 -258 -140.5 -412.5t-379.5 -154.5t-378 152.5t-139 414.5t139.5 415.5t365.5 153.5t369 -131l15 14q127 117 284 117q358 0 358 -439v-1067h-198zM625 123q313 0 313 427q0 193 -82.5 303
t-228.5 110t-226 -109.5t-80 -308.5t80.5 -310.5t223.5 -111.5z" />
    <glyph glyph-name="Phook" unicode="&#x1a4;" horiz-adv-x="1386" 
d="M653 747h85q187 0 289 86t102 231t-80 202t-267 57h-129v-576zM445 0v1326h-17q-140 0 -194 -35.5t-54 -120.5t30 -152h-163q-22 79 -22 146q0 170 97.5 243t322.5 73h403q268 0 385 -90t117 -312t-160 -356t-444 -134h-93v-588h-208z" />
    <glyph glyph-name="phook" unicode="&#x1a5;" horiz-adv-x="1289" 
d="M683 123q137 0 211 113.5t74 319.5q0 382 -252 382q-165 0 -322 -179v-500q152 -136 289 -136zM197 -395v1379q0 620 500 620q132 0 265 -42v-173q-134 67 -284 67t-217 -117t-67 -392v-65q121 228 363 228q196 0 308.5 -143t112.5 -402t-128 -424.5t-328 -165.5
t-328 148v-518h-197z" />
    <glyph glyph-name="yr" unicode="&#x1a6;" horiz-adv-x="1295" 
d="M399 586h68q396 0 396 311q0 229 -332 229h-132v-540zM191 0v1480h208v-197h240q213 0 326.5 -94.5t113.5 -272.5q0 -141 -78.5 -251.5t-220.5 -168.5l494 -693h-258l-421 625h-196v-428h-208z" />
    <glyph glyph-name="Tonetwo" unicode="&#x1a7;" horiz-adv-x="1103" 
d="M621 -37q-235 0 -377 117t-142 311q0 135 76 232t267 206l107 60q138 79 190 136t52 139t-71 139t-183 57t-346 -92v192q190 57 372 57t305.5 -110.5t123.5 -281.5q0 -127 -77.5 -222.5t-266.5 -203.5l-102 -59q-133 -75 -183 -136.5t-50 -157.5t76 -161t218 -65t393 116
v-208q-232 -65 -382 -65z" />
    <glyph glyph-name="tonetwo" unicode="&#x1a8;" horiz-adv-x="1043" 
d="M538 -25q-156 0 -268.5 92t-112.5 235q0 113 67 188.5t228 143.5l95 40q143 61 143 150q0 138 -190 138q-96 0 -261 -49v164l41 8q134 25 226 25q174 0 274 -81.5t100 -223.5q0 -199 -254 -305l-116 -49q-156 -66 -156 -167q0 -69 56 -115t141 -46q143 0 336 96v-181
q-193 -63 -349 -63z" />
    <glyph glyph-name="Esh" unicode="&#x1a9;" horiz-adv-x="1215" 
d="M62 0v188l574 574l-549 561v157h1042v-157h-767l523 -534l-601 -601h876v-188h-1098z" />
    <glyph glyph-name="eshreversedloop" unicode="&#x1aa;" horiz-adv-x="1080" 
d="M574 1181q0 275 -196 275q-82 0 -137.5 -54t-55.5 -136t58.5 -137.5t154.5 -55.5t176 80v28zM960 -420q-386 0 -386 519v894q-96 -68 -217 -68t-220.5 101.5t-99.5 242.5t101 238t251 97q382 0 382 -523v-982q0 -208 43.5 -289.5t143.5 -81.5t221 48v-162
q-113 -34 -219 -34z" />
    <glyph glyph-name="tpalatalhook" unicode="&#x1ab;" horiz-adv-x="766" 
d="M370 -271q96 0 129.5 49t33.5 168v29q-328 0 -328 325v638h-136v148h136v197l197 19v-216h284v-148h-284v-602q0 -213 184 -213q39 0 95 13v-228q0 -154 -85 -240.5t-236 -86.5q-73 0 -148 20v155q62 -27 158 -27z" />
    <glyph glyph-name="Thook" unicode="&#x1ac;" horiz-adv-x="1376" 
d="M1359 1480v-157h-525v-1323h-210v1323h-197q-139 0 -193.5 -35.5t-54.5 -121.5t30 -148h-162q-22 74 -22 147q0 169 97.5 242t321.5 73h915z" />
    <glyph glyph-name="thook" unicode="&#x1ad;" horiz-adv-x="766" 
d="M205 938h-136v148h136v190q0 155 84.5 241.5t236.5 86.5q73 0 148 -21v-154q-63 27 -134 27t-104.5 -49.5t-33.5 -167.5v-153h284v-148h-284v-602q0 -213 184 -213q39 0 95 13v-136q-91 -25 -158 -25q-150 0 -234 86t-84 239v638z" />
    <glyph glyph-name="Tretroflexhook" unicode="&#x1ae;" horiz-adv-x="1295" 
d="M18 1323v157h1260v-157h-525v-1351q0 -146 28 -191.5t109 -45.5t153 32v-160q-89 -27 -193 -27q-161 0 -234 95t-73 305v1343h-525z" />
    <glyph glyph-name="Uhorn" unicode="&#x1af;" horiz-adv-x="1549" 
d="M179 1480h210v-934q0 -223 82.5 -324.5t260.5 -101.5t251.5 95.5t73.5 323.5v941h184v-222q81 17 114.5 67t33.5 155v99h148v-49q0 -341 -296 -370v-618q0 -194 -37.5 -298t-149.5 -192t-334 -89q-277 0 -409 143t-132 442v932z" />
    <glyph glyph-name="uhorn" unicode="&#x1b0;" horiz-adv-x="1382" 
d="M185 1086h197v-716q0 -122 35.5 -173.5t118.5 -51.5q180 0 340 237v704h197v-222q81 16 114.5 66t33.5 156v98h148v-49q0 -340 -296 -370v-765h-197v204q-157 -229 -381 -229q-142 0 -226 89.5t-84 241.5v780z" />
    <glyph glyph-name="Upsilonafrican" unicode="&#x1b1;" horiz-adv-x="1604" 
d="M1542 1480v-154h-407q358 -270 358 -678q0 -300 -194 -492.5t-497 -192.5t-497 192.5t-194 493.5q0 408 358 677h-407v154h611v-154q-340 -229 -340 -663q0 -256 124.5 -401t344.5 -145t344.5 145.5t124.5 401.5q0 433 -339 662v154h610z" />
    <glyph glyph-name="Vhook" unicode="&#x1b2;" horiz-adv-x="1459" 
d="M173 1480h210v-897q0 -282 44.5 -374t181.5 -92q237 0 382.5 237.5t145.5 623.5q0 169 -66 274.5t-173 105.5q-55 0 -151 -46v159q105 34 186 34q379 0 379 -529q0 -452 -201 -732.5t-532 -280.5t-368.5 220.5t-37.5 436.5v860z" />
    <glyph glyph-name="Yhook" unicode="&#x1b3;" horiz-adv-x="1275" 
d="M721 0h-210v618l-494 862h240l383 -663q196 408 308 545t250 137q70 0 128 -37v-167q-65 47 -124 47t-103.5 -45.5t-164.5 -260.5t-213 -425v-611z" />
    <glyph glyph-name="yhook" unicode="&#x1b4;" horiz-adv-x="1376" 
d="M1285 1499q67 0 152 -24v-180q-85 36 -163 36t-132.5 -63.5t-128.5 -248.5l-565 -1414h-207l177 395l-417 1086h214l307 -813l350 859q82 197 177.5 282t235.5 85z" />
    <glyph glyph-name="Zstroke" unicode="&#x1b5;" horiz-adv-x="1239" 
d="M95 0v168l367 533h-232v136h325l335 486h-746v157h998v-157l-334 -486h248v-136h-342l-367 -533h795v-168h-1047z" />
    <glyph glyph-name="zstroke" unicode="&#x1b6;" horiz-adv-x="1175" 
d="M123 0v148l305 358h-225v123h330l262 309h-641v148h884v-148l-262 -309h225v-123h-330l-305 -358h685v-148h-928z" />
    <glyph glyph-name="Ezh" unicode="&#x1b7;" horiz-adv-x="1141" 
d="M442 117q162 0 252 78.5t90 214.5t-119.5 224t-311.5 88q-51 0 -124 -13v151l499 435h-623v185h858v-185l-488 -421q227 0 379 -130t152 -334t-149 -325.5t-408 -121.5q-178 0 -356 51v186q187 -83 349 -83z" />
    <glyph glyph-name="Ezhreversed" unicode="&#x1b8;" horiz-adv-x="1141" 
d="M691 -37q-257 0 -406 122.5t-149 325.5t152 333t379 130l-488 421v185h858v-185h-623l499 -435v-151q-73 13 -124 13q-192 0 -311.5 -88t-119.5 -224t90 -214.5t252 -78.5t349 83v-186q-178 -51 -358 -51z" />
    <glyph glyph-name="ezhreversed" unicode="&#x1b9;" horiz-adv-x="1049" 
d="M621 -419q-233 0 -377.5 122.5t-144.5 317.5t140 316.5t384 142.5l-487 458v148h814v-161h-586l481 -445v-137h-17q-242 0 -380.5 -88.5t-138.5 -230.5t85.5 -218.5t229.5 -76.5t345 69v-167q-204 -50 -348 -50z" />
    <glyph glyph-name="ezhtail" unicode="&#x1ba;" horiz-adv-x="1061" 
d="M950 1086v-148l-453 -333q49 5 70 5q168 0 272.5 -82.5t104.5 -203.5t-70.5 -186t-283.5 -152l-164 -66q-99 -42 -99 -105q0 -86 157 -86t355 81v-162q-166 -67 -342 -67t-278 63.5t-102 175.5q0 76 46 126t159 97l242 101q182 76 182 173q0 139 -290 139
q-129 0 -234 -22v151l476 353h-575v148h827z" />
    <glyph glyph-name="twostroke" unicode="&#x1bb;" horiz-adv-x="1295" 
d="M1051 173v-173h-881v173q82 193 341 432h-292v135h442q188 186 188 363q0 124 -74.5 195t-216.5 71t-351 -119v174q197 93 398 93t327 -111.5t126 -309.5t-172 -356h165v-135h-314q-21 -19 -35 -31q-255 -211 -294 -401h643z" />
    <glyph glyph-name="Tonefive" unicode="&#x1bc;" horiz-adv-x="1295" 
d="M536 111q140 0 223 86t83 237q0 333 -459 333q-52 0 -109 -7v720h749v-172h-576v-390q285 0 445 -131t160 -355t-145.5 -346.5t-403.5 -122.5q-112 0 -254 31v176q147 -59 287 -59z" />
    <glyph glyph-name="tonefive" unicode="&#x1bd;" horiz-adv-x="972" 
d="M356 123q250 0 250 198q0 226 -334 226q-41 0 -86 -7v546h602v-173h-454v-219q226 0 354 -100t128 -270t-117.5 -260.5t-325.5 -90.5q-90 0 -206 23v151q82 -24 189 -24z" />
    <glyph glyph-name="glottalinvertedstroke" unicode="&#x1be;" horiz-adv-x="938" 
d="M534 123q85 0 141 46t56 115q0 101 -157 167l-115 49q-150 62 -203 137.5t-53 226.5l1 74h-135v148h135v197l198 19v-216h284v-148h-284v-108q0 -98 136 -156l95 -40q161 -68 228 -143.5t67 -188.5q0 -143 -113 -235t-269 -92t-348 63v181q193 -96 336 -96z" />
    <glyph glyph-name="wynn" unicode="&#x1bf;" horiz-adv-x="1240" 
d="M937 740q-1 185 -183 185t-360 -199v-590l47 28q496 291 496 576zM197 -395v1481h197v-199q194 223 421 223q143 0 237.5 -94.5t94.5 -238.5q0 -215 -195.5 -422.5t-557.5 -377.5v-372h-197z" />
    <glyph glyph-name="clickdental" unicode="&#x1c0;" horiz-adv-x="531" 
d="M191 -395v1974h148v-1974h-148z" />
    <glyph glyph-name="clicklateral" unicode="&#x1c1;" horiz-adv-x="901" 
d="M561 -395v1974h148v-1974h-148zM191 -395v1974h148v-1974h-148z" />
    <glyph glyph-name="clickalveolar" unicode="&#x1c2;" horiz-adv-x="938" 
d="M395 -395v802h-296v124h296v271h-296v123h296v654h148v-654h296v-123h-296v-271h296v-124h-296v-802h-148z" />
    <glyph glyph-name="clickretroflex" unicode="&#x1c3;" horiz-adv-x="592" 
d="M197 1480h197v-296l-37 -765h-123l-37 765v296zM197 0v197h197v-197h-197z" />
    <glyph glyph-name="DZcaron" unicode="&#x1c4;" horiz-adv-x="2672" 
d="M2401 1925l-240 -321h-219l-240 321h148l201 -202l202 202h148zM1528 0v168l795 1155h-746v157h998v-157l-794 -1155h794v-168h-1047zM401 157h269q288 0 412 160q124 159 125 429q0 270 -127 419q-77 91 -184 124.5t-322 33.5h-173v-1166zM191 0v1480h492
q220 0 355.5 -49t234.5 -166q157 -186 157 -490q0 -369 -195 -572t-549 -203h-495z" />
    <glyph glyph-name="Dzcaron" unicode="&#x1c5;" horiz-adv-x="2633" 
d="M2393 1604l-241 -321h-218l-241 321h149l200 -202h2l201 202h148zM1582 0v148l673 790h-642v148h885v-148l-673 -790h685v-148h-928zM401 157h269q288 0 412 160q124 159 125 429q0 270 -127 419q-77 91 -184 124.5t-322 33.5h-173v-1166zM191 0v1480h492
q220 0 355.5 -49t234.5 -166q157 -186 157 -490q0 -369 -195 -572t-549 -203h-495z" />
    <glyph glyph-name="dzcaron" unicode="&#x1c6;" horiz-adv-x="2365" 
d="M2125 1604l-241 -321h-219l-240 321h148l201 -202h2l200 202h149zM1314 0v148l672 790h-641v148h884v-148l-672 -790h685v-148h-928zM605 962q-136 0 -210 -113t-74 -320q0 -381 252 -381q164 0 321 179v500q-153 135 -289 135zM894 0v204q-120 -229 -362 -229
q-196 0 -308.5 142.5t-112.5 402.5t127.5 425t327.5 165t328 -148v617h198v-1579h-198z" />
    <glyph glyph-name="LJ" unicode="&#x1c7;" horiz-adv-x="1756" 
d="M1162 -128q106 0 153.5 68.5t47.5 239.5v1300h210v-1293q0 -483 -457 -483q-70 0 -180 21v186q120 -39 226 -39zM191 0v1480h210v-1323h666v-157h-876z" />
    <glyph glyph-name="Lj" unicode="&#x1c8;" horiz-adv-x="1684" 
d="M1277 1283v197h197v-197h-197zM1132 -271q88 0 122.5 54t34.5 217v1086h197v-1086q0 -419 -353 -419q-106 0 -226 50v156q137 -58 225 -58zM191 0v1480h210v-1323h666v-157h-876z" />
    <glyph glyph-name="lj" unicode="&#x1c9;" horiz-adv-x="1135" 
d="M740 1283v197h197v-197h-197zM583 -271q88 0 122.5 54t34.5 217v1086h197v-1086q0 -419 -353 -419q-106 0 -227 50v156q138 -58 226 -58zM197 0v1579h197v-1579h-197z" />
    <glyph glyph-name="NJ" unicode="&#x1ca;" horiz-adv-x="2135" 
d="M1540 -128q106 0 154 68.5t48 239.5v1300h209v-1293q0 -483 -457 -483q-70 0 -180 21v186q120 -39 226 -39zM191 0v1480h206l745 -1143v1143h180v-1480h-205l-746 1143v-1143h-180z" />
    <glyph glyph-name="Nj" unicode="&#x1cb;" horiz-adv-x="2099" 
d="M1705 1283v197h197v-197h-197zM1548 -271q88 0 122.5 54t34.5 217v1086h197v-1086q0 -419 -353 -419q-106 0 -227 50v156q138 -58 226 -58zM191 0v1480h206l745 -1143v1143h180v-1480h-205l-746 1143v-1143h-180z" />
    <glyph glyph-name="nj" unicode="&#x1cc;" horiz-adv-x="1851" 
d="M1455 1283v197h198v-197h-198zM1299 -271q88 0 122 54t34 217v1086h198v-1086q0 -419 -354 -419q-105 0 -226 50v156q138 -58 226 -58zM197 0v1086h197v-204q156 228 382 228q141 0 225 -89.5t84 -240.5v-780h-197v716q0 121 -35.5 172.5t-117.5 51.5q-181 0 -341 -237
v-703h-197z" />
    <glyph glyph-name="Acaron" unicode="&#x1cd;" horiz-adv-x="1413" 
d="M1058 1925l-241 -321h-218l-241 321h148l202 -202l202 202h148zM436 566h505l-252 638zM17 0l587 1480h208l578 -1480h-227l-161 410h-627l-163 -410h-195z" />
    <glyph glyph-name="acaron" unicode="&#x1ce;" horiz-adv-x="1131" 
d="M924 1604l-240 -321h-219l-240 321h148l201 -202l202 202h148zM300 305q0 -71 50 -120t122 -49q123 0 256 109v281l-66 2q-162 0 -262 -61.5t-100 -161.5zM416 -25q-135 0 -224 84.5t-89 213.5q0 178 149.5 273.5t428.5 95.5h47v131q0 189 -194 189q-156 0 -337 -96v163
q199 81 377 81t264.5 -82t86.5 -255v-492q0 -169 104 -169q13 0 38 4l14 -109q-67 -32 -148 -32q-138 0 -176 163q-177 -163 -341 -163z" />
    <glyph glyph-name="Icaron" unicode="&#x1cf;" horiz-adv-x="590" 
d="M645 1925l-241 -321h-218l-241 321h148l202 -202l202 202h148zM190 0v1480h210v-1480h-210z" />
    <glyph glyph-name="icaron" unicode="&#x1d0;" horiz-adv-x="592" 
d="M646 1604l-241 -321h-219l-240 321h148l201 -202l203 202h148zM197 0v1086h197v-1086h-197z" />
    <glyph glyph-name="Ocaron" unicode="&#x1d1;" horiz-adv-x="1591" 
d="M1146 1925l-241 -321h-218l-241 321h148l202 -202l202 202h148zM795 120q222 0 346 163t124 457t-124.5 457t-344.5 163t-344.5 -164t-124.5 -454t123 -456t345 -166zM794 -37q-316 0 -503 213.5t-187 565.5t189 563.5t503 211.5t503 -210.5t189 -566.5t-189 -566.5
t-505 -210.5z" />
    <glyph glyph-name="ocaron" unicode="&#x1d2;" horiz-adv-x="1258" 
d="M979 1604l-241 -321h-218l-241 321h148l202 -202l202 202h148zM625 123q313 -1 313 419t-308 420t-309 -419q0 -199 80 -309.5t224 -110.5zM628 -25q-239 0 -378 154.5t-139 414.5t139.5 413t378.5 153t378.5 -152.5t139.5 -415.5t-140 -415t-379 -152z" />
    <glyph glyph-name="Ucaron" unicode="&#x1d3;" horiz-adv-x="1419" 
d="M1073 1925l-241 -321h-218l-241 321h148l202 -202l202 202h148zM179 1480h210v-934q0 -223 82.5 -324.5t260.5 -101.5t251.5 95.5t73.5 323.5v941h184v-938q0 -194 -37.5 -298t-149.5 -192t-334 -89q-277 0 -409 143t-132 442v932z" />
    <glyph glyph-name="ucaron" unicode="&#x1d4;" horiz-adv-x="1271" 
d="M979 1604l-241 -321h-218l-241 321h148l202 -202l202 202h148zM876 0v204q-157 -229 -381 -229q-142 0 -226 89.5t-84 241.5v780h197v-716q0 -122 35.5 -173.5t118.5 -51.5q180 0 340 237v704h197v-1086h-197z" />
    <glyph glyph-name="Udieresismacron" unicode="&#x1d5;" horiz-adv-x="1419" 
d="M402 1925v148h642v-148h-642zM834 1604v173h173v-173h-173zM439 1604v173h173v-173h-173zM179 1480h210v-934q0 -223 82.5 -324.5t260.5 -101.5t251.5 95.5t73.5 323.5v941h184v-938q0 -194 -37.5 -298t-149.5 -192t-334 -89q-277 0 -409 143t-132 442v932z" />
    <glyph glyph-name="udieresismacron" unicode="&#x1d6;" horiz-adv-x="1271" 
d="M308 1604v148h642v-148h-642zM740 1283v173h173v-173h-173zM345 1283v173h173v-173h-173zM876 0v204q-157 -229 -381 -229q-142 0 -226 89.5t-84 241.5v780h197v-716q0 -122 35.5 -173.5t118.5 -51.5q180 0 340 237v704h197v-1086h-197z" />
    <glyph glyph-name="Udieresisacute" unicode="&#x1d7;" horiz-adv-x="1419" 
d="M575 1925l240 321h229l-321 -321h-148zM834 1604v173h173v-173h-173zM439 1604v173h173v-173h-173zM179 1480h210v-934q0 -223 82.5 -324.5t260.5 -101.5t251.5 95.5t73.5 323.5v941h184v-938q0 -194 -37.5 -298t-149.5 -192t-334 -89q-277 0 -409 143t-132 442v932z" />
    <glyph glyph-name="udieresisacute" unicode="&#x1d8;" horiz-adv-x="1271" 
d="M481 1604l241 321h228l-321 -321h-148zM740 1283v173h173v-173h-173zM345 1283v173h173v-173h-173zM876 0v204q-157 -229 -381 -229q-142 0 -226 89.5t-84 241.5v780h197v-716q0 -122 35.5 -173.5t118.5 -51.5q180 0 340 237v704h197v-1086h-197z" />
    <glyph glyph-name="Udieresiscaron" unicode="&#x1d9;" horiz-adv-x="1419" 
d="M1073 2246l-241 -321h-218l-241 321h148l201 -202h2l201 202h148zM834 1604v173h173v-173h-173zM439 1604v173h173v-173h-173zM179 1480h210v-934q0 -223 82.5 -324.5t260.5 -101.5t251.5 95.5t73.5 323.5v941h184v-938q0 -194 -37.5 -298t-149.5 -192t-334 -89
q-277 0 -409 143t-132 442v932z" />
    <glyph glyph-name="udieresiscaron" unicode="&#x1da;" horiz-adv-x="1271" 
d="M979 1925l-241 -321h-218l-241 321h148l201 -202h2l201 202h148zM740 1283v173h173v-173h-173zM345 1283v173h173v-173h-173zM876 0v204q-157 -229 -381 -229q-142 0 -226 89.5t-84 241.5v780h197v-716q0 -122 35.5 -173.5t118.5 -51.5q180 0 340 237v704h197v-1086h-197
z" />
    <glyph glyph-name="Udieresisgrave" unicode="&#x1db;" horiz-adv-x="1419" 
d="M871 1925h-148l-321 321h229zM834 1604v173h173v-173h-173zM439 1604v173h173v-173h-173zM179 1480h210v-934q0 -223 82.5 -324.5t260.5 -101.5t251.5 95.5t73.5 323.5v941h184v-938q0 -194 -37.5 -298t-149.5 -192t-334 -89q-277 0 -409 143t-132 442v932z" />
    <glyph glyph-name="udieresisgrave" unicode="&#x1dc;" horiz-adv-x="1271" 
d="M777 1604h-148l-321 321h229zM740 1283v173h173v-173h-173zM345 1283v173h173v-173h-173zM876 0v204q-157 -229 -381 -229q-142 0 -226 89.5t-84 241.5v780h197v-716q0 -122 35.5 -173.5t118.5 -51.5q180 0 340 237v704h197v-1086h-197z" />
    <glyph glyph-name="eturned" unicode="&#x1dd;" horiz-adv-x="1141" 
d="M342 426q0 -303 226 -303t253 303h-479zM488 1110q241 0 392 -159t151 -409t-133 -408.5t-336 -158.5t-310 140t-107 398v61h685q-42 387 -379 387q-123 0 -301 -66v155q197 60 338 60z" />
    <glyph glyph-name="Adieresismacron" unicode="&#x1de;" horiz-adv-x="1413" 
d="M382 1925v148h642v-148h-642zM814 1604v173h173v-173h-173zM420 1604v173h172v-173h-172zM436 566h505l-252 638zM17 0l587 1480h208l578 -1480h-227l-161 410h-627l-163 -410h-195z" />
    <glyph glyph-name="adieresismacron" unicode="&#x1df;" horiz-adv-x="1131" 
d="M247 1604v148h641v-148h-641zM678 1283v173h173v-173h-173zM284 1283v173h172v-173h-172zM300 305q0 -71 50 -120t122 -49q123 0 256 109v281l-66 2q-162 0 -262 -61.5t-100 -161.5zM416 -25q-135 0 -224 84.5t-89 213.5q0 178 149.5 273.5t428.5 95.5h47v131
q0 189 -194 189q-156 0 -337 -96v163q199 81 377 81t264.5 -82t86.5 -255v-492q0 -169 104 -169q13 0 38 4l14 -109q-67 -32 -148 -32q-138 0 -176 163q-177 -163 -341 -163z" />
    <glyph glyph-name="Adotmacron" unicode="&#x1e0;" horiz-adv-x="1413" 
d="M605 1604v197h197v-197h-197zM382 1949v148h642v-148h-642zM436 566h505l-252 638zM17 0l587 1480h208l578 -1480h-227l-161 410h-627l-163 -410h-195z" />
    <glyph glyph-name="adotmacron" unicode="&#x1e1;" horiz-adv-x="1131" 
d="M469 1258v198h197v-198h-197zM247 1604v148h641v-148h-641zM300 305q0 -71 50 -120t122 -49q123 0 256 109v281l-66 2q-162 0 -262 -61.5t-100 -161.5zM416 -25q-135 0 -224 84.5t-89 213.5q0 178 149.5 273.5t428.5 95.5h47v131q0 189 -194 189q-156 0 -337 -96v163
q199 81 377 81t264.5 -82t86.5 -255v-492q0 -169 104 -169q13 0 38 4l14 -109q-67 -32 -148 -32q-138 0 -176 163q-177 -163 -341 -163z" />
    <glyph glyph-name="AEmacron" unicode="&#x1e2;" horiz-adv-x="1857" 
d="M934 1628v149h642v-149h-642zM934 569v671l-394 -671h394zM1762 1480v-157h-618v-475h518v-155h-518v-536h664v-157h-874v414h-483l-241 -414h-192l861 1480h883z" />
    <glyph glyph-name="aemacron" unicode="&#x1e3;" horiz-adv-x="1743" 
d="M542 1308v148h642v-148h-642zM1388 648q0 315 -216 315t-240 -315h456zM300 305q0 -71 50 -120t122 -49q123 0 256 109v281l-66 2q-162 0 -262 -61.5t-100 -161.5zM416 -25q-135 0 -224 84.5t-89 213.5q0 178 149.5 273.5t428.5 95.5h47v131q0 189 -194 189
q-156 0 -337 -96v163q199 81 383 81t297 -121q123 121 303 121q418 0 418 -598h-672q28 -389 365 -389q140 0 307 71v-157q-193 -62 -359 -62q-285 0 -430 218q-190 -218 -393 -218z" />
    <glyph glyph-name="Gstroke" unicode="&#x1e4;" horiz-adv-x="1636" 
d="M834 -37q-353 0 -541.5 200.5t-188.5 572.5t191 576.5t536 204.5q226 0 470 -67v-194q-306 104 -469 104q-240 0 -372.5 -163t-132.5 -457t142 -457t398 -163q105 0 227 37v219h-272v136h272v222h209v-222h247v-136h-247v-336q-269 -77 -469 -77z" />
    <glyph glyph-name="gstroke" unicode="&#x1e5;" horiz-adv-x="1277" 
d="M561 -271q208 0 281 123h-289v123h332q9 58 9 107v208q-109 -228 -358 -228q-190 0 -307.5 140t-117.5 370t133.5 384t325.5 154t324 -148v124h198v-790q0 -211 -15 -321h114v-123h-146q-97 -271 -480 -271q-190 0 -364 58l23 171q171 -81 337 -81zM622 962
q-142 0 -221.5 -106t-79.5 -280q0 -342 251 -342q171 0 322 179v414q-130 135 -272 135z" />
    <glyph glyph-name="Gcaron" unicode="&#x1e6;" horiz-adv-x="1480" 
d="M1179 1925l-241 -321h-219l-240 321h148l201 -202l202 202h149zM834 -37q-353 0 -541.5 200.5t-188.5 572.5t191 576.5t536 204.5q226 0 470 -67v-194q-306 104 -469 104q-240 0 -372.5 -163t-132.5 -457t142 -457t398 -163q105 0 227 37v482h209v-599q-269 -77 -469 -77
z" />
    <glyph glyph-name="gcaron" unicode="&#x1e7;" horiz-adv-x="1277" 
d="M952 1604l-240 -321h-219l-240 321h148l201 -202l202 202h148zM620 962q-144 0 -221.5 -109t-77.5 -299q0 -357 251 -357q171 0 322 179v451q-130 135 -274 135zM561 -271q333 0 333 353v171q-109 -228 -358 -228q-195 0 -310 142.5t-115 386.5t131 400t326 156t326 -148
v124h198v-790q0 -255 -50 -485t-477 -230q-190 0 -364 58l23 171q171 -81 337 -81z" />
    <glyph glyph-name="Kcaron" unicode="&#x1e8;" horiz-adv-x="1337" 
d="M997 1925l-241 -321h-219l-240 321h148l201 -202l202 202h149zM191 0v1480h197v-728l599 728h211l-580 -706l683 -774h-266l-647 750v-750h-197z" />
    <glyph glyph-name="kcaron" unicode="&#x1e9;" horiz-adv-x="1197" 
d="M1054 1925l-241 -321h-219l-240 321h148l201 -202l202 202h149zM197 0v1579h197v-1020l460 527h212l-439 -507l530 -579h-252l-511 557v-557h-197z" />
    <glyph glyph-name="Oogonek" unicode="&#x1ea;" horiz-adv-x="1591" 
d="M787 -37q-308 0 -495.5 213.5t-187.5 565.5t189 563.5t503 211.5t503 -210.5t189 -566.5t-189 -567q-148 -164 -378 -200q-88 -67 -88 -153q0 -95 114 -95q57 0 92 15v-81q-60 -29 -138 -29q-204 0 -204 159q0 99 99 174h-9zM795 120q222 0 346 163t124 457t-124.5 457
t-344.5 163t-344.5 -164t-124.5 -454t123 -456t345 -166z" />
    <glyph glyph-name="oogonek" unicode="&#x1eb;" horiz-adv-x="1258" 
d="M622 -25q-233 0 -372 154.5t-139 414.5t139.5 413t378.5 153t378.5 -152.5t139.5 -415.5t-140 -415q-98 -107 -248 -138q-109 -73 -109 -169t114 -95q56 0 91 15v-81q-60 -29 -138 -29q-204 0 -204 159q0 108 116 186h-7zM625 123q313 -1 313 419t-308 420t-309 -419
q0 -199 80 -309.5t224 -110.5z" />
    <glyph glyph-name="Oogonekmacron" unicode="&#x1ec;" horiz-adv-x="1591" 
d="M787 -37q-308 0 -495.5 213.5t-187.5 565.5t189 563.5t503 211.5t503 -210.5t189 -566.5t-189 -567q-148 -164 -378 -200q-88 -67 -88 -153q0 -95 114 -95q57 0 92 15v-81q-60 -29 -138 -29q-204 0 -204 159q0 99 99 174h-9zM475 1628v149h642v-149h-642zM795 120
q222 0 346 163t124 457t-124.5 457t-344.5 163t-344.5 -164t-124.5 -454t123 -456t345 -166z" />
    <glyph glyph-name="oogonekmacron" unicode="&#x1ed;" horiz-adv-x="1258" 
d="M622 -25q-233 0 -372 154.5t-139 414.5t139.5 413t378.5 153t378.5 -152.5t139.5 -415.5t-140 -415q-98 -107 -248 -138q-109 -73 -109 -169t114 -95q56 0 91 15v-81q-60 -29 -138 -29q-204 0 -204 159q0 108 116 186h-7zM308 1308v148h642v-148h-642zM625 123
q313 -1 313 419t-308 420t-309 -419q0 -199 80 -309.5t224 -110.5z" />
    <glyph glyph-name="Ezhcaron" unicode="&#x1ee;" horiz-adv-x="1141" 
d="M884 1925l-241 -321h-218l-241 321h148l202 -202l202 202h148zM442 117q162 0 252 78.5t90 214.5t-119.5 224t-311.5 88q-51 0 -124 -13v151l499 435h-623v185h858v-185l-488 -421q227 0 379 -130t152 -334t-149 -325.5t-408 -121.5q-178 0 -356 51v186q187 -83 349 -83z
" />
    <glyph glyph-name="ezhcaron" unicode="&#x1ef;" horiz-adv-x="1049" 
d="M856 1604l-241 -321h-219l-240 321h148l201 -202l202 202h149zM424 -271q144 0 230 76.5t86 218.5t-139 230.5t-382 88.5h-16v137l482 445h-586v161h814v-148l-487 -458q244 -21 384 -142.5t140 -316.5t-144.5 -317.5t-377.5 -122.5q-144 0 -348 50v167q200 -69 344 -69z
" />
    <glyph glyph-name="jcaron" unicode="&#x1f0;" horiz-adv-x="623" 
d="M677 1604l-241 -321h-218l-241 321h148l202 -202l202 202h148zM72 -271q88 0 122 54t34 217v1086h198v-1086q0 -419 -354 -419q-105 0 -226 50v156q138 -58 226 -58z" />
    <glyph glyph-name="DZ" unicode="&#x1f1;" horiz-adv-x="2672" 
d="M1528 0v168l795 1155h-746v157h998v-157l-794 -1155h794v-168h-1047zM401 157h269q288 0 412 160q124 159 125 429q0 270 -127 419q-77 91 -184 124.5t-322 33.5h-173v-1166zM191 0v1480h492q220 0 355.5 -49t234.5 -166q157 -186 157 -490q0 -369 -195 -572t-549 -203
h-495z" />
    <glyph glyph-name="Dz" unicode="&#x1f2;" horiz-adv-x="2633" 
d="M1582 0v148l673 790h-642v148h885v-148l-673 -790h685v-148h-928zM401 157h269q288 0 412 160q124 159 125 429q0 270 -127 419q-77 91 -184 124.5t-322 33.5h-173v-1166zM191 0v1480h492q220 0 355.5 -49t234.5 -166q157 -186 157 -490q0 -369 -195 -572t-549 -203h-495
z" />
    <glyph glyph-name="dz" unicode="&#x1f3;" horiz-adv-x="2365" 
d="M1314 0v148l672 790h-641v148h884v-148l-672 -790h685v-148h-928zM605 962q-136 0 -210 -113t-74 -320q0 -381 252 -381q164 0 321 179v500q-153 135 -289 135zM894 0v204q-120 -229 -362 -229q-196 0 -308.5 142.5t-112.5 402.5t127.5 425t327.5 165t328 -148v617h198
v-1579h-198z" />
    <glyph glyph-name="Gacute" unicode="&#x1f4;" horiz-adv-x="1480" 
d="M654 1604l241 321h228l-320 -321h-149zM834 -37q-353 0 -541.5 200.5t-188.5 572.5t191 576.5t536 204.5q226 0 470 -67v-194q-306 104 -469 104q-240 0 -372.5 -163t-132.5 -457t142 -457t398 -163q105 0 227 37v482h209v-599q-269 -77 -469 -77z" />
    <glyph glyph-name="gacute" unicode="&#x1f5;" horiz-adv-x="1277" 
d="M620 962q-144 0 -222 -109q-77 -109 -77 -299q0 -357 251 -357q171 0 322 179v451q-130 135 -274 135zM561 -271q333 0 333 353v171q-109 -228 -358 -228q-195 0 -310 142q-115 143 -115 387t131 400t326 156t326 -148v124h198v-790q0 -256 -26 -378q-73 -337 -501 -337
q-190 0 -364 58l23 171q171 -81 337 -81zM430 1283l241 321h228l-321 -321h-148z" />
    <glyph glyph-name="Hwair" unicode="&#x1f6;" horiz-adv-x="2104" 
d="M191 0v1480h210v-624h704v624h210v-1113q0 -125 36.5 -178t123.5 -53q149 0 233.5 149t84.5 396t-62 405h230q32 -128 32 -298q0 -383 -154.5 -604t-422.5 -221q-168 0 -239.5 88t-71.5 295v353h-704v-699h-210z" />
    <glyph glyph-name="Wynn" unicode="&#x1f7;" horiz-adv-x="1133" 
d="M875 1132q0 91 -43.5 145.5t-117.5 54.5q-130 0 -315 -235v-528q476 257 476 563zM191 0v1480h208v-222q158 260 368 260q153 0 241.5 -94t88.5 -257q0 -429 -698 -757v-410h-208z" />
    <glyph glyph-name="uni01F8" unicode="&#x1f8;" horiz-adv-x="1513" 
d="M905 1604h-148l-321 321h228zM191 0v1480h206l745 -1143v1143h180v-1480h-205l-746 1143v-1143h-180z" />
    <glyph glyph-name="uni01F9" unicode="&#x1f9;" horiz-adv-x="1271" 
d="M842 1283h-148l-321 321h229zM197 0v1086h197v-204q156 228 382 228q141 0 225 -89.5t84 -240.5v-780h-197v716q0 121 -35.5 172.5t-117.5 51.5q-181 0 -341 -237v-703h-197z" />
    <glyph glyph-name="Aringacute" unicode="&#x1fa;" horiz-adv-x="1413" 
d="M563 1996l241 321h228l-324 -321h-145zM708 1567q58 0 99.5 41t41.5 100t-41.5 99.5t-99.5 40.5t-99 -41t-41 -99t41 -99.5t99 -41.5zM708 1481q-94 0 -160.5 66.5t-66.5 160.5t66.5 160.5t160.5 66.5t160.5 -66.5t66.5 -161.5t-66.5 -160.5t-160.5 -65.5zM436 566h505
l-252 638zM17 0l587 1480h208l578 -1480h-227l-161 410h-627l-163 -410h-195z" />
    <glyph glyph-name="aringacute" unicode="&#x1fb;" horiz-adv-x="1131" 
d="M417 1762l241 321h228l-321 -321h-148zM568 1295q58 0 99 41t41 100t-41 100t-99 41t-99.5 -41.5t-41.5 -99.5t41.5 -99.5t99.5 -41.5zM567 1209q-95 0 -160.5 66.5t-65.5 160.5t66.5 160.5t160.5 66.5t160.5 -65.5t66.5 -161.5t-66.5 -161.5t-161.5 -65.5zM300 305
q0 -71 50 -120t122 -49q123 0 256 109v281l-66 2q-162 0 -262 -61.5t-100 -161.5zM416 -25q-135 0 -224 84.5t-89 213.5q0 178 149.5 273.5t428.5 95.5h47v131q0 189 -194 189q-156 0 -337 -96v163q199 81 377 81t264.5 -82t86.5 -255v-492q0 -169 104 -169q13 0 38 4
l14 -109q-67 -32 -148 -32q-138 0 -176 163q-177 -163 -341 -163z" />
    <glyph glyph-name="AEacute" unicode="&#x1fc;" horiz-adv-x="1857" 
d="M947 1604l240 321h229l-321 -321h-148zM934 569v671l-394 -671h394zM1762 1480v-157h-618v-475h518v-155h-518v-536h664v-157h-874v414h-483l-241 -414h-192l861 1480h883z" />
    <glyph glyph-name="aeacute" unicode="&#x1fd;" horiz-adv-x="1743" 
d="M711 1283l241 321h228l-320 -321h-149zM1388 648q0 315 -216 315t-240 -315h456zM300 305q0 -71 50 -120t122 -49q123 0 256 109v281l-66 2q-162 0 -262 -61.5t-100 -161.5zM416 -25q-135 0 -224 84.5t-89 213.5q0 178 149.5 273.5t428.5 95.5h47v131q0 189 -194 189
q-156 0 -337 -96v163q199 81 383 81t297 -121q123 121 303 121q418 0 418 -598h-672q28 -389 365 -389q140 0 307 71v-157q-193 -62 -359 -62q-285 0 -430 218q-190 -218 -393 -218z" />
    <glyph glyph-name="Ostrokeacute" unicode="&#x1fe;" horiz-adv-x="1591" 
d="M648 1604l240 321h229l-321 -321h-148zM104 748q0 346 188.5 557.5t502.5 211.5q237 0 413 -126l97 126h172l-169 -220q180 -216 180 -563t-188.5 -559t-500.5 -212q-245 0 -415 126l-96 -126h-173l169 221q-180 218 -180 564zM798 120q219 0 343 164.5t124 454.5
q0 235 -83 393l-687 -898q119 -114 303 -114zM795 1360q-220 0 -344 -163.5t-124 -454.5q0 -233 83 -393l687 898q-119 113 -302 113z" />
    <glyph glyph-name="ostrokeacute" unicode="&#x1ff;" horiz-adv-x="1258" 
d="M481 1283l241 321h228l-321 -321h-148zM631 962q-147 0 -228.5 -110t-81.5 -280t43 -274l463 590q-81 74 -196 74zM642 123q132 0 214 109.5t82 305.5q0 136 -43 249l-463 -591q78 -73 210 -73zM111 547q0 257 139 410t379 153q178 0 304 -85l68 85h146l-129 -165l2 -4
q127 -159 127 -409t-139 -403.5t-378 -153.5q-174 0 -304 85l-67 -85h-148l130 166l-3 3q-127 146 -127 403z" />
    <glyph glyph-name="Adblgrave" unicode="&#x200;" horiz-adv-x="1413" 
d="M591 1604h-111l-320 321h191zM943 1604h-111l-321 321h191zM436 566h505l-252 638zM17 0l587 1480h208l578 -1480h-227l-161 410h-627l-163 -410h-195z" />
    <glyph glyph-name="adblgrave" unicode="&#x201;" horiz-adv-x="1131" 
d="M500 1283h-111l-320 321h191zM852 1283h-111l-321 321h191zM300 305q0 -71 50 -120t122 -49q123 0 256 109v281l-66 2q-162 0 -262 -61.5t-100 -161.5zM416 -25q-135 0 -224 84.5t-89 213.5q0 178 149.5 273.5t428.5 95.5h47v131q0 189 -194 189q-156 0 -337 -96v163
q199 81 377 81t264.5 -82t86.5 -255v-492q0 -169 104 -169q13 0 38 4l14 -109q-67 -32 -148 -32q-138 0 -176 163q-177 -163 -341 -163z" />
    <glyph glyph-name="Ainvertedbreve" unicode="&#x202;" horiz-adv-x="1413" 
d="M708 1777q-178 0 -210 -173h-123q15 146 106 233.5t227 87.5t226.5 -87.5t106.5 -233.5h-123q-32 173 -210 173zM436 566h505l-252 638zM17 0l587 1480h208l578 -1480h-227l-161 410h-627l-163 -410h-195z" />
    <glyph glyph-name="ainvertedbreve" unicode="&#x203;" horiz-adv-x="1131" 
d="M550 1456q-178 0 -210 -173h-123q15 146 106 233.5t227 87.5t226.5 -87.5t106.5 -233.5h-124q-31 173 -209 173zM300 305q0 -71 50 -120t122 -49q123 0 256 109v281l-66 2q-162 0 -262 -61.5t-100 -161.5zM416 -25q-135 0 -224 84.5t-89 213.5q0 178 149.5 273.5
t428.5 95.5h47v131q0 189 -194 189q-156 0 -337 -96v163q199 81 377 81t264.5 -82t86.5 -255v-492q0 -169 104 -169q13 0 38 4l14 -109q-67 -32 -148 -32q-138 0 -176 163q-177 -163 -341 -163z" />
    <glyph glyph-name="Edblgrave" unicode="&#x204;" horiz-adv-x="1110" 
d="M561 1604h-111l-321 321h192zM913 1604h-111l-321 321h191zM191 0v1480h827v-157h-617v-475h517v-155h-517v-536h660v-157h-870z" />
    <glyph glyph-name="edblgrave" unicode="&#x205;" horiz-adv-x="1141" 
d="M544 1283h-111l-321 321h191zM895 1283h-111l-320 321h191zM800 660q0 303 -226 303t-253 -303h479zM654 -25q-240 0 -391.5 159.5t-151.5 409.5t133.5 408.5t335.5 158.5t310 -140t108 -398l-1 -61h-685q43 -387 379 -387q123 0 302 66v-156q-198 -60 -339 -60z" />
    <glyph glyph-name="Einvertedbreve" unicode="&#x206;" horiz-adv-x="1110" 
d="M610 1777q-178 0 -209 -173h-124q16 146 106.5 233.5t226.5 87.5t227 -87.5t107 -233.5h-124q-32 173 -210 173zM191 0v1480h827v-157h-617v-475h517v-155h-517v-536h660v-157h-870z" />
    <glyph glyph-name="einvertedbreve" unicode="&#x207;" horiz-adv-x="1141" 
d="M569 1456q-178 0 -209 -173h-124q15 146 106 233.5t227 87.5t227 -87.5t106 -233.5h-123q-32 173 -210 173zM800 660q0 303 -226 303t-253 -303h479zM654 -25q-240 0 -391.5 159.5t-151.5 409.5t133.5 408.5t335.5 158.5t310 -140t108 -398l-1 -61h-685q43 -387 379 -387
q123 0 302 66v-156q-198 -60 -339 -60z" />
    <glyph glyph-name="Idblgrave" unicode="&#x208;" horiz-adv-x="590" 
d="M276 1604h-111l-321 321h192zM628 1604h-111l-321 321h191zM190 0v1480h210v-1480h-210z" />
    <glyph glyph-name="idblgrave" unicode="&#x209;" horiz-adv-x="592" 
d="M284 1283h-111l-321 321h192zM636 1283h-111l-321 321h191zM198 0v1086h197v-1086h-197z" />
    <glyph glyph-name="Iinvertedbreve" unicode="&#x20a;" horiz-adv-x="590" 
d="M295 1777q-178 0 -210 -173h-123q15 146 106 233.5t227 87.5t226.5 -87.5t106.5 -233.5h-123q-32 173 -210 173zM190 0v1480h210v-1480h-210z" />
    <glyph glyph-name="iinvertedbreve" unicode="&#x20b;" horiz-adv-x="592" 
d="M296 1456q-178 0 -210 -173h-123q15 146 106 233.5t227 87.5t226.5 -87.5t106.5 -233.5h-124q-31 173 -209 173zM197 0v1086h197v-1086h-197z" />
    <glyph glyph-name="Odblgrave" unicode="&#x20c;" horiz-adv-x="1591" 
d="M733 1604h-111l-321 321h192zM1085 1604h-111l-321 321h191zM795 120q222 0 346 163t124 457t-124.5 457t-344.5 163t-344.5 -164t-124.5 -454t123 -456t345 -166zM794 -37q-316 0 -503 213.5t-187 565.5t189 563.5t503 211.5t503 -210.5t189 -566.5t-189 -566.5
t-505 -210.5z" />
    <glyph glyph-name="odblgrave" unicode="&#x20d;" horiz-adv-x="1258" 
d="M543 1283h-111l-321 321h191zM894 1283h-111l-320 321h191zM625 123q313 -1 313 419t-308 420t-309 -419q0 -199 80 -309.5t224 -110.5zM628 -25q-239 0 -378 154.5t-139 414.5t139.5 413t378.5 153t378.5 -152.5t139.5 -415.5t-140 -415t-379 -152z" />
    <glyph glyph-name="Oinvertedbreve" unicode="&#x20e;" horiz-adv-x="1591" 
d="M796 1777q-178 0 -210 -173h-123q15 146 106 233.5t227 87.5t226.5 -87.5t106.5 -233.5h-123q-32 173 -210 173zM795 120q222 0 346 163t124 457t-124.5 457t-344.5 163t-344.5 -164t-124.5 -454t123 -456t345 -166zM794 -37q-316 0 -503 213.5t-187 565.5t189 563.5
t503 211.5t503 -210.5t189 -566.5t-189 -566.5t-505 -210.5z" />
    <glyph glyph-name="oinvertedbreve" unicode="&#x20f;" horiz-adv-x="1258" 
d="M629 1456q-178 0 -210 -173h-123q15 146 106 233.5t227 87.5t227 -87.5t106 -233.5h-123q-32 173 -210 173zM625 123q313 -1 313 419t-308 420t-309 -419q0 -199 80 -309.5t224 -110.5zM628 -25q-239 0 -378 154.5t-139 414.5t139.5 413t378.5 153t378.5 -152.5
t139.5 -415.5t-140 -415t-379 -152z" />
    <glyph glyph-name="Rdblgrave" unicode="&#x210;" horiz-adv-x="1295" 
d="M561 1604h-111l-321 321h192zM913 1604h-111l-321 321h191zM399 783h68q396 0 396 311q0 229 -332 229h-132v-540zM191 0v1480h448q213 0 326.5 -94t113.5 -273q0 -141 -78.5 -251t-220.5 -169l494 -693h-258l-421 626h-196v-626h-208z" />
    <glyph glyph-name="rdblgrave" unicode="&#x211;" horiz-adv-x="838" 
d="M431 1283h-111l-320 321h191zM783 1283h-111l-321 321h191zM197 0v1086h197v-204q117 228 340 228q30 0 63 -5v-184q-51 17 -90 17q-187 0 -313 -222v-716h-197z" />
    <glyph glyph-name="Rinvertedbreve" unicode="&#x212;" horiz-adv-x="1295" 
d="M586 1777q-178 0 -210 -173h-123q15 146 106 233.5t227 87.5t226.5 -87.5t106.5 -233.5h-124q-31 173 -209 173zM399 783h68q396 0 396 311q0 229 -332 229h-132v-540zM191 0v1480h448q213 0 326.5 -94t113.5 -273q0 -141 -78.5 -251t-220.5 -169l494 -693h-258l-421 626
h-196v-626h-208z" />
    <glyph glyph-name="rinvertedbreve" unicode="&#x213;" horiz-adv-x="838" 
d="M480 1456q-178 0 -209 -173h-123q15 146 106 233.5t227 87.5t226.5 -87.5t106.5 -233.5h-124q-32 173 -210 173zM197 0v1086h197v-204q117 228 340 228q30 0 63 -5v-184q-51 17 -90 17q-187 0 -313 -222v-716h-197z" />
    <glyph glyph-name="Udblgrave" unicode="&#x214;" horiz-adv-x="1419" 
d="M673 1604h-111l-321 321h191zM1024 1604h-111l-321 321h192zM179 1480h210v-934q0 -223 82.5 -324.5t260.5 -101.5t251.5 95.5t73.5 323.5v941h184v-938q0 -194 -37.5 -298t-149.5 -192t-334 -89q-277 0 -409 143t-132 442v932z" />
    <glyph glyph-name="udblgrave" unicode="&#x215;" horiz-adv-x="1271" 
d="M568 1283h-111l-321 321h191zM919 1283h-111l-321 321h192zM876 0v204q-157 -229 -381 -229q-142 0 -226 89.5t-84 241.5v780h197v-716q0 -122 35.5 -173.5t118.5 -51.5q180 0 340 237v704h197v-1086h-197z" />
    <glyph glyph-name="Uinvertedbreve" unicode="&#x216;" horiz-adv-x="1419" 
d="M723 1777q-178 0 -210 -173h-123q15 146 106 233.5t227 87.5t226.5 -87.5t106.5 -233.5h-123q-32 173 -210 173zM179 1480h210v-934q0 -223 82.5 -324.5t260.5 -101.5t251.5 95.5t73.5 323.5v941h184v-938q0 -194 -37.5 -298t-149.5 -192t-334 -89q-277 0 -409 143
t-132 442v932z" />
    <glyph glyph-name="uinvertedbreve" unicode="&#x217;" horiz-adv-x="1271" 
d="M629 1456q-178 0 -210 -173h-123q15 146 106 233.5t227 87.5t227 -87.5t106 -233.5h-123q-32 173 -210 173zM876 0v204q-157 -229 -381 -229q-142 0 -226 89.5t-84 241.5v780h197v-716q0 -122 35.5 -173.5t118.5 -51.5q180 0 340 237v704h197v-1086h-197z" />
    <glyph glyph-name="Scommabelow" unicode="&#x218;" horiz-adv-x="1103" 
d="M481 -37q-149 0 -381 65v208q250 -116 392 -116t218 65t76 161t-50 158q-50 61 -182 136l-102 59q-188 107 -266 203t-78 223q0 171 124 281t306 111q182 0 371 -57v-192q-234 92 -346 92t-183 -58t-71 -139t52 -138t190 -136l106 -60q192 -109 268 -206t76 -233
q-1 -193 -143 -310t-377 -117zM501 -475v16h-76v198h197v-172q0 -262 -197 -282v59q76 22 76 181z" />
    <glyph glyph-name="scommabelow" unicode="&#x219;" horiz-adv-x="1044" 
d="M506 -25q-156 0 -349 63v181q193 -96 336 -96q85 0 141 46t56 115q0 101 -157 167l-115 49q-255 106 -255 305q1 141 101 223t275 82q91 0 225 -25l41 -8v-164q-165 49 -262 49q-190 0 -190 -138q0 -89 144 -150l95 -40q161 -68 228 -144t67 -188q0 -143 -113 -235
q-112 -92 -268 -92zM472 -457v16h-76v198h197v-172q0 -262 -197 -282v59q76 22 76 181z" />
    <glyph glyph-name="Tcommabelow" unicode="&#x21a;" horiz-adv-x="1295" 
d="M543 0v1323h-525v157h1260v-157h-525v-1323h-210zM625 -440v16h-76v198h197v-172q0 -262 -197 -282v59q76 22 76 181z" />
    <glyph glyph-name="tcommabelow" unicode="&#x21b;" horiz-adv-x="766" 
d="M523 -25q-150 0 -234 86t-84 239v638h-136v148h136v197l197 19v-216h284v-148h-284v-602q0 -213 184 -213q39 0 95 13v-136q-91 -25 -158 -25zM431 -457v16h-76v198h197v-172q0 -262 -197 -282v59q76 22 76 181z" />
    <glyph glyph-name="Yogh" unicode="&#x21c;" horiz-adv-x="1073" 
d="M297 761h-26v127l420 420h-617v172h839v-185l-394 -394q192 -20 299 -117t107 -252q0 -280 -459 -532h-232q288 189 378.5 287t90.5 222q0 252 -406 252z" />
    <glyph glyph-name="yogh" unicode="&#x21d;" horiz-adv-x="1025" 
d="M259 388v138l401 399h-586v161h803v-161l-400 -399q412 -50 412 -355t-408 -566h-233q250 169 341 280t91 247t-94.5 196t-309.5 60h-17z" />
    <glyph glyph-name="uni021E" unicode="&#x21e;" horiz-adv-x="1505" 
d="M1103 1925l-241 -321h-219l-240 321h148l201 -202h2l200 202h149zM191 0v1480h210v-624h704v624h210v-1480h-210v699h-704v-699h-210z" />
    <glyph glyph-name="uni021F" unicode="&#x21f;" horiz-adv-x="1271" 
d="M995 1925l-240 -321h-219l-240 321h148l200 -202h3l200 202h148zM197 0v1579h197v-697q156 228 382 228q141 0 225 -89.5t84 -240.5v-780h-197v716q0 121 -35.5 172.5t-117.5 51.5q-181 0 -341 -237v-703h-197z" />
    <glyph glyph-name="uni0220" unicode="&#x220;" horiz-adv-x="1500" 
d="M191 0v1480h210v-191q172 228 467 228q447 0 447 -469v-1443h-210v1399q0 189 -66 266.5t-226 77.5q-259 0 -412 -238v-1110h-210z" />
    <glyph glyph-name="dcurl" unicode="&#x221;" horiz-adv-x="1886" 
d="M1383 136q343 0 343 173q0 104 -103 104q-166 0 -300 -277h60zM605 962q-136 0 -210 -113t-74 -320q0 -381 252 -381q164 0 321 179v500q-153 135 -289 135zM532 -25q-196 0 -308.5 142.5t-112.5 402.5t127.5 425t327.5 165t328 -148v617h198v-1208q0 -209 80 -232
q109 222 213 316t227 94t192.5 -63.5t69.5 -166.5q0 -164 -136 -241.5t-424 -77.5h-48q-76 -159 -76 -296h-150q11 133 74 300q-176 36 -220 200q-120 -229 -362 -229z" />
    <glyph glyph-name="uni0222" unicode="&#x222;" horiz-adv-x="1579" 
d="M788 120q200 0 332 85t132 215t-131 214.5t-331 84.5t-331.5 -85.5t-131.5 -213.5t130.5 -214t330.5 -86zM1394 1480v-327q0 -149 -53 -226.5t-184 -118.5q311 -122 311 -386q0 -201 -190 -330t-488 -129t-488.5 129t-190.5 330q0 264 311 386q-131 41 -184 118.5
t-53 226.5v327h210v-330q0 -154 86.5 -214t308.5 -60t308 60t86 214v330h210z" />
    <glyph glyph-name="uni0223" unicode="&#x223;" horiz-adv-x="1258" 
d="M628 123q140 0 225 92t85 246t-84.5 246.5t-224.5 92.5t-224 -93t-84 -245t83.5 -245.5t223.5 -93.5zM185 1579h197v-359q0 -153 55 -212.5t193 -59.5t192 59.5t54 212.5v359h197v-362q0 -263 -178 -344q252 -141 252 -406q0 -221 -141.5 -356.5t-375.5 -135.5
t-376.5 135.5t-142.5 356.5q0 265 253 406q-179 81 -179 344v362z" />
    <glyph glyph-name="Zhook" unicode="&#x224;" horiz-adv-x="1239" 
d="M828 -278q86 0 123 53t37 193v32h-893v168l795 1155h-746v157h998v-157l-795 -1155h795v-205q0 -383 -302 -383q-78 0 -164 22v147q66 -27 152 -27z" />
    <glyph glyph-name="zhook" unicode="&#x225;" horiz-adv-x="1175" 
d="M123 0v148l672 790h-641v148h884v-148l-672 -790h685v-185q0 -383 -302 -383q-76 0 -158 20v149q65 -27 151 -27t123.5 53t37.5 193v32h-780z" />
    <glyph glyph-name="uni0226" unicode="&#x226;" horiz-adv-x="1413" 
d="M609 1604v197h198v-197h-198zM436 566h505l-252 638zM17 0l587 1480h208l578 -1480h-227l-161 410h-627l-163 -410h-195z" />
    <glyph glyph-name="uni0227" unicode="&#x227;" horiz-adv-x="1131" 
d="M463 1283v197h198v-197h-198zM300 305q0 -71 50 -120t122 -49q123 0 256 109v281l-66 2q-162 0 -262 -61.5t-100 -161.5zM416 -25q-135 0 -224 84.5t-89 213.5q0 178 149.5 273.5t428.5 95.5h47v131q0 189 -194 189q-156 0 -337 -96v163q199 81 377 81t264.5 -82
t86.5 -255v-492q0 -169 104 -169q13 0 38 4l14 -109q-67 -32 -148 -32q-138 0 -176 163q-177 -163 -341 -163z" />
    <glyph glyph-name="uni0228" unicode="&#x228;" horiz-adv-x="1110" 
d="M191 0v1480h827v-157h-617v-475h517v-155h-517v-536h660v-157h-380l-60 -109q78 0 136 -47.5t58 -113.5t-58.5 -114t-136.5 -48t-152 21v81q46 -15 106 -15q102 0 102 74q0 96 -187 96l95 175h-393z" />
    <glyph glyph-name="uni0229" unicode="&#x229;" horiz-adv-x="1141" 
d="M654 -25h-3l-46 -84q79 0 137 -47.5t58 -113.5t-58.5 -114t-136.5 -48t-152 21v81q46 -15 105 -15q103 0 103 74q0 96 -187 96l85 157q-176 26 -297 152q-151 160 -151 410t133.5 408.5t335.5 158.5t310 -140t108 -398l-1 -61h-685q43 -387 379 -387q123 0 302 66v-156
q-198 -60 -339 -60zM800 660q0 303 -226 303t-253 -303h479z" />
    <glyph glyph-name="uni022A" unicode="&#x22a;" horiz-adv-x="1591" 
d="M475 1925v148h642v-148h-642zM907 1604v173h173v-173h-173zM512 1604v173h173v-173h-173zM795 120q222 0 346 163t124 457t-124 457t-345 163t-345 -164t-124 -454t123 -456t345 -166zM794 -37q-316 0 -503 213.5t-187 565.5t189 563.5t503 211.5t503 -210.5t189 -566.5
t-189 -566.5t-505 -210.5z" />
    <glyph glyph-name="uni022B" unicode="&#x22b;" horiz-adv-x="1258" 
d="M308 1604v148h642v-148h-642zM740 1283v173h173v-173h-173zM345 1283v173h173v-173h-173zM625 123q313 -1 313 419t-308 420t-309 -419q0 -199 80 -309.5t224 -110.5zM628 -25q-239 0 -378 154.5t-139 414.5t139.5 413t378.5 153t378.5 -152.5t139.5 -415.5t-140 -415
t-379 -152z" />
    <glyph glyph-name="uni022C" unicode="&#x22c;" horiz-adv-x="1591" 
d="M475 1986v149h642v-149h-642zM648 1838q73 0 135 -38l60 -37q56 -35 86 -35q68 0 77 110h123q-11 -234 -185 -234q-73 0 -135 38l-60 37q-56 35 -86 35q-68 0 -77 -110h-123q11 234 185 234zM795 120q222 0 346 163t124 457t-124 457t-345 163t-345 -164t-124 -454
t123 -456t345 -166zM794 -37q-316 0 -503 213.5t-187 565.5t189 563.5t503 211.5t503 -210.5t189 -566.5t-189 -566.5t-505 -210.5z" />
    <glyph glyph-name="uni022D" unicode="&#x22d;" horiz-adv-x="1258" 
d="M308 1666v148h642v-148h-642zM481 1517q73 0 135 -38l60 -37q56 -35 86 -35q69 0 77 110h123q-11 -234 -185 -234q-73 0 -135 39l-60 37q-56 34 -86 34q-68 0 -77 -110h-123q11 234 185 234zM625 123q313 -1 313 419t-308 420t-309 -419q0 -199 80 -309.5t224 -110.5z
M628 -25q-239 0 -378 154.5t-139 414.5t139.5 413t378.5 153t378.5 -152.5t139.5 -415.5t-140 -415t-379 -152z" />
    <glyph glyph-name="uni022E" unicode="&#x22e;" horiz-adv-x="1591" 
d="M697 1604v197h198v-197h-198zM795 120q222 0 346 163t124 457t-124.5 457t-344.5 163t-344.5 -164t-124.5 -454t123 -456t345 -166zM794 -37q-316 0 -503 213.5t-187 565.5t189 563.5t503 211.5t503 -210.5t189 -566.5t-189 -566.5t-505 -210.5z" />
    <glyph glyph-name="uni022F" unicode="&#x22f;" horiz-adv-x="1258" 
d="M531 1283v197h197v-197h-197zM625 123q313 -1 313 419t-308 420t-309 -419q0 -199 80 -309.5t224 -110.5zM628 -25q-239 0 -378 154.5t-139 414.5t139.5 413t378.5 153t378.5 -152.5t139.5 -415.5t-140 -415t-379 -152z" />
    <glyph glyph-name="uni0230" unicode="&#x230;" horiz-adv-x="1591" 
d="M475 1949v149h642v-149h-642zM697 1604v197h198v-197h-198zM795 120q222 0 346 163t124 457t-124.5 457t-344.5 163t-344.5 -164t-124.5 -454t123 -456t345 -166zM794 -37q-316 0 -503 213.5t-187 565.5t189 563.5t503 211.5t503 -210.5t189 -566.5t-189 -566.5
t-505 -210.5z" />
    <glyph glyph-name="uni0231" unicode="&#x231;" horiz-adv-x="1258" 
d="M308 1628v149h642v-149h-642zM531 1283v197h197v-197h-197zM625 123q313 -1 313 419t-308 420t-309 -419q0 -199 80 -309.5t224 -110.5zM628 -25q-239 0 -378 154.5t-139 414.5t139.5 413t378.5 153t378.5 -152.5t139.5 -415.5t-140 -415t-379 -152z" />
    <glyph glyph-name="uni0232" unicode="&#x232;" horiz-adv-x="1276" 
d="M335 1628v149h642v-149h-642zM511 0v618l-494 862h240l384 -668l414 668h195l-529 -858v-622h-210z" />
    <glyph glyph-name="uni0233" unicode="&#x233;" horiz-adv-x="1070" 
d="M230 1308v148h641v-148h-641zM260 -395l176 395l-420 1086h213l311 -818l332 818h186l-593 -1481h-205z" />
    <glyph glyph-name="lcurl" unicode="&#x234;" horiz-adv-x="1164" 
d="M661 136q343 0 343 173q0 104 -103 104q-167 0 -300 -277h60zM197 1579h197v-1208q0 -126 11.5 -173t44.5 -58q110 222 213.5 315.5t226.5 93.5t192.5 -63.5t69.5 -166.5q0 -164 -136 -241.5t-424 -77.5h-48q-76 -160 -76 -296h-150q11 135 75 301q-116 30 -156 105
t-40 261v1208z" />
    <glyph glyph-name="ncurl" unicode="&#x235;" horiz-adv-x="1855" 
d="M1352 136q343 0 343 173q0 104 -104 104q-166 0 -300 -277h61zM197 0v1086h197v-204q156 228 382 228q141 0 225 -89.5t84 -240.5v-409q0 -126 11.5 -172.5t44.5 -58.5q110 221 212.5 315t226.5 94t193.5 -63.5t69.5 -166.5q0 -164 -136 -241.5t-424 -77.5h-48
q-76 -160 -76 -296h-150q11 134 74 301q-115 29 -155 104.5t-40 261.5v345q0 121 -35.5 172.5t-117.5 51.5q-181 0 -341 -237v-703h-197z" />
    <glyph glyph-name="tcurl" unicode="&#x236;" horiz-adv-x="1172" 
d="M668 136q344 0 344 173q0 104 -104 104q-166 0 -300 -277h60zM205 938h-136v148h136v197l197 19v-216h284v-148h-284v-567q0 -126 11 -172.5t45 -58.5q110 222 213 315.5t226 93.5t193 -63.5t70 -166.5q0 -164 -136 -241.5t-425 -77.5h-47q-76 -160 -76 -296h-150
q11 133 74 301q-115 29 -155 104.5t-40 261.5v567z" />
    <glyph glyph-name="dotlessj" unicode="&#x237;" horiz-adv-x="623" 
d="M72 -271q88 0 122 54t34 217v1086h198v-1086q0 -419 -354 -419q-105 0 -226 50v156q138 -58 226 -58z" />
    <glyph glyph-name="aturned" unicode="&#x250;" horiz-adv-x="1131" 
d="M830 780q0 72 -49.5 121t-122.5 49q-122 0 -256 -110v-281l67 -1q161 0 261 61.5t100 160.5zM715 1110q135 0 223.5 -84.5t88.5 -212.5q0 -179 -149.5 -274.5t-428.5 -95.5l-47 1v-132q0 -189 195 -189q155 0 336 97v-163q-199 -82 -377 -82t-264.5 82.5t-86.5 255.5v492
q0 168 -104 168q-13 0 -38 -3l-14 109q68 31 148 31q138 0 176 -162q178 162 342 162z" />
    <glyph glyph-name="ascript" unicode="&#x251;" horiz-adv-x="1289" 
d="M604 962q-283 0 -283 -433q0 -381 252 -381q164 0 321 179v500q-153 135 -290 135zM894 0v204q-120 -229 -362 -229q-196 0 -308.5 142.5t-112.5 402.5t127.5 425t327.5 165t328 -148v124h198v-1086h-198z" />
    <glyph glyph-name="ascriptturned" unicode="&#x252;" horiz-adv-x="1289" 
d="M685 123q283 0 283 433q0 382 -252 382q-164 0 -322 -179v-500q153 -136 291 -136zM394 1086v-204q121 228 363 228q196 0 308.5 -143t112.5 -402t-128 -424.5t-328 -165.5t-328 148v-123h-197v1086h197z" />
    <glyph glyph-name="bhook" unicode="&#x253;" horiz-adv-x="1289" 
d="M684 123q284 0 284 433q0 382 -253 382q-164 0 -321 -179v-500q152 -136 290 -136zM197 -12v996q0 620 500 620q132 0 265 -42v-173q-134 67 -284 67t-217 -117t-67 -392v-65q121 228 363 228q196 0 308.5 -143t112.5 -402t-128 -424.5t-328 -165.5t-328 148l-24 -135
h-173z" />
    <glyph glyph-name="oopen" unicode="&#x254;" horiz-adv-x="1037" 
d="M416 1110q220 0 365 -163t145 -419t-143.5 -404.5t-400.5 -148.5q-128 0 -285 36v165q168 -50 272 -50q152 0 243.5 114t91.5 300t-94 299t-238 113t-286 -69v170q191 57 330 57z" />
    <glyph glyph-name="ccurl" unicode="&#x255;" horiz-adv-x="1141" 
d="M368 -197h-148q0 175 79 316q-188 176 -188 439t151 407.5t422 144.5q137 0 254 -32v-165q-136 49 -285 49t-240.5 -106t-91.5 -280t85 -297q195 233 414 233q111 0 185 -66.5t74 -166.5q0 -130 -111.5 -217t-261.5 -87t-284 63q-54 -85 -54 -235zM698 123q94 0 164 46
t70 109q0 87 -109 87q-160 0 -315 -185q96 -57 190 -57z" />
    <glyph glyph-name="dtail" unicode="&#x256;" horiz-adv-x="1308" 
d="M532 -25q-196 0 -308.5 142.5t-112.5 402.5t127.5 425t327.5 165t328 -148v617h198v-1634q0 -217 146 -217q63 0 125 27v-154q-74 -21 -147 -21q-152 0 -237 87t-85 241v296q-120 -229 -362 -229zM604 962q-283 0 -283 -433q0 -381 252 -381q164 0 321 179v500
q-153 135 -290 135z" />
    <glyph glyph-name="dhook" unicode="&#x257;" horiz-adv-x="1308" 
d="M894 1276q0 155 85 241.5t237 86.5q73 0 147 -21v-154q-62 27 -125 27q-146 0 -146 -217v-1239h-198v204q-120 -229 -362 -229q-196 0 -308.5 142.5t-112.5 402.5t127.5 425t327.5 165t328 -148v314zM604 962q-283 0 -283 -433q0 -381 252 -381q164 0 321 179v500
q-153 135 -290 135z" />
    <glyph glyph-name="ereversed" unicode="&#x258;" horiz-adv-x="1141" 
d="M568 963q-226 0 -226 -303h479q-27 303 -253 303zM453 125q335 0 377 387h-685v64q0 255 107.5 395t309.5 140t335.5 -158.5t133.5 -408.5t-151 -409.5t-392 -159.5q-141 0 -338 60v156q178 -66 303 -66z" />
    <glyph glyph-name="schwa" unicode="&#x259;" horiz-adv-x="1141" 
d="M342 426q0 -303 226 -303t253 303h-479zM488 1110q241 0 392 -159t151 -409t-133 -408.5t-336 -158.5t-310 140t-107 398v61h685q-42 387 -379 387q-123 0 -301 -66v155q197 60 338 60z" />
    <glyph glyph-name="schwahook" unicode="&#x25a;" horiz-adv-x="1597" 
d="M563 123q260 0 260 405l-487 -132l5 -45q26 -228 222 -228zM475 1110q198 0 323 -91.5t197 -287.5l373 97v-219q0 -126 24 -171t79 -45t113 33v-154q-89 -27 -136 -27q-228 0 -228 315v76l-197 -53l1 -50q0 -244 -131.5 -401t-330.5 -157t-309.5 139.5t-110.5 383.5
l666 180q-78 285 -364 285q-121 0 -302 -68v156q213 59 333 59z" />
    <glyph glyph-name="eopen" unicode="&#x25b;" horiz-adv-x="950" 
d="M534 -25q-168 0 -289.5 92t-121.5 237q0 205 247 300q-210 72 -210 243q0 263 390 263q154 0 276 -35v-148q-126 35 -247 35q-228 0 -228 -130q0 -175 362 -175h39v-154h-140q-125 0 -202 -55.5t-77 -139.5t70 -134.5t188 -50.5t272 70v-159q-161 -59 -329 -59z" />
    <glyph glyph-name="eopenreversed" unicode="&#x25c;" horiz-adv-x="950" 
d="M358 123q118 0 188.5 50.5t70.5 134.5t-77.5 139.5t-202.5 55.5h-140v154h40q361 0 361 175q0 130 -227 130q-122 0 -248 -35v148q122 35 276 35q390 0 390 -263q0 -171 -210 -243q247 -95 247 -300q0 -145 -121 -237t-289 -92t-330 59v159q154 -70 272 -70z" />
    <glyph glyph-name="eopenreversedhook" unicode="&#x25d;" horiz-adv-x="1326" 
d="M826 304q0 -145 -121 -237t-289 -92t-330 59v159q154 -70 272 -70t188.5 50.5t70.5 134.5t-77.5 139.5t-202.5 55.5h-140v154h40q361 0 361 175q0 130 -227 130q-122 0 -248 -35v148q122 35 276 35q213 0 328 -100l358 96v-220q0 -125 24 -170t79 -45t113 33v-154
q-90 -27 -137 -27q-227 0 -227 315v75l-149 -42q1 -19 1 -27q0 -168 -210 -240q247 -95 247 -300z" />
    <glyph glyph-name="eopenreversedclosed" unicode="&#x25e;" horiz-adv-x="1197" 
d="M505 493v149h102q300 0 300 166q0 68 -73 111t-186 43q-170 0 -267.5 -116t-97.5 -320q0 -403 357 -403q115 0 187.5 56t72.5 145q0 169 -289 169h-106zM1098 319q0 -154 -126 -249t-331 -95q-250 0 -390 145.5t-140 411.5t147 422t405 156q194 0 308 -74t114 -201
q0 -80 -53 -150t-140 -104q206 -86 206 -262z" />
    <glyph glyph-name="jdotlessstroke" unicode="&#x25f;" horiz-adv-x="833" 
d="M177 -271q88 0 122 54t34 217v197h-246v136h246v753h198v-753h247v-136h-247v-197q0 -419 -354 -419q-105 0 -226 50v156q138 -58 226 -58z" />
    <glyph glyph-name="ghook" unicode="&#x260;" horiz-adv-x="1308" 
d="M745 981q-195 0 -309.5 -131.5t-114.5 -355.5q0 -285 197 -285q203 0 376 345v394q-71 33 -149 33zM561 -271q333 0 333 353v264q-68 -136 -198 -228.5t-266 -92.5t-227.5 121t-91.5 319q0 283 170 464.5t437 181.5q86 0 176 -25v190q0 155 85 241.5t237 86.5
q73 0 147 -21v-154q-62 27 -125 27q-146 0 -146 -217v-943q0 -255 -50 -485t-477 -230q-190 0 -364 58l23 171q171 -81 337 -81z" />
    <glyph glyph-name="gscript" unicode="&#x261;" horiz-adv-x="1277" 
d="M745 981q-195 0 -309.5 -131.5t-114.5 -355.5q0 -285 197 -285q203 0 376 345v394q-71 33 -149 33zM430 25q-136 0 -227.5 121t-91.5 319q0 283 170 464.5t437 181.5q86 0 176 -25h198v-790q0 -255 -50 -485t-477 -230q-190 0 -364 58l23 171q171 -81 337 -81
q333 0 333 353v264q-68 -136 -198 -228.5t-266 -92.5z" />
    <glyph glyph-name="Gsmall" unicode="&#x262;" horiz-adv-x="1201" 
d="M684 -25q-277 0 -425 146.5t-148 418.5t150 421t420 149q176 0 368 -44v-155q-226 51 -348 51q-383 0 -383 -426q0 -202 97.5 -312.5t275.5 -110.5q66 0 162 15v354h198v-453q-214 -54 -367 -54z" />
    <glyph glyph-name="gammalatinsmall" unicode="&#x263;" horiz-adv-x="1100" 
d="M397 -150q0 -134 139 -134t139 135q0 97 -130 267q-148 -151 -148 -268zM1063 1022q0 -166 -347 -690l-46 -70q24 -40 30 -49l62 -92q82 -122 82 -241q0 -300 -311 -300q-132 0 -212 70.5t-80 185.5q0 160 227 418q-106 198 -184 368t-134 235.5t-150 84.5l92 156
q103 -13 169 -74.5t132 -206.5l121 -266q18 -38 73 -154q296 448 296 624q0 21 -6 65h182q4 -43 4 -64z" />
    <glyph glyph-name="ramshorn" unicode="&#x264;" horiz-adv-x="1205" 
d="M485 236q1 -125 119 -125t118 128q0 71 -127 275q-110 -184 -110 -278zM220 1111q98 0 169 -56t185 -226q13 -20 41 -60q161 212 240 277t161 65t139 -48v-175q-59 62 -127 62t-115.5 -39t-114.5 -127t-103 -135q124 -186 159.5 -261t35.5 -154q0 -120 -82 -189.5
t-224 -69.5q-270 0 -270 252q0 132 158 352l41 57q-35 54 -43 64l-89 116q-103 134 -193 134q-71 0 -139 -66v165q73 62 171 62z" />
    <glyph glyph-name="hturned" unicode="&#x265;" horiz-adv-x="1271" 
d="M1073 1086v-1481h-197v599q-156 -229 -381 -229q-142 0 -226 89.5t-84 241.5v780h197v-716q0 -122 35.5 -173.5t118.5 -51.5q181 0 340 237v704h197z" />
    <glyph glyph-name="hhook" unicode="&#x266;" horiz-adv-x="1271" 
d="M197 0v984q0 620 500 620q132 0 265 -42v-173q-134 67 -284 67t-217 -117t-67 -392v-65q156 228 382 228q141 0 225 -89.5t84 -240.5v-780h-197v716q0 121 -35.5 172.5t-117.5 51.5q-181 0 -341 -237v-703h-197z" />
    <glyph glyph-name="henghook" unicode="&#x267;" horiz-adv-x="1271" 
d="M197 0v984q0 620 500 620q132 0 265 -42v-173q-134 67 -284 67t-217 -117t-67 -392v-65q156 228 382 228q141 0 225 -89.5t84 -240.5v-872q0 -154 -84.5 -241t-236.5 -87q-73 0 -148 21v154q63 -27 125 -27q147 0 147 217v771q0 121 -35.5 172.5t-117.5 51.5
q-181 0 -341 -237v-703h-197z" />
    <glyph glyph-name="istroke" unicode="&#x268;" horiz-adv-x="789" 
d="M296 1283v197h197v-197h-197zM296 0v555h-247v136h247v395h197v-395h247v-136h-247v-555h-197z" />
    <glyph glyph-name="iotalatin" unicode="&#x269;" horiz-adv-x="759" 
d="M504 -25q-168 0 -240.5 94.5t-72.5 312.5v704h197v-685q0 -152 35 -215t115 -63t159 42v-148q-92 -42 -193 -42z" />
    <glyph glyph-name="Ismallipa" unicode="&#x26a;" horiz-adv-x="839" 
d="M123 0v148h197v790h-197v148h592v-148h-197v-790h197v-148h-592z" />
    <glyph glyph-name="lmiddletilde" unicode="&#x26b;" horiz-adv-x="1036" 
d="M617 1579v-696q67 -32 130 -32q103 0 103 160l1 25h148q0 -333 -252 -333q-62 0 -130 24v-727h-198v785q-68 29 -129 29q-105 0 -105 -185h-148q0 333 257 333q66 0 125 -19v636h198z" />
    <glyph glyph-name="lbelt" unicode="&#x26c;" horiz-adv-x="981" 
d="M336 991q-151 0 -151 -133q0 -152 278 -182v268q-45 47 -127 47zM463 0v528q-438 22 -438 328q0 124 80.5 203.5t206.5 79.5q69 0 151 -38v479h198v-898q133 24 296 98v-158q-156 -68 -296 -88v-534h-198z" />
    <glyph glyph-name="lhookretroflex" unicode="&#x26d;" horiz-adv-x="611" 
d="M197 1579h197v-1634q0 -217 147 -217q63 0 125 27v-154q-75 -21 -148 -21q-151 0 -236 87t-85 241v1671z" />
    <glyph glyph-name="lezh" unicode="&#x26e;" horiz-adv-x="1345" 
d="M197 0v1579h197v-493h821v-148l-436 -462q217 -11 345 -126.5t128 -307.5t-148 -326t-400 -135q-105 0 -260 32v163q170 -47 264 -47q150 0 242 82t92 217q0 316 -450 316v149l418 445h-616v-938h-197z" />
    <glyph glyph-name="mturned" unicode="&#x26f;" horiz-adv-x="1912" 
d="M1715 1086v-1086h-198v204q-143 -229 -365 -229t-301 229q-140 -229 -364 -229q-144 0 -223 84t-79 237v790h197v-759q0 -187 148 -187q153 0 321 218v728h198v-759q-1 -188 149 -188t319 219v728h198z" />
    <glyph glyph-name="mlonglegturned" unicode="&#x270;" horiz-adv-x="1912" 
d="M185 1086h197v-759q0 -187 148 -187q153 0 321 218v728h198v-759q-1 -188 149 -188t319 219v728h198v-1481h-198v599q-143 -229 -365 -229t-301 229q-140 -229 -364 -229q-144 0 -223 84t-79 237v790z" />
    <glyph glyph-name="mhook" unicode="&#x271;" horiz-adv-x="1912" 
d="M197 0v1086h197v-204q144 228 366 228t301 -228q140 229 364 229q144 0 223 -84.5t79 -236.5v-882q0 -154 -85 -241t-236 -87q-74 0 -148 21v154q62 -27 125 -27q146 0 146 217v814q0 186 -147 186q-153 0 -321 -217v-728h-198v759q1 187 -149 187t-320 -218v-728h-197z
" />
    <glyph glyph-name="nhookleft" unicode="&#x272;" horiz-adv-x="1289" 
d="M216 1086h197v-204q156 228 381 228q142 0 226 -89.5t84 -240.5v-780h-198v716q0 121 -35 172.5t-118 51.5q-181 0 -340 -237v-795q0 -154 -85 -241t-236 -87q-73 0 -148 21v154q62 -27 125 -27q147 0 147 217v1141z" />
    <glyph glyph-name="nhookretroflex" unicode="&#x273;" horiz-adv-x="1302" 
d="M394 0h-197v1086h197v-204q156 228 382 228q141 0 225 -89.5t84 -240.5v-835q0 -217 147 -217q63 0 125 27v-154q-75 -21 -148 -21q-151 0 -236 87t-85 241v808q0 121 -35.5 172.5t-117.5 51.5q-181 0 -341 -237v-703z" />
    <glyph glyph-name="Nsmallipa" unicode="&#x274;" horiz-adv-x="1283" 
d="M197 0v1086h173l540 -779h3v779h172v-1086h-172l-541 779h-2v-779h-173z" />
    <glyph glyph-name="obarred" unicode="&#x275;" horiz-adv-x="1258" 
d="M628 -25q-239 0 -378 154.5t-139 414.5t139.5 413t378.5 153t378.5 -152.5t139.5 -415.5t-140 -415t-379 -152zM629 962q-278 0 -307 -345h615q-30 345 -308 345zM630 123q288 0 309 370h-619q22 -370 310 -370z" />
    <glyph glyph-name="OEsmall" unicode="&#x276;" horiz-adv-x="1659" 
d="M880 418v252q0 292 -235 292q-153 0 -240 -111t-87 -308t87 -308.5t242 -111.5q233 0 233 295zM650 -25q-243 0 -391 156.5t-148 412.5t148 411t390 155q101 0 231 -42v18h660v-148h-463v-310h389v-136h-389v-344h483v-148h-680v21q-128 -46 -230 -46z" />
    <glyph glyph-name="omegalatinclosed" unicode="&#x277;" horiz-adv-x="1607" 
d="M692 532q0 96 43 202h137q43 -106 43 -202t-43 -192q73 -186 224 -186q95 0 152 87.5t57 233.5q0 225 -135.5 356t-366.5 131t-366 -131t-135 -356q0 -146 57 -233.5t152 -87.5q151 0 224 186q-43 96 -43 192zM501 -25q-177 0 -283.5 136t-106.5 351q0 297 187.5 472.5
t505.5 175.5t505 -175.5t187 -472.5q0 -215 -106.5 -351t-283.5 -136t-303 190q-125 -190 -302 -190z" />
    <glyph glyph-name="philatin" unicode="&#x278;" horiz-adv-x="1555" 
d="M876 182q170 0 276.5 99.5t106.5 258.5q0 333 -383 358v-716zM296 540q0 -159 106.5 -258.5t276.5 -99.5v716q-383 -25 -383 -358zM679 -395v427q-264 0 -422 139t-158 370t158 369t422 138v531h197v-531q264 0 422 -138t158 -369t-158 -370t-422 -139v-427h-197z" />
    <glyph glyph-name="rturned" unicode="&#x279;" horiz-adv-x="838" 
d="M640 1086v-1086h-197v204q-117 -229 -340 -229q-30 0 -63 6v184q51 -17 91 -17q186 0 312 222v716h197z" />
    <glyph glyph-name="rlonglegturned" unicode="&#x27a;" horiz-adv-x="838" 
d="M640 1579v-1579h-197v204q-117 -229 -340 -229q-30 0 -63 6v184q51 -17 91 -17q186 0 312 222v1209h197z" />
    <glyph glyph-name="rhookturned" unicode="&#x27b;" horiz-adv-x="875" 
d="M103 -25q-30 0 -63 6v184q51 -17 91 -17q186 0 312 222v716h197v-1141q0 -217 147 -217q62 0 125 27v-154q-75 -21 -148 -21q-151 0 -236 87t-85 241v296q-117 -229 -340 -229z" />
    <glyph glyph-name="rlongleg" unicode="&#x27c;" horiz-adv-x="838" 
d="M197 -395v1481h197v-204q117 228 340 228q30 0 63 -5v-184q-51 17 -90 17q-187 0 -313 -222v-1111h-197z" />
    <glyph glyph-name="rhook" unicode="&#x27d;" horiz-adv-x="838" 
d="M197 1086h197v-204q117 228 340 228q30 0 63 -5v-184q-51 17 -90 17q-187 0 -313 -222v-771q0 -217 147 -217q63 0 125 27v-154q-75 -21 -148 -21q-151 0 -236 87t-85 241v1178z" />
    <glyph glyph-name="rfishhook" unicode="&#x27e;" horiz-adv-x="842" 
d="M197 0v592q0 518 385 518q112 0 219 -39v-163q-110 54 -218 54t-148.5 -76.5t-40.5 -293.5v-592h-197z" />
    <glyph glyph-name="rfishhookreversed" unicode="&#x27f;" horiz-adv-x="842" 
d="M644 0h-197v592q0 217 -40.5 293.5t-148.5 76.5t-218 -54v163q108 39 219 39q385 0 385 -518v-592z" />
    <glyph glyph-name="Rsmallipa" unicode="&#x280;" horiz-adv-x="1127" 
d="M394 592h88q257 0 257 204q0 82 -51.5 112t-194.5 30h-99v-346zM197 0v1086h414q330 0 330 -269q0 -217 -204 -308l350 -509h-239l-302 444h-152v-444h-197z" />
    <glyph glyph-name="Rsmallinverted" unicode="&#x281;" horiz-adv-x="1127" 
d="M394 494v-346h99q143 0 194.5 29.5t51.5 111.5q0 205 -257 205h-88zM197 1086h197v-444h152l302 444h239l-350 -510q204 -91 204 -307q0 -269 -330 -269h-414v1086z" />
    <glyph glyph-name="shook" unicode="&#x282;" horiz-adv-x="1043" 
d="M459 -420q-302 0 -302 383v256q193 -96 336 -96q85 0 141 46t56 115q0 101 -157 167l-115 49q-255 106 -255 305q0 142 100.5 223.5t275.5 81.5q91 0 225 -25l41 -8v-164q-165 49 -262 49q-190 0 -190 -138q0 -89 144 -150l95 -40q161 -68 228 -143.5t67 -188.5
q0 -143 -113 -235t-289 -92q-70 0 -180 22v-29q0 -141 37.5 -193.5t123.5 -52.5t151 27v-149q-83 -20 -158 -20z" />
    <glyph glyph-name="esh" unicode="&#x283;" horiz-adv-x="882" 
d="M140 -271q102 0 144.5 80.5t42.5 285.5v991q0 518 385 518q112 0 219 -40v-162q-110 54 -218 54t-148.5 -77t-40.5 -293v-987q0 -518 -382 -518q-98 0 -216 34v163q112 -49 214 -49z" />
    <glyph glyph-name="dotlessjstrokehook" unicode="&#x284;" horiz-adv-x="888" 
d="M345 197h-246v136h246v943q0 155 85 241.5t237 86.5q73 0 147 -21v-154q-62 27 -125 27q-146 0 -146 -217v-906h247v-136h-247v-197q0 -419 -354 -419q-105 0 -226 50v156q138 -58 226 -58t122 54t34 217v197z" />
    <glyph glyph-name="eshsquatreversed" unicode="&#x285;" horiz-adv-x="996" 
d="M832 -419q-385 0 -385 518v493q0 217 -40.5 293.5t-148.5 76.5t-218 -54v163q108 39 219 39q385 0 385 -518v-493q0 -217 40.5 -294t148.5 -77t218 54v-162q-107 -39 -219 -39z" />
    <glyph glyph-name="eshcurl" unicode="&#x286;" horiz-adv-x="1098" 
d="M136 -120q0 -151 148 -151q106 0 151.5 71t45.5 235v56l-51 2q-136 0 -215 -57.5t-79 -155.5zM679 30q0 -204 -106 -327t-282 -123q-140 0 -228 85t-88 220q0 172 132 265.5t374 93.5v842q0 519 385 519q112 0 220 -40v-162q-111 54 -219 54t-148 -77t-40 -294v-852
q176 -23 290 -71v-148q-144 52 -290 71v-56z" />
    <glyph glyph-name="tturned" unicode="&#x287;" horiz-adv-x="766" 
d="M243 1110q150 0 234 -86t84 -238v-638h136v-148h-136v-197l-197 -19v216h-284v148h284v602q0 213 -184 213q-39 0 -95 -13v136q91 24 158 24z" />
    <glyph glyph-name="tretroflexhook" unicode="&#x288;" horiz-adv-x="766" 
d="M205 938h-136v148h136v197l197 19v-216h284v-148h-284v-993q0 -217 147 -217q62 0 125 27v-154q-75 -21 -148 -21q-152 0 -236.5 87t-84.5 241v1030z" />
    <glyph glyph-name="ubar" unicode="&#x289;" horiz-adv-x="1332" 
d="M1110 0h-197v204q-157 -229 -381 -229q-142 0 -226 89.5t-84 241.5v249h-173v136h173v395h197v-395h494v395h197v-395h173v-136h-173v-555zM913 555h-494v-185q0 -122 35.5 -173.5t118.5 -51.5q180 0 340 237v173z" />
    <glyph glyph-name="upsilonlatin" unicode="&#x28a;" horiz-adv-x="1351" 
d="M86 938v148h389v-148q-149 -172 -149 -398q0 -183 98 -300t251 -117t251 117t98 300q0 226 -148 398v148h388v-148h-200q157 -228 157 -448t-152.5 -367.5t-392.5 -147.5t-393.5 147.5t-153.5 367.5t157 448h-200z" />
    <glyph glyph-name="vhook" unicode="&#x28b;" horiz-adv-x="1271" 
d="M185 1086h197v-503q0 -282 41.5 -377t163.5 -95q164 0 282 157t118 375q0 320 -204 320q-56 0 -129 -45v160q95 33 171 33q159 0 247 -119t88 -336q0 -290 -170.5 -491.5t-402.5 -201.5t-317 143.5t-85 513.5v466z" />
    <glyph glyph-name="vturned" unicode="&#x28c;" horiz-adv-x="1060" 
d="M638 1086l404 -1086h-210l-308 827l-327 -827h-185l430 1086h196z" />
    <glyph glyph-name="wturned" unicode="&#x28d;" horiz-adv-x="1578" 
d="M1255 1086l311 -1086h-192l-239 840l-256 -840h-197l-226 840l-272 -840h-170l355 1086h198l230 -841l259 841h199z" />
    <glyph glyph-name="yturned" unicode="&#x28e;" horiz-adv-x="1070" 
d="M810 1481l-176 -395l420 -1086h-213l-311 818l-331 -818h-187l594 1481h204z" />
    <glyph glyph-name="Ysmall" unicode="&#x28f;" horiz-adv-x="994" 
d="M390 0v456l-378 630h223l279 -466l293 466h174l-394 -630v-456h-197z" />
    <glyph glyph-name="zretroflexhook" unicode="&#x290;" horiz-adv-x="1178" 
d="M841 0h-718v148l672 790h-641v148h884v-148l-672 -790h623v-180q0 -141 37.5 -193.5t123.5 -52.5t151 27v-149q-83 -20 -158 -20q-302 0 -302 383v37z" />
    <glyph glyph-name="zcurl" unicode="&#x291;" horiz-adv-x="1428" 
d="M862 154q381 0 381 160q0 99 -99 99q-142 0 -317 -237l-16 -22h51zM123 0v154l664 784h-639v148h882v-148l-668 -784h275q243 395 507 395q106 0 176.5 -65t70.5 -163q0 -321 -571 -321h-98q-69 -142 -85 -296h-150q13 162 72 296h-436z" />
    <glyph glyph-name="ezh" unicode="&#x292;" horiz-adv-x="1049" 
d="M424 -271q144 0 230 76.5t86 218.5t-139 230.5t-382 88.5h-16v137l482 445h-586v161h814v-148l-487 -458q244 -21 384 -142.5t140 -316.5t-144.5 -317.5t-377.5 -122.5q-144 0 -348 50v167q200 -69 344 -69z" />
    <glyph glyph-name="ezhcurl" unicode="&#x293;" horiz-adv-x="1098" 
d="M320 -32q-116 0 -116 -88q0 -60 71 -105.5t159 -45.5t188 54q-137 185 -302 185zM969 1086v-148l-512 -441q236 0 386.5 -122.5t150.5 -308.5t-162 -330q78 -128 87 -334h-149q-6 133 -64 253q-132 -74 -280 -74t-259 90.5t-111 200.5t73 177.5t181 67.5q236 0 425 -236
q55 74 55 174q0 308 -469 308l-68 -2v152l492 425h-596v148h820z" />
    <glyph glyph-name="glottalstop" unicode="&#x294;" horiz-adv-x="913" 
d="M229 0v740q46 -3 77 -3q152 0 253.5 107t101.5 267q0 345 -361 345q-103 0 -244 -46v158q153 36 283 36q246 0 382.5 -124t136.5 -347q0 -419 -432 -519v-614h-197z" />
    <glyph glyph-name="glottalstopreversed" unicode="&#x295;" horiz-adv-x="913" 
d="M685 0h-197v614q-432 100 -432 519q0 223 136.5 347t381.5 124q131 0 284 -36v-158q-141 46 -245 46q-360 0 -360 -346q0 -159 101.5 -266t253.5 -107q31 0 77 3v-740z" />
    <glyph glyph-name="glottalstopinverted" unicode="&#x296;" horiz-adv-x="913" 
d="M229 1579h197v-614q432 -100 432 -519q0 -223 -136.5 -347t-382.5 -124q-130 0 -283 37v157q141 -46 245 -46q360 0 360 346q0 160 -101.5 266.5t-253.5 106.5q-31 0 -77 -3v740z" />
    <glyph glyph-name="cstretched" unicode="&#x297;" horiz-adv-x="994" 
d="M678 -458q-256 0 -411.5 215t-155.5 569t155.5 569t411.5 215q139 0 279 -63v-176q-139 82 -263 82q-186 0 -286 -162.5t-100 -464.5t100 -464t286 -162q124 0 263 82v-176q-140 -64 -279 -64z" />
    <glyph glyph-name="bilabialclick" unicode="&#x298;" horiz-adv-x="1577" 
d="M677 635v222h222v-222h-222zM788 109q230 0 355 164.5t125 466.5t-126 467t-354 165t-354 -165t-126 -465t125 -466.5t355 -166.5zM787 -37q-308 0 -492 213.5t-184 565.5t185 563.5t492 211.5t492.5 -211.5t185.5 -565.5t-185.5 -565.5t-493.5 -211.5z" />
    <glyph glyph-name="Bsmall" unicode="&#x299;" horiz-adv-x="1087" 
d="M391 626h101q229 0 229 183q0 129 -217 129h-113v-312zM391 148h84q165 0 224.5 30.5t59.5 118.5t-74.5 143.5t-198.5 55.5h-95v-348zM197 0v1086h378q344 0 344 -236q0 -199 -208 -283q252 -81 252 -293q0 -129 -93 -201.5t-256 -72.5h-417z" />
    <glyph glyph-name="eopenclosed" unicode="&#x29a;" horiz-adv-x="1209" 
d="M703 493h-105q-290 0 -290 -169q0 -89 73 -145t188 -56q356 0 356 403q0 205 -97 320.5t-270 115.5q-102 0 -169.5 -44t-67.5 -116t74 -116t206 -44h102v-149zM135 827q0 132 112 207.5t306 75.5q252 0 398.5 -158t146.5 -422t-140.5 -409.5t-389.5 -145.5
q-205 0 -331 95t-126 249q0 176 206 262q-182 72 -182 246z" />
    <glyph glyph-name="Gsmallhook" unicode="&#x29b;" horiz-adv-x="1242" 
d="M1051 470v-441q-214 -54 -367 -54q-277 0 -425 147.5t-148 419.5t150.5 420t426.5 148q87 0 189 -13l24 -3v127q0 383 301 383q49 0 119 -20v-149q-59 27 -134 27t-106.5 -50t-31.5 -196v-305q-226 51 -348 51q-383 0 -383 -426q0 -202 97.5 -312.5t275.5 -110.5
q66 0 162 15v342h198z" />
    <glyph glyph-name="Hsmallipa" unicode="&#x29c;" horiz-adv-x="1278" 
d="M197 0v1086h198v-441h487v441h198v-1086h-198v497h-487v-497h-198z" />
    <glyph glyph-name="jcrossedtail" unicode="&#x29d;" horiz-adv-x="993" 
d="M469 1283v197h197v-197h-197zM123 -120q0 -151 148 -151q106 0 152 71t46 235v56l-52 2q-135 0 -214.5 -57.5t-79.5 -155.5zM666 1086v-852q176 -23 290 -71v-148q-143 52 -290 71v-56q0 -204 -106 -327t-282 -123q-139 0 -227 85t-88 220q0 172 131.5 265.5t374.5 93.5
v842h197z" />
    <glyph glyph-name="kturned" unicode="&#x29e;" horiz-adv-x="1197" 
d="M999 1086v-1481h-197v922l-460 -527h-212l439 506l-530 580h252l511 -557v557h197z" />
    <glyph glyph-name="Lsmallipa" unicode="&#x29f;" horiz-adv-x="944" 
d="M197 0v1086h198v-938h499v-148h-697z" />
    <glyph glyph-name="qhook" unicode="&#x2a0;" horiz-adv-x="1308" 
d="M894 1276q0 155 85 241.5t237 86.5q73 0 147 -21v-154q-62 27 -125 27q-146 0 -146 -217v-1634h-198v599q-120 -229 -362 -229q-196 0 -308.5 142.5t-112.5 402.5t127.5 425t327.5 165t328 -148v314zM604 962q-283 0 -283 -433q0 -381 252 -381q164 0 321 179v500
q-153 135 -290 135z" />
    <glyph glyph-name="glottalstopstroke" unicode="&#x2a1;" horiz-adv-x="931" 
d="M247 296h-173v136h173v308q46 -3 77 -3q152 0 253.5 107t101.5 267q0 345 -361 345q-103 0 -244 -46v158q153 36 283 36q246 0 382.5 -124t136.5 -347q0 -419 -432 -519v-182h370v-136h-370v-296h-197v296z" />
    <glyph glyph-name="glottalstopstrokereversed" unicode="&#x2a2;" horiz-adv-x="919" 
d="M488 0v296h-370v136h370v182q-432 100 -432 519q0 223 136.5 347t381.5 124q131 0 284 -36v-158q-141 46 -245 46q-360 0 -360 -346q0 -159 101.5 -266t253.5 -107q31 0 77 3v-308h173v-136h-173v-296h-197z" />
    <glyph glyph-name="dzaltone" unicode="&#x2a3;" horiz-adv-x="2133" 
d="M604 962q-283 0 -283 -433q0 -381 252 -381q164 0 321 179v500q-153 135 -290 135zM894 0v204q-120 -229 -362 -229q-196 0 -308.5 142.5t-112.5 402.5t127.5 425t327.5 165t328 -148v617h198v-493h906v-148l-500 -790h512v-148h-745v148l499 790h-672v-938h-198z" />
    <glyph glyph-name="dezh" unicode="&#x2a4;" horiz-adv-x="2042" 
d="M604 962q-283 0 -283 -433q0 -381 252 -381q164 0 321 179v500q-153 135 -290 135zM1092 0h-198v204q-120 -229 -362 -229q-196 0 -308.5 142.5t-112.5 402.5t127.5 425t327.5 165t328 -148v617h198v-493h820v-148l-436 -462q218 -11 345.5 -126.5t127.5 -307.5
t-147 -326t-401 -135q-105 0 -260 32v163q171 -47 264 -47q151 0 243 82t92 217q0 316 -451 316v149l419 445h-616v-938z" />
    <glyph glyph-name="dzcurl" unicode="&#x2a5;" horiz-adv-x="2471" 
d="M1929 154q381 0 381 160q0 99 -99 99q-141 0 -316 -237l-17 -22h51zM1092 938v-938h-198v204q-120 -229 -362 -229q-196 0 -308.5 142.5t-112.5 402.5t127.5 425t327.5 165t328 -148v617h198v-493h872v-148l-491 -784h232q243 395 507 395q106 0 176.5 -65t70.5 -163
q0 -321 -571 -321h-98q-70 -142 -85 -296h-150q13 162 72 296h-387v154l491 784h-639zM604 962q-283 0 -283 -433q0 -381 252 -381q164 0 321 179v500q-153 135 -290 135z" />
    <glyph glyph-name="ts" unicode="&#x2a6;" horiz-adv-x="1633" 
d="M1141 962q-190 0 -190 -138q0 -89 144 -150l95 -40q161 -68 228 -143.5t67 -188.5q0 -143 -112.5 -235t-268.5 -92t-349 63v181q193 -96 336 -96q85 0 141 46t56 115q0 101 -156 167l-116 49q-255 106 -255 306q0 71 30 131l-389 1v-602q0 -213 184 -213q39 0 95 13v-136
q-91 -25 -158 -25q-150 0 -234 86t-84 239v638h-136v148h136v197l197 19v-216h560q82 24 174 24t226 -25l41 -8v-164q-165 49 -262 49z" />
    <glyph glyph-name="tesh" unicode="&#x2a7;" horiz-adv-x="1446" 
d="M891 1086v12q0 506 385 506q111 0 219 -40v-162q-111 54 -219 54t-148 -77t-40 -293v-987q0 -518 -382 -518q-98 0 -216 34v163q112 -49 214 -49t144.5 80.5t42.5 285.5v843h-489v-602q0 -213 184 -213q39 0 95 13v-136q-91 -25 -158 -25q-150 0 -234 86t-84 239v638
h-136v148h136v197l197 19v-216h489z" />
    <glyph glyph-name="tccurl" unicode="&#x2a8;" horiz-adv-x="1796" 
d="M69 938v148h136v197l197 19v-216h728q100 24 226 24t242 -32v-165q-134 49 -284 49t-241.5 -106t-91.5 -280t85 -297q196 233 415 233q111 0 185 -66.5t74 -166.5q0 -130 -112 -217t-262 -87t-284 63q-53 -85 -53 -235h-148q0 175 79 316q-188 176 -188 444
q0 183 127 374l-497 1v-602q0 -213 184 -213q39 0 95 13v-136q-91 -25 -158 -25q-150 0 -234 86t-84 239v638h-136zM1358 123q94 0 164 46t70 109q0 87 -108 87q-161 0 -315 -185q95 -57 189 -57z" />
    <glyph glyph-name="feng" unicode="&#x2a9;" horiz-adv-x="1998" 
d="M234 0v938h-154v148h154v130q0 388 354 388q99 0 225 -33v-156q-133 41 -221 41t-124 -46.5t-36 -172.5v-151h690v-204q156 228 382 228q141 0 225 -89.5t84 -240.5v-872q0 -154 -84.5 -241t-236.5 -87q-73 0 -148 21v154q63 -27 125 -27q147 0 147 217v771
q0 121 -35.5 172.5t-117.5 51.5q-181 0 -341 -237v-703h-197v938h-493v-938h-198z" />
    <glyph glyph-name="ls" unicode="&#x2aa;" horiz-adv-x="1374" 
d="M394 0h-197v1579h197v-1301q219 -155 428 -155q85 0 141.5 46t56.5 115q0 101 -157 167l-116 49q-254 106 -254 305q0 142 100.5 223.5t275.5 81.5q90 0 224 -25l41 -8v-164q-164 49 -261 49q-190 0 -190 -138q0 -89 144 -150l95 -40q161 -68 228 -143.5t67 -188.5
q0 -144 -113.5 -235.5t-307.5 -91.5t-402 142v-117z" />
    <glyph glyph-name="lz" unicode="&#x2ab;" horiz-adv-x="1436" 
d="M197 0v1579h197v-493h906v-148l-499 -790h512v-148h-746v148l500 790h-673v-938h-197z" />
    <glyph glyph-name="bilabialpercussive" unicode="&#x2ac;" horiz-adv-x="1268" 
d="M309 839l-210 740h149l157 -554l169 554h147l148 -555l177 555h123l-234 -740h-154l-150 551l-168 -551h-154zM309 0l-210 740h149l157 -554l169 554h147l148 -555l177 555h123l-234 -740h-154l-150 551l-168 -551h-154z" />
    <glyph glyph-name="bidentalpercussive" unicode="&#x2ad;" horiz-adv-x="1185" 
d="M148 629v457h888v-457h-148v284h-604v-284h-136zM148 0v456h888v-456h-148v284h-604v-284h-136z" />
    <glyph glyph-name="hturnedfishhook" unicode="&#x2ae;" horiz-adv-x="1320" 
d="M926 1086h197v-1481h-197v599q-156 -229 -381 -229q-142 0 -226 89.5t-84 241.5v439q0 217 -147 217q-62 0 -125 -27v155q75 20 148 20q152 0 236.5 -86.5t84.5 -240.5v-413q0 -122 35.5 -173.5t118.5 -51.5q181 0 340 237v704z" />
    <glyph glyph-name="hturnedfishhooktail" unicode="&#x2af;" horiz-adv-x="1320" 
d="M1247 -420q-151 0 -236 87t-85 241v296q-156 -229 -381 -229q-142 0 -226 89.5t-84 241.5v439q0 217 -147 217q-62 0 -125 -27v155q75 20 148 20q152 0 236.5 -86.5t84.5 -240.5v-413q0 -122 35.5 -173.5t118.5 -51.5q181 0 340 237v704h197v-1141q0 -217 147 -217
q63 0 125 27v-154q-75 -21 -148 -21z" />
    <glyph glyph-name="hsuperior" unicode="&#x2b0;" horiz-adv-x="736" 
d="M86 924v948h148v-416q89 138 227 138q188 0 188 -203v-467h-148v425q0 124 -84 124q-96 0 -183 -131v-418h-148z" />
    <glyph glyph-name="hhooksuperior" unicode="&#x2b1;" horiz-adv-x="736" 
d="M461 1579q188 0 188 -203v-452h-148v411q0 123 -84 123q-96 0 -183 -130v-404h-148v591q0 371 299 371q85 0 172 -29v-112q-88 30 -151 30q-99 0 -135.5 -55.5t-36.5 -204.5v-74q89 138 227 138z" />
    <glyph glyph-name="jsuperior" unicode="&#x2b2;" horiz-adv-x="475" 
d="M241 1727v134h148v-134h-148zM142 772q99 0 99 152v655h148v-649q0 -258 -233 -258q-65 0 -144 29v106q80 -35 130 -35z" />
    <glyph glyph-name="rsuperior" unicode="&#x2b3;" horiz-adv-x="501" 
d="M86 924v655h148v-123q70 138 206 138q17 0 36 -4v-134q-34 12 -62 12q-109 0 -180 -120v-424h-148z" />
    <glyph glyph-name="rturnedsuperior" unicode="&#x2b4;" horiz-adv-x="501" 
d="M415 1579v-655h-148v123q-70 -138 -205 -138q-18 0 -37 4v134q34 -12 62 -12q109 0 180 120v424h148z" />
    <glyph glyph-name="rhookturnedsuperior" unicode="&#x2b5;" horiz-adv-x="643" 
d="M415 1579v-633q0 -98 22.5 -130.5t78.5 -32.5t103 21v-116q-56 -16 -110 -16q-242 0 -242 246v129q-70 -138 -205 -138q-18 0 -37 4v134q34 -12 62 -12q109 0 180 120v424h148z" />
    <glyph glyph-name="Rsmallinvertedsuperior" unicode="&#x2b6;" horiz-adv-x="653" 
d="M234 1224v-200h69q126 0 126 87q0 113 -130 113h-65zM86 928v651h148v-259h71l182 259h165l-206 -292q131 -59 131 -194q0 -165 -198 -165h-293z" />
    <glyph glyph-name="wsuperior" unicode="&#x2b7;" horiz-adv-x="953" 
d="M185 924l-185 655h140l134 -507h3l146 507h136l127 -507h2l152 507h113l-205 -655h-144l-127 507h-2l-145 -507h-145z" />
    <glyph glyph-name="ysuperior" unicode="&#x2b8;" horiz-adv-x="666" 
d="M133 687l127 237l-248 655h159l173 -465h2l197 465h123l-381 -892h-152z" />
    <glyph glyph-name="primemod" unicode="&#x2b9;" horiz-adv-x="493" 
d="M74 987l197 592h222l-296 -592h-123z" />
    <glyph glyph-name="dblprimemod" unicode="&#x2ba;" horiz-adv-x="962" 
d="M518 987l197 592h222l-296 -592h-123zM74 987l197 592h222l-296 -592h-123z" />
    <glyph glyph-name="quoteleft" unicode="&#x2bb;" horiz-adv-x="648" 
d="M351 1279v-21h96v-246h-247v214q0 327 247 353v-74q-96 -28 -96 -226z" />
    <glyph glyph-name="quoteleft" unicode="&#x2018;" horiz-adv-x="648" 
d="M351 1279v-21h96v-246h-247v214q0 327 247 353v-74q-96 -28 -96 -226z" />
    <glyph glyph-name="quoteright" unicode="&#x2bc;" horiz-adv-x="648" 
d="M296 1312v20h-96v247h247v-214q0 -329 -247 -353v74q96 26 96 226z" />
    <glyph glyph-name="quoteright" unicode="&#x2019;" horiz-adv-x="648" 
d="M296 1312v20h-96v247h247v-214q0 -329 -247 -353v74q96 26 96 226z" />
    <glyph glyph-name="commareversedmod" unicode="&#x2bd;" horiz-adv-x="518" 
d="M136 1365v214h247v-247h-96v-20q0 -199 96 -226v-74q-247 24 -247 353z" />
    <glyph glyph-name="ringhalfright" unicode="&#x2be;" horiz-adv-x="543" 
d="M111 1011v136h62q62 0 105 43.5t43 105.5t-43.5 104.5t-104.5 42.5h-62v136h62q118 0 201 -83t83 -201t-83 -201t-201 -83h-62z" />
    <glyph glyph-name="ringhalfleft" unicode="&#x2bf;" horiz-adv-x="543" 
d="M432 1147v-136h-62q-119 0 -201.5 83t-82.5 201t83 201t201 83h62v-136h-62q-62 0 -105 -42.5t-43 -104.5t43 -105.5t105 -43.5h62z" />
    <glyph glyph-name="glottalstopmod" unicode="&#x2c0;" horiz-adv-x="581" 
d="M166 915v28q0 106 89 205l40 46q90 101 90 172q0 115 -146 115q-92 0 -202 -49v118q117 35 235 35t195 -55t77 -146t-99 -185l-39 -37q-92 -87 -92 -185v-62h-148z" />
    <glyph glyph-name="glottalstopreversedmod" unicode="&#x2c1;" horiz-adv-x="581" 
d="M415 915h-148v62q0 98 -92 185l-39 37q-99 94 -99 185t77.5 146t195.5 55t234 -35v-118q-110 49 -202 49q-146 0 -146 -115q0 -71 90 -172l40 -46q89 -99 89 -205v-28z" />
    <glyph glyph-name="arrowheadleftmod" unicode="&#x2c2;" horiz-adv-x="712" 
d="M638 941l-638 319l638 319v-138l-360 -180v-2l360 -180v-138z" />
    <glyph glyph-name="arrowheadrightmod" unicode="&#x2c3;" horiz-adv-x="725" 
d="M86 941v138l360 180v2l-360 180v138l638 -319z" />
    <glyph glyph-name="arrowheadupmod" unicode="&#x2c4;" horiz-adv-x="737" 
d="M49 941l319 638l319 -638h-138l-180 360h-2l-180 -360h-138z" />
    <glyph glyph-name="arrowheaddownmod" unicode="&#x2c5;" horiz-adv-x="737" 
d="M687 1579l-319 -638l-319 638h138l180 -360h2l180 360h138z" />
    <glyph glyph-name="circumflex" unicode="&#x2c6;" horiz-adv-x="1258" 
d="M279 1283l241 321h218l241 -321h-148l-201 202h-2l-201 -202h-148z" />
    <glyph glyph-name="caron" unicode="&#x2c7;" horiz-adv-x="1258" 
d="M979 1604l-241 -321h-218l-241 321h148l201 -202h2l201 202h148z" />
    <glyph glyph-name="verticallinemod" unicode="&#x2c8;" horiz-adv-x="370" 
d="M111 987v592h148v-592h-148z" />
    <glyph glyph-name="macronaccent" unicode="&#x2c9;" horiz-adv-x="1258" 
d="M308 1283v148h642v-148h-642z" />
    <glyph glyph-name="secondtonechinese" unicode="&#x2ca;" horiz-adv-x="568" 
d="M49 1258l241 321h228l-321 -321h-148z" />
    <glyph glyph-name="fourthtonechinese" unicode="&#x2cb;" horiz-adv-x="568" 
d="M518 1258h-148l-321 321h228z" />
    <glyph glyph-name="verticallinelowmod" unicode="&#x2cc;" horiz-adv-x="370" 
d="M111 -419v518h148v-518h-148z" />
    <glyph glyph-name="macronlowmod" unicode="&#x2cd;" horiz-adv-x="740" 
d="M49 -370v148h642v-148h-642z" />
    <glyph glyph-name="gravelowmod" unicode="&#x2ce;" horiz-adv-x="568" 
d="M518 -518h-148l-321 321h228z" />
    <glyph glyph-name="acutelowmod" unicode="&#x2cf;" horiz-adv-x="568" 
d="M49 -518l241 321h228l-321 -321h-148z" />
    <glyph glyph-name="colontriangularmod" unicode="&#x2d0;" horiz-adv-x="790" 
d="M173 1086h444l-222 -444zM617 0h-444l222 444z" />
    <glyph glyph-name="colontriangularhalfmod" unicode="&#x2d1;" horiz-adv-x="790" 
d="M173 1086h444l-222 -444z" />
    <glyph glyph-name="ringhalfrightcentered" unicode="&#x2d2;" horiz-adv-x="580" 
d="M136 518v136h62q62 0 105 43t43 105t-43.5 105t-104.5 43h-62v136h62q118 0 201 -83t83 -201t-83 -201t-201 -83h-62z" />
    <glyph glyph-name="ringhalfleftcentered" unicode="&#x2d3;" horiz-adv-x="580" 
d="M445 654v-136h-62q-119 0 -201.5 83t-82.5 201t83 201t201 83h62v-136h-62q-62 0 -105 -43t-43 -105t43 -105t105 -43h62z" />
    <glyph glyph-name="uptackmod" unicode="&#x2d4;" horiz-adv-x="925" 
d="M99 654v136h296v296h136v-296h296v-136h-728z" />
    <glyph glyph-name="downtackmod" unicode="&#x2d5;" horiz-adv-x="925" 
d="M827 1086v-136h-296v-296h-136v296h-296v136h728z" />
    <glyph glyph-name="plusmod" unicode="&#x2d6;" horiz-adv-x="925" 
d="M99 654v136h296v296h136v-296h296v-136h-296v-296h-136v296h-296z" />
    <glyph glyph-name="minusmod" unicode="&#x2d7;" horiz-adv-x="925" 
d="M99 753v333h123v-99h482v99h123v-333h-123v98h-482v-98h-123z" />
    <glyph glyph-name="breve" unicode="&#x2d8;" horiz-adv-x="1258" 
d="M629 1283q-136 0 -226.5 87.5t-106.5 233.5h123q32 -173 210 -173t210 173h123q-15 -146 -106 -233.5t-227 -87.5z" />
    <glyph glyph-name="dotaccent" unicode="&#x2d9;" horiz-adv-x="1258" 
d="M530 1283v197h197v-197h-197z" />
    <glyph glyph-name="ring" unicode="&#x2da;" horiz-adv-x="1258" 
d="M628 1369q58 0 100 41t42 100t-42 100t-100 41t-99 -41.5t-41 -99.5t41 -99.5t99 -41.5zM628 1283q-95 0 -160.5 66.5t-65.5 160.5t66 160.5t160 66.5t161 -65.5t67 -161.5t-66.5 -161.5t-161.5 -65.5z" />
    <glyph glyph-name="ogonek" unicode="&#x2db;" horiz-adv-x="1258" 
d="M636 -180q0 -95 115 -95q56 0 91 15v-81q-60 -29 -138 -29q-204 0 -204 159q0 125 158 211h107q-129 -75 -129 -180z" />
    <glyph glyph-name="tilde" unicode="&#x2dc;" horiz-adv-x="1258" 
d="M481 1517q73 0 135 -38l60 -37q56 -35 86 -35q69 0 77 110h123q-12 -234 -185 -234q-73 0 -135 39l-60 37q-56 34 -86 34q-69 0 -77 -110h-123q10 234 185 234z" />
    <glyph glyph-name="hungarumlaut" unicode="&#x2dd;" horiz-adv-x="1258" 
d="M589 1283l240 321h191l-320 -321h-111zM237 1283l241 321h191l-321 -321h-111z" />
    <glyph glyph-name="rhotichookmod" unicode="&#x2de;" horiz-adv-x="436" 
d="M195 569q0 -126 24 -171t79 -45t113 33v-154q-89 -27 -136 -27q-228 0 -228 315v76l-269 -76v156l417 112v-219z" />
    <glyph glyph-name="uni02DF" unicode="&#x2df;" horiz-adv-x="703" 
d="M161 1110l-87 88l190 190l-190 191l87 87l191 -190l190 190l87 -87l-190 -191l190 -190l-87 -88l-190 191z" />
    <glyph glyph-name="gammasuperior" unicode="&#x2e0;" horiz-adv-x="764" 
d="M327 776q-1 -86 61 -86t62 78t-60 187q-63 -93 -63 -179zM595 802q0 -106 -58 -166t-145 -60t-140 51t-53 131q0 135 129 320q-78 187 -156.5 280t-171.5 108l73 113q192 -11 359 -376q186 242 186 355q0 9 -5 21h134q5 -18 5 -33q0 -65 -84 -214.5t-176 -247.5
q103 -176 103 -282z" />
    <glyph glyph-name="lsuperior" unicode="&#x2e1;" horiz-adv-x="370" 
d="M111 924v948h148v-948h-148z" />
    <glyph glyph-name="ssuperior" unicode="&#x2e2;" horiz-adv-x="651" 
d="M345 1494q-111 0 -111 -75q0 -50 84 -84l54 -22q192 -77 192 -201q0 -89 -72 -146t-180 -57t-226 37v119q124 -56 213 -56q114 0 114 86q0 54 -92 92l-64 26q-168 69 -168 191q0 190 249 190q65 0 151 -17l24 -5v-111q-103 33 -168 33z" />
    <glyph glyph-name="xsuperior" unicode="&#x2e3;" horiz-adv-x="745" 
d="M49 924l237 334l-229 321h172l166 -229l153 229h130l-216 -327l233 -328h-171l-172 238l-170 -238h-133z" />
    <glyph glyph-name="glottalstopreversedsuperior" unicode="&#x2e4;" horiz-adv-x="581" 
d="M415 924h-148v303q0 98 -92 185l-39 37q-99 94 -99 185t77.5 146t195.5 55t234 -35v-118q-110 49 -202 49q-146 0 -146 -115q0 -71 90 -173l40 -45q89 -100 89 -205v-269z" />
    <glyph glyph-name="tonebarextrahighmod" unicode="&#x2e5;" horiz-adv-x="798" 
d="M12 1086v123h662v-1209h-136v1086h-526z" />
    <glyph glyph-name="tonebarhighmod" unicode="&#x2e6;" horiz-adv-x="798" 
d="M12 814v124h526v271h136v-1209h-136v814h-526z" />
    <glyph glyph-name="tonebarmidmod" unicode="&#x2e7;" horiz-adv-x="798" 
d="M12 543v123h526v543h136v-1209h-136v543h-526z" />
    <glyph glyph-name="tonebarlowmod" unicode="&#x2e8;" horiz-adv-x="798" 
d="M538 1209h136v-1209h-136v271h-526v124h526v814z" />
    <glyph glyph-name="tonebarextralowmod" unicode="&#x2e9;" horiz-adv-x="798" 
d="M674 0h-662v123h526v1086h136v-1209z" />
    <glyph glyph-name="uni02EA" unicode="&#x2ea;" horiz-adv-x="773" 
d="M99 0v1086h123v-975h539v-111h-662z" />
    <glyph glyph-name="uni02EB" unicode="&#x2eb;" horiz-adv-x="773" 
d="M99 0v1086h123v-457h539v-111h-539v-518h-123z" />
    <glyph glyph-name="uni02EC" unicode="&#x2ec;" horiz-adv-x="683" 
d="M265 -197l-240 638h149l182 -483l186 483h117l-249 -638h-145z" />
    <glyph glyph-name="uni02ED" unicode="&#x2ed;" horiz-adv-x="864" 
d="M99 666v136h666v-136h-666zM765 1086v-136h-666v136h666z" />
    <glyph glyph-name="uni02EE" unicode="&#x2ee;" horiz-adv-x="888" 
d="M613 1335v22h-95v222h222v-166q0 -303 -197 -352v74q70 37 70 200zM243 1335v22h-95v222h222v-166q0 -303 -197 -352v74q70 37 70 200z" />
    <glyph glyph-name="lowdownarrowheadmod" unicode="&#x2ef;" horiz-adv-x="456" 
d="M456 -99l-228 -456l-228 456h124l104 -207h1l103 207h124z" />
    <glyph glyph-name="lowuparrowheadmod" unicode="&#x2f0;" horiz-adv-x="456" 
d="M0 -555l228 456l228 -456h-124l-103 207h-2l-103 -207h-124z" />
    <glyph glyph-name="lowleftarrowheadmod" unicode="&#x2f1;" horiz-adv-x="481" 
d="M456 -555l-456 228l456 228v-124l-207 -103v-2l207 -103v-124z" />
    <glyph glyph-name="lowrightarrowheadmod" unicode="&#x2f2;" horiz-adv-x="481" 
d="M25 -555v124l207 103v2l-207 103v124l456 -228z" />
    <glyph glyph-name="lowringmod" unicode="&#x2f3;" horiz-adv-x="553" 
d="M276 -454q54 0 91 37t37 91t-37.5 91.5t-90.5 37.5t-90.5 -37.5t-37.5 -90.5t37 -91t91 -38zM275 -553q-95 0 -160.5 67t-65.5 161t66.5 160t160.5 66t160.5 -66t66.5 -161t-66.5 -161t-161.5 -66z" />
    <glyph glyph-name="middlegraveaccentmod" unicode="&#x2f4;" horiz-adv-x="568" 
d="M518 765h-148l-321 321h228z" />
    <glyph glyph-name="middledoublegraveaccentmod" unicode="&#x2f5;" horiz-adv-x="882" 
d="M481 765h-111l-321 321h192zM833 765h-111l-321 321h191z" />
    <glyph glyph-name="middledoubleacuteaccentmod" unicode="&#x2f6;" horiz-adv-x="882" 
d="M401 765l240 321h191l-320 -321h-111zM49 765l241 321h191l-321 -321h-111z" />
    <glyph glyph-name="lowtildemod" unicode="&#x2f7;" horiz-adv-x="765" 
d="M234 -197q73 0 135 -39l60 -37q56 -35 86 -35q69 0 77 111h123q-11 -235 -185 -235q-73 0 -135 39l-60 37q-56 34 -86 34q-68 0 -77 -110h-123q11 235 185 235z" />
    <glyph glyph-name="raisedcolonmod" unicode="&#x2f8;" horiz-adv-x="494" 
d="M148 1382v197h197v-197h-197zM148 493v198h197v-198h-197z" />
    <glyph glyph-name="beginhightonemod" unicode="&#x2f9;" horiz-adv-x="580" 
d="M62 740v457h469v-111h-346v-346h-123z" />
    <glyph glyph-name="endhightonemod" unicode="&#x2fa;" horiz-adv-x="580" 
d="M518 740h-124v346h-345v111h469v-457z" />
    <glyph glyph-name="beginlowtonemod" unicode="&#x2fb;" horiz-adv-x="580" 
d="M62 -111v456h123v-345h346v-111h-469z" />
    <glyph glyph-name="endlowtonemod" unicode="&#x2fc;" horiz-adv-x="580" 
d="M49 -111v111h345v345h124v-456h-469z" />
    <glyph glyph-name="shelfmod" unicode="&#x2fd;" horiz-adv-x="790" 
d="M49 -395v296h123v-185h445v185h123v-296h-691z" />
    <glyph glyph-name="openshelfmod" unicode="&#x2fe;" horiz-adv-x="790" 
d="M49 -395v296h123v-185h568v-111h-691z" />
    <glyph glyph-name="lowleftarrowmod" unicode="&#x2ff;" horiz-adv-x="936" 
d="M911 -167v-111h-597l83 -166l-385 222l385 222l-83 -167h597z" />
    <glyph glyph-name="gravecmb" unicode="&#x300;" 
d="M-481 1283h-148l-321 321h228z" />
    <glyph glyph-name="acutecmb" unicode="&#x301;" 
d="M-777 1283l241 321h228l-321 -321h-148z" />
    <glyph glyph-name="circumflexcmb" unicode="&#x302;" 
d="M-979 1283l241 321h218l241 -321h-148l-201 202h-2l-201 -202h-148z" />
    <glyph glyph-name="tildecmb" unicode="&#x303;" 
d="M-777 1517q73 0 135 -38l60 -37q56 -35 86 -35q69 0 77 110h123q-10 -234 -185 -234q-73 0 -135 39l-60 37q-56 34 -86 34q-67 0 -77 -110h-123q12 234 185 234z" />
    <glyph glyph-name="macroncmb" unicode="&#x304;" 
d="M-950 1283v148h642v-148h-642z" />
    <glyph glyph-name="overlinecmb" unicode="&#x305;" 
d="M-1258 1604v148h1258v-148h-1258z" />
    <glyph glyph-name="brevecmb" unicode="&#x306;" 
d="M-629 1283q-136 0 -226.5 87.5t-106.5 233.5h123q32 -173 210 -173t210 173h123q-15 -146 -106 -233.5t-227 -87.5z" />
    <glyph glyph-name="dotaccentcmb" unicode="&#x307;" 
d="M-728 1283v197h197v-197h-197z" />
    <glyph glyph-name="dieresiscmb" unicode="&#x308;" 
d="M-518 1283v173h173v-173h-173zM-913 1283v173h173v-173h-173z" />
    <glyph glyph-name="hookcmb" unicode="&#x309;" 
d="M-631 1703q236 0 236 -144q0 -60 -78 -128l-22 -19q-45 -39 -54 -58t-9 -71h-142q0 91 43 125l41 31l26 22q47 41 47 71q0 66 -116 66q-52 0 -112 -19v106q72 18 140 18z" />
    <glyph glyph-name="ringcmb" unicode="&#x30a;" 
d="M-630 1369q58 0 100 41t42 100t-42 100t-100 41t-99 -41.5t-41 -99.5t41 -99.5t99 -41.5zM-630 1283q-95 0 -160.5 66.5t-65.5 160.5t66 160.5t160 66.5t161 -65.5t67 -161.5t-66.5 -161.5t-161.5 -65.5z" />
    <glyph glyph-name="hungarumlautcmb" unicode="&#x30b;" 
d="M-601 1283l240 321h191l-320 -321h-111zM-953 1283l241 321h191l-321 -321h-111z" />
    <glyph glyph-name="caroncmb" unicode="&#x30c;" 
d="M-279 1604l-241 -321h-218l-241 321h148l201 -202h2l201 202h148z" />
    <glyph glyph-name="verticallineabovecmb" unicode="&#x30d;" 
d="M-555 1283h-148v370h148v-370z" />
    <glyph glyph-name="dblverticallineabovecmb" unicode="&#x30e;" 
d="M-383 1283h-148v370h148v-370zM-728 1283h-148v370h148v-370z" />
    <glyph glyph-name="dblgravecmb" unicode="&#x30f;" 
d="M-656 1283h-111l-321 321h192zM-304 1283h-111l-321 321h191z" />
    <glyph glyph-name="candrabinducmb" unicode="&#x310;" 
d="M-629 1431q178 0 210 148h123q-15 -134 -106 -215t-227 -81t-226.5 80.5t-106.5 215.5h123q32 -148 210 -148zM-728 1672v197h198v-197h-198z" />
    <glyph glyph-name="breveinvertedcmb" unicode="&#x311;" 
d="M-629 1456q-178 0 -210 -173h-123q15 146 106 233.5t227 87.5t226.5 -87.5t106.5 -233.5h-123q-32 173 -210 173z" />
    <glyph glyph-name="commaturnedabovecmb" unicode="&#x312;" 
d="M-607 1497v-17h76v-197h-197v171q0 263 197 283v-59q-76 -21 -76 -181z" />
    <glyph glyph-name="commaabovecmb" unicode="&#x313;" 
d="M-652 1523v17h-76v197h197v-171q0 -263 -197 -283v59q76 21 76 181z" />
    <glyph glyph-name="commareversedabovecmb" unicode="&#x314;" 
d="M-728 1566v171h197v-197h-76v-17q0 -160 76 -181v-59q-197 20 -197 283z" />
    <glyph glyph-name="commaaboverightcmb" unicode="&#x315;" 
d="M-121 1523v17h-76v197h197v-171q0 -263 -197 -283v59q76 21 76 181z" />
    <glyph glyph-name="gravebelowcmb" unicode="&#x316;" 
d="M-389 -518h-148l-321 321h228z" />
    <glyph glyph-name="acutebelowcmb" unicode="&#x317;" 
d="M-870 -518l241 321h228l-321 -321h-148z" />
    <glyph glyph-name="lefttackbelowcmb" unicode="&#x318;" 
d="M-819 -500v111h271v192h111v-494h-111v191h-271z" />
    <glyph glyph-name="righttackbelowcmb" unicode="&#x319;" 
d="M-819 -691v494h111v-192h271v-111h-271v-191h-111z" />
    <glyph glyph-name="leftangleabovecmb" unicode="&#x31a;" 
d="M-123 1086v382h-370v111h493v-493h-123z" />
    <glyph glyph-name="horncmb" unicode="&#x31b;" horiz-adv-x="123" 
d="M-198 767v97q161 0 161 222v98h148v-49q0 -172 -80 -270t-222 -98h-7z" />
    <glyph glyph-name="ringhalfleftbelowcmb" unicode="&#x31c;" 
d="M-491 -651h-49q-95 0 -161 66.5t-66 160.5t66.5 160.5t160.5 66.5h49v-111h-49q-48 0 -82 -34t-34 -82t34 -82t82 -34h49v-111z" />
    <glyph glyph-name="uptackbelowcmb" unicode="&#x31d;" 
d="M-901 -580v111h216v272h111v-272h216v-111h-543z" />
    <glyph glyph-name="downtackbelowcmb" unicode="&#x31e;" 
d="M-358 -197v-111h-216v-272h-111v272h-216v111h543z" />
    <glyph glyph-name="plusbelowcmb" unicode="&#x31f;" 
d="M-901 -506v111h216v198h111v-198h216v-111h-216v-197h-111v197h-216z" />
    <glyph glyph-name="minusbelowcmb" unicode="&#x320;" 
d="M-901 -530v333h99v-111h345v111h99v-333h-99v111h-345v-111h-99z" />
    <glyph glyph-name="hookpalatalizedbelowcmb" unicode="&#x321;" 
d="M0 0v-92q0 -154 -85 -241t-236 -87q-73 0 -148 21v154q62 -27 125 -27q147 0 147 217v55h197z" />
    <glyph glyph-name="hookretroflexbelowcmb" unicode="&#x322;" 
d="M-469 0h197v-55q0 -217 147 -217q63 0 125 27v-154q-75 -21 -148 -21q-151 0 -236 87t-85 241v92z" />
    <glyph glyph-name="dotbelowcmb" unicode="&#x323;" 
d="M-393 -666v198h197v-198h-197z" />
    <glyph glyph-name="dieresisbelowcmb" unicode="&#x324;" 
d="M-518 -370v173h173v-173h-173zM-913 -370v173h173v-173h-173z" />
    <glyph glyph-name="ringbelowcmb" unicode="&#x325;" 
d="M-630 -565q59 0 100 41.5t41 99.5t-41.5 99t-99.5 41t-99 -41t-41 -99t40.5 -99.5t99.5 -41.5zM-630 -651q-95 0 -160.5 66.5t-65.5 160.5t66 160.5t160 66.5t160.5 -66.5t66.5 -161.5t-66 -160.5t-161 -65.5z" />
    <glyph glyph-name="commabelowcmb" unicode="&#x326;" 
d="M-317 -610v16h-76v198h197v-172q0 -262 -197 -282v59q76 22 76 181z" />
    <glyph glyph-name="cedillacmb" unicode="&#x327;" 
d="M-533 -271q0 96 -187 96l95 175h97l-60 -109q78 0 136 -47.5t58 -113.5t-58.5 -114t-136.5 -48t-152 21v81q46 -15 105 -15q103 0 103 74z" />
    <glyph glyph-name="ogonekcmb" unicode="&#x328;" 
d="M-620 -180q0 -95 115 -95q56 0 91 15v-81q-60 -29 -138 -29q-204 0 -204 159q0 125 158 211h107q-129 -77 -129 -180z" />
    <glyph glyph-name="verticallinebelowcmb" unicode="&#x329;" 
d="M-555 -568h-148v371h148v-371z" />
    <glyph glyph-name="bridgebelowcmb" unicode="&#x32a;" 
d="M-753 -518v321h543v-321h-111v197h-321v-197h-111z" />
    <glyph glyph-name="dblarchinvertedbelowcmb" unicode="&#x32b;" 
d="M-820 -494q-97 0 -162 80t-79 217h123q28 -173 121 -173q116 0 126 173h123q10 -173 127 -173q93 0 120 173h124q-14 -137 -79 -217t-162 -80q-117 0 -191 157q-75 -157 -191 -157z" />
    <glyph glyph-name="caronbelowcmb" unicode="&#x32c;" 
d="M-279 -197l-241 -321h-218l-241 321h148l201 -202h2l201 202h148z" />
    <glyph glyph-name="circumflexbelowcmb" unicode="&#x32d;" 
d="M-979 -518l241 321h218l241 -321h-148l-201 201h-2l-201 -201h-148z" />
    <glyph glyph-name="brevebelowcmb" unicode="&#x32e;" 
d="M-629 -345q178 0 210 148h123q-15 -135 -106 -216t-227 -81t-226.5 81t-106.5 216h123q32 -148 210 -148z" />
    <glyph glyph-name="breveinvertedbelowcmb" unicode="&#x32f;" 
d="M-629 -346q-178 0 -210 -148h-123q15 135 106 216t227 81t226.5 -81t106.5 -216h-123q-32 148 -210 148z" />
    <glyph glyph-name="tildebelowcmb" unicode="&#x330;" 
d="M-777 -197q73 0 135 -39l60 -37q56 -35 86 -35q69 0 77 111h123q-11 -235 -185 -235q-73 0 -135 39l-60 37q-56 34 -86 34q-68 0 -77 -110h-123q11 235 185 235z" />
    <glyph glyph-name="macronbelowcmb" unicode="&#x331;" 
d="M-950 -370v148h642v-148h-642z" />
    <glyph glyph-name="lowlinecmb" unicode="&#x332;" 
d="M-1258 -580v148h1258v-148h-1258z" />
    <glyph glyph-name="dbllowlinecmb" unicode="&#x333;" 
d="M-1258 -901v124h1258v-124h-1258zM-1258 -555v123h1258v-123h-1258z" />
    <glyph glyph-name="tildeoverlaycmb" unicode="&#x334;" 
d="M-999 444h-148q0 145 76.5 236.5t196.5 91.5q88 0 193 -64l132 -80q119 -73 161 -73q129 0 129 180h148q0 -144 -76.5 -236t-196.5 -92q-88 0 -193 64l-132 81q-119 73 -160 73q-130 0 -130 -181z" />
    <glyph glyph-name="strokeshortoverlaycmb" unicode="&#x335;" 
d="M-1147 481v148h1036v-148h-1036z" />
    <glyph glyph-name="strokelongoverlaycmb" unicode="&#x336;" 
d="M-1258 481v148h1258v-148h-1258z" />
    <glyph glyph-name="solidusshortcmb" unicode="&#x337;" 
d="M-1147 -25l890 1135h146l-888 -1135h-148z" />
    <glyph glyph-name="soliduslongcmb" unicode="&#x338;" 
d="M-1477 -37l1190 1554h172l-1189 -1554h-173z" />
    <glyph glyph-name="ringhalfrightbelowcmb" unicode="&#x339;" 
d="M-767 -651v111h49q49 0 82.5 34t33.5 82t-33.5 82t-82.5 34h-49v111h49q95 0 161 -66.5t66 -160.5t-66 -160.5t-161 -66.5h-49z" />
    <glyph glyph-name="squarebelowcmb" unicode="&#x33b;" 
d="M-654 -518h345v222h-345v-222zM-753 -617v420h543v-420h-543z" />
    <glyph glyph-name="seagullbelowcmb" unicode="&#x33c;" 
d="M-438 -197q97 0 162 -80t79 -217h-124q-27 173 -120 173q-117 0 -127 -173h-123q-10 173 -126 173q-93 0 -121 -173h-123q14 137 79 217t162 80q116 0 191 -157q75 157 191 157z" />
    <glyph glyph-name="xabovecmb" unicode="&#x33d;" 
d="M-891 1269l192 192l-192 192h139l123 -122l122 122h139l-192 -192l192 -192h-139l-122 122l-123 -122h-139z" />
    <glyph glyph-name="tildeverticalcmb" unicode="&#x33e;" 
d="M-636 1407q0 22 -23 41l-55 46q-56 50 -56 102t109 141h151q-112 -81 -112 -124q0 -22 24 -42l54 -46q56 -48 56 -101t-109 -141h-151q112 80 112 124z" />
    <glyph glyph-name="dbloverlinecmb" unicode="&#x33f;" 
d="M-1258 1926v148h1258v-148h-1258zM-1258 1604v148h1258v-148h-1258z" />
    <glyph glyph-name="gravetonecmb" unicode="&#x340;" 
d="M-806 1579h-148l-321 321h228z" />
    <glyph glyph-name="acutetonecmb" unicode="&#x341;" 
d="M-452 1579l241 321h228l-321 -321h-148z" />
    <glyph glyph-name="perispomenigreekcmb" unicode="&#x342;" 
d="M-765 1554q78 0 140 -46l67 -50q61 -45 88 -45q70 0 70 141h104q-13 -271 -197 -271q-78 0 -140 46l-67 51q-60 45 -87 45q-70 0 -70 -142h-105q13 271 197 271z" />
    <glyph glyph-name="koroniscmb" unicode="&#x343;" 
d="M-790 1283v86l31 1q160 0 160 92t-176 92h-15v148q345 0 345 -212q0 -207 -345 -207z" />
    <glyph glyph-name="dialytikatonoscmb" unicode="&#x344;" 
d="M-746 1369l209 420h229l-303 -420h-135zM-437 1283v173h172v-173h-172zM-993 1283v173h173v-173h-173z" />
    <glyph glyph-name="ypogegrammenigreekcmb" unicode="&#x345;" 
d="M-501 -299q56 0 98 32v-126q-83 -39 -163 -39t-113 44t-33 154v135h154v-79l1 -49q0 -72 56 -72z" />
    <glyph glyph-name="bridgeabovecmb" unicode="&#x346;" 
d="M-753 1283v321h543v-321h-111v197h-321v-197h-111z" />
    <glyph glyph-name="equalsignbelowcmb" unicode="&#x347;" 
d="M-950 -592v123h642v-123h-642zM-950 -321v124h642v-124h-642z" />
    <glyph glyph-name="uni0348" unicode="&#x348;" 
d="M-383 -568h-148v371h148v-371zM-728 -568h-148v371h148v-371z" />
    <glyph glyph-name="leftanglebelowcmb" unicode="&#x349;" 
d="M-845 -321v124h432v-395h-124v271h-308z" />
    <glyph glyph-name="nottildecmb" unicode="&#x34a;" 
d="M-761 1483q-69 0 -78 -110h-123q12 234 186 234q59 0 137 -40l65 130l77 -39l-68 -136q42 -25 68 -25q70 0 78 110h123q-11 -234 -186 -234q-59 0 -137 40l-65 -130l-77 39l68 136q-41 25 -68 25z" />
    <glyph glyph-name="homotheticcmb" unicode="&#x34b;" 
d="M-752 1283v123h123v-123h-123zM-629 1715v123h123v-123h-123zM-777 1678q73 0 135 -39l60 -37q56 -34 86 -34q69 0 77 110h123q-11 -235 -185 -235q-73 0 -135 39l-60 37q-56 35 -86 35q-68 0 -77 -111h-123q11 235 185 235z" />
    <glyph glyph-name="almostequaltocmb" unicode="&#x34c;" 
d="M-777 1863q73 0 135 -39l60 -37q56 -34 86 -34q69 0 77 110h123q-11 -235 -185 -235q-73 0 -135 39l-60 37q-56 35 -86 35q-68 0 -77 -111h-123q11 235 185 235zM-777 1517q73 0 135 -38l60 -37q56 -35 86 -35q69 0 77 110h123q-11 -234 -185 -234q-73 0 -135 39l-60 37
q-56 34 -86 34q-68 0 -77 -110h-123q11 234 185 234z" />
    <glyph glyph-name="leftrightarrowcmb" unicode="&#x34d;" 
d="M-801 -420l74 -148l-342 198l342 197l-74 -148h345l-74 148l342 -197l-342 -198l74 148h-345z" />
    <glyph glyph-name="upwardsarrowcmb" unicode="&#x34e;" 
d="M-579 -588h-99v197l-148 -74l197 342l198 -342l-148 74v-197z" />
    <glyph glyph-name="graphemejoinercmb" unicode="&#x34f;" 
 />
    <glyph glyph-name="rightarrowheadabovecmb" unicode="&#x350;" 
d="M-839 1283v124l207 103v2l-207 103v124l456 -228z" />
    <glyph glyph-name="lefthalfringabovecmb" unicode="&#x351;" 
d="M-491 1283h-49q-95 0 -161 66t-66 161t66.5 161t160.5 66h49v-111h-49q-48 0 -82 -34t-34 -82t34 -82t82 -34h49v-111z" />
    <glyph glyph-name="fermatacmb" unicode="&#x352;" 
d="M-629 1653q-178 0 -210 -148h-123q15 135 106 215.5t227 80.5t226.5 -80.5t106.5 -215.5h-123q-32 148 -210 148zM-715 1283v173h172v-173h-172z" />
    <glyph glyph-name="xbelowcmb" unicode="&#x353;" 
d="M-891 -581l192 192l-192 192h139l123 -122l122 122h139l-192 -192l192 -192h-139l-122 122l-123 -122h-139z" />
    <glyph glyph-name="leftarrowheadbelowcmb" unicode="&#x354;" 
d="M-383 -654l-456 228l456 229v-125l-207 -103v-1l207 -104v-124z" />
    <glyph glyph-name="rightarrowheadbelowcmb" unicode="&#x355;" 
d="M-839 -654v124l207 104v1l-207 103v125l456 -229z" />
    <glyph glyph-name="rightarrowheaduparrowbelowcmb" unicode="&#x356;" 
d="M-186 -654h-124l-103 207h-1l-104 -207h-124l228 457zM-1049 -654v124l207 104v1l-207 103v125l456 -229z" />
    <glyph glyph-name="righthalfringabovecmb" unicode="&#x357;" 
d="M-767 1283v111h49q49 0 82.5 34t33.5 82t-33.5 82t-82.5 34h-49v111h49q95 0 161 -66t66 -161t-66 -161t-161 -66h-49z" />
    <glyph glyph-name="brevedoublecmb" unicode="&#x35d;" 
d="M-1 1431q486 0 770 197h193q-135 -157 -396.5 -251t-565.5 -94t-562.5 93t-399.5 252h194q281 -197 767 -197z" />
    <glyph glyph-name="macrondoublecmb" unicode="&#x35e;" 
d="M-950 1308v148h1900v-148h-1900z" />
    <glyph glyph-name="macronbelowdoublecmb" unicode="&#x35f;" 
d="M-950 -370v148h1900v-148h-1900z" />
    <glyph glyph-name="tildedoublecmb" unicode="&#x360;" 
d="M-518 1602q178 0 417 -59l245 -61q253 -62 375 -62t206 53t101 129h124q-23 -152 -139 -236t-294 -84t-417 59l-244 61q-253 62 -375 62t-206 -53t-102 -129h-123q23 153 138.5 236.5t293.5 83.5z" />
    <glyph glyph-name="breveinverteddoublecmb" unicode="&#x361;" 
d="M0 1604q400 0 667 -90.5t283 -230.5h-124q-13 75 -245.5 124t-580.5 49t-580.5 -49t-246.5 -124h-123q15 140 282.5 230.5t667.5 90.5z" />
    <glyph glyph-name="doublerightwardsarrowbelowcmb" unicode="&#x362;" 
d="M-950 -432v123h1626l-68 136l342 -197l-342 -198l68 136h-1626z" />
    <glyph glyph-name="acmb" unicode="&#x363;" 
d="M-581 1498h-25q-132 0 -132 -80q0 -63 64 -63q44 0 93 42v101zM-707 1283q-127 0 -127 123q0 149 235 149h18v47q1 71 -71 71t-144 -38v73q79 32 155 32q157 0 157 -136v-196q0 -60 37 -60q5 0 15 2l4 -55q-33 -12 -62 -12q-67 0 -82 61h-3q-65 -61 -132 -61z" />
    <glyph glyph-name="ecmb" unicode="&#x364;" 
d="M-538 1556q0 117 -82 117t-93 -117h175zM-589 1283q-103 0 -165 63.5t-62 165.5t55.5 165t145.5 63q175 0 175 -247h-274q14 -140 145 -140q54 0 128 27v-73q-82 -24 -148 -24z" />
    <glyph glyph-name="icmb" unicode="&#x365;" 
d="M-679 1806v89h99v-89h-99zM-679 1293v437h99v-437h-99z" />
    <glyph glyph-name="ocmb" unicode="&#x366;" 
d="M-629 1674q-112 0 -112 -162t112 -162t112 162t-112 162zM-632 1283q-214 1 -214 229t217 228t217 -228t-220 -229z" />
    <glyph glyph-name="ucmb" unicode="&#x367;" 
d="M-543 1293v82q-60 -92 -151 -92q-125 0 -125 136v311h99v-284q0 -82 55 -82q65 0 122 87v279h99v-437h-99z" />
    <glyph glyph-name="ccmb" unicode="&#x368;" 
d="M-595 1283q-96 0 -155.5 63.5t-59.5 166.5q0 227 228 227q50 0 118 -16v-76q-71 22 -113 22q-126 0 -126 -158t132 -158q54 0 111 25v-75q-74 -21 -135 -21z" />
    <glyph glyph-name="dcmb" unicode="&#x369;" 
d="M-629 1672q-105 0 -105 -154t94 -154q59 0 114 70v187q-51 51 -103 51zM-526 1293v82q-47 -92 -144 -92q-169 0 -169 216q0 109 51 175t130 66t132 -57v242h99v-632h-99z" />
    <glyph glyph-name="hcmb" unicode="&#x36a;" 
d="M-813 1293v632h99v-277q60 92 151 92q125 0 125 -136v-311h-99v284q0 82 -55 82q-64 0 -122 -87v-279h-99z" />
    <glyph glyph-name="mcmb" unicode="&#x36b;" 
d="M-941 1293v437h96v-82q55 92 151 92t117 -92q58 92 147 92q121 0 121 -131v-316h-97v291q0 76 -56 76t-115 -82v-285h-96v291q-1 76 -57 76t-115 -82v-285h-96z" />
    <glyph glyph-name="rcmb" unicode="&#x36c;" 
d="M-751 1293v437h99v-82q46 92 137 92q12 0 24 -3v-89q-22 8 -41 8q-72 0 -120 -80v-283h-99z" />
    <glyph glyph-name="tcmb" unicode="&#x36d;" 
d="M-575 1283q-135 0 -135 137v243h-52v67h52v76l98 11v-87h104v-67h-104v-228q0 -83 70 -83q15 0 38 5v-63q-40 -11 -71 -11z" />
    <glyph glyph-name="vcmb" unicode="&#x36e;" 
d="M-680 1293l-165 437h102l124 -327l128 327h80l-171 -437h-98z" />
    <glyph glyph-name="xcmb" unicode="&#x36f;" 
d="M-845 1293l158 223l-152 214h114l110 -153l103 153h86l-144 -218l156 -219h-114l-115 159l-113 -159h-89z" />
    <glyph glyph-name="numeralsigngreek" unicode="&#x374;" horiz-adv-x="592" 
d="M123 888l197 592h222l-296 -592h-123z" />
    <glyph glyph-name="numeralsignlowergreek" unicode="&#x375;" horiz-adv-x="592" 
d="M99 -197l197 592h222l-296 -592h-123z" />
    <glyph glyph-name="ypogegrammeni" unicode="&#x37a;" horiz-adv-x="1258" 
d="M757 -299q56 0 98 32v-126q-83 -39 -163 -39t-113 44t-33 154v135h154v-79l1 -49q0 -72 56 -72z" />
    <glyph glyph-name="questiongreek" unicode="&#x37e;" horiz-adv-x="648" 
d="M225 888v198h197v-198h-197zM296 -23v23h-71v197h197v-166q0 -303 -197 -352v74q71 37 71 224z" />
    <glyph glyph-name="tonos" unicode="&#x384;" horiz-adv-x="1258" 
d="M395 1283l210 419h228l-302 -419h-136z" />
    <glyph glyph-name="diaeresistonos" unicode="&#x385;" horiz-adv-x="1258" 
d="M512 1369l209 420h229l-303 -420h-135zM821 1283v173h172v-173h-172zM265 1283v173h173v-173h-173z" />
    <glyph glyph-name="Alphatonos" unicode="&#x386;" horiz-adv-x="1413" 
d="M0 1160l209 419h229l-303 -419h-135zM436 566h505l-252 638zM17 0l587 1480h208l578 -1480h-226l-162 410h-627l-163 -410h-195z" />
    <glyph glyph-name="anoteleia" unicode="&#x387;" horiz-adv-x="648" 
d="M200 491v247h247v-247h-247z" />
    <glyph glyph-name="Epsilontonos" unicode="&#x388;" horiz-adv-x="1469" 
d="M0 1160l210 419h228l-302 -419h-136zM549 0v1480h827v-157h-617v-475h517v-155h-517v-536h660v-157h-870z" />
    <glyph glyph-name="Etatonos" unicode="&#x389;" horiz-adv-x="1863" 
d="M0 1160l210 419h228l-302 -419h-136zM549 0v1480h210v-624h704v624h210v-1480h-210v699h-704v-699h-210z" />
    <glyph glyph-name="Iotatonos" unicode="&#x38a;" horiz-adv-x="949" 
d="M0 1160l210 419h228l-302 -419h-136zM549 0v1480h210v-1480h-210z" />
    <glyph glyph-name="Omicrontonos" unicode="&#x38c;" horiz-adv-x="1852" 
d="M0 1160l210 419h228l-302 -419h-136zM1054 120q222 0 346 163t124 457t-125 457t-345 163t-344.5 -164t-124.5 -454t123.5 -456t345.5 -166zM1054 -37q-316 0 -503 213.5t-187 565.5t189 563.5t503 211.5t503 -210.5t189 -566.5t-189 -566.5t-505 -210.5z" />
    <glyph glyph-name="Upsilontonos" unicode="&#x38e;" horiz-adv-x="1793" 
d="M0 1160l210 419h228l-302 -419h-136zM1024 0v479q0 352 -147.5 590.5t-364.5 238.5v172h14q490 0 625 -597q92 245 258.5 407t354.5 190v-148q-231 -66 -386.5 -311.5t-155.5 -541.5v-479h-198z" />
    <glyph glyph-name="Omegatonos" unicode="&#x38f;" horiz-adv-x="1869" 
d="M0 1160l210 419h228l-302 -419h-136zM315 0v154h407q-358 270 -358 678q0 300 194 492.5t497 192.5t497 -192t194 -493q0 -409 -358 -678h407v-154h-611v154q340 229 340 664q0 255 -125 400t-345 145t-344 -145t-124 -401q0 -433 339 -663v-154h-610z" />
    <glyph glyph-name="iotadiaeresistonos" unicode="&#x390;" horiz-adv-x="753" 
d="M209 1369l210 420h228l-302 -420h-136zM518 1283v173h173v-173h-173zM-37 1283v173h172v-173h-172zM510 -25q-168 0 -240.5 94.5t-72.5 312.5v704h197v-685q0 -152 35 -215t115 -63t159 42v-148q-92 -42 -193 -42z" />
    <glyph glyph-name="Alpha" unicode="&#x391;" horiz-adv-x="1413" 
d="M1163 0l-161 410h-627l-163 -410h-195l587 1480h208l578 -1480h-227zM941 566l-252 638l-253 -638h505z" />
    <glyph glyph-name="Beta" unicode="&#x392;" horiz-adv-x="1178" 
d="M399 830h67q168 0 260 72t93 203q0 218 -338 218h-82v-493zM399 157h43q231 0 299 29q130 56 130 196t-118 228t-295 87h-59v-540zM191 0v1480h384q223 0 341 -84t118 -242q0 -269 -304 -383q363 -111 363 -401q0 -180 -120 -275t-346 -95h-436z" />
    <glyph glyph-name="Gamma" unicode="&#x393;" horiz-adv-x="1043" 
d="M191 0v1480h828v-160h-618v-1320h-210z" />
    <glyph glyph-name="Deltagreek" unicode="&#x394;" horiz-adv-x="1434" 
d="M230 185h928l-463 1064zM49 0v185l565 1295h208l563 -1295v-185h-1336z" />
    <glyph glyph-name="Epsilon" unicode="&#x395;" horiz-adv-x="1110" 
d="M191 0v1480h827v-157h-617v-475h517v-155h-517v-536h660v-157h-870z" />
    <glyph glyph-name="Zeta" unicode="&#x396;" horiz-adv-x="1238" 
d="M95 0v168l795 1155h-746v157h998v-157l-795 -1155h795v-168h-1047z" />
    <glyph glyph-name="Eta" unicode="&#x397;" horiz-adv-x="1505" 
d="M191 0v1480h210v-624h704v624h210v-1480h-210v699h-704v-699h-210z" />
    <glyph glyph-name="Theta" unicode="&#x398;" horiz-adv-x="1592" 
d="M518 685v160h556v-160h-556zM795 120q222 0 346 163t124 457t-124 457t-345 163t-345 -164t-124 -454t123 -456t345 -166zM794 -37q-316 0 -503 213.5t-187 565.5t188.5 563.5t503.5 211.5t503.5 -210.5t188.5 -566.5t-189 -566.5t-505 -210.5z" />
    <glyph glyph-name="Iota" unicode="&#x399;" horiz-adv-x="590" 
d="M190 0v1480h210v-1480h-210z" />
    <glyph glyph-name="Kappa" unicode="&#x39a;" horiz-adv-x="1337" 
d="M191 0v1480h197v-728l599 728h211l-580 -706l683 -774h-266l-647 750v-750h-197z" />
    <glyph glyph-name="Lambda" unicode="&#x39b;" horiz-adv-x="1333" 
d="M19 0l537 1480h197l561 -1480h-211l-467 1232l-446 -1232h-171z" />
    <glyph glyph-name="Mu" unicode="&#x39c;" horiz-adv-x="1764" 
d="M191 0v1480h291l410 -1145l422 1145h260v-1480h-196v1204l-408 -1105h-203l-396 1108v-1207h-180z" />
    <glyph glyph-name="Nu" unicode="&#x39d;" horiz-adv-x="1513" 
d="M191 0v1480h206l745 -1143v1143h180v-1480h-205l-746 1143v-1143h-180z" />
    <glyph glyph-name="Xi" unicode="&#x39e;" horiz-adv-x="1271" 
d="M105 1289v191h1061v-191h-1061zM203 675v192h864v-192h-864zM49 0v191h1172v-191h-1172z" />
    <glyph glyph-name="Omicron" unicode="&#x39f;" horiz-adv-x="1591" 
d="M795 120q222 0 346 164t124 456q-1 294 -125 457t-344 163t-345 -164q-124 -164 -124 -454t123 -456t345 -166zM794 -37q-316 -1 -502 213q-188 214 -188 566t188 564t504 211q314 0 503 -211q189 -210 189 -566t-189 -566t-505 -211z" />
    <glyph glyph-name="Pi" unicode="&#x3a0;" horiz-adv-x="1506" 
d="M191 0v1480h1124v-1480h-210v1323h-704v-1323h-210z" />
    <glyph glyph-name="Rho" unicode="&#x3a1;" horiz-adv-x="1132" 
d="M399 747h85q187 0 289 86t102 231t-80 202t-267 57h-129v-576zM191 0v1480h403q268 0 385 -90t117 -312t-160 -356t-444 -134h-93v-588h-208z" />
    <glyph glyph-name="Sigma" unicode="&#x3a3;" horiz-adv-x="1215" 
d="M62 0v188l574 574l-549 561v157h1042v-157h-767l523 -534l-601 -601h876v-188h-1098z" />
    <glyph glyph-name="Tau" unicode="&#x3a4;" horiz-adv-x="1295" 
d="M543 0v1323h-525v157h1260v-157h-525v-1323h-210z" />
    <glyph glyph-name="Upsilon" unicode="&#x3a5;" horiz-adv-x="1307" 
d="M41 1480q488 0 624 -597q91 244 258 406.5t355 190.5v-148q-231 -66 -386.5 -311t-155.5 -542v-479h-198v479q0 352 -147.5 590.5t-364.5 238.5v172h15z" />
    </font>
</defs>
</svg>
