<?xml version="1.0" standalone="no"?>
<!DOCTYPE svg PUBLIC "-//W3C//DTD SVG 20010904//EN"
 "http://www.w3.org/TR/2001/REC-SVG-20010904/DTD/svg10.dtd">
<svg version="1.0" xmlns="http://www.w3.org/2000/svg"
 width="336.000000pt" height="336.000000pt" viewBox="0 0 336.000000 336.000000"
 preserveAspectRatio="xMidYMid meet">
<metadata>
Created by potrace 1.11, written by Peter Selinger 2001-2013
</metadata>
<g transform="translate(0.000000,336.000000) scale(0.100000,-0.100000)"
fill="#000000" stroke="none">
<path d="M2695 2268 c-185 -17 -315 -118 -361 -278 -3 -14 -12 -28 -18 -32 -8
-6 -7 -8 1 -8 9 0 10 -7 4 -22 -4 -13 -7 -36 -6 -51 1 -15 -1 -30 -5 -32 -4
-3 -5 -19 -3 -37 10 -73 8 -124 -7 -143 -14 -19 -14 -19 4 -5 18 14 18 13 11
-10 -9 -26 -9 -28 -2 -72 3 -18 0 -25 -7 -21 -6 4 -5 -1 3 -10 9 -12 10 -17 2
-17 -7 0 -9 -5 -6 -10 12 -19 12 -169 0 -163 -5 4 -2 -2 7 -13 24 -28 24 -29
8 -49 -8 -11 -10 -16 -5 -13 6 4 17 -3 24 -14 11 -18 11 -20 -3 -15 -8 3 -18
1 -22 -5 -4 -7 -3 -8 4 -4 7 4 12 2 12 -4 0 -7 7 -9 16 -6 14 5 15 4 4 -9 -10
-12 -9 -15 6 -15 16 0 17 -2 4 -10 -13 -9 -8 -14 11 -12 4 1 5 -7 2 -17 -3
-12 2 -20 16 -24 14 -3 19 -10 15 -21 -6 -16 4 -20 36 -17 10 1 11 -1 3 -6 -8
-6 -7 -14 6 -28 28 -33 56 -46 70 -32 7 7 12 8 11 2 -4 -20 0 -35 10 -35 5 0
6 8 3 17 -6 15 -5 16 9 3 9 -8 14 -18 12 -22 -2 -4 1 -10 7 -14 8 -4 9 -3 5 4
-10 17 23 15 40 -3 8 -8 21 -12 29 -9 7 3 23 0 35 -6 18 -9 25 -8 41 6 17 15
19 16 25 0 5 -12 10 -14 19 -6 7 6 21 7 30 3 14 -5 16 -3 10 8 -5 8 0 7 12 -4
20 -17 20 -17 18 8 -2 14 1 23 6 19 5 -3 7 -9 4 -14 -3 -4 4 -10 15 -13 11 -3
23 0 27 5 4 7 1 8 -7 3 -9 -5 -11 -4 -6 4 6 9 11 9 24 -1 12 -10 14 -10 8 0
-5 8 0 12 18 12 14 0 28 5 32 12 4 7 3 8 -4 4 -17 -10 -15 -1 2 13 11 9 16 9
22 0 5 -8 3 -9 -6 -4 -9 5 -11 4 -6 -4 10 -16 29 -2 21 16 -4 13 -3 14 9 4 10
-8 16 -9 21 -1 3 6 11 7 17 4 7 -4 8 -2 4 5 -6 9 -12 9 -24 -1 -15 -12 -16
-11 -3 5 7 9 20 17 28 17 7 0 16 7 19 15 4 8 10 12 15 9 5 -3 6 2 3 10 -4 11
0 16 11 16 15 0 16 2 4 17 -10 12 -11 15 -1 9 7 -4 19 -2 27 4 17 15 20 30 4
30 -5 0 -8 -4 -4 -9 3 -5 1 -12 -4 -15 -5 -4 -8 2 -6 11 2 10 4 22 4 26 1 5 5
6 9 3 5 -3 9 1 9 9 0 8 -5 12 -10 8 -5 -3 -4 4 2 15 16 30 14 49 -6 55 -10 3
-47 19 -83 36 l-64 29 -18 -29 c-36 -59 -128 -95 -214 -84 -56 7 -144 56 -144
81 0 8 -5 14 -11 14 -6 0 -9 7 -5 15 3 8 1 15 -4 15 -5 0 -7 9 -5 20 2 11 -1
22 -7 26 -6 4 -5 10 3 15 11 7 11 9 -1 9 -13 0 -13 1 0 10 8 5 10 10 4 10 -9
0 -12 48 -4 58 7 7 5 49 -3 60 -6 8 -5 12 4 12 11 0 11 2 -1 10 -13 9 -13 10
0 10 9 0 11 3 5 8 -9 6 -12 42 -5 57 7 14 5 51 -3 63 -6 8 -5 12 4 12 11 0 11
2 -1 10 -13 9 -13 10 0 10 12 0 12 2 2 9 -17 11 -17 21 0 32 10 7 10 9 -2 9
-13 0 -13 1 0 10 13 9 13 11 0 20 -14 9 -7 15 15 10 6 -1 5 4 -1 10 -12 12 3
60 19 60 5 0 5 -5 1 -12 -5 -7 -3 -8 5 -3 9 5 10 10 2 18 -14 14 5 37 32 37
11 0 17 3 14 7 -9 8 30 36 41 29 4 -2 14 -1 22 4 8 5 22 4 33 -2 14 -7 17 -7
13 1 -12 19 12 12 24 -6 11 -17 11 -17 6 -1 -3 10 -1 20 5 23 5 4 9 3 8 -2 -3
-19 2 -27 10 -14 7 11 12 10 29 -7 15 -15 23 -17 32 -8 10 8 11 8 5 -3 -6 -11
-4 -13 8 -8 10 3 17 3 17 -2 0 -13 36 -51 49 -51 7 0 9 -5 5 -12 -5 -9 -2 -8
9 1 15 12 17 12 12 0 -4 -10 1 -15 14 -15 16 0 18 3 9 21 l-11 20 23 -20 c18
-15 22 -16 18 -4 -4 9 -1 16 8 16 7 0 11 -4 8 -9 -3 -4 1 -5 9 -2 8 3 20 15
26 27 6 12 9 14 7 5 -4 -12 -1 -15 10 -11 8 3 13 11 11 17 -2 6 3 17 12 23 14
11 14 14 1 23 -10 6 -11 10 -2 10 21 0 13 29 -23 86 -77 120 -224 180 -400
162z m-185 -1224 c0 -3 -13 4 -30 16 -16 12 -30 24 -30 26 0 3 14 -4 30 -16
17 -12 30 -24 30 -26z m194 -63 c-4 -3 -9 0 -11 7 -3 6 -10 9 -15 6 -7 -4 -8
-2 -4 5 6 9 11 9 22 0 8 -6 12 -15 8 -18z"/>
<path d="M535 2260 c-93 -19 -167 -58 -219 -114 -22 -25 -63 -111 -70 -146 -2
-14 -5 -25 -6 -25 -2 0 -3 -28 -5 -62 -1 -40 2 -63 9 -63 6 0 4 -5 -4 -11 -11
-8 -12 -12 -2 -16 6 -2 12 -9 12 -14 0 -6 -4 -7 -10 -4 -5 3 -10 1 -10 -4 0
-6 4 -11 8 -11 5 0 14 -12 21 -27 10 -26 10 -27 -4 -9 -8 11 -15 15 -15 9 0
-7 7 -18 15 -27 8 -8 15 -20 15 -26 0 -6 4 -8 10 -5 6 3 10 -1 10 -10 0 -10 5
-13 13 -9 8 5 7 2 -2 -9 -8 -10 -11 -20 -7 -24 3 -3 6 -1 6 6 0 9 5 7 16 -3 8
-9 13 -20 10 -25 -3 -4 6 -7 20 -5 20 2 23 0 14 -11 -9 -11 -6 -12 12 -8 15 3
19 2 11 -4 -9 -6 -7 -12 8 -22 15 -8 19 -9 14 -1 -6 9 -2 9 14 1 11 -7 21 -17
21 -24 0 -8 3 -8 9 1 7 11 9 11 14 -2 4 -9 12 -16 19 -16 9 0 9 3 -2 11 -12 9
-11 9 5 4 11 -4 25 -8 32 -8 7 0 10 -4 8 -8 -3 -3 3 -13 12 -20 12 -10 14 -10
9 -1 -11 18 5 14 20 -5 13 -17 14 -17 8 2 -4 15 -2 14 9 -4 14 -23 15 -24 20
-5 4 18 5 18 6 0 1 -15 3 -16 17 -6 13 11 16 10 21 -8 3 -12 9 -19 14 -16 5 3
7 9 5 13 -3 4 1 8 9 8 8 0 12 -4 10 -8 -3 -4 6 -14 20 -23 17 -11 26 -13 31
-5 4 8 12 3 21 -12 8 -13 12 -16 9 -7 -3 10 -1 20 5 23 5 4 9 3 8 -2 -4 -25 3
-35 20 -30 16 4 18 0 15 -22 -4 -21 -3 -24 7 -13 22 21 33 13 13 -9 -19 -22
-19 -22 4 -10 21 11 23 11 14 -6 -5 -10 -7 -24 -4 -32 3 -9 0 -11 -8 -6 -9 5
-11 4 -6 -4 10 -16 -10 -39 -56 -62 -46 -23 -160 -29 -225 -10 -41 11 -102 67
-104 96 -1 8 -3 20 -4 25 -1 6 -3 15 -4 20 -1 6 -44 10 -110 9 -95 -1 -110 -3
-109 -17 0 -9 -3 -27 -5 -39 -3 -13 -1 -25 4 -29 6 -4 6 -11 -2 -20 -9 -11 -9
-14 1 -14 8 0 11 -11 8 -31 -3 -20 0 -33 9 -36 7 -3 18 -15 24 -27 9 -19 9
-19 -4 -3 -24 29 -29 19 -6 -12 12 -16 18 -34 14 -41 -6 -9 -2 -9 13 -1 15 8
23 8 28 -1 4 -7 3 -8 -4 -4 -7 4 -12 2 -12 -4 0 -7 9 -14 20 -17 11 -3 20 -10
20 -15 0 -5 -4 -6 -10 -3 -16 10 -11 -1 7 -16 11 -10 14 -10 9 -1 -4 6 -2 12
3 12 6 0 11 -7 11 -15 0 -14 12 -19 33 -16 4 0 7 -7 7 -17 0 -14 2 -15 10 -2
8 12 10 10 11 -10 0 -22 1 -23 8 -6 6 17 8 17 14 4 4 -11 15 -15 32 -14 14 2
36 -4 48 -14 15 -13 28 -15 48 -10 23 7 27 6 21 -8 -5 -14 -3 -15 10 -4 13 10
17 10 21 0 4 -10 7 -10 18 1 8 8 9 11 3 8 -6 -3 -11 0 -11 8 0 21 27 -2 28
-24 0 -12 2 -11 9 4 5 11 9 14 9 6 1 -10 4 -11 14 -2 10 8 17 7 25 -1 9 -9 16
-7 30 5 14 13 21 14 30 5 9 -9 16 -7 31 6 14 13 21 14 27 5 5 -8 3 -10 -6 -4
-9 5 -11 4 -6 -3 9 -15 46 7 46 26 0 10 4 10 16 -2 17 -17 25 -20 23 -8 -3 19
2 33 10 28 12 -8 41 4 41 16 0 6 -8 4 -17 -3 -16 -13 -17 -12 -5 3 8 10 17 17
20 16 4 -1 18 2 30 6 17 6 22 13 19 27 -3 10 0 22 5 26 7 3 8 1 4 -5 -4 -7 -1
-12 7 -12 10 0 14 7 10 23 -4 18 -3 19 6 7 9 -12 11 -11 11 8 0 14 6 22 18 22
13 0 14 2 3 9 -9 6 -10 11 -2 15 15 10 14 29 -1 21 -7 -4 -5 0 6 9 10 8 15 19
11 25 -3 6 -1 11 4 11 6 0 11 12 11 26 0 17 -4 23 -12 18 -9 -5 -8 -2 1 9 8
10 11 20 8 24 -4 3 -2 12 4 19 7 8 7 14 -1 19 -8 5 -5 12 7 22 10 8 12 12 6 8
-7 -3 -13 -3 -14 2 0 4 -2 22 -4 38 -7 63 -46 144 -91 188 -63 62 -125 93
-281 138 -74 22 -150 47 -167 56 -37 19 -68 52 -60 64 3 5 0 9 -7 9 -7 0 -4 7
7 16 10 8 13 13 7 9 -19 -9 -16 10 4 26 14 12 16 12 8 0 -5 -10 -4 -12 4 -7 9
6 9 11 -1 24 -8 10 -8 13 -1 9 6 -4 14 -1 16 5 4 10 6 10 6 1 1 -7 5 -13 11
-13 5 0 7 6 4 14 -7 18 12 30 22 15 5 -8 3 -9 -6 -4 -9 6 -11 4 -5 -5 6 -10
12 -7 27 11 16 21 17 21 12 4 -5 -19 -5 -19 9 -2 15 18 32 24 22 7 -8 -13 1
-13 25 0 13 7 21 7 25 0 5 -8 12 -7 23 2 9 7 13 8 10 3 -4 -6 0 -19 8 -30 8
-10 14 -14 14 -8 0 6 11 10 23 9 18 -1 23 -6 20 -21 -4 -17 -3 -17 6 -5 9 13
11 12 11 -3 0 -10 4 -15 10 -12 6 4 7 -1 3 -11 -4 -11 -3 -15 4 -11 7 5 9 0 6
-13 -3 -12 0 -20 6 -20 7 0 9 5 5 12 -4 7 -3 8 5 4 9 -6 9 -11 -1 -24 -11 -14
-10 -15 6 -9 17 7 17 6 5 -9 -13 -16 -12 -16 9 -5 19 10 22 9 22 -6 0 -14 2
-15 9 -4 7 11 10 10 14 -5 4 -16 5 -16 6 -2 1 14 10 16 60 12 44 -4 62 -2 73
10 9 8 17 14 19 13 3 -1 -2 3 -9 9 -10 9 -10 13 -1 16 10 3 16 52 9 68 -1 3
-4 14 -5 25 -5 37 -43 112 -75 149 -39 44 -102 82 -168 103 -55 17 -210 24
-267 13z m189 -786 c3 -8 2 -12 -4 -9 -6 3 -10 10 -10 16 0 14 7 11 14 -7z
m-3 -481 c13 -16 12 -17 -3 -4 -10 7 -18 15 -18 17 0 8 8 3 21 -13z"/>
<path d="M1244 2236 c-3 -8 -3 -20 1 -26 3 -5 2 -10 -2 -10 -5 0 -8 -21 -7
-47 1 -27 -3 -54 -9 -62 -9 -12 -9 -13 1 -7 6 4 12 2 12 -3 0 -6 -4 -11 -10
-11 -5 0 -10 -5 -10 -11 0 -5 5 -7 10 -4 6 3 10 -1 10 -10 0 -10 -5 -13 -12
-9 -7 4 -8 3 -4 -5 12 -19 14 -61 4 -67 -4 -3 -6 -10 -2 -15 9 -16 15 -61 7
-56 -10 7 -9 -34 1 -51 4 -7 2 -12 -3 -12 -6 0 -11 -5 -11 -11 0 -5 5 -7 10
-4 6 3 10 -1 10 -10 0 -10 -5 -13 -12 -9 -7 4 -8 3 -4 -5 12 -19 14 -61 4 -67
-4 -3 -6 -10 -2 -15 9 -16 15 -61 7 -56 -10 7 -9 -34 1 -51 4 -7 2 -12 -3 -12
-6 0 -11 -5 -11 -11 0 -5 5 -7 10 -4 6 3 10 -1 10 -10 0 -10 -5 -13 -12 -9 -7
4 -8 3 -4 -5 12 -19 14 -61 4 -67 -4 -3 -5 -10 -2 -16 10 -15 11 -118 2 -118
-4 0 -8 -5 -8 -11 0 -5 5 -7 10 -4 6 3 10 -1 10 -10 0 -9 -5 -13 -11 -9 -8 5
-8 1 0 -13 7 -14 7 -24 -2 -33 -9 -10 -9 -11 1 -6 6 4 12 2 12 -3 0 -6 -4 -11
-10 -11 -5 0 -10 -5 -10 -11 0 -5 3 -8 8 -6 4 3 8 -10 8 -29 1 -20 -3 -31 -9
-27 -5 3 -7 2 -4 -4 11 -18 16 -63 6 -63 -5 0 -9 -5 -9 -11 0 -5 5 -7 10 -4 6
3 10 -1 10 -10 0 -9 -4 -13 -10 -10 -6 3 -7 -1 -4 -9 3 -9 11 -16 16 -16 6 0
5 -6 -2 -15 -10 -12 -9 -16 4 -21 9 -3 13 -11 9 -18 -4 -6 2 -4 12 4 14 11 19
12 22 3 3 -7 9 -13 14 -13 6 0 8 4 4 9 -3 5 0 13 6 17 7 4 9 3 5 -4 -3 -6 -2
-13 4 -17 5 -3 10 0 10 7 0 8 3 9 8 3 10 -14 45 -16 54 -2 5 8 8 8 8 -3 0 -13
1 -13 10 0 8 13 10 13 10 1 0 -11 4 -10 16 5 8 10 12 12 8 4 -7 -13 -5 -13 8
-2 13 10 17 10 21 0 2 -7 4 -1 3 14 -1 16 -5 24 -11 20 -6 -4 -3 0 6 9 11 10
14 21 9 30 -6 9 -3 20 8 33 11 12 12 16 3 11 -11 -6 -13 -3 -9 13 4 13 1 22
-5 22 -8 0 -8 3 -2 8 10 6 11 30 5 57 -1 6 -2 12 -1 15 8 21 7 70 -1 70 -6 0
-5 7 2 15 7 8 8 15 3 15 -10 0 -11 28 -2 45 5 9 4 31 -1 38 -7 8 -5 49 3 54 5
3 3 9 -4 14 -8 5 -9 9 -3 9 11 0 12 35 1 46 -3 4 3 14 15 24 17 13 18 17 5 17
-9 0 -13 -5 -10 -10 3 -6 1 -7 -6 -3 -9 6 -9 11 0 22 9 11 8 14 -2 14 -12 0
-12 2 -1 9 8 4 13 12 13 16 -2 13 28 15 36 3 3 -6 1 -8 -4 -5 -6 4 -16 0 -23
-8 -10 -12 -7 -14 16 -12 27 2 33 -7 37 -54 1 -9 7 -15 14 -12 7 3 10 10 6 16
-4 6 -1 7 6 2 9 -5 9 -11 3 -17 -12 -12 5 -58 20 -58 5 0 6 5 2 12 -4 6 -3 8
3 5 6 -4 8 -17 6 -29 -3 -14 4 -32 16 -45 12 -12 21 -28 21 -36 0 -7 5 -18 12
-25 7 -7 8 -12 4 -12 -5 0 -3 -6 4 -14 6 -8 19 -12 28 -9 15 6 15 5 3 -10 -9
-12 -10 -17 -2 -17 7 0 9 -4 6 -10 -4 -6 1 -7 12 -3 16 6 16 5 4 -11 -13 -15
-12 -18 5 -22 11 -3 26 -14 33 -26 7 -11 8 -17 2 -13 -6 3 -11 1 -11 -4 0 -6
5 -11 10 -11 6 0 10 -7 10 -15 0 -8 5 -15 11 -15 5 0 8 -4 5 -9 -9 -14 5 -41
21 -41 10 0 13 -6 9 -16 -4 -11 1 -18 15 -21 16 -4 17 -8 7 -14 -10 -7 -10 -9
0 -9 6 0 12 -10 13 -22 0 -13 3 -17 6 -10 2 6 9 12 14 12 4 0 6 -7 2 -16 -4
-10 1 -17 16 -21 12 -3 18 -10 14 -17 -4 -6 1 -5 10 3 14 11 17 11 17 0 0 -11
2 -11 10 1 9 13 10 13 10 0 0 -9 3 -11 8 -5 9 13 53 15 45 2 -3 -5 0 -7 8 -5
8 3 22 1 33 -4 14 -8 17 -7 11 3 -6 9 -3 10 10 5 15 -5 16 -4 5 9 -17 21 -5
19 16 -2 17 -17 17 -17 12 5 -6 20 -4 22 10 10 13 -11 15 -11 9 4 -4 11 -2 17
6 15 6 -1 11 9 11 26 -1 15 3 27 9 27 5 0 4 7 -3 15 -10 12 -10 18 0 30 9 10
9 15 1 15 -6 0 -11 5 -11 11 0 5 4 8 8 5 5 -3 9 1 9 9 0 8 -4 12 -9 9 -13 -8
-10 10 5 25 10 11 10 13 0 7 -16 -9 -16 -1 -2 26 6 11 7 18 1 15 -11 -8 -10
62 1 81 5 7 4 12 -2 12 -6 0 -11 7 -11 16 0 8 5 12 11 8 8 -5 8 -1 0 13 -7 14
-7 23 1 31 8 8 9 12 1 12 -12 0 -12 48 0 68 5 6 4 12 -1 12 -11 0 -10 49 1 68
5 7 3 12 -4 12 -8 0 -7 5 2 17 10 11 10 14 2 9 -16 -9 -16 -1 -2 26 8 15 8 19
0 14 -12 -8 -15 6 -4 18 10 10 13 37 3 31 -11 -7 -8 55 3 73 5 7 4 12 -2 12
-6 0 -11 5 -11 11 0 5 4 8 8 5 5 -3 9 1 9 9 0 8 -4 12 -9 9 -13 -8 -10 10 5
25 10 11 10 13 0 7 -16 -9 -16 -1 -2 26 6 11 7 18 1 14 -5 -3 -9 5 -9 19 0 14
4 22 9 19 6 -4 6 2 -1 13 -7 14 -7 23 1 31 8 8 9 12 1 12 -12 0 -12 48 0 68 5
7 4 12 -2 12 -6 0 -11 7 -11 16 0 9 5 12 12 8 7 -5 8 -3 3 6 -9 15 -12 36 -14
101 l-1 46 -115 1 c-63 0 -115 0 -115 -1 -14 -66 -18 -536 -5 -541 6 -3 1 -5
-9 -5 -20 -1 -20 -1 0 -17 18 -15 18 -15 0 -10 -14 5 -16 3 -9 -6 14 -17 14
-116 0 -125 -6 -3 -7 -1 -3 5 4 7 2 12 -4 12 -6 0 -9 4 -6 9 4 5 1 11 -5 13
-6 2 -95 152 -199 333 l-187 330 -112 3 c-91 2 -112 0 -117 -12z m403 -782
c-3 -3 -12 -4 -19 -1 -8 3 -5 6 6 6 11 1 17 -2 13 -5z m43 -95 c0 -5 -5 -9
-12 -9 -6 0 -8 3 -5 7 4 3 1 13 -6 22 -11 14 -10 14 6 2 9 -7 17 -17 17 -22z
m125 -217 c-3 -3 -11 0 -18 7 -9 10 -8 11 6 5 10 -3 15 -9 12 -12z m-550 -122
c3 -6 -1 -7 -9 -4 -18 7 -21 14 -7 14 6 0 13 -4 16 -10z"/>
<path d="M2665 1991 c-3 -6 3 -9 14 -8 11 0 17 5 15 9 -7 11 -22 10 -29 -1z"/>
<path d="M2605 1950 c-3 -5 -1 -10 4 -10 6 0 11 5 11 10 0 6 -2 10 -4 10 -3 0
-8 -4 -11 -10z"/>
<path d="M495 1531 c-3 -5 -2 -12 3 -15 5 -3 9 1 9 9 0 17 -3 19 -12 6z"/>
<path d="M1733 1235 c0 -8 4 -12 9 -9 5 3 6 10 3 15 -9 13 -12 11 -12 -6z"/>
</g>
</svg>
